<?xml version="1.0" encoding="utf-8"?>
<!-- Generator: Adobe Illustrator 21.0.0, SVG Export Plug-In . SVG Version: 6.00 Build 0)  -->
<svg version="1.1" id="Layer_1" xmlns="http://www.w3.org/2000/svg" xmlns:xlink="http://www.w3.org/1999/xlink" x="0px" y="0px"
	 viewBox="0 0 800 400" style="enable-background:new 0 0 800 400;" xml:space="preserve">
<style type="text/css">
	.st0{fill:#455A64;}
	.st1{fill:#E0E0E0;}
	.st2{fill:#263238;}
	.st3{fill:#B5DEFF;}
	.st4{fill:#FAFAFA;}
</style>
<g id="freepik--Device--inject-2">
	<path class="st0" d="M62.8,31.1h488.6c6.1,0,11,4.9,11,11V346c0,13.1-10.7,24-24,24l0,0H74c-13.1,0-24-10.7-24-24V43.7
		C50,36.7,55.8,31.1,62.8,31.1z"/>
	<path class="st0" d="M28.6,344.9h555.2l0,0v7.1c0,12.5-10,22.5-22.5,22.5l0,0H51.2c-12.5,0-22.5-10-22.5-22.5l0,0v-7.1H28.6z"/>
	<rect x="63.8" y="44.6" class="st1" width="483.5" height="286.2"/>
	<polygon class="st2" points="255.7,344.9 262.6,355.9 359.5,355.9 365.9,344.9 	"/>
	<rect x="50.2" y="344.7" class="st2" width="512.4" height="1.6"/>
	<rect x="78.1" y="61.2" class="st2" width="456" height="269.6"/>
	<path class="st1" d="M113.1,322.9c-0.2,0-0.5-57.5-0.5-128.3s0.2-128.3,0.5-128.3s0.3,57.3,0.3,128.3S113.4,322.9,113.1,322.9z"/>
	<path class="st1" d="M103.9,89.6c-2.5,0.5-4.9,0.5-7.4,0.5c-2.5,0.2-4.9,0-7.4-0.5C94,88.9,99,88.9,103.9,89.6L103.9,89.6z"/>
	<path class="st1" d="M104.5,75c-2.5,0.5-4.9,0.5-7.4,0.5c-2.5,0.2-4.9,0-7.4-0.5C94.5,74.5,99.6,74.5,104.5,75L104.5,75z"/>
	<path class="st1" d="M103.9,105.2c-4.9,0.5-9.9,0.5-14.8,0C94,104.7,99,104.7,103.9,105.2z"/>
	<path class="st1" d="M103.9,121c-4.9,0.5-9.9,0.5-14.8,0c2.5-0.5,4.9-0.5,7.4-0.5C99,120.3,101.4,120.5,103.9,121z"/>
	<path class="st1" d="M103.9,136.6c-4.9,0.5-9.9,0.5-14.8,0c2.5-0.5,4.9-0.5,7.4-0.5S101.4,136.2,103.9,136.6z"/>
	<path class="st1" d="M103.9,152.3c-4.9,0.5-9.9,0.5-14.8,0c2.5-0.5,4.9-0.5,7.4-0.5C99,151.7,101.4,151.8,103.9,152.3z"/>
	<path class="st1" d="M103.9,167.9c-2.5,0.5-4.9,0.7-7.4,0.5c-2.5,0.2-4.9,0-7.4-0.5C94,167.4,99,167.4,103.9,167.9L103.9,167.9z"/>
	<path class="st1" d="M103.9,183.7c-2.5,0.5-4.9,0.5-7.4,0.5c-2.5,0.2-4.9,0-7.4-0.5C94,183.1,99,183.1,103.9,183.7L103.9,183.7z"/>
	<path class="st1" d="M103.9,199.3c-2.5,0.5-4.9,0.5-7.4,0.5c-2.5,0.2-4.9,0-7.4-0.5C94,198.8,99,198.8,103.9,199.3L103.9,199.3z"/>
	<path class="st1" d="M103.9,215.1c-2.5,0.5-4.9,0.5-7.4,0.5c-2.5,0.2-4.9,0-7.4-0.5C94,214.4,99,214.4,103.9,215.1L103.9,215.1z"/>
	<path class="st1" d="M103.9,230.7c-4.9,0.5-9.9,0.5-14.8,0C94,230.2,99,230.2,103.9,230.7z"/>
	<path class="st1" d="M103.9,246.5c-4.9,0.5-9.9,0.5-14.8,0c2.5-0.5,4.9-0.5,7.4-0.5C99,245.8,101.4,246,103.9,246.5z"/>
	<path class="st1" d="M103.9,262.1c-4.9,0.5-9.9,0.5-14.8,0c2.5-0.5,4.9-0.5,7.4-0.5S101.4,261.7,103.9,262.1z"/>
	<path class="st1" d="M103.9,277.8c-4.9,0.5-9.9,0.5-14.8,0c2.5-0.5,4.9-0.5,7.4-0.5C99,277.2,101.4,277.3,103.9,277.8z"/>
	<path class="st1" d="M103.9,293.4c-4.9,0.5-9.9,0.5-14.8,0c2.5-0.5,4.9-0.7,7.4-0.5C99,293,101.4,293.1,103.9,293.4z"/>
	<path class="st1" d="M103.9,309.2c-2.5,0.5-4.9,0.5-7.4,0.5c-2.5,0.2-4.9,0-7.4-0.5C94,308.6,99,308.6,103.9,309.2L103.9,309.2z"/>
	<path class="st3" d="M163.3,88.6c0,0.2-8.5,0.5-19.2,0.5s-19.2-0.2-19.2-0.5s8.5-0.5,19.2-0.5C154.6,88.3,163.3,88.4,163.3,88.6z"
		/>
	<path class="st3" d="M163.3,309.2c0,0.2-8.5,0.5-19.2,0.5s-19.2-0.2-19.2-0.5s8.5-0.5,19.2-0.5
		C154.6,308.7,163.3,308.9,163.3,309.2z"/>
	<path class="st3" d="M216.9,121c0,0.2-16.1,0.5-36,0.5s-36-0.2-36-0.5s16.1-0.5,36-0.5S216.9,120.6,216.9,121z"/>
	<path class="st1" d="M300,121c0,0.2-16.1,0.5-36,0.5s-36-0.2-36-0.5s16.1-0.5,36-0.5S300,120.6,300,121z"/>
	<path class="st1" d="M268.2,136.6c0,0.2-23.8,0.5-53.1,0.5s-53.1-0.2-53.1-0.5s23.7-0.5,53.1-0.5S268.2,136.4,268.2,136.6z"/>
	<path class="st1" d="M268.2,152.3c0,0.2-23.8,0.5-53.1,0.5s-53.1-0.2-53.1-0.5s23.7-0.5,53.1-0.5S268.2,152,268.2,152.3z"/>
	<path class="st1" d="M341.3,199.3c0,0.2-23.7,0.5-53.1,0.5s-53.1-0.2-53.1-0.5s23.8-0.5,53.1-0.5S341.3,199.2,341.3,199.3z"/>
	<path class="st1" d="M309.7,167.9c0,0.2-23.8,0.5-53.1,0.5s-53.1-0.2-53.1-0.5s23.7-0.5,53.1-0.5S309.7,167.8,309.7,167.9z"/>
	<path class="st1" d="M439.2,167.9c0,0.2-23.8,0.5-53.1,0.5s-53.1-0.2-53.1-0.5s23.8-0.5,53.1-0.5S439.2,167.8,439.2,167.9z"/>
	<path class="st4" d="M394.2,136.6c0,0.2-23.8,0.5-53.1,0.5s-53.1-0.2-53.1-0.5s23.7-0.5,53.1-0.5S394.2,136.4,394.2,136.6z"/>
	<path class="st4" d="M467.4,199.3c0,0.2-23.8,0.5-53.1,0.5s-53.1-0.2-53.1-0.5s23.8-0.5,53.1-0.5S467.4,199.2,467.4,199.3z"/>
	<path class="st0" d="M452.8,152.3c0,0.2-36.8,0.5-82.3,0.5s-82.3-0.2-82.3-0.5s36.8-0.5,82.3-0.5S452.8,152,452.8,152.3z"/>
	<path class="st4" d="M163.3,105.2c0,0.2-8.5,0.5-19.2,0.5s-19.2-0.2-19.2-0.5s8.5-0.5,19.2-0.5C154.6,104.9,163.3,105,163.3,105.2z
		"/>
	<path class="st4" d="M163.3,293.4c0,0.2-8.5,0.5-19.2,0.5s-19.2-0.2-19.2-0.5s8.5-0.5,19.2-0.5
		C154.6,293.1,163.3,293.3,163.3,293.4z"/>
	<path class="st4" d="M182.4,167.9c0,0.2-8.5,0.5-19.2,0.5s-19.2-0.2-19.2-0.5s8.5-0.5,19.2-0.5S182.4,167.8,182.4,167.9z"/>
	<path class="st3" d="M490.4,167.9c0,0.2-8.5,0.5-19.2,0.5s-19.2-0.2-19.2-0.5s8.5-0.5,19.2-0.5S490.4,167.8,490.4,167.9z"/>
	<path class="st3" d="M216.9,230.7c0,0.2-16.1,0.5-36,0.5s-36-0.2-36-0.5s16.1-0.5,36-0.5S216.9,230.4,216.9,230.7z"/>
	<path class="st1" d="M300,230.7c0,0.2-16.1,0.5-36,0.5s-36-0.2-36-0.5s16.1-0.5,36-0.5S300,230.4,300,230.7z"/>
	<path class="st1" d="M268.2,246.3c0,0.2-23.8,0.5-53.1,0.5s-53.1-0.2-53.1-0.5s23.7-0.5,53.1-0.5S268.2,246.1,268.2,246.3z"/>
	<path class="st1" d="M268.2,262.1c0,0.2-23.8,0.5-53.1,0.5s-53.1-0.2-53.1-0.5s23.7-0.5,53.1-0.5S268.2,261.7,268.2,262.1z"/>
	<path class="st1" d="M309.7,277.7c0,0.2-23.8,0.5-53.1,0.5s-53.1-0.2-53.1-0.5s23.7-0.5,53.1-0.5S309.7,277.5,309.7,277.7z"/>
	<path class="st1" d="M439.2,277.7c0,0.2-23.8,0.5-53.1,0.5S333,278,333,277.7s23.8-0.5,53.1-0.5S439.2,277.5,439.2,277.7z"/>
	<path class="st4" d="M394.2,246.3c0,0.2-23.8,0.5-53.1,0.5s-53.1-0.2-53.1-0.5s23.7-0.5,53.1-0.5S394.2,246.1,394.2,246.3z"/>
	<path class="st0" d="M452.8,262.1c0,0.2-36.8,0.5-82.3,0.5s-82.3-0.2-82.3-0.5s36.8-0.5,82.3-0.5S452.8,261.7,452.8,262.1z"/>
	<path class="st4" d="M182.4,277.7c0,0.2-8.5,0.5-19.2,0.5S144,278,144,277.7s8.5-0.5,19.2-0.5S182.4,277.5,182.4,277.7z"/>
	<path class="st3" d="M490.4,277.7c0,0.2-8.5,0.5-19.2,0.5S452,278,452,277.7s8.5-0.5,19.2-0.5S490.4,277.5,490.4,277.7z"/>
</g>
</svg>
