<svg xmlns="http://www.w3.org/2000/svg" width="21.201" height="21.2" viewBox="0 0 21.201 21.2">
	<path id="Path_1371" data-name="Path 1371" d="M-5328.683,1553.9a2.591,2.591,0,0,1,2.591,2.59v16.02a2.591,2.591,0,0,1-2.591,2.59h-4.408v-7.988h2.758l.524-3.421h-3.282v-2.22a1.711,1.711,0,0,1,1.929-1.848h1.492v-2.912a18.2,18.2,0,0,0-2.648-.231c-2.7,0-4.471,1.638-4.471,4.6v2.607h-3v3.421h3v7.988h-7.913a2.591,2.591,0,0,1-2.59-2.59v-16.02a2.591,2.591,0,0,1,2.59-2.59Z" transform="translate(5347.292 -1553.895)" fill="#fdfbf4" fill-rule="evenodd"/>
  </svg>
  