<svg xmlns="http://www.w3.org/2000/svg" width="21.201" height="21.2" viewBox="0 0 21.201 21.2">
    <path id="Path_1372" data-name="Path 1372" d="M-5328.683,1838.605a2.591,2.591,0,0,1,2.591,2.59v16.019a2.591,2.591,0,0,1-2.591,2.59h-16.02a2.591,2.591,0,0,1-2.59-2.59V1841.2a2.591,2.591,0,0,1,2.59-2.59Zm-11.966,17.526v-9.346h-3.107v9.346Zm11.2,0v-5.359c0-2.871-1.532-4.206-3.577-4.206a3.083,3.083,0,0,0-2.8,1.543v-1.323h-3.106c.041.877,0,9.346,0,9.346h3.106v-5.219a2.156,2.156,0,0,1,.1-.758,1.7,1.7,0,0,1,1.6-1.136c1.124,0,1.573.857,1.573,2.113v5Zm-12.735-13.853a1.622,1.622,0,0,0-1.757,1.615,1.608,1.608,0,0,0,1.717,1.615h.02a1.621,1.621,0,0,0,1.758-1.615,1.616,1.616,0,0,0-1.737-1.615Z" transform="translate(5347.292 -1838.605)" fill="#fdfbf4" fill-rule="evenodd"/>
  </svg>
  