<svg xmlns="http://www.w3.org/2000/svg" width="22.711" height="18.466" viewBox="0 0 22.711 18.466">
    <path id="Path_1373" data-name="Path 1373" d="M-5410.5,624.3c.009.194.009.4.009.6a13.175,13.175,0,0,1-13.265,13.264,12.988,12.988,0,0,1-7.125-2.107,8.531,8.531,0,0,0,1.112.067,9.375,9.375,0,0,0,5.792-1.992,4.656,4.656,0,0,1-4.352-3.238,4.489,4.489,0,0,0,.879.087,4.68,4.68,0,0,0,1.229-.164,4.668,4.668,0,0,1-3.742-4.573v-.057a4.6,4.6,0,0,0,2.108.58,4.639,4.639,0,0,1-2.079-3.877,4.67,4.67,0,0,1,.628-2.341,13.22,13.22,0,0,0,9.61,4.873,4.246,4.246,0,0,1-.126-1.063,4.663,4.663,0,0,1,4.661-4.66,4.635,4.635,0,0,1,3.4,1.469,9.442,9.442,0,0,0,2.959-1.131,4.66,4.66,0,0,1-2.049,2.582,9.472,9.472,0,0,0,2.677-.735A9.515,9.515,0,0,1-5410.5,624.3Z" transform="translate(5430.883 -619.696)" fill="#fdfbf4" fill-rule="evenodd"/>
  </svg>
  