<svg xmlns="http://www.w3.org/2000/svg" xmlns:xlink="http://www.w3.org/1999/xlink" width="216.533" height="52.639" viewBox="0 0 216.533 52.639">
  <defs>
    <clipPath id="clip-path">
      <rect id="Rectangle_1" data-name="Rectangle 1" width="216.533" height="52.639" transform="translate(0 0)" fill="none"/>
    </clipPath>
  </defs>
  <g id="Groupe_1" data-name="Groupe 1" transform="translate(0 0)" clip-path="url(#clip-path)">
    <path id="Tracé_2" data-name="Tracé 2" d="M41.64,12.9H32.108V3.24A3.241,3.241,0,0,0,28.868,0H3.277A3.259,3.259,0,0,0,0,2.766V40.524c0,3.116,1.451,4.567,3.24,4.567H15.358l.037,7.488,3.925.06-.037-7.548H41.6a3.241,3.241,0,0,0,3.24-3.24l.037-25.709A3.24,3.24,0,0,0,41.64,12.9m-23.063-.014a3.237,3.237,0,0,0-3.235,3.24v25.02H3.925V4.043H28.22v8.844Zm22.437,28.26h-21.7l-.076-24.392,21.777.048Z" fill="#ffc550"/>
    <path id="Tracé_3" data-name="Tracé 3" d="M203.588,40.416a8.884,8.884,0,0,1-3.236-3.4,10.009,10.009,0,0,1-1.18-4.888,10.045,10.045,0,0,1,1.163-4.871,8.715,8.715,0,0,1,3.152-3.354,8.5,8.5,0,0,1,4.518-1.214,8.211,8.211,0,0,1,4.6,1.248,8.323,8.323,0,0,1,2.916,3.236,9.166,9.166,0,0,1,.843,5.933H202.476a5.9,5.9,0,0,0,.893,3.034,5.652,5.652,0,0,0,2.124,1.972,5.891,5.891,0,0,0,2.815.691,5.356,5.356,0,0,0,3.068-.843A6.649,6.649,0,0,0,213.4,35.8l2.63,1.348a7.422,7.422,0,0,1-2.9,3.2,9.52,9.52,0,0,1-9.54.067m.843-13.619a5.6,5.6,0,0,0-1.888,3.607h10.585a4.884,4.884,0,0,0-.741-2.562,5,5,0,0,0-1.855-1.736,5.2,5.2,0,0,0-2.527-.624,5.366,5.366,0,0,0-3.574,1.315" fill="#ffc550"/>
    <path id="Tracé_4" data-name="Tracé 4" d="M158.163,40.754a6.413,6.413,0,0,1-2.41-2.545,7.826,7.826,0,0,1-.877-3.759V23.089h3.135V34.113a4.475,4.475,0,0,0,1.214,3.286,4.251,4.251,0,0,0,3.169,1.231,4.177,4.177,0,0,0,3.152-1.281,4.852,4.852,0,0,0,1.23-3.506V23.089h3.169v18.17h-3.068V39.035a5.537,5.537,0,0,1-2.157,1.938,6.566,6.566,0,0,1-3.034.691,6.765,6.765,0,0,1-3.523-.91" fill="#ffc550"/>
    <path id="Tracé_5" data-name="Tracé 5" d="M133.941,29.385V48.046h3.168V38.775a6.618,6.618,0,0,0,2.664,2.176A9.085,9.085,0,0,0,148,40.463a9.02,9.02,0,0,0,3.2-3.39,9.868,9.868,0,0,0,1.179-4.835,9.933,9.933,0,0,0-1.179-4.87,9.023,9.023,0,0,0-3.2-3.391,8.593,8.593,0,0,0-4.618-1.245,8.264,8.264,0,0,0-3.674.789,7.676,7.676,0,0,0-2.6,2.064V22.992h-3.168ZM148.3,35.522a5.943,5.943,0,0,1-2.123,2.309,5.957,5.957,0,0,1-6.12,0,5.982,5.982,0,0,1-2.158-2.309,7.234,7.234,0,0,1,0-6.59,6.177,6.177,0,0,1,2.158-2.309,5.612,5.612,0,0,1,3.049-.86,5.707,5.707,0,0,1,3.071.842,6.006,6.006,0,0,1,2.123,2.309,7.05,7.05,0,0,1,.776,3.324,6.937,6.937,0,0,1-.776,3.284" fill="#ffc550"/>
    <path id="Tracé_6" data-name="Tracé 6" d="M72.373,32.894h3.254l-.1.526c-.016.084-1.7,8.244-11.449,8.244-7.871,0-11.456-6.155-11.456-11.873v-.035c0-5.719,3.585-11.873,11.456-11.873,9.745,0,11.433,8.16,11.449,8.243l.1.527H72.373l-.109-.283a8.769,8.769,0,0,0-8.1-5.336h-.08c-5.84.045-8.5,4.56-8.5,8.738v0c0,4.178,2.663,8.693,8.5,8.738h.08a8.768,8.768,0,0,0,8.1-5.337Z" fill="#ffc550"/>
    <path id="Tracé_7" data-name="Tracé 7" d="M93.8,38.462a.754.754,0,0,1-.754-.754V28.921a5.92,5.92,0,0,0-.893-3.253,6.117,6.117,0,0,0-2.478-2.191A8.117,8.117,0,0,0,86,22.685a8.535,8.535,0,0,0-3.1.573,8.393,8.393,0,0,0-2.6,1.568c-.056.05-.1.1-.158.156-.02.017-.039.028-.06.047a4.812,4.812,0,0,0-.74.851l-.007.011c-.117.167-.226.339-.326.512-.02.036-.041.071-.06.107a10.568,10.568,0,0,0-.845,1.988l3.309-.015a4.934,4.934,0,0,1,1.753-2.09,4.767,4.767,0,0,1,2.764-.809,4.31,4.31,0,0,1,2.882.927,3.009,3.009,0,0,1,1.1,2.41v.843l-6.2,1.011a7.7,7.7,0,0,0-4.5,2.04,5.215,5.215,0,0,0-1.433,3.691,4.636,4.636,0,0,0,1.7,3.725,6.544,6.544,0,0,0,4.366,1.433,8.165,8.165,0,0,0,3.573-.758A7.091,7.091,0,0,0,89.977,38.9v.144a2.216,2.216,0,0,0,2.215,2.216h2.875v-2.8ZM89.909,33.54A5.5,5.5,0,0,1,89.2,36.3a5.157,5.157,0,0,1-1.989,1.972,5.982,5.982,0,0,1-3,.725,3.393,3.393,0,0,1-2.242-.741,2.314,2.314,0,0,1-.893-1.855,2.736,2.736,0,0,1,.792-1.989A4.588,4.588,0,0,1,84.414,33.3l5.495-.91Z" fill="#ffc550"/>
    <path id="Tracé_8" data-name="Tracé 8" d="M130.014,38.462a.754.754,0,0,1-.754-.754V28.921a5.92,5.92,0,0,0-.893-3.253,6.114,6.114,0,0,0-2.477-2.191,8.125,8.125,0,0,0-3.675-.792,8.53,8.53,0,0,0-3.1.573,8.37,8.37,0,0,0-2.6,1.568,6.058,6.058,0,0,0-1.619,2.241l.006,0a10.589,10.589,0,0,0-.557,1.428l3.309-.015.017-.083a4.945,4.945,0,0,1,1.709-2.007,4.769,4.769,0,0,1,2.764-.809,4.313,4.313,0,0,1,2.883.927,3.012,3.012,0,0,1,1.1,2.41v.843l-6.2,1.011a7.7,7.7,0,0,0-4.5,2.04,5.21,5.21,0,0,0-1.433,3.691,4.638,4.638,0,0,0,1.7,3.725,6.546,6.546,0,0,0,4.367,1.433,8.168,8.168,0,0,0,3.573-.758,7.087,7.087,0,0,0,2.562-2.006v.144a2.216,2.216,0,0,0,2.215,2.216h2.875v-2.8Zm-3.888-4.922a5.5,5.5,0,0,1-.708,2.764,5.153,5.153,0,0,1-1.99,1.972,5.977,5.977,0,0,1-3,.725,3.392,3.392,0,0,1-2.241-.741,2.311,2.311,0,0,1-.893-1.855,2.736,2.736,0,0,1,.792-1.989,4.588,4.588,0,0,1,2.545-1.112l5.5-.91Z" fill="#ffc550"/>
    <path id="Tracé_9" data-name="Tracé 9" d="M177.191,37.46V18.611h-3.275V39.676a1.6,1.6,0,0,0,1.6,1.6H180.7V38.006h-2.965a.546.546,0,0,1-.546-.546" fill="#ffc550"/>
    <path id="Tracé_10" data-name="Tracé 10" d="M189.62,22.684c-1.99,0-6.237,1.048-6.237,4.945,0,6.956,10.908,3.836,10.908,8.507,0,2.246-2.561,2.908-4.671,2.546-2.9-.5-4.248-3.506-4.248-3.506h-3.09a8.132,8.132,0,0,0,7.338,6.386c6.231.511,7.973-3.036,7.973-5.45,0-7-11.153-4.352-11.2-8.428-.02-1.849,2.214-2.436,3.224-2.436a5.591,5.591,0,0,1,4.921,3.334l2.8,0s-.945-5.894-7.72-5.894" fill="#ffc550"/>
    <path id="Tracé_11" data-name="Tracé 11" d="M103.945,22.684c-1.99,0-6.237,1.048-6.237,4.945,0,6.956,10.909,3.836,10.909,8.507,0,2.246-2.562,2.908-4.672,2.546-2.9-.5-4.248-3.506-4.248-3.506h-3.09a8.132,8.132,0,0,0,7.338,6.386c6.231.511,7.973-3.036,7.973-5.45,0-7-11.153-4.352-11.2-8.428-.02-1.849,2.214-2.436,3.224-2.436a5.591,5.591,0,0,1,4.921,3.334l2.8,0s-.945-5.894-7.72-5.894" fill="#ffc550"/>
  </g>
</svg>
