<?xml version="1.0" encoding="utf-8"?>
<!-- Generator: Adobe Illustrator 21.0.0, SVG Export Plug-In . SVG Version: 6.00 Build 0)  -->
<svg version="1.1" id="Layer_1" xmlns="http://www.w3.org/2000/svg" xmlns:xlink="http://www.w3.org/1999/xlink" x="0px" y="0px"
	 viewBox="0 0 2300 600" style="enable-background:new 0 0 2300 600;" xml:space="preserve">
<style type="text/css">
	.st0{fill:none;}
	.st1{stroke:#FFFFFF;}
	.st2{fill:none;stroke:#000000;stroke-width:13;}
</style>
<rect x="639.3" y="197.7" class="st0" width="1610" height="227"/>
<path class="st1" d="M823.9,376.1c0,1.6-1,3.6-3.1,6.2c-18,21.4-41.8,32.1-71.6,32.1c-30.5,0-55.2-10.4-74.1-31.2
	c-18.5-20.1-27.7-45.5-27.7-76.2c0-29.7,9-54.9,27.1-75.6c18.8-21.7,42.8-32.5,71.9-32.5c31.6,0,56.4,9.7,74.4,29.2
	c2,2.1,2.9,4.1,2.9,5.7c0,1.9-3.4,8.7-10.2,20.7c-6.8,11.9-11.1,18.6-12.8,20.1c-0.8,0.8-1.8,1.2-2.9,1.2c-0.5,0-2.9-2-7.3-5.9
	c-5.3-4.7-10.5-8.3-15.5-11c-7.7-3.9-15.7-5.9-24-5.9c-14.4,0-25.8,5.4-34.4,16.1c-7.9,10-11.9,22.3-11.9,36.9
	c0,14.8,4,27.3,11.9,37.4c8.6,10.9,20.1,16.4,34.4,16.4c8.5,0,16.6-1.9,24.2-5.6c5-2.4,10.1-5.9,15.2-10.3c4.3-3.7,6.7-5.6,7.2-5.6
	c1,0,2,0.5,2.9,1.6c1.6,1.8,5.8,7.9,12.7,18.3C820.3,369.1,823.9,375,823.9,376.1z"/>
<path class="st1" d="M1032.9,405.5c0,1.8-1.2,3-3.7,3.7c-2.9,0.8-12,1.2-27.2,1.2c-14,0-23-0.4-27-1.2c-3.3-0.7-5.4-2.9-6.3-6.6
	c-3.3-14.1-5.9-21.6-7.8-22.6c-1.6-0.7-14.6-1-39.3-1c-16.6,0-25.4,0.4-26.5,1.3c-1.7,1.6-3.5,6.8-5.6,15.7
	c-1.9,8.1-4.1,12.5-6.7,13.2c-3.3,0.8-14.5,1.2-33.4,1.2c-14.9,0-22.4-1.4-22.4-4.2c0-2.5,11-33.7,33.1-93.6
	c23.9-64.7,36.9-100.3,39-106.8c1.2-3.7,2.5-5.6,4.1-5.6c2.6,0,6.7,0.2,12.2,0.7s9.6,0.7,12.4,0.7c2.6,0,6.5-0.2,11.6-0.5
	c5.1-0.3,9-0.5,11.5-0.5c1.9,0,3.6,1.6,5.1,4.8c4.8,10.3,18.8,45.4,41.9,105.5C1021.3,371.4,1032.9,402.9,1032.9,405.5z M929,272.1
	c-2.1,4.3-5.5,13.6-10.4,28c-5.3,15.2-7.9,24.2-7.9,26.8c0,1.8,2.9,2.7,8.8,2.9c3,0.2,8,0.3,14.9,0.3c6.4,0,10-0.8,10.7-2.3
	c0.2-0.5,0.3-1.2,0.3-2.1c0-3.2-2.2-12.1-6.7-26.7C934.3,285,931.1,276,929,272.1z"/>
<path class="st1" d="M1147.7,341.8c0,19.8-8.3,36.8-25,51c-14.6,12.5-32.5,20.5-53.5,23.9c-0.8,0.1-1.4,0.1-1.9,0.1
	c-2.2,0-7.2-6.9-14.9-20.6c-7.7-13.7-11.6-22.1-11.6-25.1c0-1.1,0.7-1.8,2.2-2.1c14.2-3.2,23.5-6,28.1-8.2
	c10.2-5.1,15.2-12.6,15.2-22.6c0-6.3-3.3-13.4-10-21.2c-11.5-13.3-17.8-20.7-18.8-22.1c-6.7-10.2-10.1-21.4-10.1-33.7
	c0-17.9,8.3-32.7,24.8-44.5c13.5-9.8,30-16.1,49.7-19c1.1-0.1,1.9-0.1,2.5-0.1c1.5,0,2.6,1.2,3.5,3.5c2.5,7.1,8.4,20,17.7,38.7
	c0.3,0.6,0.4,1.1,0.4,1.5c0,1.7-0.9,2.5-2.6,2.5c-0.8,0-2.1-0.1-4-0.4c-1.9-0.3-3.3-0.4-4.2-0.4c-7,0-13.2,1.6-18.5,4.8
	c-6.3,3.7-9.5,8.9-9.5,15.5c0,6,3.5,13.3,10.5,22c12.4,15.6,18.9,23.8,19.5,24.6C1144.3,320.5,1147.7,331.2,1147.7,341.8z"/>
<path class="st1" d="M1365.3,405.5c0,1.8-1.2,3-3.7,3.7c-2.9,0.8-12,1.2-27.2,1.2c-14,0-23-0.4-27-1.2c-3.3-0.7-5.4-2.9-6.3-6.6
	c-3.3-14.1-5.9-21.6-7.8-22.6c-1.6-0.7-14.6-1-39.3-1c-16.6,0-25.4,0.4-26.5,1.3c-1.7,1.6-3.5,6.8-5.6,15.7
	c-1.9,8.1-4.1,12.5-6.7,13.2c-3.3,0.8-14.5,1.2-33.4,1.2c-14.9,0-22.4-1.4-22.4-4.2c0-2.5,11-33.7,33.1-93.6
	c23.9-64.7,36.9-100.3,39-106.8c1.2-3.7,2.5-5.6,4.1-5.6c2.6,0,6.7,0.2,12.2,0.7s9.6,0.7,12.4,0.7c2.6,0,6.5-0.2,11.6-0.5
	c5.1-0.3,9-0.5,11.5-0.5c1.9,0,3.6,1.6,5.1,4.8c4.8,10.3,18.8,45.4,41.9,105.5C1353.7,371.4,1365.3,402.9,1365.3,405.5z
	 M1261.4,272.1c-2.1,4.3-5.5,13.6-10.4,28c-5.3,15.2-7.9,24.2-7.9,26.8c0,1.8,2.9,2.7,8.8,2.9c3,0.2,8,0.3,14.9,0.3
	c6.4,0,10-0.8,10.7-2.3c0.2-0.5,0.3-1.2,0.3-2.1c0-3.2-2.2-12.1-6.7-26.7C1266.7,285,1263.5,276,1261.4,272.1z"/>
<path class="st1" d="M1555.7,282c0,23.6-6.2,42.8-18.6,57.4c-13.3,15.5-31.6,23.3-54.9,23.3c-3.9,0-9.8-0.2-17.7-0.7
	c-7.9-0.4-13.7-0.7-17.7-0.7c-4.2,0-6.3,1.8-6.3,5.4c0,4.5,0.4,11.2,1.3,20.1s1.3,15.5,1.3,19.9c0,2.2-1,3.4-3.1,3.4
	c-6,0-14.9-0.2-26.8-0.5s-20.9-0.5-26.8-0.5c-2.8,0-4.2-1.4-4.2-4.2c0-10.8,0.2-27.1,0.5-48.9c0.3-21.7,0.5-38,0.5-48.9
	c0-30.7-1.3-62.9-4-96.7l-0.1-2.1c-0.2-1.9,1.3-3,4.4-3.4c7.6-1,24.4-1.5,50.4-1.5c15.3,0,30,0.2,44.1,0.6c23.1,0.7,41.8,8,56,21.8
	C1548.5,240.3,1555.7,259,1555.7,282z M1497.3,284.4c0-22.8-11.1-34.1-33.3-34.1c-15.6,0-23.8,0.9-24.6,2.6c-0.7,1.3-1,12.5-1,33.8
	c0,3,0.1,7.5,0.4,13.4c0.2,5.9,0.4,10.4,0.4,13.4c0,2,8.8,2.9,26.4,2.9C1486.7,316.5,1497.3,305.8,1497.3,284.4z"/>
<path class="st1" d="M1750.7,337.3c0,24.9-3,41.9-8.9,51c-10.9,16.6-38.2,24.9-81.9,24.9c-19.7,0-34.9-1.5-45.6-4.5
	c-17-4.9-28-14.2-33.1-28c-2.5-6.7-3.8-18.8-3.8-36c0-4,0.1-10,0.4-17.9s0.4-13.8,0.4-17.7c0-11.3-0.5-28.3-1.6-51
	c-1.1-22.7-1.6-39.6-1.6-50.8c0-2.3,1-3.5,3.1-3.5c6,0,15,0.2,27,0.7c12.1,0.5,21.1,0.7,27,0.7c2.4,0,3.7,1.1,3.7,3.2
	c0,12.9-0.4,32.2-1.2,57.9c-0.8,25.7-1.2,45-1.2,57.9c0,15.3,1.6,25.7,4.8,31.1c4.3,7.3,13.3,11,27,11c20,0,30-9.7,30-29.2
	c0-14.2-0.3-35.4-1-63.7c-0.7-28.3-1-49.6-1-63.7c0-3,1.2-4.5,3.7-4.5c5.8,0,14.5-0.2,26.1-0.7s20.3-0.7,26.1-0.7
	c2.8,0,4.2,1.2,4.2,3.5c0,11.2-0.5,28.2-1.4,50.8c-0.9,22.7-1.4,39.6-1.4,51c0,3.1,0,7.8,0.1,14.1
	C1750.6,329.4,1750.7,334.1,1750.7,337.3z"/>
<path class="st1" d="M1914.2,411.7c-8.4,0-19.3-0.2-32.8-0.6c-17.6-0.4-28.5-0.6-32.8-0.7l-43.8-0.6c-4.4,0.1-10.7-0.1-18.9-0.6
	c-2.8-0.5-4.2-2-4.2-4.5c0-10.6,0.2-26.6,0.5-47.8c0.3-21.2,0.5-37.2,0.5-47.8c0-11.3-0.3-28.3-1-50.9s-1-39.6-1-50.9
	c0-2.1,1.5-3.2,4.4-3.2s7.3,0.1,13.1,0.4c5.8,0.3,10.1,0.4,13,0.4c3.2,0,8-0.2,14.4-0.5c6.3-0.3,11.1-0.5,14.4-0.5
	c1.5,0,2.1,0.9,2.1,2.8l-0.1,1.9c-1.2,18.4-2.5,45.9-4,82.8l-0.1,38.7c0,12.5,0,21.6,0.1,27.4c0.1,1.2,0.2,2.3,0.3,3.5
	c0.1,1.2,0.8,1.9,2.2,2.2c0.1,0,1.4,0,3.8,0c8.8,0,21.9-0.5,39.5-1.4c17.5-0.9,30.7-1.4,39.5-1.4c2.6,0,4,1.1,4,3.4
	c0,16.7-1.2,31.1-3.7,43.2c-0.5,2.5-1.5,4.1-3.1,4.5C1919.7,411.6,1917.7,411.7,1914.2,411.7z"/>
<path class="st1" d="M2043.5,341.8c0,19.8-8.3,36.8-25,51c-14.6,12.5-32.5,20.5-53.5,23.9c-0.8,0.1-1.4,0.1-1.9,0.1
	c-2.2,0-7.2-6.9-14.9-20.6c-7.7-13.7-11.6-22.1-11.6-25.1c0-1.1,0.7-1.8,2.2-2.1c14.2-3.2,23.5-6,28.1-8.2
	c10.2-5.1,15.2-12.6,15.2-22.6c0-6.3-3.3-13.4-10-21.2c-11.5-13.3-17.8-20.7-18.8-22.1c-6.7-10.2-10.1-21.4-10.1-33.7
	c0-17.9,8.3-32.7,24.8-44.5c13.5-9.8,30-16.1,49.7-19c1.1-0.1,1.9-0.1,2.5-0.1c1.5,0,2.6,1.2,3.5,3.5c2.5,7.1,8.4,20,17.7,38.7
	c0.3,0.6,0.4,1.1,0.4,1.5c0,1.7-0.9,2.5-2.6,2.5c-0.8,0-2.1-0.1-4-0.4c-1.9-0.3-3.3-0.4-4.2-0.4c-7,0-13.2,1.6-18.5,4.8
	c-6.3,3.7-9.5,8.9-9.5,15.5c0,6,3.5,13.3,10.5,22c12.4,15.6,18.9,23.8,19.5,24.6C2040,320.5,2043.5,331.2,2043.5,341.8z"/>
<path class="st1" d="M2217.8,363.6c0,4.2-0.8,11.9-2.5,23.1c-1.8,12.2-3.3,19.5-4.7,21.8c-1.2,1.9-2.8,2.8-4.8,2.8
	c-0.9,0-2.3-0.1-4.4-0.4c-7.1-1-27.9-1.5-62.4-1.5c-7.5,0-18.7-0.1-33.5-0.1c-14.8-0.1-26-0.1-33.4-0.1c-3.2,0-4.8-1.4-4.8-4.2
	c0-10.9,0.6-27.4,1.8-49.3s1.8-38.4,1.8-49.3c0-11.1-0.6-31.9-1.8-62.3c-0.3-7.8-0.8-19.5-1.6-35l-0.1-2.1c-0.2-2.2,1-3.4,3.7-3.4
	c7.2,0,18.1,0.2,32.6,0.6c14.5,0.4,25.4,0.6,32.6,0.6c7.1,0,17.9-0.2,32.2-0.6c14.4-0.4,25.1-0.6,32.2-0.6c5.1,0,8,1.9,8.8,5.7
	c0.5,2.2,1.2,9.1,2.3,20.4c1,11.4,1.5,18.3,1.5,20.7c0,2.1-1,3.1-2.9,3.1c-0.6,0-1.6,0-3.1-0.1c-26-2.1-49.3-3.2-70-3.2
	c-5.2,0-8.3,1.2-9.5,3.7c-0.5,1.2-0.7,4.9-0.7,11.3c0,6.6,1,11,2.9,13.2c1.7,1.9,4.8,2.8,9.5,2.8c1,0,2.9-0.1,5.7-0.2s5.2-0.2,7-0.2
	c12.3,0,24.8-0.3,37.4-1c1.1-0.1,3.8-0.3,8.1-0.7c3.3-0.4,6-0.6,7.9-0.6c2.3,0,3.5,1.1,3.5,3.4c0-2.1-0.9,5.4-2.6,22.4
	c-0.8,7.8-1.2,15.6-1.2,23.4c0,2-1.4,2.9-4.2,2.9l-13.2-1.5c-5.6-0.6-18.3-0.9-38.1-0.9h-15.5c-4,0-6.3,1-7,2.9
	c-0.1,0.5-0.1,3.5-0.1,9.1c0,7.4,0.5,12.2,1.5,14.4c1.7,3.7,7.9,5.9,18.8,6.6c-0.2,0,6.9,0,21.4,0c5.2,0,12.9-0.5,23.1-1.4
	c10.2-0.9,17.8-1.4,22.9-1.4C2216.7,358.4,2217.8,360.1,2217.8,363.6z"/>
<g>
	<polygon points="516,295.2 516,194.9 516,161.5 415.7,161.5 415.7,194.9 415.7,482.4 380.8,482.4 380.8,120.6 380.8,87.2 
		347.3,87.2 313.2,87.2 279.7,87.2 279.7,120.6 279.7,390.3 245.6,390.3 245.6,194.9 245.6,161.5 146.8,161.5 146.8,194.9 
		146.8,295.2 81.4,295.2 81.4,329.4 146.8,329.4 180.2,329.4 180.2,295.2 180.2,194.9 212.1,194.9 212.1,390.3 212.1,402.2 
		212.1,423.7 313.2,423.7 313.2,401.4 313.2,390.3 313.2,120.6 347.3,120.6 347.3,515.8 348.1,515.8 380.8,515.8 415.7,515.8 
		446.9,515.8 449.1,515.8 449.1,194.9 482.5,194.9 482.5,295.2 482.5,328.6 516,328.6 581.4,328.6 581.4,295.2 	"/>
	<polygon class="st2" points="516,295.2 516,194.9 516,161.5 415.7,161.5 415.7,194.9 415.7,482.4 380.8,482.4 380.8,120.6 
		380.8,87.2 347.3,87.2 313.2,87.2 279.7,87.2 279.7,120.6 279.7,390.3 245.6,390.3 245.6,194.9 245.6,161.5 146.8,161.5 
		146.8,194.9 146.8,295.2 81.4,295.2 81.4,329.4 146.8,329.4 180.2,329.4 180.2,295.2 180.2,194.9 212.1,194.9 212.1,390.3 
		212.1,402.2 212.1,423.7 313.2,423.7 313.2,401.4 313.2,390.3 313.2,120.6 347.3,120.6 347.3,515.8 348.1,515.8 380.8,515.8 
		415.7,515.8 446.9,515.8 449.1,515.8 449.1,194.9 482.5,194.9 482.5,295.2 482.5,328.6 516,328.6 581.4,328.6 581.4,295.2 	"/>
</g>
</svg>
