<svg xmlns="http://www.w3.org/2000/svg"  viewBox="0 0 40 40" width="40px" height="40px"><path fill="#b6dcfe" d="M2.5 25.5L2.5 3.5 5.5 3.5 5.5 1.5 16.5 1.5 16.5 3.5 19.5 3.5 19.5 25.5z"/><path fill="#4788c7" d="M16,2v1v1h1h2v21H3V4h2h1V3V2H16 M17,1H5v2H2v23h18V3h-3V1L17,1z"/><path fill="#4788c7" d="M6 9h4V7H6V9zM6 13h4v-2H6V13zM6 17h4v-2H6V17zM6 21h4v-2H6V21z"/><path fill="#b6dcfe" d="M11,26h4v-2h-4V26z M18,3v3h2V3H18z"/><path fill="#dff0fe" d="M14.5 37.5L14.5 8.5 18.5 8.5 18.5 6.5 33.5 6.5 33.5 8.5 37.5 8.5 37.5 37.5z"/><path fill="#4788c7" d="M33,7v1v1h1h3v28H15V9h3h1V8V7H33 M34,6H18v2h-4v30h24V8h-4V6L34,6z"/><path fill="#98ccfd" d="M18 14h4v-2h-4V14zM24 14h4v-2h-4V14zM30 12v2h4v-2H30zM18 18h4v-2h-4V18zM24 18h4v-2h-4V18zM30 16v2h4v-2H30zM18 22h4v-2h-4V22zM24 22h4v-2h-4V22zM30 20v2h4v-2H30zM18 26h4v-2h-4V26zM24 26h4v-2h-4V26zM30 24v2h4v-2H30zM18 30h4v-2h-4V30zM24 30h4v-2h-4V30zM30 28v2h4v-2H30zM18 34h4v-2h-4V34zM24 34h4v-2h-4V34zM30 32v2h4v-2H30z"/><path fill="#4788c7" d="M7.5 25h4c.275 0 .5.225.5.5l0 0c0 .275-.225.5-.5.5h-4C7.225 26 7 25.775 7 25.5l0 0C7 25.225 7.225 25 7.5 25zM16.5 3h3C19.775 3 20 3.225 20 3.5v0C20 3.775 19.775 4 19.5 4h-3C16.225 4 16 3.775 16 3.5v0C16 3.225 16.225 3 16.5 3z"/></svg>