<svg xmlns="http://www.w3.org/2000/svg"  viewBox="0 0 40 40" width="40px" height="40px"><path fill="#dff0fe" d="M0.5 31.5L0.5 18.5 12.5 18.5 12.5 11.5 27.5 11.5 27.5 20.5 39.5 20.5 39.5 31.5z"/><path fill="#4788c7" d="M27,12v8v1h1h11v10H1V19h11h1v-1v-6H27 M28,11H12v7H0v14h40V20H28V11L28,11z"/><path fill="#98ccfd" d="M27.5,20.5v-3h11.165c0.46,0,0.835,0.374,0.835,0.833V20.5H27.5z"/><path fill="#4788c7" d="M38.665,18C38.847,18,39,18.153,39,18.333V20H28v-2H38.665 M38.665,17H27v4h13v-2.667 C40,17.6,39.399,17,38.665,17L38.665,17z"/><path fill="#98ccfd" d="M0.5,18.5v-2.167c0-0.459,0.373-0.833,0.832-0.833H12.5v3H0.5z"/><path fill="#4788c7" d="M12,16v2H1v-1.667C1,16.153,1.152,16,1.332,16H12 M13,15H1.332C0.599,15,0,15.6,0,16.333V19h13V15 L13,15z"/><path fill="#98ccfd" d="M12.5,11.5V9.333c0-0.459,0.374-0.833,0.833-0.833h13.333c0.459,0,0.833,0.374,0.833,0.833V11.5 H12.5z"/><path fill="#4788c7" d="M26.667 9C26.847 9 27 9.153 27 9.333V11H13V9.333C13 9.15 13.15 9 13.333 9H26.667M26.667 8H13.333C12.597 8 12 8.597 12 9.333V12h16V9.333C28 8.6 27.4 8 26.667 8L26.667 8zM21 15v8h-1.333v-6.156c-.219.156-.329.289-.581.398s-.43.206-.753.289v-1.396c.201-.066.286-.135.474-.208.188-.073.372-.154.555-.245.182-.09.367-.191.552-.302s.378-.238.576-.38H21zM9 29H4v-.609c0-.249.036-.482.106-.7.069-.217.164-.422.283-.615.119-.192.258-.373.417-.543.158-.17.331-.335.511-.494.181-.159.367-.313.556-.461.189-.148.375-.297.556-.447.169-.143.325-.283.467-.42.142-.137.261-.279.361-.425.1-.146.178-.301.233-.464.056-.163.083-.34.083-.529 0-.209-.033-.39-.097-.546-.064-.156-.156-.285-.272-.39s-.256-.183-.414-.236c-.158-.053-.333-.08-.522-.08-.325 0-.658.075-.994.225S4.611 22.643 4.3 22.942v-1.224c.164-.121.328-.226.494-.316.167-.09.339-.165.517-.225.178-.06.364-.105.561-.134S6.278 21 6.5 21c.358 0 .686.047.978.14.292.093.542.23.75.412.208.181.367.407.481.678.114.271.169.582.169.933 0 .318-.039.604-.119.859-.081.254-.192.491-.339.711-.147.219-.322.428-.531.626s-.439.401-.694.609c-.214.172-.428.34-.642.502-.214.163-.406.322-.575.477-.169.156-.308.311-.414.466-.106.156-.158.312-.158.469v.027H9V29zM31 29.584v-1.177c.539.399 1.145.599 1.822.599.551 0 .989-.117 1.318-.351.329-.234.493-.551.493-.95 0-.878-.718-1.317-2.151-1.317h-.64v-1.004h.611c1.272 0 1.909-.414 1.909-1.242 0-.763-.496-1.144-1.488-1.144-.554 0-1.076.186-1.563.556v-1.112C31.874 22.148 32.537 22 33.301 22c.735 0 1.324.173 1.765.518.441.345.663.788.663 1.328 0 1.018-.554 1.673-1.661 1.965v.022c.597.054 1.067.249 1.413.586C35.827 26.755 36 27.175 36 27.679c0 .694-.28 1.255-.836 1.682C34.607 29.787 33.872 30 32.961 30 32.142 30 31.487 29.862 31 29.584z"/></svg>