<svg xmlns="http://www.w3.org/2000/svg"  viewBox="0 0 40 40" width="40px" height="40px"><path fill="#98ccfd" d="M9.001,24.23C7.438,22.359,1.5,14.862,1.5,9c0-4.136,3.364-7.5,7.5-7.5s7.5,3.364,7.5,7.5 C16.5,14.912,10.566,22.368,9.001,24.23z"/><path fill="#4788c7" d="M9,2c3.86,0,7,3.14,7,7c0,5.34-5.055,12.059-6.998,14.445C7.06,21.05,2,14.299,2,9 C2,5.14,5.14,2,9,2 M9,1C4.582,1,1,4.582,1,9c0,6.989,8,16,8,16s8-8.956,8-16C17,4.582,13.418,1,9,1L9,1z"/><path fill="#fff" d="M9 5.5A3.5 3.5 0 1 0 9 12.5A3.5 3.5 0 1 0 9 5.5Z"/><path fill="#4788c7" d="M9,6c1.657,0,3,1.343,3,3s-1.343,3-3,3s-3-1.343-3-3S7.343,6,9,6 M9,5C6.794,5,5,6.794,5,9 s1.794,4,4,4s4-1.794,4-4S11.206,5,9,5L9,5z"/><g><path fill="#dff0fe" d="M31.001,38.23C29.438,36.359,23.5,28.862,23.5,23c0-4.136,3.364-7.5,7.5-7.5s7.5,3.364,7.5,7.5 C38.5,28.912,32.566,36.368,31.001,38.23z"/><path fill="#4788c7" d="M31,16c3.86,0,7,3.14,7,7c0,5.34-5.055,12.06-6.998,14.445C29.06,35.052,24,28.307,24,23 C24,19.14,27.14,16,31,16 M31,15c-4.418,0-8,3.582-8,8c0,6.989,8,16,8,16s8-8.956,8-16C39,18.582,35.418,15,31,15L31,15z"/></g><g><path fill="#fff" d="M31 19.5A3.5 3.5 0 1 0 31 26.5A3.5 3.5 0 1 0 31 19.5Z"/><path fill="#4788c7" d="M31,20c1.657,0,3,1.343,3,3s-1.343,3-3,3s-3-1.343-3-3S29.343,20,31,20 M31,19c-2.206,0-4,1.794-4,4 s1.794,4,4,4s4-1.794,4-4S33.206,19,31,19L31,19z"/></g></svg>