<?xml version="1.0" encoding="utf-8"?>
<!-- Generator: Adobe Illustrator 21.0.0, SVG Export Plug-In . SVG Version: 6.00 Build 0)  -->
<svg version="1.1" id="Layer_1" xmlns="http://www.w3.org/2000/svg" xmlns:xlink="http://www.w3.org/1999/xlink" x="0px" y="0px"
	 viewBox="0 0 800 400" style="enable-background:new 0 0 800 400;" xml:space="preserve">
<style type="text/css">
	.st0{fill:#263238;}
	.st1{fill:#455A64;}
	.st2{fill:#EAEAEA;}
	.st3{fill:#1B1C1D;stroke:#000000;stroke-miterlimit:10;}
	.st4{fill:#1565C0;}
	.st5{fill:#FFFFFF;}
	.st6{fill:#636363;}
	.st7{fill:#E5E5E5;}
	.st8{fill:#CCCCCC;}
	.st9{fill:none;}
	.st10{fill:#B5DEFF;}
	.st11{fill:#B5DEFF;stroke:#263238;stroke-linecap:round;stroke-linejoin:round;}
	.st12{fill:#8BD8CB;}
	.st13{fill:#FFB8B8;}
	.st14{fill:#C7C7C7;}
	.st15{fill:#D22238;}
	.st16{fill:#E0E0E0;}
	.st17{fill:#5C2483;}
	.st18{fill:#BDDDEF;}
	.st19{fill:#4F87AB;}
	.st20{fill:#A1C372;}
</style>
<path class="st0" d="M72.6,28.1h467.7c13.2,0,23.9,10.7,23.9,23.9v293c0,13.2-10.7,23.9-23.9,23.9H72.6c-13.2,0-23.9-10.7-23.9-23.9
	V52C48.7,38.8,59.4,28.1,72.6,28.1z"/>
<path class="st0" d="M27.1,343.8h558.6l0,0v0.6c0,16.2-13.1,29.3-29.3,29.3h-500c-16.2,0-29.3-13.1-29.3-29.3L27.1,343.8L27.1,343.8
	z"/>
<polygon class="st1" points="255.6,343.8 262.6,354.9 360,354.9 366.5,343.8 "/>
<rect x="64.8" y="49" class="st2" width="483.4" height="280.5"/>
<rect x="48.7" y="344" class="st1" width="515.5" height="1.7"/>
<rect x="64.8" y="49" class="st3" width="67.8" height="280.5"/>
<rect x="64.8" y="49" class="st4" width="67.8" height="45.6"/>
<g>
	<polygon class="st5" points="107.8,70.4 107.8,64 107.8,61.8 101.3,61.8 101.3,64 101.3,82.6 99,82.6 99,59.1 99,56.9 96.8,56.9 
		94.7,56.9 92.5,56.9 92.5,59.1 92.5,76.7 90.3,76.7 90.3,64 90.3,61.8 83.8,61.8 83.8,64 83.8,70.4 79.6,70.4 79.6,72.7 83.8,72.7 
		86,72.7 86,70.4 86,64 88.1,64 88.1,76.7 88.1,77.4 88.1,78.8 94.7,78.8 94.7,77.4 94.7,76.7 94.7,59.1 96.8,59.1 96.8,84.8 
		96.9,84.8 99,84.8 101.3,84.8 103.3,84.8 103.5,84.8 103.5,64 105.7,64 105.7,70.4 105.7,72.6 107.8,72.6 112,72.6 112,70.4 	"/>
	<polygon class="st5" points="107.8,70.4 107.8,64 107.8,61.8 101.3,61.8 101.3,64 101.3,82.6 99,82.6 99,59.1 99,56.9 96.8,56.9 
		94.7,56.9 92.5,56.9 92.5,59.1 92.5,76.7 90.3,76.7 90.3,64 90.3,61.8 83.8,61.8 83.8,64 83.8,70.4 79.6,70.4 79.6,72.7 83.8,72.7 
		86,72.7 86,70.4 86,64 88.1,64 88.1,76.7 88.1,77.4 88.1,78.8 94.7,78.8 94.7,77.4 94.7,76.7 94.7,59.1 96.8,59.1 96.8,84.8 
		96.9,84.8 99,84.8 101.3,84.8 103.3,84.8 103.5,84.8 103.5,64 105.7,64 105.7,70.4 105.7,72.6 107.8,72.6 112,72.6 112,70.4 	"/>
</g>
<path class="st6" d="M121.6,134.3H88.5c-2.4,0-4.3-1.9-4.3-4.3l0,0c0-2.4,1.9-4.3,4.3-4.3h33.1c2.4,0,4.3,1.9,4.3,4.3l0,0
	C125.9,132.4,124,134.3,121.6,134.3z"/>
<circle class="st6" cx="75.2" cy="130" r="4"/>
<path class="st6" d="M121.6,154.2H88.5c-2.4,0-4.3-1.9-4.3-4.3l0,0c0-2.4,1.9-4.3,4.3-4.3h33.1c2.4,0,4.3,1.9,4.3,4.3l0,0
	C125.9,152.3,124,154.2,121.6,154.2z"/>
<circle class="st6" cx="75.2" cy="149.9" r="4"/>
<path class="st6" d="M121.6,174.1H88.5c-2.4,0-4.3-1.9-4.3-4.3l0,0c0-2.4,1.9-4.3,4.3-4.3h33.1c2.4,0,4.3,1.9,4.3,4.3l0,0
	C125.9,172.2,124,174.1,121.6,174.1z"/>
<circle class="st6" cx="75.2" cy="169.8" r="4"/>
<path class="st6" d="M121.6,193.9H88.5c-2.4,0-4.3-1.9-4.3-4.3l0,0c0-2.4,1.9-4.3,4.3-4.3h33.1c2.4,0,4.3,1.9,4.3,4.3l0,0
	C125.9,192,124,193.9,121.6,193.9z"/>
<circle class="st6" cx="75.2" cy="189.6" r="4"/>
<path class="st5" d="M511.8,191.1h-152c-6.6,0-12-5.4-12-12V74c0-6.6,5.4-12,12-12h152.1c6.6,0,12,5.4,12,12v105.1
	C523.8,185.7,518.4,191.1,511.8,191.1z"/>
<path class="st5" d="M322.1,191.1H166.9c-6.7,0-12.3-5.4-12.3-12V74c0-6.6,5.5-12,12.3-12h155.3c6.7,0,12.3,5.4,12.3,12v105.1
	C334.3,185.7,328.8,191.1,322.1,191.1z"/>
<path class="st7" d="M360.1,72.5h150.7c1.3,0,2.3,0.8,2.3,1.7l0,0v106.1l0,0H357.8l0,0V74.2C357.8,73.3,358.9,72.5,360.1,72.5z"/>
<path class="st8" d="M374.5,104.5c0,1.4-1.1,2.5-2.5,2.5s-2.5-1.1-2.5-2.5s1.1-2.5,2.5-2.5l0,0C373.4,101.9,374.5,103.1,374.5,104.5
	z"/>
<path class="st5" d="M513.3,84.5l-20.1,13.7c-3-0.2-5.9-0.1-8.9,0.1c-0.3,0-0.5-0.1-0.7-0.2c-3.8-2.1-7.3-17.3-8.8-25.6h-1.1
	c1.2,6.5,4.8,23.7,9.2,26.2c0.4,0.3,1,0.4,1.5,0.4c2.5-0.2,5.1-0.3,7.6-0.1l-16.1,11l-23-12c-2.3-1.3-5.7-1-7.7,0.4
	c-2.4,1.8-4.3,3.3-5.6,4.4c-1.6,1.5-4.2,3.7-7,6.2l-8.5-4.8l0,0c5-4.7,9.4-8.8,12-10.9c5.2-4.3,17.4-15.1,23.8-20.7h-1.4
	c-6.5,5.8-18.1,16.1-23.2,20.2c-2.6,2.1-6.9,6.2-12,10.9l-11.6-6.6c0.2-0.2,0.1-0.4-0.2-0.5c-0.2-0.1-0.4-0.1-0.6,0.1l-11.4-6.5
	c-0.2-0.1-0.5-0.1-0.8,0c-0.2,0.1-0.2,0.4,0,0.6l0.1,0.1l11.4,6.5c-1.6,1.5-6.2,5.7-9.4,8.8l-30.5-16.6c-0.3-0.1-0.6-0.1-0.8,0.1
	s-0.1,0.4,0.1,0.5l30.5,16.6c-0.6,0.6-1.3,1.2-1.7,1.7c-3.6,3.7-8.4,7.2-17,5.3c-8.7-2-9.9-6.5-9.9-6.7c0-0.1-0.1-0.2-0.2-0.3
	l-7.9-4.8c0.5-3,1.3-7.2,2-13.1c0.8-6.3,1.4-12.5,1.7-16.3H366c-0.9,9.5-2.2,21.2-3.7,28.8l-4.1-2.5v1l4,2.4
	c-0.7,3.7-1.4,6.2-2.2,6.5c-0.6,0.2-1.3,0.4-1.8,0.8v1c0.7-0.4,1.4-0.7,2.2-1c0.4-0.1,1.3-0.4,2.7-6.6l7.2,4.4
	c0.3,0.9,2,5.2,10.6,7.2c1.6,0.4,3.2,0.6,4.8,0.6c6.3,0,10.4-3.2,13.3-6.2c0.4-0.4,1.1-1.1,1.7-1.7l11.8,6.4
	c-6.3,5.7-12.5,11.1-16.9,14c-5.2,3.4-11.7,7.4-17,10.5c-7.5-3.4-14.5-7.2-14.5-7.2l0,0l0,0l-6-2.3v0.9l4.2,1.7
	c-1,0.2-2.5,0.4-4.2,0.7v0.7c2.7-0.4,4.8-0.8,5.6-1c1.3,0.6,7.5,3.9,14.1,7.1c-5,3-8.7,5.1-8.8,5.2c-0.2,0.1-0.3,0.4-0.1,0.6
	c0.2,0.1,0.5,0.2,0.8,0.1c0.1-0.1,4-2.3,9.1-5.3c1.5,0.7,3.1,1.4,4.6,2l3.5,1.5c3,1.3,6.6,2.8,10.2,4.4l-10.5,8.1
	c-0.2,0.1-0.2,0.3-0.1,0.4c0.1,0.1,0.3,0.3,0.4,0.3s9.7,0.6,17.5,8.4c6.8,6.8,13.3,12.4,24.7,16.3h2.7c-12.6-3.8-19.3-9.7-26.4-16.8
	c-6.6-6.6-14.5-8.3-17.2-8.6l10-7.6c7.2,3.2,14,6.7,14.8,9c1.2,3.3,6.9,7.4,9.6,9.4c0.7,0.5,1.3,1,1.4,1.1c0.8,0.8,5.8,2.9,6.7,3.2
	l0.1,0.1c1,0.2,7,1.3,11.9,1.3c2.5,0,4.7-0.3,5.6-1.3c1.5-1.5,5.8-3.9,9.2-5.8c2.4-1.4,4.6-2.5,5.4-3.2c0.2-0.2,1.2-0.8,2.8-1.8
	l4.1,2.9l-31.2,18.1h1.7l30.3-17.5l5.4,3.8l-21.8,13.7h1.6l21.4-13.4c0.2-0.1,0.3-0.4,0-0.6l0,0l-5.7-4.1l26.2-15.2l8.9,5.1
	l-33,20.7c-1.5,1-1.7,2.7-0.3,3.7c0.7,0.6,1.7,0.9,2.8,0.9c0.9,0,1.7-0.2,2.3-0.6l34.4-21.2l0.4,0.3v-1.6l-0.5,0.3l-4.6-2.6l5.1-3.2
	v-1l-5.9,3.7l-8.9-5.1l14.7-8.6v-1l-15.7,9.1l-5.6-3.2c7.4-4.6,15-9.2,21.3-13.1v-1c-4.4,2.7-13.1,8.1-22.2,13.7l-11-6.3
	c9.7-6.7,22.7-15.9,24.8-17.7c3.5-3,4.8-11.8,1.5-15.9c-2-2.5-6.9-3.6-11.9-4.1L513,85.7L513.3,84.5z M507.4,152.6l4.6,2.6
	l-34.3,21.1c-1.1,0.7-2.8,0.6-3.8-0.3c-1-0.8-0.8-2,0.4-2.7l0,0L507.4,152.6z M440.5,103.3c1.2-1.1,3.1-2.5,5.5-4.3
	c1.6-1.2,4.3-1.4,6.3-0.4l22.8,11.9L457,122.8l-23.4-13.4C437.4,106.1,440.4,103.4,440.5,103.3L440.5,103.3z M423.4,104.8l8.4,4.8
	c-3.2,2.8-6.7,5.7-9.6,8.1l-8.1-4.4C417.3,110.5,420.5,107.5,423.4,104.8z M401.5,106.5c3.2-3.1,7.8-7.2,9.4-8.8l11.6,6.6
	c-3,2.7-6.1,5.7-9.2,8.6L401.5,106.5z M396.5,128c4.4-2.9,10.6-8.3,17-14l8.1,4.4c-2.7,2.2-4.8,3.8-5.6,4.1
	c-2,0.8-17.1,6.1-24.2,8.6C393.4,130,395.1,128.9,396.5,128L396.5,128z M397.8,146.2c-3.6-1.6-7.3-3.1-10.4-4.4
	c-1.3-0.5-2.4-1-3.4-1.5c-1.4-0.6-2.9-1.2-4.2-1.9c2.8-1.7,5.9-3.6,9-5.5l0,0c1-0.4,25.3-8.8,27.8-9.8c0.8-0.3,3.1-2,5.9-4.4l0,0
	c0.2,0,0.4-0.1,0.4-0.1c0.1-0.1,0.1-0.2,0.1-0.3c3.1-2.5,6.6-5.5,9.7-8.2l23.3,13.3l-12,8.2l0,0l0,0l-18.7,16.3l-16.8-9.3
	c-0.3-0.1-0.5-0.1-0.7,0.1L397.8,146.2z M447.3,169.7c-1.9,1.9-12.3,0.4-16.2-0.4c-2.2-0.9-5.8-2.5-6.4-3c-0.4-0.4-1-0.8-1.6-1.2
	c-2.7-1.9-8.3-5.9-9.3-9c-0.9-2.5-7.7-6.1-15.1-9.5l9.5-7.3l16.8,9.3c0.3,0.1,0.5,0.1,0.8-0.1l18.2-15.9l5.7,35
	C448.8,168.4,448,169,447.3,169.7L447.3,169.7z M465.2,158.5c-1.8,1.1-3,1.9-3.2,2.2c-0.7,0.6-2.9,1.8-5.2,3.1
	c-2.1,1.1-4.2,2.4-6,3.5l-5.7-35.2L457,124l21.5,12.2c-5.5,3.8-9.7,6.7-9.9,6.9c-0.1,0.1-0.2,0.1-0.2,0.2L465.2,158.5z M491.1,143.4
	l5.6,3.2l-26.1,15.2l-4.1-2.9C471.5,155.5,481.1,149.6,491.1,143.4L491.1,143.4z M490.3,142.8c-9.2,5.7-18.4,11.4-23.8,14.8
	l3.1-14.2c0.9-0.6,4.8-3.4,9.8-6.8L490.3,142.8z M479.3,135.5l-21.5-12.3L476,111l21.9,11.5C492.7,126.2,485.3,131.3,479.3,135.5
	L479.3,135.5z M505.5,102.8c3.1,3.9,1.8,12.3-1.4,15.1c-0.7,0.6-2.7,2.1-5.5,4.1l-21.9-11.5L493.6,99
	C498.7,99.4,503.7,100.5,505.5,102.8L505.5,102.8z"/>
<path class="st8" d="M358.1,168.1h24.4c-1.7-0.8-4.2-2.1-4.5-2.5c-0.5-0.7-3-5.1-4.3-5.3c-1.4-0.2-1.9,1.4-1.9,1.4l3,4.8l-1.1-0.7
	c0,0-2.8-3-3.4-3.4c-0.7-0.5,0-2.3,0.2-3.7s1.8-2.3,2.3-3.4c0.5-1.1,0-4.6,0-5.7s-2.1-4.6-3.4-7.4c-1.4-2.8-6-8.1-8.5-9.2
	c-0.8-0.3-1.7-0.6-2.6-0.7L358.1,168.1z"/>
<polygon class="st8" points="449.6,103.3 443.7,108.5 451.1,115.3 464.6,110.3 "/>
<polygon class="st8" points="456.9,126.6 448.5,132.4 451.8,145.1 461,146.8 463.8,141.4 472.6,135.5 "/>
<path class="st9" d="M360.1,72.5h150.7c1.3,0,2.3,0.8,2.3,1.7l0,0v106.1l0,0H357.8l0,0V74.2C357.8,73.3,358.9,72.5,360.1,72.5z"/>
<path class="st10" d="M360.1,72.5h150.7c1.3,0,2.3,0.8,2.3,1.7l0,0v19.1l0,0H357.8l0,0V74.2C357.8,73.3,358.9,72.5,360.1,72.5z"/>
<g>
	<path class="st5" d="M367.9,82.9c0-2.1,1.8-3.8,4-3.8h114.6c2.2,0,4,1.7,4,3.8s-1.8,3.8-4,3.8H371.9
		C369.7,86.7,367.9,85,367.9,82.9z"/>
</g>
<circle class="st11" cx="459" cy="135.9" r="1.5"/>
<circle class="st11" cx="399.7" cy="99.7" r="1.5"/>
<path class="st11" d="M416.1,148.4c0,0.8-0.7,1.5-1.5,1.5s-1.5-0.7-1.5-1.5s0.7-1.5,1.5-1.5S416.1,147.5,416.1,148.4L416.1,148.4z"
	/>
<circle class="st11" cx="386.3" cy="117.2" r="1.4"/>
<path class="st11" d="M377.1,151c0,0.7-0.6,1.4-1.4,1.4c-0.7,0-1.4-0.6-1.4-1.4s0.6-1.4,1.4-1.4C376.5,149.7,377.1,150.3,377.1,151
	L377.1,151z"/>
<circle class="st11" cx="432.3" cy="165.6" r="1.5"/>
<circle class="st11" cx="457.5" cy="111.9" r="1.5"/>
<circle class="st11" cx="493" cy="107.2" r="1.5"/>
<path class="st11" d="M490.1,148.4c0,0.8-0.7,1.5-1.5,1.5s-1.5-0.7-1.5-1.5s0.7-1.5,1.5-1.5l0,0
	C489.4,146.8,490.1,147.5,490.1,148.4L490.1,148.4z"/>
<circle class="st11" cx="427.7" cy="124.4" r="1.5"/>
<path class="st5" d="M498.5,313H179.8c-13.8,0-25.2-5.4-25.2-12v-84.8c0-6.6,11.3-12,25.2-12h318.9c13.8,0,25.2,5.4,25.2,12V301
	C523.7,307.6,512.4,313,498.5,313z"/>
<rect x="188.7" y="233" class="st10" width="12" height="67.6"/>
<rect x="205.1" y="282.5" class="st12" width="12" height="18.1"/>
<rect x="223.1" y="272" class="st13" width="12" height="28.7"/>
<rect x="266.8" y="224" class="st10" width="12" height="76.6"/>
<rect x="283.2" y="282.5" class="st12" width="12" height="18.1"/>
<rect x="301.2" y="286.3" class="st13" width="12" height="14.3"/>
<rect x="344.9" y="238" class="st10" width="12" height="62.6"/>
<rect x="361.3" y="291.5" class="st12" width="12" height="9.1"/>
<rect x="379.3" y="277.3" class="st13" width="12" height="23.3"/>
<rect x="423" y="222" class="st10" width="12" height="78.6"/>
<rect x="439.4" y="272" class="st12" width="12" height="28.7"/>
<rect x="457.4" y="286.3" class="st13" width="12" height="14.3"/>
<path class="st14" d="M166.8,224l-0.2,76.1h90.1h90.1l90.1,0.1l72.2,0.3l-72.2,0.3l-90.1,0.1h-90.1h-89.6h-1.9v-0.6
	c0-12.8,0-25.5,0.5-38.3l0.5-19.2L166.8,224z"/>
<g>
	<g>
		<path id="path10" class="st15" d="M181.3,106.6c7.4,0,10.7-4.8,10.7-10.8V95c0-6.3-3.3-10.8-10.7-10.8h-0.9
			c-7.4,0-10.7,4.5-10.7,10.8v0.8c0,6,3.3,10.8,10.7,10.8H181.3z"/>
		<path id="path16" class="st5" d="M184.4,90.2c-0.9-0.6-2.2-0.9-3.5-0.9c-3.5,0-5.2,1.5-5.2,1.5v7.4v3.4h2v-9.8
			c1.2-0.9,3.1-0.8,3.1-0.8c0.9,0,1.8,0.2,2.3,0.6c0.2,0.2,0.4,0.4,0.5,0.6s0.2,0.7,0.2,0.9v8.3h2V98v-5
			C186,92.1,185.5,90.9,184.4,90.2L184.4,90.2z"/>
	</g>
	<g>
		<path class="st16" d="M298.2,92.8h-87.7c-2.7,0-5-2-5-4.3l0,0c0-2.3,2.3-4.3,5-4.3h87.7c2.7,0,5,2,5,4.3l0,0
			C303.3,90.9,300.9,92.8,298.2,92.8z"/>
		<path class="st16" d="M277.5,106.6h-65.2c-3.8,0-6.9-2-6.9-4.3l0,0c0-2.3,3.2-4.3,6.9-4.3h65.2c3.8,0,6.9,2,6.9,4.3l0,0
			C284.5,104.6,281.3,106.6,277.5,106.6z"/>
	</g>
</g>
<g>
	<g>
		<path class="st17" d="M187.7,136.3c0.1,0.2,0.3,0.2,0.4,0.2h3.4l-7.9-17c-0.8-1.8-2.9-1.8-3-1.8H179L187.7,136.3z"/>
		<path class="st17" d="M179.3,125.2l-1.8-3.9l-7.1,15.3h3.4c0.1,0,0.3,0,0.4-0.2L179.3,125.2z"/>
	</g>
	<g>
		<path class="st16" d="M298.2,124.6h-87.7c-2.7,0-5-2-5-4.3l0,0c0-2.3,2.3-4.3,5-4.3h87.7c2.7,0,5,2,5,4.3l0,0
			C303.3,122.7,300.9,124.6,298.2,124.6z"/>
		<path class="st16" d="M277.5,138.4h-65.2c-3.8,0-6.9-2-6.9-4.3l0,0c0-2.3,3.2-4.3,6.9-4.3h65.2c3.8,0,6.9,2,6.9,4.3l0,0
			C284.5,136.4,281.3,138.4,277.5,138.4z"/>
	</g>
</g>
<g>
	<g>
		<path class="st18" d="M172.5,157.8c2.1-1.3,7.3-1.2,8.3-4.7c0,0,0.4-1.7,2.9-1.9c0.3,0,0.4,0,0.4,0l0,0c-2.1-2.1-7-3.8-10.6-3.8
			c-3.7,0-6.2,1.6-6.7,3.1c-0.3,1.3,0,2.7,0.1,3.6c0.4,3.5-1.3,4.2-1.7,6.3c-0.6,3.2,3.1,6.5,5.7,7.9
			C167.8,166,170.4,159.1,172.5,157.8"/>
		<path class="st19" d="M190.1,152.3c-1.4-0.7-3.6-1.2-6-1.1l0,0c2.5,2.8,3,9,1.5,11.1c-1.4,2.1-2.8,1.2-4.6,1.3
			c-1.9,0-4.9,2.5-4.9,2.5c-1.5,1.2-3.3,2.2-5.2,2.3c0.6,0.4,3.8,1.9,6.6,2.1c3.9,0.2,5.8-1,8.1-2.4c3-1.8,5.9,0.3,8.4-2.5
			C196.7,162.7,196.9,155.6,190.1,152.3"/>
		<path class="st20" d="M181,163.5c1.9,0,3.2,0.8,4.6-1.3c1.4-2.1,1-8.3-1.5-11.1l0,0l0,0c0,0-0.2,0-0.4,0c-2.5,0.3-2.9,1.9-2.9,1.9
			c-0.9,3.5-6.1,3.4-8.3,4.7c-2.1,1.3-4.8,8.2-1.6,10.5c1.9-0.1,3.7-1.1,5.2-2.3C176.2,166,179.1,163.6,181,163.5"/>
	</g>
	<g>
		<path class="st16" d="M296.7,156.3H209c-2.7,0-5-2-5-4.3l0,0c0-2.3,2.3-4.3,5-4.3h87.7c2.7,0,5,2,5,4.3l0,0
			C301.8,154.4,299.4,156.3,296.7,156.3z"/>
		<path class="st16" d="M276,170.1h-65.2c-3.8,0-6.9-2-6.9-4.3l0,0c0-2.3,3.2-4.3,6.9-4.3H276c3.8,0,6.9,2,6.9,4.3l0,0
			C283,168.1,279.8,170.1,276,170.1z"/>
	</g>
</g>
</svg>
