<?xml version="1.0" encoding="utf-8"?>
<!-- Generator: Adobe Illustrator 24.1.2, SVG Export Plug-In . SVG Version: 6.00 Build 0)  -->
<svg version="1.1" id="Layer_1" xmlns="http://www.w3.org/2000/svg" xmlns:xlink="http://www.w3.org/1999/xlink" x="0px" y="0px"
	 viewBox="0 0 500 300" style="enable-background:new 0 0 500 300;" xml:space="preserve">
<style type="text/css">
	.st0{fill:#455A64;}
	.st1{fill:#263238;}
	.st2{fill:#E0E0E0;}
	.st3{fill:#C78976;}
	.st4{fill:#8B5D54;}
	.st5{fill:#FAFAFA;}
	.st6{fill:#B5DEFF;}
	.st7{opacity:0.3;}
	.st8{fill:#EBEBEB;}
	.st9{opacity:0.1;fill:#2A9D8F;enable-background:new    ;}
	.st10{fill:#2A9D8F;}
	.st11{fill:#DBDBDB;}
	.st12{fill:#C7C7C7;}
	.st13{fill:#FFFFFF;}
	.st14{fill:#A6A6A6;}
	.st15{opacity:0.5;}
	.st16{opacity:0.7;}
	.st17{fill:#37474F;}
	.st18{opacity:0.2;enable-background:new    ;}
	.st19{opacity:0.3;enable-background:new    ;}
</style>
<path class="st0" d="M90.2,252.2l1.6,16.6l5.1,12.8c0.3,0.9-0.1,1.9-1,2.2c0,0-0.1,0-0.1,0l0,0c-0.5,0.2-1.1,0.1-1.5-0.3
	c-2.8-2.1-13-10.1-13.1-11c-0.3-1.4-3-17.6-3-17.6L90.2,252.2z"/>
<path class="st1" d="M95.9,283.8L81,271.3l0.1,0.7c0.1,0.6,0.4,1.2,0.8,1.6c1.2,1.1,4.6,4.1,12.4,10C94.8,283.9,95.4,284,95.9,283.8
	z"/>
<path class="st2" d="M83.7,265.5c0.5,0.3,0.7,0.8,0.5,1.3c-0.2,0.5-0.8,0.7-1.3,0.5c-0.5-0.3-0.7-0.9-0.5-1.4
	C82.7,265.4,83.4,265.3,83.7,265.5"/>
<path class="st1" d="M91.2,277.1c0.1,0,0.4-0.9,1.3-1.5c0.6-0.3,1.2-0.5,1.9-0.6c0,0-0.2-0.1-0.6-0.2c-1.1,0-2,0.6-2.5,1.6
	C91.2,276.8,91.2,277.1,91.2,277.1z"/>
<path class="st1" d="M92.7,279.1c0.1,0.1,0.6-0.5,1.4-0.9c0.5-0.2,1.1-0.3,1.6-0.4c0-0.1-0.8-0.3-1.7,0.1
	C93,278.3,92.6,279.1,92.7,279.1z"/>
<path class="st1" d="M88.7,274.5c0.6-0.6,1.3-1.1,2-1.5c0.8-0.4,1.6-0.6,2.4-0.9C91.3,271.9,89.6,272.9,88.7,274.5L88.7,274.5z"/>
<path class="st1" d="M87.8,269.5c0.1,0.1,0.9-0.4,2.1-0.6c1.2-0.2,2.2,0,2.2-0.1C90.6,268.1,89,268.4,87.8,269.5L87.8,269.5z"/>
<path class="st0" d="M51.6,254.1l0.6,13.8c0,0-13.9,5.3-14,7.8l26.9-0.2L65.1,254L51.6,254.1z"/>
<path class="st2" d="M60.5,266.7c0.5,0.2,0.9,0.7,0.8,1.2c-0.1,0.5-0.7,0.9-1.2,0.8c-0.6-0.2-0.9-0.7-0.8-1.3
	C59.4,266.9,60,266.6,60.5,266.7"/>
<path class="st1" d="M65.1,275.6l-0.1-2.2l-25.7,1c0,0-1.2,0.5-1,1.4L65.1,275.6z"/>
<path class="st1" d="M51.8,267.8c0,0.1,0.7,0.2,1.3,0.6s1,1,1.1,0.9s-0.1-0.8-0.9-1.3C52.6,267.6,51.8,267.7,51.8,267.8z"/>
<path class="st1" d="M49,269c0,0.1,0.5,0.3,1,0.9c0.5,0.6,0.6,1.1,0.7,1.1c0.1,0,0.2-0.8-0.4-1.4C49.8,269,49,268.9,49,269z"/>
<path class="st1" d="M47.4,272.4c0.1,0,0.3-0.6,0-1.3c-0.3-0.7-1-1-1-0.9c-0.1,0.1,0.3,0.5,0.6,1.1
	C47.3,271.9,47.3,272.4,47.4,272.4z"/>
<path class="st1" d="M52,264.7c0.1,0.1,0.7-0.1,1.4,0c0.7,0.1,1.3,0.3,1.4,0.2c0.1-0.1-0.5-0.6-1.4-0.6
	C52.6,264.2,51.9,264.6,52,264.7z"/>
<path class="st1" d="M97.9,149.9c0,0.8-5.4,114.7-5.4,114.7l-14.1,0.1l-4.6-96.8c0,0-5.9,50.9-5.9,52s-1.7,45.4-1.7,45.4H51.3V159.7
	l9.6-15.4L97.9,149.9z"/>
<path class="st0" d="M58.9,265.2c0-0.1,0-0.2,0-0.3c0-0.2,0-0.4,0-0.8c0-0.7,0-1.7,0-2.9c0-2.5,0.1-6.2,0.2-10.7
	c0.3-9,0.8-21.5,1.4-35.2c0.6-13.7,1.3-26.2,1.7-35.2c0.2-4.5,0.4-8.1,0.5-10.7c0.1-1.2,0.1-2.2,0.1-2.9c0-0.3,0-0.6,0-0.8
	c0-0.1,0-0.2,0-0.3c0,0.1,0,0.2,0,0.3c0,0.2,0,0.4-0.1,0.8c0,0.7-0.1,1.7-0.2,2.9c-0.1,2.5-0.4,6.2-0.6,10.7
	c-0.5,9-1.2,21.5-1.8,35.2c-0.6,13.7-1.1,26.2-1.3,35.2c-0.1,4.5-0.1,8.2-0.1,10.7c0,1.2,0,2.2,0,2.9c0,0.3,0,0.6,0,0.8
	C58.8,265.1,58.9,265.2,58.9,265.2z"/>
<path class="st0" d="M84.9,165.6c-0.1,0-0.1,22.2,0,49.5c0.1,27.3,0.3,49.5,0.3,49.5s0.1-22.2,0-49.5
	C85.2,187.8,85,165.6,84.9,165.6z"/>
<path class="st0" d="M72.7,162.4c0.2,0.1,0.4,0.2,0.7,0.3c0.4,0.2,1.1,0.4,1.9,0.7l0.2,0v-0.2c0.1-1.4,0.2-3.3,0.3-5.3
	c0.1-2.2,0.2-4.2,0.2-5.7c0-0.7,0-1.3,0-1.7c0-0.2,0-0.4,0-0.6c-0.1,0.2-0.1,0.4-0.1,0.6c0,0.4-0.1,1-0.1,1.7
	c-0.1,1.5-0.2,3.5-0.3,5.7c-0.1,2-0.2,3.9-0.2,5.3l0.2-0.1c-0.8-0.3-1.5-0.5-1.9-0.6C73.1,162.5,72.9,162.4,72.7,162.4z"/>
<path class="st0" d="M73.9,150.3c0,0-0.1-0.1-0.2-0.1c-0.5-0.2-1.1,0.2-1.3,0.7c0,0.1,0,0.2,0,0.3c0,0.5,0.4,0.9,0.9,1
	c0.5,0.1,1-0.1,1.2-0.6c0.2-0.3,0.2-0.8,0-1.1c-0.1-0.2-0.3-0.4-0.5-0.5c-0.2-0.1-0.3-0.1-0.3,0c0,0,0.4,0.1,0.6,0.6
	c0.1,0.3,0.1,0.6,0,0.8c-0.2,0.3-0.5,0.5-0.9,0.4c-0.3-0.1-0.6-0.4-0.6-0.7c0-0.3,0.1-0.6,0.4-0.7C73.4,150.3,73.6,150.3,73.9,150.3
	z"/>
<path class="st0" d="M66.3,151.5c0.1,0,0.2-0.5,0.3-1.1s0-1.1,0-1.2c-0.1,0-0.2,0.5-0.3,1.1C66.2,151,66.2,151.5,66.3,151.5z"/>
<path class="st0" d="M65.1,151.4c0.1,0,0.2-0.5,0.2-1.2s-0.1-1.2-0.2-1.2c-0.1,0-0.2,0.5-0.2,1.2S65,151.4,65.1,151.4z"/>
<path class="st0" d="M85.2,152.2c0.2-0.4,0.3-0.9,0.3-1.4c0.1-0.5,0.1-0.9,0-1.4c-0.2,0.4-0.3,0.9-0.3,1.3
	C85,151.3,85,151.7,85.2,152.2z"/>
<path class="st0" d="M83.8,152.3c0.5-0.9,0.5-1.9,0.1-2.9C83.9,150.4,83.8,151.3,83.8,152.3z"/>
<path class="st1" d="M100.8,60.5c-0.1-0.4-0.3-0.7-0.6-1c-0.8-0.5-1.7-0.7-2.6-0.6c-0.5-1.1-0.9-2.2-1.1-3.4c0.4,0,0.9-0.1,1.2-0.4
	l0.2-0.1c0.9-0.4,1-1.7,0.4-2.5c-0.6-0.7-1.5-1.3-2.4-1.5c0.7,0,1.2,0.5,1.9,0.7c0.6,0.2,1.5,0,1.6-0.7c0-0.2,0-0.4-0.1-0.6L99,49.3
	c-0.1-0.3-0.2-0.6-0.5-0.8c-0.2-0.1-0.5-0.2-0.7-0.2c-0.7-0.2-1.1-1.1-1.9-1.3c-0.6-0.1-1.1,0-1.6,0.2c-0.5,0.1-1.3,0-1.4-0.5
	c0.7-0.4,1.4-0.9,1.9-1.6c0.5-0.7,0.4-1.6-0.2-2.3c-0.5-0.4-1.2-0.5-1.9-0.4c-0.7,0-1.6,0.2-1.8,0.9c-1-0.3-2,0.3-2.3,1.3
	c0,0,0,0.1,0,0.1l-1.9-0.2c0.5-0.6,1.2-0.9,1.7-1.5s0.4-1.7-0.4-1.9c-0.3,0-0.6,0-0.8-0.1C87,41.2,86.9,41,86.7,41
	c-0.1,0-0.3,0.1-0.4,0.2l-3.9,2.5c0.3-0.8,0.7-1.6,1-2.5c0.4-0.8,0.6-1.8-0.1-2.3c-0.7-0.5-1.6,0.2-1.7,1c-0.7-0.2-1.4,0.3-1.5,1
	c0,0.1,0,0.1,0,0.2c-0.7-0.3-1.4,0-1.7,0.7c-0.2,0.4-0.1,0.9,0.2,1.3c-0.7,0-1.3,0.2-1.9,0.5c-0.1-0.6-0.6-1.1-1.2-1
	c-0.2,0-0.4,0.1-0.6,0.2c0-0.4-0.1-0.8-0.3-1.1c-0.2-0.3-0.6-0.4-0.9-0.2c0,0,0,0-0.1,0.1c0.2-0.7-0.3-1.4-1-1.6
	c-0.4-0.1-0.8,0-1.1,0.3l-0.6-0.8c-0.7-0.1-1.3,0.3-1.7,0.9c-0.3,0.6,0.2,1.5,0.8,1.4c-0.5,0-0.4,0.7-0.1,1.1l1.1,1.6
	c-0.5-0.5-1.2-0.5-1.8-0.2c-0.4-0.4-1.1-0.5-1.6,0c0,0,0,0,0,0c-0.3-0.4-0.8-0.5-1.3-0.3c-0.2,0.1-0.3,0.3-0.4,0.5
	c-0.1-0.3-0.5-0.3-0.9-0.3c-0.5,0-0.9,0.2-1.3,0.4c-0.3,0.3-0.3,1,0.1,1.2c-0.4-0.2-0.9,0.2-0.9,0.7c0,0.5,0.3,0.9,0.6,1.1
	c0.4,0.3,0.7,0.6,0.9,1c-0.4-0.2-0.8-0.3-1.3-0.3c-0.8,0-1.6,0.1-2.4,0.5c-0.1-0.3-0.6-0.3-0.9-0.3c-1.1,0.2-2,0.8-2.8,1.5
	c-0.4,0.4-0.7,0.9-0.4,1.4c0.1,0.2,0.3,0.4,0.5,0.5l2.5,1.5c-1.4,0.4-2.6,1.3-3.4,2.4c-0.5,0.3-1.1,0.3-1.6,0.7
	c-0.5,0.4-0.4,1.3,0.2,1.3c-0.4,0.3-0.5,1-0.2,1.4c0.1,0.1,0.2,0.2,0.3,0.3c0.1,0.1,0.2,0.2,0.3,0.3c0.2,0.2,0.4,0.3,0.7,0.4
	c0.3,0.3,0.7,0.5,1.1,0.5c-0.5,0.4-0.9,0.9-1.2,1.4c-0.4,0.7-0.4,1.6,0,2.3c0,0,0.1,0.1,0.1,0.1c0.1,0.3,0.2,0.5,0.5,0.7
	c-0.1,0.2-0.1,0.4-0.1,0.6c-1.3,0.5-1.9,1.9-1.4,3.2c0.2,0.4,0.5,0.8,0.8,1.1c0.6,0.4,1.6,0.3,1.7-0.4c0.3,0.6,0.8,1,1.4,1
	c-0.5,0.9-0.1,2,0.8,2.5c0,0,0.1,0,0.1,0.1c-0.8,0.8-0.8,2,0,2.8c0.2,0.2,0.4,0.3,0.6,0.4c-0.3,0.8,0.1,1.6,0.9,1.9
	c0.8,0.3,1.6-0.1,1.9-0.9c0.2,0.6,0.6,1.1,1.1,1.4c0.5,0.3,1.2,0.2,1.5-0.4c0,0,0,0,0-0.1c0.4,1.1,1.6,1.6,2.7,1.2
	c0.1-0.1,0.3-0.1,0.4-0.2c0,0.7,0.6,1.3,1.3,1.4c0.7,0,1.2-0.5,1.3-1.1l3.4,0c0.8,0,1.5,0,2.3-0.2c1-0.2,1.9-0.6,2.6-1.2
	c0.5-0.5,1.2-0.7,1.9-0.3c1.9,0.5,3.9,0.1,5.3-1.2c0.2-0.2,0.4-0.4,0.7-0.6c0.3-0.1,0.7-0.2,1-0.1c0.8,0,1.7-0.1,2.5-0.4
	c0.7-0.1,1.4-0.5,1.8-1.2c0.3-0.6-0.1-1.6-0.8-1.6c-0.1-0.5,0.1-1,0.4-1.3c0.3-0.3,0.9-0.4,1.3-0.1c0.3,0.3,0.2,0.7-0.1,1
	c-0.1,0.1-0.2,0.1-0.3,0.1c0.8,0.5,2-0.2,2-1.2c-0.1-1-0.9-1.7-1.9-1.7c0.2-0.7,0.2-1.4,0.1-2.1c0.5,0.6,1.4,0.7,2.1,0.2
	c0.4,0.6,1,1.1,1.7,1.2c0.7,0.1,1.5-0.3,1.7-1c0.2-0.6-0.2-1.2-0.8-1.4c-0.1,0-0.2,0-0.3,0c0.3-0.7,0.1-1.5-0.6-1.8
	c-0.2-0.1-0.4-0.1-0.6-0.1c0.1-1-0.4-1.9-1.3-2.3c0.5,0.3,1.2,0.1,1.5-0.4c0-0.1,0.1-0.1,0.1-0.2c0.4,0.7,1.5,0.5,2.2,0.1
	C100.5,61.9,100.9,61.2,100.8,60.5z"/>
<path class="st0" d="M100.8,60.5c0,0.1,0,0.2,0,0.3c0,0.3-0.1,0.6-0.3,0.8c-0.3,0.4-0.7,0.6-1.1,0.8c-0.3,0.1-0.6,0.2-0.9,0.1
	c-0.4,0-0.7-0.2-0.9-0.5h0.1c-0.2,0.6-0.9,0.9-1.5,0.7c-0.1,0-0.1,0-0.2-0.1l0-0.1c0.9,0.4,1.5,1.3,1.3,2.3l-0.1-0.1
	c0.5,0,0.9,0.2,1.2,0.6c0.3,0.4,0.3,1,0.1,1.4l-0.1-0.1c0.5,0,1,0.3,1.2,0.9c0.2,0.6-0.1,1.2-0.6,1.4c-0.5,0.3-1.1,0.4-1.7,0.2
	c-0.6-0.2-1-0.6-1.3-1.1h0.1c-0.7,0.5-1.7,0.4-2.2-0.2l0.2-0.1c0.2,0.7,0.1,1.4,0,2.1L94,69.8c0.5,0,0.9,0.2,1.3,0.5
	c0.4,0.3,0.6,0.7,0.7,1.2c0,0.5-0.2,1-0.7,1.3c-0.4,0.3-1,0.4-1.5,0.1l-0.2-0.2h0.3c0.3-0.1,0.4-0.4,0.4-0.6
	c-0.1-0.3-0.3-0.5-0.7-0.5c-0.3,0-0.6,0.2-0.8,0.5c-0.2,0.3-0.2,0.7-0.2,1l-0.1-0.1c0.3,0,0.5,0.1,0.7,0.3c0.2,0.2,0.3,0.4,0.3,0.7
	c0,0.3,0,0.5-0.1,0.8c-0.1,0.2-0.3,0.4-0.5,0.6c-0.4,0.3-0.8,0.5-1.3,0.6c-0.5,0.1-1,0.2-1.5,0.3c-1,0.2-2.1-0.2-2.7,0.7
	c-0.8,0.7-1.7,1.2-2.8,1.4c-0.5,0.1-1.1,0.1-1.6,0.1c-0.5-0.1-1.1-0.2-1.6-0.3c-0.2-0.1-0.5,0-0.7,0.1c-0.2,0.1-0.4,0.3-0.6,0.5
	c-0.5,0.3-0.9,0.6-1.5,0.8c-1.1,0.4-2.2,0.5-3.4,0.5l-3.5,0l0.1-0.1c-0.1,0.8-0.8,1.4-1.6,1.3c-0.8-0.1-1.3-0.8-1.3-1.5l0.2,0.1
	c-1,0.7-2.4,0.4-3-0.7c-0.1-0.1-0.1-0.3-0.2-0.4h0.3c-0.1,0.3-0.4,0.6-0.7,0.6c-0.3,0.1-0.7,0-1-0.1c-0.6-0.4-1-0.9-1.2-1.5h0.3
	c-0.2,0.9-1.1,1.4-2,1.2c-0.9-0.2-1.4-1.1-1.2-2c0-0.1,0.1-0.2,0.1-0.3l0.1,0.2c-0.6-0.2-1.1-0.8-1.2-1.5c-0.2-0.7,0-1.5,0.6-2
	l0,0.2c-1-0.4-1.5-1.6-1.1-2.6c0-0.1,0-0.1,0.1-0.1l0.1,0.2c-0.7-0.1-1.3-0.5-1.6-1.1l0.3,0c0,0.2-0.1,0.4-0.2,0.5
	c-0.1,0.1-0.3,0.2-0.5,0.2c-0.3,0.1-0.7,0-1-0.1c-0.6-0.3-1-0.8-1.2-1.4c-0.2-0.6-0.2-1.3,0.1-1.9c0.3-0.6,0.8-1.1,1.4-1.3L56.3,66
	c0-0.2,0-0.5,0.1-0.7l0.1,0.2c-0.3-0.2-0.5-0.5-0.5-0.8l0,0.1c-0.5-0.6-0.6-1.5-0.3-2.2c0.3-0.7,0.8-1.4,1.4-1.9l0.1,0.3
	c-0.5,0-0.9-0.2-1.2-0.6l0.1,0.1c-0.4-0.1-0.8-0.4-1-0.7l0,0c-0.3-0.2-0.5-0.5-0.5-0.9c0-0.4,0.1-0.8,0.4-1l0.1,0.3
	c-0.2,0-0.4-0.1-0.5-0.2c-0.1-0.1-0.1-0.3-0.2-0.5c0-0.3,0.1-0.7,0.4-0.9c0.5-0.4,1.1-0.4,1.6-0.7l0,0c0.9-1.2,2.1-2,3.5-2.5l0,0.3
	L58.7,53l-0.9-0.5c-0.3-0.2-0.6-0.4-0.9-0.6c-0.2-0.1-0.2-0.3-0.3-0.5c0-0.2,0-0.4,0.1-0.6c0.2-0.3,0.4-0.6,0.6-0.9
	c0.5-0.5,1.1-0.8,1.7-1.1c0.3-0.1,0.7-0.2,1-0.3c0.2,0,0.4,0,0.6,0c0.2,0,0.3,0.2,0.4,0.3l-0.2-0.1c0.6-0.3,1.2-0.5,1.9-0.5
	c0.3,0,0.6,0,1,0c0.4,0,0.7,0.1,1,0.3l-0.2,0.2c-0.3-0.6-1-0.8-1.4-1.5c-0.2-0.3-0.3-0.7-0.1-1.1c0.1-0.2,0.2-0.3,0.4-0.4
	c0.2-0.1,0.4-0.1,0.6,0l-0.1,0.3c-0.2-0.1-0.3-0.2-0.4-0.4c0-0.2,0-0.4,0-0.5c0-0.2,0.1-0.3,0.3-0.5c0.1-0.1,0.3-0.2,0.4-0.3
	c0.3-0.1,0.6-0.2,0.9-0.2c0.2,0,0.3,0,0.5,0c0.2,0,0.4,0.2,0.5,0.4h-0.3c0.1-0.6,0.7-0.9,1.3-0.8c0.3,0.1,0.5,0.2,0.6,0.5h-0.2
	c0.5-0.5,1.2-0.6,1.7-0.1c0,0,0.1,0.1,0.1,0.1h-0.2c0.6-0.4,1.4-0.3,2,0.2L71,44.7l-1-1.3c-0.2-0.2-0.3-0.5-0.4-0.8
	c0-0.2,0-0.3,0-0.5c0-0.1,0.1-0.2,0.2-0.2c0.1-0.1,0.2-0.1,0.3-0.1V42c-0.4,0-0.8-0.2-0.9-0.6c-0.2-0.3-0.2-0.7,0-1.1
	c0.4-0.6,1.1-1,1.8-0.9h0.1l0,0c0.2,0.3,0.4,0.5,0.6,0.8h-0.2c0.6-0.5,1.5-0.4,2,0.2c0.3,0.3,0.4,0.8,0.3,1.2l-0.2-0.1
	c0.2-0.2,0.4-0.3,0.7-0.2c0.2,0,0.4,0.2,0.6,0.3c0.2,0.4,0.3,0.8,0.3,1.2l-0.2-0.1c0.5-0.4,1.3-0.4,1.7,0.1c0.2,0.2,0.3,0.5,0.3,0.7
	l-0.2-0.1c0.6-0.4,1.2-0.6,1.9-0.6l-0.1,0.2c-0.5-0.6-0.3-1.5,0.3-2c0.4-0.3,0.9-0.4,1.4-0.2l-0.2,0.1c0-0.8,0.7-1.4,1.5-1.3
	c0.1,0,0.2,0,0.2,0L81.5,40c0.1-0.3,0.3-0.7,0.5-0.9c0.3-0.2,0.6-0.4,1-0.4c0.4,0,0.7,0.3,0.8,0.6c0.1,0.3,0.1,0.7,0.1,1
	c-0.1,0.6-0.3,1.2-0.6,1.8l-0.7,1.7l-0.2-0.2l2.4-1.6l1.2-0.8c0.2-0.1,0.4-0.3,0.6-0.4c0.1,0,0.3,0,0.4,0.1c0.1,0.1,0.2,0.1,0.3,0.2
	c0.2,0.1,0.4,0.1,0.6,0c0.3,0,0.5,0.1,0.7,0.3c0.3,0.4,0.3,0.9,0.1,1.4c-0.2,0.4-0.5,0.8-0.9,1c-0.4,0.2-0.7,0.5-1,0.8l-0.1-0.2
	l1.9,0.2l-0.1,0.1c0.2-1.1,1.2-1.8,2.3-1.6c0.1,0,0.1,0,0.2,0l-0.1,0.1c0.2-0.4,0.5-0.7,0.9-0.8c0.4-0.1,0.8-0.2,1.2-0.1
	c0.4,0,0.8,0,1.2,0.1c0.4,0.1,0.7,0.4,0.9,0.8c0.3,0.7,0.1,1.6-0.4,2.2c-0.5,0.5-1.1,1-1.7,1.3l0-0.1c0.1,0.3,0.3,0.4,0.6,0.5
	c0.3,0,0.6,0,0.9-0.1c0.3-0.1,0.6-0.2,0.9-0.2c0.3-0.1,0.6,0,0.9,0.2c0.5,0.3,0.8,0.9,1.3,1.1c0.3,0.1,0.5,0.1,0.8,0.2
	c0.3,0.1,0.5,0.4,0.5,0.7l0.5,1.5c0.1,0.3,0.1,0.6-0.1,0.8c-0.2,0.2-0.4,0.4-0.7,0.4c-0.3,0.1-0.5,0.1-0.8,0
	c-0.2-0.1-0.5-0.2-0.7-0.3c-0.4-0.2-0.8-0.4-1.3-0.5V51c0.5,0.2,1,0.4,1.5,0.7c0.5,0.3,0.8,0.7,1.1,1.1c0.2,0.4,0.2,0.9,0.1,1.4
	c-0.1,0.4-0.5,0.8-0.9,0.9l0,0c-0.4,0.2-0.8,0.4-1.2,0.4l0.1-0.1c0.2,1.2,0.5,2.3,1,3.4h0c0.6,0,1.2,0.1,1.7,0.2
	c0.4,0.1,0.8,0.3,1,0.6c0.2,0.2,0.3,0.4,0.4,0.6C100.7,60.4,100.7,60.5,100.8,60.5c-0.1-0.3-0.3-0.5-0.5-0.8c-0.3-0.3-0.6-0.5-1-0.6
	c-0.6-0.1-1.1-0.2-1.7-0.2l0,0l0,0c-0.5-1.1-0.9-2.2-1.1-3.5v-0.1h0.1c0.4,0,0.8-0.1,1.2-0.3l0,0c0.4-0.1,0.7-0.4,0.8-0.8
	c0.1-0.4,0.1-0.9-0.1-1.3c-0.2-0.4-0.6-0.8-1-1.1c-0.5-0.3-1-0.5-1.5-0.7L95.5,51h0.5c0.5,0.1,0.9,0.2,1.3,0.5
	c0.2,0.1,0.4,0.2,0.7,0.2c0.2,0,0.5,0,0.7,0c0.2,0,0.4-0.2,0.6-0.4c0.1-0.2,0.1-0.5,0-0.7l-0.4-1.5c-0.1-0.2-0.2-0.5-0.5-0.6
	c-0.3-0.1-0.5-0.1-0.8-0.2c-0.5-0.3-0.9-0.8-1.3-1.1c-0.5-0.3-1.1-0.1-1.7,0.1c-0.3,0.1-0.6,0.1-1,0.1c-0.4,0-0.7-0.3-0.8-0.6v-0.1
	l0.1,0c0.6-0.3,1.2-0.8,1.6-1.3c0.5-0.5,0.6-1.3,0.4-2c-0.2-0.3-0.5-0.6-0.8-0.7c-0.4-0.1-0.7-0.1-1.1-0.1c-0.4,0-0.8,0-1.1,0.1
	c-0.4,0.1-0.7,0.3-0.8,0.7l0,0.1l-0.1,0c-0.9-0.2-1.9,0.4-2.1,1.3c0,0,0,0.1,0,0.1V45h-0.1l-1.9-0.2h-0.2l0.2-0.2
	c0.3-0.3,0.7-0.6,1-0.9c0.4-0.2,0.6-0.6,0.8-0.9c0.2-0.4,0.1-0.8-0.1-1.2c-0.1-0.2-0.3-0.2-0.5-0.2c-0.2,0-0.5,0-0.7-0.1
	c-0.2-0.1-0.4-0.3-0.6-0.2c-0.2,0.1-0.4,0.2-0.6,0.3l-1.2,0.8l-2.4,1.6L82.1,44l0.2-0.4c0.2-0.6,0.5-1.1,0.7-1.7
	c0.3-0.5,0.5-1.1,0.6-1.7c0.1-0.3,0-0.6-0.1-0.8c-0.1-0.3-0.3-0.4-0.6-0.5c-0.6,0-1.1,0.4-1.2,1v0.1l-0.1,0C81,40,80.4,40.4,80.2,41
	c0,0.1,0,0.1,0,0.2v0.2L80,41.3c-0.6-0.2-1.3,0-1.5,0.6c-0.2,0.4-0.1,0.8,0.1,1.1l0.2,0.2h-0.3c-0.6,0-1.2,0.2-1.8,0.5l-0.2,0.1
	v-0.3c-0.1-0.5-0.6-0.9-1.1-0.9c-0.2,0-0.3,0.1-0.5,0.2l-0.2,0.2v-0.3c0-0.4-0.1-0.7-0.3-1c-0.2-0.2-0.6-0.4-0.8-0.1l-0.4,0.5
	l0.1-0.6c0.1-0.6-0.3-1.2-0.9-1.4c-0.3-0.1-0.7,0-1,0.2l-0.1,0.1l-0.1-0.1l-0.6-0.8l0.1,0c-0.6-0.1-1.2,0.2-1.5,0.8
	c-0.3,0.5,0.1,1.3,0.7,1.2V42c-0.1,0-0.1,0-0.2,0.1c0,0.1,0,0.2,0,0.3c0.1,0.2,0.2,0.5,0.4,0.7l1,1.3L71,44.7
	c-0.4-0.4-1.1-0.5-1.6-0.1l-0.1,0.1l-0.1-0.1c-0.4-0.4-1-0.4-1.4,0c0,0,0,0,0,0l-0.1,0.2l-0.1-0.2c-0.2-0.3-0.7-0.4-1.1-0.2
	c-0.1,0.1-0.2,0.2-0.3,0.4l-0.1,0.7l-0.2-0.7c-0.1-0.2-0.4-0.2-0.7-0.2c-0.3,0-0.6,0.1-0.9,0.2c-0.3,0.1-0.5,0.3-0.5,0.5
	c-0.1,0.3,0,0.5,0.2,0.6L64,46.1c-0.2-0.1-0.5,0-0.6,0.3c-0.1,0.3-0.1,0.6,0.1,0.8c0.3,0.5,1,0.8,1.4,1.5l0.3,0.6l-0.6-0.5
	c-0.4-0.3-1.1-0.2-1.7-0.2c-0.6,0-1.2,0.1-1.8,0.4L61,49.2L60.9,49c-0.1-0.2-0.4-0.2-0.7-0.2c-0.3,0.1-0.6,0.2-0.9,0.3
	c-0.6,0.2-1.2,0.6-1.7,1c-0.2,0.2-0.4,0.5-0.6,0.7c-0.1,0.3-0.1,0.6,0.1,0.8c0.3,0.2,0.5,0.4,0.8,0.5l0.9,0.5l1.1,0.7l0.3,0.2
	l-0.3,0.1c-1.3,0.4-2.5,1.2-3.3,2.4l0,0l0,0c-0.6,0.3-1.2,0.3-1.6,0.7c-0.2,0.2-0.3,0.4-0.3,0.6c0,0.2,0.1,0.4,0.3,0.4h0.5l-0.4,0.3
	c-0.2,0.2-0.3,0.5-0.3,0.8c0,0.3,0.2,0.5,0.4,0.7l0,0l0,0c0.2,0.3,0.5,0.5,0.9,0.6h0v0c0.2,0.3,0.6,0.5,1,0.5l0.4,0l-0.3,0.3
	c-0.6,0.5-1,1-1.3,1.7c-0.3,0.6-0.2,1.3,0.2,1.9l0,0v0c0.1,0.3,0.2,0.5,0.4,0.6l0.1,0.1l-0.1,0.1c-0.1,0.2-0.1,0.3-0.1,0.5V66
	l-0.1,0c-0.6,0.2-1,0.6-1.3,1.2c-0.3,0.5-0.3,1.1-0.1,1.7c0.2,0.5,0.6,1,1.1,1.3c0.2,0.1,0.5,0.1,0.8,0.1c0.2,0,0.4-0.1,0.5-0.3
	l0-0.6l0.2,0.5c0.3,0.5,0.8,0.9,1.3,1h0.2L59.1,71c-0.4,0.8-0.1,1.9,0.8,2.3c0,0,0.1,0,0.1,0l0.2,0.1l-0.2,0.2
	c-0.5,0.4-0.6,1.1-0.5,1.7c0.1,0.6,0.5,1.1,1.1,1.3l0.1,0l0,0.1c-0.2,0.7,0.2,1.5,0.9,1.8c0.7,0.2,1.4-0.2,1.7-0.9l0.1-0.3l0.1,0.3
	c0.2,0.6,0.6,1,1.1,1.4c0.5,0.3,1,0.1,1.3-0.3c0,0,0,0,0,0l0.1-0.4l0.1,0.4c0.2,0.6,0.7,1,1.2,1.1c0.5,0.2,1.1,0.1,1.6-0.2l0.2-0.2
	v0.3c0,0.6,0.5,1.2,1.1,1.2c0.6,0,1.1-0.4,1.2-1v-0.1h0.1h3.5c1.1,0.1,2.2-0.1,3.3-0.5c0.5-0.2,1-0.5,1.4-0.8
	c0.2-0.2,0.4-0.3,0.7-0.5c0.3-0.1,0.6-0.2,0.9-0.1c0.5,0.2,1,0.3,1.6,0.3c0.5,0,1,0,1.5-0.1c1-0.2,1.9-0.7,2.7-1.4
	c0.2-0.2,0.4-0.4,0.6-0.5c0.2-0.1,0.5-0.2,0.8-0.2c0.5,0,1,0,1.5-0.1c0.5-0.1,1-0.2,1.4-0.3c0.4-0.1,0.9-0.3,1.2-0.6
	c0.4-0.3,0.5-0.7,0.5-1.1c0-0.4-0.4-0.8-0.8-0.8h-0.1v-0.1c-0.1-0.4,0-0.8,0.2-1.1c0.2-0.3,0.6-0.6,1-0.6c0.4,0,0.8,0.2,0.9,0.6
	c0.1,0.4-0.2,0.8-0.6,0.9l0-0.2c0.4,0.2,0.9,0.2,1.2-0.1c0.4-0.2,0.6-0.7,0.6-1.1C95.7,70.6,94.9,70,94,70h-0.1v-0.1
	c0.2-0.7,0.2-1.4,0.1-2l-0.1-0.4l0.2,0.3c0.5,0.6,1.4,0.7,2,0.2l0.1-0.1l0,0.1c0.3,0.5,0.7,0.9,1.3,1.1c0.5,0.2,1.1,0.2,1.5-0.1
	c0.4-0.3,0.7-0.8,0.5-1.3c-0.1-0.5-0.5-0.8-1-0.8h-0.1l0.1-0.1c0.3-0.7,0-1.4-0.6-1.7c-0.2-0.1-0.3-0.1-0.5-0.1h-0.1v-0.1
	c0.1-0.9-0.4-1.8-1.2-2.2l0-0.1c0.5,0.3,1.2,0.1,1.4-0.4c0,0,0.1-0.1,0.1-0.2v-0.1l0.1,0.1c0.2,0.3,0.5,0.5,0.8,0.5
	c0.3,0,0.6,0,0.9-0.1c0.4-0.1,0.8-0.4,1.1-0.8c0.2-0.2,0.3-0.5,0.3-0.8C100.8,60.6,100.8,60.5,100.8,60.5z"/>
<path class="st3" d="M85.3,85.7c-0.1-1.8-0.1-3.3-0.1-3.3c0,0,6.2-0.9,6.4-7.1c0.1-3-0.3-9.2-0.7-14.8c-0.4-6-5.4-10.7-11.4-10.8
	h-0.6c-6.5,0.3-9.8,6-9.3,12.4l0.7,23.6l3.7,9C77.6,98.8,85.6,91.1,85.3,85.7L85.3,85.7z"/>
<path class="st4" d="M85.3,82.4c-2.9,0-5.7-0.9-8.1-2.5c0,0,1.9,4.8,8.1,4.3V82.4z"/>
<path class="st1" d="M88.6,66.1c0,0.5-0.4,0.9-0.9,0.9c-0.5,0-0.9-0.3-0.9-0.8c0,0,0,0,0,0c0-0.5,0.4-0.9,0.9-0.9
	C88.1,65.3,88.5,65.6,88.6,66.1C88.6,66.1,88.6,66.1,88.6,66.1z"/>
<path class="st1" d="M89.6,63.1c-0.1,0.1-0.8-0.4-1.7-0.4s-1.7,0.5-1.8,0.3c-0.1-0.1,0.1-0.3,0.4-0.5c0.4-0.3,0.9-0.4,1.4-0.4
	c0.5,0,1,0.2,1.4,0.5C89.6,62.9,89.7,63.1,89.6,63.1z"/>
<path class="st1" d="M80.1,66.5c0,0.5-0.4,0.9-0.9,0.9c-0.5,0-0.9-0.3-0.9-0.8c0,0,0,0,0,0c0-0.5,0.4-0.9,0.9-0.9
	C79.7,65.7,80.1,66.1,80.1,66.5C80.1,66.5,80.1,66.5,80.1,66.5z"/>
<path class="st1" d="M80.3,63.4c-0.1,0.1-0.8-0.4-1.7-0.4c-1,0-1.7,0.5-1.8,0.3c-0.1-0.1,0.1-0.3,0.4-0.5c0.4-0.3,0.9-0.4,1.4-0.4
	c0.5,0,1,0.2,1.4,0.5C80.3,63.1,80.3,63.3,80.3,63.4z"/>
<path class="st1" d="M83.6,70.8c0.5-0.2,1-0.2,1.6-0.3c0.2,0,0.5-0.1,0.5-0.2c0-0.3,0-0.5-0.2-0.7c-0.2-0.6-0.5-1.2-0.7-1.9
	c-1-2.7-1.7-4.8-1.6-4.9c0.1,0,1,2.1,1.9,4.7l0.7,1.9c0.1,0.3,0.2,0.6,0.1,1c-0.1,0.2-0.2,0.3-0.4,0.4c-0.1,0-0.3,0-0.4,0
	C84.7,70.8,84.1,70.8,83.6,70.8z"/>
<path class="st1" d="M80.6,60.2c-0.1,0.3-1,0.1-2.2,0.2c-1.1,0.1-2,0.4-2.2,0.2c-0.1-0.1,0.1-0.4,0.5-0.6c1-0.6,2.2-0.7,3.3-0.3
	C80.4,59.9,80.6,60.1,80.6,60.2z"/>
<path class="st1" d="M89.3,59.9c-0.2,0.2-0.8,0-1.6,0s-1.5,0.2-1.6-0.1c-0.1-0.1,0-0.3,0.3-0.5c0.4-0.3,0.8-0.4,1.3-0.4
	c0.5,0,0.9,0.2,1.3,0.4C89.3,59.6,89.4,59.8,89.3,59.9z"/>
<path class="st4" d="M84.5,73.2c-0.1,0.4-0.3,0.7-0.5,1c-0.2,0.3-0.5,0.6-0.9,0.6c-0.4,0-0.8-0.2-1.1-0.5c-0.2-0.3-0.4-0.7-0.3-1.1
	c0-0.4,0.1-0.8,0.5-0.9c0.2,0,0.3,0,0.5,0.1l2,0.7"/>
<path class="st1" d="M83.9,74.8c-0.3,0-0.7,0-1-0.1c-0.3-0.1-0.6-0.4-0.8-0.7c-0.2-0.4-0.2-0.8-0.1-1.2c0-0.1,0.1-0.2,0.2-0.3
	c0.1-0.1,0.1-0.1,0.1-0.1s0.2,0.1,0.3,0.1l0.3,0.1c0.4,0.1,0.8,0.3,1.1,0.4c0.3,0.1,0.7,0.2,1.1,0.3c-0.3-0.2-0.6-0.4-1-0.5
	c-0.3-0.1-0.7-0.3-1.1-0.4l-0.3-0.1c-0.1-0.1-0.2-0.1-0.4-0.1c-0.1,0-0.2,0-0.3,0c-0.1,0-0.2,0.1-0.2,0.2c-0.1,0.1-0.1,0.2-0.2,0.4
	c-0.2,0.5-0.1,1.1,0.1,1.5c0.2,0.4,0.6,0.6,1,0.7c0.3,0.1,0.6,0.1,0.8,0C83.8,74.9,83.9,74.8,83.9,74.8z"/>
<path class="st1" d="M92.6,55.4c0-0.3-0.1-0.6-0.1-0.9c-0.2-0.5-0.5-0.8-0.8-1.2c-1.2-1.2-2.4-2.4-3.9-2.8c-0.9-0.2-1.9-0.1-2.8-0.4
	c-0.6-0.2-1.1-0.4-1.7-0.6c-2.3-0.7-4.7-0.9-7-0.4c-1.3,0.2-2.6,0.6-3.8,1.2c-1.3,0.8-2.4,1.9-3.4,3.1c-1.6,1.8-2.9,3.8-3.8,6.1
	c-0.7,1.8-0.9,3.8-0.5,5.7c0.5,1.9,1.8,3.6,3.5,3.9l0.6-0.8l0.9-1.2c-0.2,0.5,0,0.4,0.4,0.6c0.4,0.2,0.9,0.1,1.1-0.3c0,0,0,0,0-0.1
	c0.3,0.4,1-0.1,0.8-0.6c0.4,0.2,0.8-0.4,0.7-0.8c0.4,0.1,0.6-0.6,0.8-1.1c0.1-0.3,0.3-0.5,0.4-0.7c0.4-0.8,0.6-1.7,0.5-2.6
	c0.4-0.8,0.7-1.7,0.6-2.6c0-0.6,0-1.1,0.1-1.7c0.1-0.1,0.2-0.3,0.3-0.4c0,0.4,0.3,0.7,0.7,0.8c0.3,0.1,0.7,0,1-0.1l1-0.3l0.7,0.1
	c-0.1,0.6,0,1.1,0.3,1.6c0.1,0.4,0.3,0.7,0.6,0.9c0.3,0.1,0.5-0.1,0.6-0.3c0-0.1,0-0.2,0-0.2c0.2,0.2,0.6,0.1,0.7-0.1
	c0,0,0.1-0.1,0.1-0.1c0.2-0.3,0.2-0.7,0.1-1.1c-0.1-0.9-0.5-1.7-1-2.4l1.9,1.5c0.1,0.1,0.3,0.2,0.5,0.2c0,0.3,0.2,0.5,0.5,0.5
	c0,0,0.1,0,0.1,0c0.3-0.1,0.5-0.3,0.6-0.5c0.4-0.5,0.8-1.3,0.4-1.8c0.2-0.1,0.3-0.3,0.2-0.5c0,0,0,0,0,0l2.1,1.4
	c-0.2-0.1-0.4,0.2-0.3,0.5c0.1,0.2,0.2,0.4,0.5,0.6c-0.2,0.3-0.2,0.6-0.1,1c-0.4-0.3-0.9,0.4-0.7,0.9c0.2,0.5,0.6,0.8,1.1,0.7
	c0.4,0,0.8-0.3,0.8-0.7c0.4,0.1,0.8-0.6,0.6-1.1c0.3,0.2,0.6-0.4,0.5-0.8c0-0.8-0.2-1.5-0.5-2.2c0,0.1,0.1,0.1,0.2,0c0,0,0,0,0,0
	c0,0,0-0.1,0-0.1l1.3,2.5c0.4,0.7,0.7,1.5,0.8,2.2c0,0.3,0.1,0.8,0.4,0.8c0.1,0,0.2,0,0.2-0.1c0.8-0.5,1.4-1.3,1.6-2.3
	c0.1-0.3,0.2-0.7,0.2-1C92.9,56.8,92.8,56.1,92.6,55.4z"/>
<path class="st0" d="M83.7,54.5c0.1-0.1,0.2-0.3,0.2-0.5c0-0.2-0.1-0.4-0.2-0.6c-0.2-0.2-0.5-0.2-0.7-0.1l-0.2,0.1l0.1-0.2
	c0.1-0.3,0-0.6-0.3-0.8c-0.3-0.2-0.7-0.1-0.9,0.1l-0.1-0.1c0,0,0-0.1,0-0.1c0-0.1,0-0.2-0.1-0.3c-0.1-0.1-0.2-0.2-0.3-0.2
	c-0.1,0-0.3,0-0.4,0c-0.1,0.1-0.3,0.1-0.4,0.1c-0.2,0-0.3-0.1-0.4-0.2c-0.1-0.1-0.2-0.1-0.3-0.2c-0.2-0.1-0.4-0.1-0.6-0.1
	c-0.3,0-0.6,0.1-0.9,0.3c-0.2,0.1-0.3,0.2-0.3,0.2c0.1-0.1,0.1-0.2,0.2-0.3c0.3-0.2,0.6-0.3,0.9-0.4c0.2,0,0.5,0,0.7,0.1
	c0.1,0,0.2,0.1,0.3,0.2c0.1,0.1,0.2,0.2,0.3,0.2c0.1,0,0.2-0.1,0.4-0.1c0.1-0.1,0.3-0.1,0.5-0.1c0.2,0,0.3,0.1,0.4,0.2
	c0.1,0.1,0.2,0.3,0.1,0.5c0,0.1,0,0.1-0.1,0.2l-0.1-0.1c0.3-0.3,0.8-0.4,1.2-0.1c0.3,0.2,0.4,0.6,0.3,1L83,53.2
	c0.3-0.1,0.6,0,0.9,0.2c0.2,0.2,0.3,0.4,0.2,0.7c0,0.2-0.1,0.3-0.2,0.4C83.9,54.5,83.8,54.5,83.7,54.5z"/>
<path class="st0" d="M88.1,55.3c0.1-0.1,0.2-0.3,0.3-0.5c0-0.2,0-0.4-0.1-0.6c-0.2-0.3-0.4-0.4-0.7-0.4h-0.1l0.1-0.1
	c0.2-0.3,0.3-0.6,0.2-1c-0.1-0.2-0.2-0.3-0.4-0.4c-0.2-0.1-0.4,0-0.5,0.1L86.4,53l0.3-0.6c0.1-0.2,0.1-0.5,0-0.7
	c-0.1-0.2-0.3-0.4-0.6-0.5c-0.2,0-0.4,0-0.6,0.1l-0.2,0.1l0.1-0.2c0.1-0.3-0.2-0.6-0.5-0.6c-0.3,0-0.6,0.1-0.9,0.2l-0.2,0.1l0-0.2
	c0-0.2-0.1-0.5-0.3-0.6c-0.2-0.1-0.4-0.2-0.6-0.2c-0.4,0-0.7,0-1.1,0.1c-0.3,0.1-0.6,0.2-0.9,0.4c0,0,0.1-0.1,0.2-0.2
	c0.5-0.4,1.2-0.5,1.8-0.5c0.2,0,0.5,0.1,0.7,0.2c0.2,0.2,0.4,0.5,0.3,0.7l-0.1-0.1c0.3-0.2,0.6-0.3,1-0.3c0.2,0,0.4,0.1,0.5,0.3
	c0.2,0.2,0.2,0.4,0.2,0.6L85.4,51c0.2-0.1,0.4-0.2,0.7-0.1c0.3,0,0.6,0.3,0.8,0.6c0.1,0.3,0.1,0.6,0,0.9l-0.1-0.1
	c0.2-0.2,0.4-0.2,0.7-0.2c0.2,0.1,0.4,0.2,0.5,0.5c0.1,0.4,0,0.8-0.3,1.1l0-0.1c0.3,0,0.6,0.2,0.8,0.5c0.1,0.2,0.2,0.5,0.1,0.7
	c0,0.1-0.1,0.3-0.2,0.4C88.2,55.3,88.1,55.3,88.1,55.3z"/>
<path class="st0" d="M97.4,55.3c0-0.2-0.1-0.3-0.3-0.5c-0.2-0.1-0.4-0.2-0.6-0.2c-0.3,0-0.6,0.1-0.8,0.3l-0.1,0v-0.1
	c0-0.4-0.3-0.6-0.7-0.7c-0.4,0-0.8,0.1-1.2,0.3l-0.5,0.2l0.4-0.4c0.2-0.3,0.2-0.7-0.1-0.9c0,0,0,0,0,0c-0.3-0.2-0.7-0.3-1.1-0.2h0
	l-0.3,0.1l0.3-0.2c0.2-0.3,0.2-0.7,0-0.9c0,0-0.1-0.1-0.1-0.1c-0.4-0.2-0.8-0.1-1.1,0.2l-0.3,0.3l0.2-0.4c0.2-0.5,0.2-1.1-0.1-1.5
	c-0.3-0.3-0.6-0.5-1.1-0.6c-0.3,0-0.6,0-0.8,0.2c-0.2,0.1-0.2,0.2-0.3,0.2l0.1-0.1c0.1-0.1,0.1-0.1,0.2-0.1c0.2-0.2,0.5-0.2,0.8-0.2
	c0.5,0,0.9,0.2,1.2,0.6c0.4,0.5,0.4,1.1,0.2,1.7L91,52.3c0.3-0.3,0.8-0.4,1.3-0.2c0.2,0.1,0.4,0.4,0.4,0.6c0.1,0.3,0,0.5-0.2,0.7
	l-0.1-0.2h0.1c0.4-0.1,0.9,0,1.2,0.2c0.2,0.1,0.3,0.3,0.3,0.5c0,0.2,0,0.4-0.2,0.6l-0.1-0.1c0.4-0.2,0.8-0.3,1.3-0.3
	c0.4,0.1,0.7,0.4,0.8,0.8l-0.1-0.1c0.3-0.1,0.6-0.2,0.8-0.2c0.2,0,0.4,0.1,0.6,0.2c0.1,0.1,0.2,0.2,0.2,0.4
	C97.4,55.2,97.4,55.3,97.4,55.3z"/>
<path class="st0" d="M91.8,46.9c0,0-0.1,0.1-0.2,0.1c-0.2,0.1-0.4,0.1-0.7,0.1c-0.3,0-0.7,0.1-1,0.2c-0.2,0.1-0.3,0.3-0.3,0.4
	c0,0.2,0,0.4,0.2,0.5l-0.1,0.1c-0.1-0.2-0.3-0.3-0.6-0.5c-0.3-0.1-0.5-0.2-0.8-0.3c-0.3,0-0.6,0-0.8,0.2c-0.2,0.1-0.3,0.4-0.3,0.7
	l0,0.2l-0.2-0.1c-0.3-0.2-0.7-0.4-1.2-0.4c-0.3,0-0.7,0.1-1,0.2c-0.3,0.1-0.5,0.3-0.7,0.5c0-0.1,0.1-0.1,0.1-0.2
	c0.1-0.2,0.3-0.3,0.5-0.4c0.3-0.2,0.6-0.3,1-0.3c0.4,0,0.9,0.1,1.2,0.4L87,48.6c-0.1-0.3,0.1-0.6,0.4-0.8c0.3-0.2,0.6-0.3,0.9-0.2
	c0.3,0.1,0.6,0.2,0.9,0.3c0.1,0.1,0.3,0.1,0.4,0.2c0.1,0.1,0.2,0.2,0.3,0.4l0,0.2l-0.1-0.1c-0.2-0.1-0.4-0.4-0.3-0.7
	c0-0.2,0.2-0.4,0.4-0.5c0.3-0.2,0.7-0.2,1-0.2c0.2,0,0.4,0,0.7,0C91.6,47,91.7,47,91.8,46.9z"/>
<path class="st0" d="M83,44.4c-0.2,0-0.3,0.1-0.4,0.1c-0.2,0.1-0.3,0.2-0.4,0.3c-0.1,0.2-0.2,0.4-0.2,0.6v0.1h-0.1
	c-0.3,0-0.5,0.1-0.6,0.4c-0.1,0.3-0.1,0.6,0,1l0.1,0.3l-0.2-0.3l0,0c-0.2-0.2-0.4-0.2-0.6-0.2c-0.2,0-0.4,0.1-0.5,0.3
	c-0.2,0.3-0.3,0.7-0.3,1c0,0.3,0.1,0.5,0.3,0.7c0.1,0.1,0.1,0.2,0.1,0.3c0,0-0.1-0.1-0.2-0.2c-0.1-0.2-0.3-0.5-0.3-0.7
	c-0.1-0.4,0-0.8,0.3-1.2c0.3-0.4,0.9-0.5,1.4-0.2c0,0,0,0,0,0l0,0.1l-0.2,0.1c-0.1-0.3-0.1-0.7,0-1c0.1-0.3,0.4-0.5,0.8-0.5
	l-0.1,0.1c0-0.4,0.3-0.8,0.7-1c0.1,0,0.2-0.1,0.4,0C82.9,44.4,83,44.4,83,44.4z"/>
<path class="st0" d="M75.9,50.2c0,0-0.1,0-0.2,0c-0.2-0.1-0.4-0.2-0.5-0.3c-0.2-0.2-0.4-0.5-0.5-0.8c0-0.2-0.1-0.3-0.2-0.5
	c-0.1-0.1-0.3-0.2-0.5-0.4c-0.3-0.4-0.2-0.9,0.1-1.2v0.1c-0.3-0.3-0.6-0.6-0.8-1c-0.1-0.1-0.1-0.3-0.2-0.5c0,0,0.1,0.2,0.2,0.4
	c0.2,0.3,0.5,0.6,0.8,0.8l0.1,0.1l-0.1,0.1c-0.3,0.2-0.3,0.7-0.1,0.9c0.1,0.1,0.3,0.2,0.5,0.4c0.1,0.2,0.2,0.4,0.2,0.5
	c0.1,0.3,0.2,0.6,0.4,0.8C75.4,50,75.7,50.1,75.9,50.2z"/>
<path class="st0" d="M73.8,51.9c0,0,0,0-0.1,0c-0.1,0-0.3,0-0.4,0c-0.5-0.1-1-0.3-1.3-0.6H72c-0.2,0.3-0.6,0.6-1,0.6
	c-0.2,0-0.4,0-0.7,0c-0.2,0-0.4-0.2-0.6-0.4c0-0.1-0.1-0.2-0.1-0.2c0-0.1-0.1-0.1-0.1-0.2c-0.1-0.1-0.3-0.1-0.4-0.1
	c-0.2,0-0.3-0.1-0.5-0.1c-0.2-0.1-0.3-0.2-0.3-0.4l0.1,0.1c-0.3,0.2-0.7,0.2-1,0.1c-0.3-0.1-0.5-0.2-0.7-0.4
	c-0.1-0.1-0.2-0.3-0.3-0.4c0-0.1,0-0.1-0.1-0.2c0.1,0.2,0.3,0.4,0.4,0.5c0.2,0.2,0.4,0.3,0.7,0.3c0.3,0.1,0.7,0,0.9-0.1l0.1-0.1v0.1
	c0,0.1,0.1,0.2,0.2,0.3c0.1,0.1,0.3,0.1,0.4,0.1c0.2,0,0.3,0.1,0.5,0.2c0.1,0.1,0.1,0.1,0.2,0.2c0,0.1,0,0.2,0.1,0.2
	c0.1,0.2,0.3,0.3,0.5,0.3c0.2,0,0.4,0,0.6,0c0.4-0.1,0.7-0.3,0.9-0.5l0.1-0.1l0.1,0.1c0.3,0.3,0.8,0.5,1.2,0.6
	C73.6,52,73.8,51.9,73.8,51.9z"/>
<path class="st0" d="M60.7,58.4C60.7,58.4,60.7,58.4,60.7,58.4c0-0.1,0-0.2,0-0.2c0-0.2,0-0.5,0-0.7c0.1-0.4,0.2-0.7,0.4-1
	c0.1-0.2,0.2-0.4,0.3-0.6c0.1-0.1,0.2-0.2,0.3-0.3c0.1-0.1,0.3-0.1,0.4,0l-0.1,0.1c-0.1-0.6,0.3-1.2,0.9-1.3c0.3-0.1,0.6,0,0.9,0.2
	l-0.1,0.1c0-0.3,0.1-0.5,0.3-0.7c0.2-0.2,0.5-0.2,0.7-0.2c0.1,0,0.3,0.1,0.4,0.2l-0.1,0.1c0-0.2,0-0.3,0.1-0.4
	c0.1-0.1,0.2-0.2,0.4-0.2c0.3,0,0.5,0,0.8,0.1l-0.1,0c0.1-0.3,0.4-0.5,0.7-0.6c0.3-0.1,0.6-0.1,0.8-0.1c0.5,0.1,0.9,0.3,1.4,0.5
	l-0.1,0.1c-0.1-0.1-0.1-0.2,0-0.3c0-0.1,0.1-0.1,0.2-0.2c0.1-0.1,0.3-0.1,0.5-0.1c0.2,0,0.5,0.1,0.7,0.1c0.1,0.1,0.3,0.1,0.4,0.2
	c0,0,0.1,0.1,0.1,0.1c0,0-0.2-0.1-0.6-0.2c-0.2-0.1-0.5-0.1-0.7-0.1c-0.1,0-0.3,0-0.4,0.1c-0.1,0.1-0.2,0.2-0.2,0.3l0.1,0.2
	l-0.2-0.1c-0.4-0.2-0.9-0.4-1.3-0.5c-0.3,0-0.5,0-0.8,0.1c-0.3,0.1-0.5,0.3-0.6,0.5l0,0.1H66c-0.2-0.1-0.4-0.1-0.7-0.1
	c-0.2,0-0.4,0.2-0.4,0.4l0,0.3l-0.2-0.2c-0.1-0.1-0.2-0.1-0.3-0.2c-0.2-0.1-0.4,0-0.6,0.1c-0.2,0.1-0.2,0.3-0.2,0.5v0.2l-0.2-0.1
	c-0.3-0.2-0.8-0.2-1.1,0c-0.3,0.2-0.5,0.6-0.4,1v0.1l-0.1-0.1c-0.2-0.1-0.4,0.1-0.5,0.2c-0.1,0.2-0.2,0.4-0.3,0.5
	c-0.2,0.3-0.3,0.6-0.4,1C60.6,57.8,60.6,58.1,60.7,58.4z"/>
<path class="st0" d="M62.1,63.4c0,0-0.1-0.1-0.1-0.1c-0.1-0.1-0.2-0.2-0.2-0.3c-0.1-0.2-0.2-0.4-0.2-0.6c0-0.1,0-0.3,0.1-0.4
	c0.1-0.1,0.2-0.3,0.4-0.3v0.1c-0.2-0.2-0.2-0.6-0.1-0.9c0.2-0.3,0.5-0.5,0.9-0.5l-0.1,0.1c-0.2-0.2-0.2-0.5,0-0.8
	c0.2-0.2,0.4-0.4,0.7-0.4c0.1,0,0.3,0,0.4,0c0.1,0,0.2-0.1,0.2-0.2c0-0.1,0.1-0.3,0.2-0.4c0.1-0.1,0.2-0.2,0.4-0.3
	c0.3-0.1,0.6-0.1,0.9-0.1c0.3,0,0.5-0.1,0.7-0.3c0.1-0.1,0.1-0.2,0.2-0.4c0.2-0.4,0.7-0.5,1.1-0.3l-0.1,0.1c-0.2-0.2-0.2-0.6,0-0.8
	c0.1-0.2,0.4-0.3,0.6-0.4c0.4-0.1,0.8,0,1.1,0c0.2,0,0.5,0.1,0.7,0.2c0.1,0,0.2,0.1,0.2,0.1c0,0-0.3-0.1-0.9-0.2
	c-0.4-0.1-0.7-0.1-1.1,0c-0.2,0-0.4,0.2-0.5,0.3c-0.1,0.2-0.1,0.4,0,0.6l0.2,0.3l-0.3-0.1c-0.2-0.1-0.5-0.1-0.7,0
	c-0.1,0.1-0.2,0.1-0.3,0.2c-0.1,0.1-0.1,0.2-0.2,0.4c-0.1,0.1-0.2,0.2-0.4,0.3c-0.1,0-0.3,0.1-0.5,0.1c-0.3,0-0.6,0-0.9,0.1
	c-0.1,0-0.2,0.1-0.3,0.2c-0.1,0.1-0.1,0.2-0.2,0.4c-0.1,0.2-0.2,0.3-0.3,0.3c-0.1,0-0.3,0-0.4,0c-0.2,0-0.5,0.1-0.6,0.3
	c-0.1,0.2-0.1,0.4,0,0.6l0.1,0.2l-0.2,0c-0.3,0-0.6,0.1-0.7,0.4c-0.1,0.2-0.1,0.5,0.1,0.7l0.1,0.1H62c-0.2,0.1-0.4,0.4-0.4,0.6
	c0,0.2,0,0.4,0.2,0.6C61.9,63.1,62,63.2,62.1,63.4z"/>
<path class="st0" d="M61.5,72.8c-0.1,0-0.1,0-0.2,0c-0.2-0.1-0.3-0.2-0.4-0.3c-0.2-0.2-0.3-0.4-0.4-0.7c0-0.4,0.1-0.7,0.3-1v0.1
	c-0.2-0.2-0.4-0.5-0.5-0.8c0-0.2,0-0.4,0-0.6c0.1-0.2,0.2-0.4,0.4-0.5v0.2c-0.3-0.2-0.5-0.5-0.5-0.9c0-0.2,0-0.4,0.1-0.6
	c0.1-0.2,0.2-0.3,0.4-0.4c0.2-0.1,0.2-0.2,0.2-0.3c0-0.2,0-0.4,0.1-0.5c0.1-0.3,0.3-0.6,0.6-0.7c0.2-0.2,0.4-0.4,0.6-0.5
	c0.3-0.3,0.6-0.5,1-0.6c0.1,0,0.2,0,0.3-0.1c0.1,0,0.1,0,0.1,0s-0.2,0-0.4,0.1c-0.4,0.1-0.7,0.4-1,0.6l-0.6,0.5
	c-0.2,0.2-0.4,0.4-0.5,0.7c0,0.1-0.1,0.3-0.1,0.5c0,0.1,0,0.2-0.1,0.3c-0.1,0.1-0.1,0.1-0.2,0.2c-0.3,0.2-0.5,0.5-0.5,0.8
	c0,0.3,0.2,0.6,0.4,0.7l0.2,0.1l-0.2,0.1c-0.3,0.2-0.4,0.5-0.3,0.8c0.1,0.3,0.3,0.5,0.5,0.8l0,0l0,0c-0.2,0.3-0.3,0.6-0.3,0.9
	c0,0.2,0.1,0.5,0.3,0.7C61.1,72.5,61.3,72.7,61.5,72.8z"/>
<path class="st0" d="M76,57.6c-0.2,0-0.4-0.1-0.5-0.2c-0.2-0.1-0.4-0.2-0.5-0.4c-0.2-0.2-0.3-0.5-0.2-0.7c0-0.1,0-0.1,0.1-0.2l0,0.1
	c-0.2-0.1-0.4-0.3-0.5-0.5c-0.1-0.2,0-0.4,0.1-0.6c0.2-0.3,0.4-0.3,0.4-0.3s-0.2,0.1-0.3,0.4c-0.1,0.2-0.1,0.3,0,0.5
	c0.1,0.2,0.2,0.3,0.4,0.4H75l0,0.1c0,0,0,0.1,0,0.1c0,0.2,0,0.4,0.2,0.6c0.1,0.1,0.3,0.3,0.4,0.4C75.7,57.3,75.9,57.4,76,57.6z"/>
<path class="st0" d="M79.9,55.3c0.1-0.2,0.1-0.4,0.1-0.6c-0.1-0.2-0.2-0.4-0.5-0.5c-0.3-0.1-0.6,0-0.8,0.2l-0.1,0.1l0-0.1
	c0-0.2-0.1-0.3-0.2-0.5c-0.1-0.2-0.3-0.3-0.5-0.3c-0.3,0-0.6,0.3-0.5,0.5l-0.2,0c-0.1-0.3-0.3-0.6-0.5-0.8c-0.2-0.2-0.5-0.2-0.8-0.2
	c-0.2,0-0.5,0.1-0.7,0.2c0,0,0-0.1,0.2-0.1c0.4-0.3,1-0.2,1.4,0c0.3,0.2,0.5,0.5,0.6,0.9l-0.2,0c-0.1-0.2,0-0.4,0.1-0.5
	c0.1-0.1,0.3-0.2,0.5-0.2c0.2,0,0.5,0.1,0.6,0.3c0.1,0.2,0.2,0.4,0.3,0.6h-0.1c0.3-0.3,0.6-0.4,1-0.2c0.3,0.1,0.5,0.3,0.5,0.6
	c0,0.2,0,0.4-0.1,0.5C79.9,55.3,79.9,55.3,79.9,55.3z"/>
<path class="st3" d="M70.1,66.8c-0.1,0-4.3-1.3-4.2,2.9c0.1,4.2,4.3,3.3,4.3,3.2S70.1,66.8,70.1,66.8z"/>
<path class="st4" d="M69,71.3c0,0-0.1,0-0.2,0.1c-0.2,0.1-0.4,0.1-0.5,0c-0.6-0.3-0.9-1-0.9-1.6c0-0.4,0-0.7,0.2-1.1
	c0.1-0.3,0.3-0.5,0.5-0.6c0.2,0,0.4,0,0.4,0.2c0.1,0.1,0,0.2,0.1,0.2s0.1-0.1,0-0.2c0-0.1-0.1-0.2-0.2-0.3c-0.1-0.1-0.3-0.1-0.4-0.1
	c-0.4,0.1-0.6,0.3-0.8,0.7C67.1,69,67,69.4,67,69.8c0,0.9,0.5,1.6,1.1,1.8c0.2,0.1,0.5,0,0.7-0.1C68.9,71.4,69,71.3,69,71.3z"/>
<path class="st5" d="M68.8,84.9l1.4-3c0,0,1.2,6.7,3.8,9.4l3.1,3.4l0.1-1.5l8.1-7.6l-0.1-2.4l3.4,4.5l6.3,5.7l-9.2,50.8l-0.6,6.6
	l-18.9-2.6l-5.1-33.4c0,0-1.6-17.6-1.5-17.3s1.9-6.9,1.9-6.9l6.1-3.2L68.8,84.9z"/>
<path class="st6" d="M51.8,92.1c0,0-3.5,2.9-4.8,9.3c-1.3,6.4-5.8,29.9-5.8,32c0,0,2.1,9.9,4.8,16.1c2.4,5.6,5.1,10.5,5.4,10.2
	l6.1-7.4l-4.3-20.8l0.4-1.7l1.1-3.1l1.9-9.8L51.8,92.1z"/>
<path class="st6" d="M54.1,141.6l1-12.4l-0.4-3l-1.9-18.1l-1-16l13.1-4.8l1.3-0.5l2.5-2.6l0.8,25.8c0,0,0.4,20.9,0.1,22.6
	c-0.3,1.7-2.7,26-11.1,33.9c0,0-3.4,4.1-4.7,3.2c-1.3-0.9-4.6-15.6-4.6-15.6L54.1,141.6z"/>
<path class="st1" d="M66.5,86.5c0,0,0,0.1-0.2,0.3l-0.5,0.8l-2.1,2.8l0,0h0l-1.8,0.7l0.1-0.1c0.9,4.2,2,10,3.4,16.5
	c1.2,6.4,2.4,12.1,3.2,16.4l0.9,4.9c0.1,0.6,0.2,1,0.2,1.4c0,0.2,0.1,0.3,0.1,0.5c-0.1-0.1-0.1-0.3-0.1-0.5
	c-0.1-0.3-0.2-0.8-0.3-1.3c-0.3-1.2-0.6-2.9-1-4.9c-0.9-4.2-2-10-3.3-16.3c-1.3-6.5-2.4-12.3-3.3-16.5v-0.1l0.1,0l1.8-0.6l0,0
	l2.2-2.8c0.2-0.3,0.4-0.5,0.6-0.7C66.3,86.7,66.4,86.6,66.5,86.5z"/>
<path class="st6" d="M85.9,84.1l3.6,3.4l12.7,6.8l-3.7,15.7l-1.3,19.3l1.8,12.2l4.4,23c0,0-15.4,4.2-17.2,3.2s-1.5-3.6-1.6-3.8
	c-0.1-0.2-2.8-23.3-2.8-23.3l-0.6-8.9c0,0-0.2-15.3,0.8-18.7c1.1-3.4,2.6-14.6,3.2-17.7s1.2-5.2,1.6-6.8c0.2-0.9,0.4-1.8,0.4-2.6
	L85.9,84.1z"/>
<path class="st6" d="M91.9,143.2c0.1,2,0.4,3.9,0.8,5.8c3-0.4,6-1,8.9-2c-0.5-1.3-1-2.7-1.5-4c-0.1-0.3-0.3-0.6-0.5-0.8
	c-0.3-0.1-0.7-0.2-1-0.1L91.9,143.2"/>
<path class="st1" d="M91.9,143.2c0.3-0.1,0.7-0.2,1-0.2l2.7-0.5l1.9-0.3l1.1-0.2c0.2,0,0.4-0.1,0.6,0c0.2,0,0.4,0.1,0.6,0.2
	c0.3,0.3,0.5,0.7,0.6,1.1l0.4,1.2c0.3,0.8,0.6,1.6,0.9,2.5l0.1,0.2l-0.2,0l-0.9,0.3c-2.6,0.8-5.3,1.4-8,1.7h-0.1V149
	c-0.3-1.4-0.5-2.8-0.6-4.2c0-0.5-0.1-0.9-0.1-1.2C92,143.5,92,143.3,91.9,143.2c0.1,0.1,0.1,0.3,0.1,0.4c0,0.3,0.1,0.7,0.1,1.2
	c0.2,1.4,0.4,2.8,0.7,4.2l-0.1-0.1c2.7-0.3,5.4-0.9,7.9-1.7l0.9-0.3l-0.1,0.2c-0.3-0.9-0.6-1.7-0.9-2.5l-0.4-1.2
	c-0.1-0.4-0.3-0.7-0.5-1c-0.3-0.2-0.6-0.2-1-0.1l-1.1,0.2l-1.9,0.3l-2.8,0.4C92.6,143.1,92.3,143.2,91.9,143.2z"/>
<path class="st1" d="M52.7,167.3c0-0.1-0.1-0.1-0.1-0.2l-0.2-0.7c-0.2-0.6-0.4-1.5-0.7-2.6l-2.6-9.6v0v0l4.8-12.6v0
	c0.2-2.5,0.4-5,0.6-7.7c0.1-1.6,0.3-3.2,0.4-4.8l0,0c-0.8-8.4-1.6-15.9-2.1-21.2c-0.3-2.7-0.5-4.8-0.6-6.3c0-0.7-0.1-1.3-0.1-1.7
	c0-0.2,0-0.3,0-0.4c0-0.1,0-0.1,0-0.2c0,0,0,0.1,0,0.1c0,0.1,0,0.3,0,0.4c0,0.4,0.1,1,0.2,1.7c0.2,1.5,0.4,3.6,0.7,6.3
	c0.6,5.3,1.4,12.8,2.2,21.2l0,0c-0.1,1.5-0.3,3.1-0.4,4.8c-0.2,2.6-0.4,5.2-0.6,7.7v0c-1.8,4.7-3.5,8.9-4.8,12.5V154
	c1,4,1.9,7.3,2.5,9.6l0.7,2.6c0.1,0.3,0.1,0.5,0.2,0.7C52.7,167.1,52.7,167.2,52.7,167.3z"/>
<path class="st1" d="M45.4,130.2c0.4-0.1,0.8-0.2,1.2-0.2c1,0,1.9,0,2.8,0.2c0.9,0.2,1.8,0.5,2.7,0.9c0.4,0.1,0.7,0.3,1,0.6
	c-1.2-0.4-2.5-0.8-3.8-1.1C48,130.3,46.7,130.2,45.4,130.2z"/>
<path class="st1" d="M81.3,130.6c0-0.2,0.1-0.3,0.1-0.5c0.1-0.3,0.2-0.8,0.4-1.3c0.3-1.2,0.8-2.8,1.4-4.9l4.6-16
	c1.9-6.2,3.5-11.9,4.7-16v0.1l-2.8-3l0,0l0,0l-0.8-2c-0.1-0.2-0.1-0.4-0.2-0.5c0-0.1,0-0.1,0-0.2c0,0,0.1,0.1,0.1,0.2l0.2,0.5
	c0.2,0.5,0.5,1.1,0.8,1.9l0,0l2.9,2.9l0,0v0.1c-1.2,4.1-2.8,9.7-4.6,16l-4.7,16l-1.5,4.8l-0.4,1.3C81.4,130.3,81.3,130.5,81.3,130.6
	z"/>
<path class="st1" d="M96.9,102.4c0-0.5,0-0.9,0.1-1.4c0.5-2.2,1.7-4.1,3.5-5.5c0.3-0.3,0.7-0.5,1.2-0.7c0.1,0.1-1.8,1.2-3.1,3.4
	C97.8,99.5,97.2,100.9,96.9,102.4z"/>
<g class="st7">
	<path d="M96.8,136.2l-4-2.7c-1.4-1-2.9-1.9-4.6-2.5c-1.2-0.4-2.6-0.6-3.9-1c-1.3-0.5-2.4-1.4-3.1-2.5c0,0.6,0,1.7,0.1,2.3
		c0.1,1.1,1.2,1.7,2.2,2.2c1,0.5,2.2,0.9,3,1.7c0.5,0.5,0.8,1.1,1.2,1.7c1,1.1,2.2,1.9,3.6,2.3c2.2,0.8,4.4,1.4,6.7,1.7
		c0.2,0.1,0.4,0,0.6-0.1c0.1-0.1,0.2-0.3,0.2-0.5C98.7,137.6,97.7,136.8,96.8,136.2z"/>
</g>
<path class="st6" d="M102.2,94.3c0,0,2.3,1,3.3,5.2s6.2,29.9,6.1,32.5c-0.1,2.6-1.3,4.6-3.7,5.5c-2.3,0.9-4.9,1.1-7.3,0.7
	c-3.1-0.6-6.2-1.4-9.2-2.4c-1.1-0.4-2.1-0.8-3.1-1.4c-0.2-1.9-0.1-3.8,0.4-5.7c0.8-2.8,3.7-6.4,3.7-6.4l7.4,2.3l-2-8.9l2.3-18.6
	L102.2,94.3z"/>
<path class="st1" d="M99.7,124.6c0.5,0.1,0.9,0.3,1.4,0.5c1,0.6,2,1.3,2.8,2.1c0.8,0.8,1.5,1.8,2.1,2.8c0.3,0.4,0.4,0.9,0.6,1.4
	c-0.8-1.4-1.8-2.8-2.9-4C102.5,126.4,101.2,125.4,99.7,124.6z"/>
<path class="st1" d="M109.1,128.2c0,0-0.4-0.5-1.1-1.1c-1.8-1.7-4.3-2.6-6.8-2.6c-1,0-1.5,0.1-1.5,0.1c0-0.1,0.1-0.1,0.4-0.1
	c0.4-0.1,0.8-0.1,1.1-0.2c2.6-0.1,5.1,0.8,6.9,2.7c0.3,0.3,0.5,0.6,0.7,0.9C109,127.9,109,128,109.1,128.2z"/>
<path class="st1" d="M97.8,115.8c0,0,0,0.1,0,0.2c0,0.1,0.1,0.3,0.1,0.5l0.4,1.8c0.4,1.6,0.9,3.8,1.5,6.5l0,0.2l-0.2-0.1l-7.4-2.3
	h0.1c-1.1,0.7-2.1,1.6-2.7,2.8c-0.7,1.2-1.1,2.6-1.3,4c-0.1,0.9-0.2,1.7-0.2,2.6c0,0.8,0.1,1.7,0.2,2.5l-0.1-0.1
	c1.2,0.7,2.4,1.2,3.7,1.6c1.2,0.4,2.5,0.7,3.7,0.9s2.3,0.6,3.3,0.9c0.9,0.3,1.9,0.4,2.8,0.5c1.4,0.1,2.8,0.1,4.1-0.1
	c0.5-0.1,0.8-0.2,1.1-0.2c0.1,0,0.2-0.1,0.4-0.1c-0.1,0.1-0.2,0.1-0.4,0.1c-0.4,0.1-0.7,0.2-1.1,0.3c-1.4,0.3-2.8,0.4-4.2,0.2
	c-1-0.1-1.9-0.3-2.9-0.5c-1-0.3-2.1-0.5-3.3-0.8c-1.2-0.3-2.4-0.6-3.7-0.9c-1.3-0.4-2.6-0.9-3.8-1.6l-0.1,0v-0.1
	c-0.1-0.9-0.2-1.7-0.2-2.6c0-0.9,0-1.8,0.2-2.7c0.2-1.4,0.6-2.8,1.3-4.1c0.7-1.2,1.7-2.2,2.8-2.9l0.1,0h0.1l7.4,2.3l-0.2,0.1
	c-0.6-2.7-1-4.9-1.4-6.5c-0.1-0.7-0.3-1.3-0.4-1.8c0-0.2-0.1-0.3-0.1-0.5C97.8,115.9,97.8,115.8,97.8,115.8z"/>
<path class="st0" d="M77.4,126.7c0,0,0.2-11.3,0.4-11.7s0.2-0.7,1.2-0.8c1-0.1,7.9-0.3,8.5-0.1c0.4,0.2,0.5,0.5,0.5,1
	c0,2.2-0.5,9.6-0.6,12.3c0,0.6-0.5,1-1.1,1l-8.2-0.1c-0.4,0-0.7-0.3-0.7-0.7L77.4,126.7z"/>
<path class="st1" d="M79.5,115.8L79.5,115.8c0.4,0,0.7,0.3,0.7,0.6v1.6c0,0.3-0.3,0.6-0.6,0.6h0c-0.3,0-0.6-0.3-0.6-0.6v-1.6
	C78.8,116.1,79.1,115.8,79.5,115.8z"/>
<path class="st3" d="M87.8,118.1c0,0,0.7-0.5,0.9,0c0.2,0.5,4.4,6.6,4.4,6.6c0.1,1.1,0.1,2.2-0.2,3.2c-0.3,1.3-0.9,2.6-1.6,3.8
	l-1.4-1.2c0,0-3.4,0.6-4,0.4c-0.6-0.1-4.1-1.7-4.9-2.6c-0.6-0.7-1.3-1.2-2-1.8l-3.5-2.4c-0.2-0.1-0.4-0.4-0.5-0.6
	c-0.1-0.3,0-0.7,0.3-0.9c0.3-0.3,0.7-0.3,1-0.2c0,0-0.2-1.2,0.6-1.4c0.8-0.2,8.8,2.7,8.8,2.7c0.3,0,0.5-0.2,0.7-0.4
	c0.2-0.3-5.7-1.9-5.8-2.5c-0.1-0.6,0.4-1.3,1.4-1.3s5.6,1,5.6,1L87.8,118.1z"/>
<path class="st4" d="M89.5,123.6c0,0-0.1,0.2-0.4,0.3c-0.4,0.1-0.8,0.1-1.2,0c-0.6-0.1-1.1-0.4-1.5-0.7c0.5,0.1,1.1,0.2,1.6,0.4
	C88.4,123.6,89,123.7,89.5,123.6z"/>
<path class="st4" d="M89.6,120.8c0,0.1-0.5,0.1-1,0c-0.5-0.1-0.9-0.3-0.9-0.4c0-0.1,0.5-0.1,1,0S89.6,120.7,89.6,120.8z"/>
<path class="st4" d="M86.6,126.9c-0.5-0.1-1.1-0.2-1.6-0.4c-2.5-0.8-4.9-1.9-7.1-3.2c-0.5-0.3-0.9-0.6-1.3-0.9
	c0.5,0.2,1,0.5,1.4,0.7c0.9,0.5,2.1,1.1,3.5,1.8s2.7,1.1,3.6,1.5C85.6,126.5,86.1,126.7,86.6,126.9z"/>
<path class="st4" d="M84.9,128.7c-1.1,0-2.2-0.3-3.2-0.8c-1-0.4-2-1-2.8-1.7c0.1-0.1,1.2,0.7,2.9,1.4
	C83.5,128.3,84.9,128.6,84.9,128.7z"/>
<path class="st1" d="M92.2,122.2c0,0,0.2,0.1,0.3,0.5c0.3,0.4,0.5,0.9,0.6,1.4c0.5,1.7,0.3,3.5-0.4,5.1c-0.3,0.9-0.7,1.7-1.2,2.5
	c-0.4,0.7-0.9,1.2-1.5,1.7c-0.4,0.3-0.8,0.6-1.3,0.9c-0.2,0.1-0.3,0.2-0.5,0.2c0-0.1,0.7-0.4,1.7-1.3c0.6-0.5,1-1.1,1.4-1.7
	c0.5-0.8,0.8-1.6,1.2-2.5c0.7-1.5,0.8-3.2,0.4-4.9C92.8,123.5,92.5,122.8,92.2,122.2z"/>
<g class="st7">
	<polygon points="53.8,134.9 51,145.2 50.1,152 54.1,141.6 54.4,137.3 	"/>
</g>
<path class="st1" d="M77.1,94.8c0,0-0.2-0.2-0.6-0.5c-0.4-0.3-1.1-0.7-1.9-1.2l0.2-0.1c-0.1,0.7-0.1,1.6-0.1,2.5c0,1,0,2.1-0.1,3.1
	L74.6,99l-0.2-0.4c-0.3-0.6-0.6-1.1-1-1.7c-1.3-2.1-2.5-4.3-3.6-6.6c-0.3-0.7-0.6-1.4-0.8-2.1c-0.1-0.3-0.1-0.5-0.2-0.8
	c0.1,0.3,0.2,0.5,0.3,0.8c0.3,0.7,0.5,1.4,0.9,2.1c0.8,1.7,2.2,4,3.7,6.5c0.3,0.6,0.7,1.2,1,1.7l-0.3,0.1c0.1-1.1,0.1-2.1,0.1-3
	c0-0.8,0.1-1.7,0.2-2.5v-0.2l0.2,0.1c0.6,0.4,1.2,0.8,1.8,1.3c0.2,0.1,0.3,0.3,0.4,0.4C77.1,94.7,77.2,94.8,77.1,94.8z"/>
<path class="st1" d="M86.4,89c0,0.2-0.1,0.4-0.3,0.5c-0.3,0.4-0.6,0.8-1,1.2c-0.9,1-2.1,2.2-3.5,3.6c-0.9,0.9-1.8,1.7-2.5,2.3
	l-0.1,0.1l-0.1-0.2c-0.5-1-0.9-1.8-1.2-2.4c-0.2-0.3-0.3-0.6-0.4-0.9c0.2,0.3,0.4,0.5,0.5,0.9c0.3,0.5,0.8,1.3,1.3,2.3l-0.2,0
	l2.5-2.4c1.4-1.3,2.7-2.6,3.6-3.5c0.4-0.5,0.8-0.8,1-1.1C86.2,89.2,86.3,89,86.4,89z"/>
<path class="st1" d="M79.3,111.2c-0.2,0.1-0.5,0.1-0.7,0.1c-0.3,0-0.6,0-0.9,0c-0.4,0-0.8-0.2-1.1-0.5c-0.4-0.4-0.5-0.9-0.5-1.4
	c0-0.5,0-1,0-1.6c0-1.1,0.1-2.4,0.1-3.7c0.1-2.6,0.2-5,0.3-6.7c0-0.8,0.1-1.5,0.1-2c0-0.3,0-0.5,0.1-0.7c0,0.2,0,0.5,0,0.7
	c0,0.5,0,1.2,0,2c0,1.7-0.1,4.1-0.2,6.7c0,1.3-0.1,2.6-0.1,3.7c0,1.2-0.3,2.2,0.3,2.8c0.3,0.2,0.6,0.4,1,0.5
	c0.3,0.1,0.6,0.1,0.9,0.1C78.8,111.2,79.1,111.2,79.3,111.2z"/>
<path class="st8" d="M254.1,28.7h-29.3c0,0,6.6-9.5,11.7-9.5s6.7,6.3,6.7,6.3s3.7-2.9,7-2.4C253.6,23.5,254.1,28.7,254.1,28.7z"/>
<g id="freepik--Sun--inject-12">
	<circle class="st9" cx="447.9" cy="39.6" r="23"/>
	<circle class="st10" cx="447.9" cy="39.6" r="14.5"/>
</g>
<rect x="345.3" y="271" class="st8" width="4.6" height="4.9"/>
<rect x="337.2" y="271" class="st8" width="4.6" height="4.9"/>
<rect x="329.1" y="271" class="st8" width="4.6" height="4.9"/>
<rect x="321" y="271" class="st8" width="4.6" height="4.9"/>
<rect x="312.9" y="271" class="st8" width="4.6" height="4.9"/>
<rect x="300.2" y="271" class="st11" width="4.6" height="4.9"/>
<rect x="292.1" y="271" class="st11" width="4.6" height="4.9"/>
<rect x="284" y="271" class="st11" width="4.6" height="4.9"/>
<g>
	<rect x="212.3" y="82.6" class="st8" width="37.6" height="192.9"/>
	<rect x="212.3" y="78.8" class="st12" width="38.5" height="3.8"/>
	<rect x="242.6" y="88.3" class="st13" width="3.8" height="187.2"/>
	<rect x="235.9" y="88.3" class="st13" width="3.8" height="187.2"/>
	<rect x="229.2" y="88.3" class="st13" width="3.8" height="187.2"/>
	<rect x="222.4" y="88.3" class="st13" width="3.8" height="187.2"/>
	<rect x="215.7" y="88.3" class="st13" width="3.8" height="187.2"/>
	<rect x="242.6" y="93.1" class="st8" width="3.8" height="7.6"/>
	<rect x="235.9" y="93.1" class="st8" width="3.8" height="7.6"/>
	<rect x="229.2" y="93.1" class="st8" width="3.8" height="7.6"/>
	<rect x="222.4" y="93.1" class="st8" width="3.8" height="7.6"/>
	<rect x="215.7" y="93.1" class="st8" width="3.8" height="7.6"/>
	<rect x="242.6" y="105.5" class="st8" width="3.8" height="7.6"/>
	<rect x="235.9" y="105.5" class="st8" width="3.8" height="7.6"/>
	<rect x="229.2" y="105.5" class="st8" width="3.8" height="7.6"/>
	<rect x="222.4" y="105.5" class="st8" width="3.8" height="7.6"/>
	<rect x="215.7" y="105.5" class="st8" width="3.8" height="7.6"/>
	<rect x="242.6" y="117.8" class="st8" width="3.8" height="7.6"/>
	<rect x="235.9" y="117.8" class="st8" width="3.8" height="7.6"/>
	<rect x="229.2" y="117.8" class="st8" width="3.8" height="7.6"/>
	<rect x="222.4" y="117.8" class="st8" width="3.8" height="7.6"/>
	<rect x="215.7" y="117.8" class="st8" width="3.8" height="7.6"/>
	<rect x="242.6" y="130.1" class="st8" width="3.8" height="7.6"/>
	<rect x="235.9" y="130.1" class="st8" width="3.8" height="7.6"/>
	<rect x="229.2" y="130.1" class="st8" width="3.8" height="7.6"/>
	<rect x="222.4" y="130.1" class="st8" width="3.8" height="7.6"/>
	<rect x="215.7" y="130.1" class="st8" width="3.8" height="7.6"/>
	<rect x="242.6" y="142.4" class="st8" width="3.8" height="7.6"/>
	<rect x="235.9" y="142.4" class="st8" width="3.8" height="7.6"/>
	<rect x="229.2" y="142.4" class="st8" width="3.8" height="7.6"/>
	<rect x="222.4" y="142.4" class="st8" width="3.8" height="7.6"/>
	<rect x="215.7" y="142.4" class="st8" width="3.8" height="7.6"/>
	<rect x="242.6" y="154.8" class="st8" width="3.8" height="7.6"/>
	<rect x="235.9" y="154.8" class="st8" width="3.8" height="7.6"/>
	<rect x="229.2" y="154.8" class="st8" width="3.8" height="7.6"/>
	<rect x="222.4" y="154.8" class="st8" width="3.8" height="7.6"/>
	<rect x="215.7" y="154.8" class="st8" width="3.8" height="7.6"/>
	<rect x="242.6" y="167.1" class="st8" width="3.8" height="7.6"/>
	<rect x="235.9" y="167.1" class="st8" width="3.8" height="7.6"/>
	<rect x="229.2" y="167.1" class="st8" width="3.8" height="7.6"/>
	<rect x="222.4" y="167.1" class="st8" width="3.8" height="7.6"/>
	<rect x="215.7" y="167.1" class="st8" width="3.8" height="7.6"/>
	<rect x="242.6" y="179.4" class="st8" width="3.8" height="7.6"/>
	<rect x="235.9" y="179.4" class="st8" width="3.8" height="7.6"/>
	<rect x="229.2" y="179.4" class="st8" width="3.8" height="7.6"/>
	<rect x="222.4" y="179.4" class="st8" width="3.8" height="7.6"/>
	<rect x="215.7" y="179.4" class="st8" width="3.8" height="7.6"/>
	<rect x="242.6" y="191.7" class="st8" width="3.8" height="7.6"/>
	<rect x="235.9" y="191.7" class="st8" width="3.8" height="7.6"/>
	<rect x="229.2" y="191.7" class="st8" width="3.8" height="7.6"/>
	<rect x="222.4" y="191.7" class="st8" width="3.8" height="7.6"/>
	<rect x="215.7" y="191.7" class="st8" width="3.8" height="7.6"/>
	<rect x="242.6" y="204" class="st8" width="3.8" height="7.6"/>
	<rect x="235.9" y="204" class="st8" width="3.8" height="7.6"/>
	<rect x="229.2" y="204" class="st8" width="3.8" height="7.6"/>
	<rect x="222.4" y="204" class="st8" width="3.8" height="7.6"/>
	<rect x="215.7" y="204" class="st8" width="3.8" height="7.6"/>
	<rect x="242.6" y="216.4" class="st8" width="3.8" height="7.6"/>
	<rect x="235.9" y="216.4" class="st8" width="3.8" height="7.6"/>
	<rect x="229.2" y="216.4" class="st8" width="3.8" height="7.6"/>
	<rect x="222.4" y="216.4" class="st8" width="3.8" height="7.6"/>
	<rect x="215.7" y="216.4" class="st8" width="3.8" height="7.6"/>
	<rect x="242.6" y="228.7" class="st8" width="3.8" height="7.6"/>
	<rect x="235.9" y="228.7" class="st8" width="3.8" height="7.6"/>
	<rect x="229.2" y="228.7" class="st8" width="3.8" height="7.6"/>
	<rect x="222.4" y="228.7" class="st8" width="3.8" height="7.6"/>
	<rect x="215.7" y="228.7" class="st8" width="3.8" height="7.6"/>
	<rect x="242.6" y="241" class="st8" width="3.8" height="7.6"/>
	<rect x="235.9" y="241" class="st8" width="3.8" height="7.6"/>
	<rect x="229.2" y="241" class="st8" width="3.8" height="7.6"/>
	<rect x="222.4" y="241" class="st8" width="3.8" height="7.6"/>
	<rect x="215.7" y="241" class="st8" width="3.8" height="7.6"/>
	<rect x="242.6" y="253.3" class="st8" width="3.8" height="22.2"/>
	<rect x="235.9" y="253.3" class="st8" width="3.8" height="22.2"/>
	<rect x="229.2" y="253.3" class="st8" width="3.8" height="22.2"/>
	<rect x="222.4" y="253.3" class="st8" width="3.8" height="22.2"/>
	<rect x="215.7" y="253.3" class="st8" width="3.8" height="22.2"/>
	<rect x="188.2" y="82.6" class="st11" width="24.1" height="192.9"/>
	<rect x="187.1" y="78.8" class="st12" width="25.2" height="3.8"/>
	<rect x="205.1" y="88.3" class="st12" width="3.8" height="187.2"/>
	<rect x="198.3" y="88.3" class="st12" width="3.8" height="187.2"/>
	<rect x="191.6" y="88.3" class="st12" width="3.8" height="187.2"/>
	<rect x="205.1" y="93.1" class="st11" width="3.8" height="7.6"/>
	<rect x="198.3" y="93.1" class="st11" width="3.8" height="7.6"/>
	<rect x="191.6" y="93.1" class="st11" width="3.8" height="7.6"/>
	<rect x="205.1" y="105.5" class="st11" width="3.8" height="7.6"/>
	<rect x="198.3" y="105.5" class="st11" width="3.8" height="7.6"/>
	<rect x="191.6" y="105.5" class="st11" width="3.8" height="7.6"/>
	<rect x="205.1" y="117.8" class="st11" width="3.8" height="7.6"/>
	<rect x="198.3" y="117.8" class="st11" width="3.8" height="7.6"/>
	<rect x="191.6" y="117.8" class="st11" width="3.8" height="7.6"/>
	<rect x="205.1" y="130.1" class="st11" width="3.8" height="7.6"/>
	<rect x="198.3" y="130.1" class="st11" width="3.8" height="7.6"/>
	<rect x="191.6" y="130.1" class="st11" width="3.8" height="7.6"/>
	<rect x="205.1" y="142.4" class="st11" width="3.8" height="7.6"/>
	<rect x="198.3" y="142.4" class="st11" width="3.8" height="7.6"/>
	<rect x="191.6" y="142.4" class="st11" width="3.8" height="7.6"/>
	<rect x="205.1" y="154.8" class="st11" width="3.8" height="7.6"/>
	<rect x="198.3" y="154.8" class="st11" width="3.8" height="7.6"/>
	<rect x="191.6" y="154.8" class="st11" width="3.8" height="7.6"/>
	<rect x="205.1" y="167.1" class="st11" width="3.8" height="7.6"/>
	<rect x="198.3" y="167.1" class="st11" width="3.8" height="7.6"/>
	<rect x="191.6" y="167.1" class="st11" width="3.8" height="7.6"/>
	<rect x="205.1" y="179.4" class="st11" width="3.8" height="7.6"/>
	<rect x="198.3" y="179.4" class="st11" width="3.8" height="7.6"/>
	<rect x="191.6" y="179.4" class="st11" width="3.8" height="7.6"/>
	<rect x="205.1" y="191.7" class="st11" width="3.8" height="7.6"/>
	<rect x="198.3" y="191.7" class="st11" width="3.8" height="7.6"/>
	<rect x="191.6" y="191.7" class="st11" width="3.8" height="7.6"/>
	<rect x="205.1" y="204" class="st11" width="3.8" height="7.6"/>
	<rect x="198.3" y="204" class="st11" width="3.8" height="7.6"/>
	<rect x="191.6" y="204" class="st11" width="3.8" height="7.6"/>
	<rect x="205.1" y="216.4" class="st11" width="3.8" height="7.6"/>
	<rect x="198.3" y="216.4" class="st11" width="3.8" height="7.6"/>
	<rect x="191.6" y="216.4" class="st11" width="3.8" height="7.6"/>
	<rect x="205.1" y="228.7" class="st11" width="3.8" height="7.6"/>
	<rect x="198.3" y="228.7" class="st11" width="3.8" height="7.6"/>
	<rect x="191.6" y="228.7" class="st11" width="3.8" height="7.6"/>
	<rect x="205.1" y="241" class="st11" width="3.8" height="7.6"/>
	<rect x="198.3" y="241" class="st11" width="3.8" height="7.6"/>
	<rect x="191.6" y="241" class="st11" width="3.8" height="7.6"/>
	<rect x="205.1" y="253.3" class="st11" width="3.8" height="22.2"/>
	<rect x="198.3" y="253.3" class="st11" width="3.8" height="22.2"/>
	<rect x="191.6" y="253.3" class="st11" width="3.8" height="22.2"/>
	<rect x="308.8" y="161.5" class="st8" width="45.1" height="114"/>
	<rect x="308.8" y="157.7" class="st12" width="46.2" height="3.8"/>
	<rect x="345.3" y="167.2" class="st13" width="4.6" height="108.3"/>
	<rect x="337.2" y="167.2" class="st13" width="4.6" height="108.3"/>
	<rect x="329.1" y="167.2" class="st13" width="4.6" height="108.3"/>
	<rect x="321" y="167.2" class="st13" width="4.6" height="108.3"/>
	<rect x="312.9" y="167.2" class="st13" width="4.6" height="108.3"/>
	<rect x="345.3" y="172" class="st8" width="4.6" height="7.6"/>
	<rect x="337.2" y="172" class="st8" width="4.6" height="7.6"/>
	<rect x="329.1" y="172" class="st8" width="4.6" height="7.6"/>
	<rect x="321" y="172" class="st8" width="4.6" height="7.6"/>
	<rect x="312.9" y="172" class="st8" width="4.6" height="7.6"/>
	<rect x="345.3" y="184.3" class="st8" width="4.6" height="7.6"/>
	<rect x="337.2" y="184.3" class="st8" width="4.6" height="7.6"/>
	<rect x="329.1" y="184.3" class="st8" width="4.6" height="7.6"/>
	<rect x="321" y="184.3" class="st8" width="4.6" height="7.6"/>
	<rect x="312.9" y="184.3" class="st8" width="4.6" height="7.6"/>
	<rect x="345.3" y="196.6" class="st8" width="4.6" height="7.6"/>
	<rect x="337.2" y="196.6" class="st8" width="4.6" height="7.6"/>
	<rect x="329.1" y="196.6" class="st8" width="4.6" height="7.6"/>
	<rect x="321" y="196.6" class="st8" width="4.6" height="7.6"/>
	<rect x="312.9" y="196.6" class="st8" width="4.6" height="7.6"/>
	<rect x="345.3" y="209" class="st8" width="4.6" height="7.6"/>
	<rect x="337.2" y="209" class="st8" width="4.6" height="7.6"/>
	<rect x="329.1" y="209" class="st8" width="4.6" height="7.6"/>
	<rect x="321" y="209" class="st8" width="4.6" height="7.6"/>
	<rect x="312.9" y="209" class="st8" width="4.6" height="7.6"/>
	<rect x="345.3" y="221.3" class="st8" width="4.6" height="7.6"/>
	<rect x="337.2" y="221.3" class="st8" width="4.6" height="7.6"/>
	<rect x="329.1" y="221.3" class="st8" width="4.6" height="7.6"/>
	<rect x="321" y="221.3" class="st8" width="4.6" height="7.6"/>
	<rect x="312.9" y="221.3" class="st8" width="4.6" height="7.6"/>
	<rect x="345.3" y="233.6" class="st8" width="4.6" height="7.6"/>
	<rect x="337.2" y="233.6" class="st8" width="4.6" height="7.6"/>
	<rect x="329.1" y="233.6" class="st8" width="4.6" height="7.6"/>
	<rect x="321" y="233.6" class="st8" width="4.6" height="7.6"/>
	<rect x="312.9" y="233.6" class="st8" width="4.6" height="7.6"/>
	<rect x="345.3" y="245.9" class="st8" width="4.6" height="7.6"/>
	<rect x="337.2" y="245.9" class="st8" width="4.6" height="7.6"/>
	<rect x="329.1" y="245.9" class="st8" width="4.6" height="7.6"/>
	<rect x="321" y="245.9" class="st8" width="4.6" height="7.6"/>
	<rect x="312.9" y="245.9" class="st8" width="4.6" height="7.6"/>
	<rect x="345.3" y="258.3" class="st8" width="4.6" height="7.6"/>
	<rect x="337.2" y="258.3" class="st8" width="4.6" height="7.6"/>
	<rect x="329.1" y="258.3" class="st8" width="4.6" height="7.6"/>
	<rect x="321" y="258.3" class="st8" width="4.6" height="7.6"/>
	<rect x="312.9" y="258.3" class="st8" width="4.6" height="7.6"/>
	<rect x="279.8" y="161.5" class="st11" width="29" height="114"/>
	<rect x="278.6" y="157.7" class="st12" width="30.2" height="3.8"/>
	<rect x="300.2" y="167.2" class="st12" width="4.6" height="108.3"/>
	<rect x="292.1" y="167.2" class="st12" width="4.6" height="108.3"/>
	<rect x="284" y="167.2" class="st12" width="4.6" height="108.3"/>
	<rect x="300.2" y="172" class="st11" width="4.6" height="7.6"/>
	<rect x="292.1" y="172" class="st11" width="4.6" height="7.6"/>
	<rect x="284" y="172" class="st11" width="4.6" height="7.6"/>
	<rect x="300.2" y="184.3" class="st11" width="4.6" height="7.6"/>
	<rect x="292.1" y="184.3" class="st11" width="4.6" height="7.6"/>
	<rect x="284" y="184.3" class="st11" width="4.6" height="7.6"/>
	<rect x="300.2" y="196.6" class="st11" width="4.6" height="7.6"/>
	<rect x="292.1" y="196.6" class="st11" width="4.6" height="7.6"/>
	<rect x="284" y="196.6" class="st11" width="4.6" height="7.6"/>
	<rect x="300.2" y="209" class="st11" width="4.6" height="7.6"/>
	<rect x="292.1" y="209" class="st11" width="4.6" height="7.6"/>
	<rect x="284" y="209" class="st11" width="4.6" height="7.6"/>
	<rect x="300.2" y="221.3" class="st11" width="4.6" height="7.6"/>
	<rect x="292.1" y="221.3" class="st11" width="4.6" height="7.6"/>
	<rect x="284" y="221.3" class="st11" width="4.6" height="7.6"/>
	<rect x="300.2" y="233.6" class="st11" width="4.6" height="7.6"/>
	<rect x="292.1" y="233.6" class="st11" width="4.6" height="7.6"/>
	<rect x="284" y="233.6" class="st11" width="4.6" height="7.6"/>
	<rect x="300.2" y="245.9" class="st11" width="4.6" height="7.6"/>
	<rect x="292.1" y="245.9" class="st11" width="4.6" height="7.6"/>
	<rect x="284" y="245.9" class="st11" width="4.6" height="7.6"/>
	<rect x="300.2" y="258.3" class="st11" width="4.6" height="7.6"/>
	<rect x="292.1" y="258.3" class="st11" width="4.6" height="7.6"/>
	<rect x="284" y="258.3" class="st11" width="4.6" height="7.6"/>
	<rect x="251.1" y="202.6" class="st12" width="36.3" height="72.9"/>
	<rect x="275.3" y="208.9" class="st11" width="6.4" height="4.5"/>
	<rect x="275.3" y="218.5" class="st11" width="6.4" height="4.5"/>
	<rect x="275.3" y="228" class="st11" width="6.4" height="4.5"/>
	<rect x="275.3" y="237.5" class="st11" width="6.4" height="4.5"/>
	<rect x="275.3" y="247.1" class="st11" width="6.4" height="4.5"/>
	<rect x="275.3" y="256.6" class="st11" width="6.4" height="4.5"/>
	<rect x="275.3" y="266.2" class="st11" width="6.4" height="4.5"/>
	<rect x="266" y="208.9" class="st11" width="6.4" height="4.5"/>
	<rect x="266" y="218.5" class="st11" width="6.4" height="4.5"/>
	<rect x="266" y="228" class="st11" width="6.4" height="4.5"/>
	<rect x="266" y="237.5" class="st11" width="6.4" height="4.5"/>
	<rect x="266" y="247.1" class="st11" width="6.4" height="4.5"/>
	<rect x="266" y="256.6" class="st11" width="6.4" height="4.5"/>
	<rect x="266" y="266.2" class="st11" width="6.4" height="4.5"/>
	<rect x="256.8" y="208.9" class="st11" width="6.4" height="4.5"/>
	<rect x="256.8" y="218.5" class="st11" width="6.4" height="4.5"/>
	<rect x="256.8" y="228" class="st11" width="6.4" height="4.5"/>
	<rect x="256.8" y="237.5" class="st11" width="6.4" height="4.5"/>
	<rect x="256.8" y="247.1" class="st11" width="6.4" height="4.5"/>
	<rect x="256.8" y="256.6" class="st11" width="6.4" height="4.5"/>
	<rect x="256.8" y="266.2" class="st11" width="6.4" height="4.5"/>
	<rect x="251.1" y="195.1" class="st11" width="24.2" height="7.6"/>
	<rect x="251.1" y="190.3" class="st8" width="15.3" height="4.7"/>
	<rect x="225.7" y="202.6" class="st14" width="25.5" height="72.9"/>
	<rect x="228.3" y="265.4" class="st12" width="5.2" height="4.5"/>
	<rect x="228.3" y="255.9" class="st12" width="5.2" height="4.5"/>
	<rect x="228.3" y="246.4" class="st12" width="5.2" height="4.5"/>
	<rect x="228.3" y="236.8" class="st12" width="5.2" height="4.5"/>
	<rect x="228.3" y="227.3" class="st12" width="5.2" height="4.5"/>
	<rect x="228.3" y="217.8" class="st12" width="5.2" height="4.5"/>
	<rect x="228.3" y="208.2" class="st12" width="5.2" height="4.5"/>
	<rect x="235.8" y="265.4" class="st12" width="5.2" height="4.5"/>
	<rect x="235.8" y="255.9" class="st12" width="5.2" height="4.5"/>
	<rect x="235.8" y="246.4" class="st12" width="5.2" height="4.5"/>
	<rect x="235.8" y="236.8" class="st12" width="5.2" height="4.5"/>
	<rect x="235.8" y="227.3" class="st12" width="5.2" height="4.5"/>
	<rect x="235.8" y="217.8" class="st12" width="5.2" height="4.5"/>
	<rect x="235.8" y="208.2" class="st12" width="5.2" height="4.5"/>
	<rect x="243.3" y="265.4" class="st12" width="5.2" height="4.5"/>
	<rect x="243.3" y="255.9" class="st12" width="5.2" height="4.5"/>
	<rect x="243.3" y="246.4" class="st12" width="5.2" height="4.5"/>
	<rect x="243.3" y="236.8" class="st12" width="5.2" height="4.5"/>
	<rect x="243.3" y="227.3" class="st12" width="5.2" height="4.5"/>
	<rect x="243.3" y="217.8" class="st12" width="5.2" height="4.5"/>
	<rect x="243.3" y="208.2" class="st12" width="5.2" height="4.5"/>
	<rect x="229.5" y="195.1" class="st12" width="21.6" height="7.6"/>
	<rect x="239.4" y="190.3" class="st11" width="11.7" height="4.7"/>
</g>
<g>
	<path class="st10" d="M171.9,158.4c0.2,0.4,0.2,0.8,0,1.2c-0.1,0.4-0.2,0.8-0.1,1.2c0.1,0.2,0.2,0.5,0.3,0.7c0.1,0.5-0.1,1-0.6,1.2
		l-2.1-0.9c0.5-0.9,0.9-1.9,1-3"/>
	<g class="st15">
		<path d="M171.9,158.4c0.2,0.4,0.2,0.8,0,1.2c-0.1,0.4-0.2,0.8-0.1,1.2c0.1,0.2,0.2,0.5,0.3,0.7c0.1,0.5-0.1,1-0.6,1.2l-2.1-0.9
			c0.5-0.9,0.9-1.9,1-3"/>
	</g>
	<path class="st10" d="M166.5,157.9c0.6,0.1-0.4,1.2-0.4,1.8c0.1,0.6,0.1,1.3-0.1,1.9c-1.2,0-2.5-0.3-3.6-0.8
		c0.3-1.2,0.6-2.5,0.9-3.7C163.3,157.1,166,157.8,166.5,157.9z"/>
	<rect x="180.7" y="147.7" class="st1" width="18.9" height="27.4"/>
	<rect x="197.7" y="147.7" class="st0" width="18.9" height="27.4"/>
	<path class="st1" d="M236.1,170.2c0,0,0-0.1,0-0.4s0-0.6,0-1.1c0-0.9,0-2.3,0-4.1l0.1,0.1c-8,0-24.8,0.1-44.2,0.1
		c-19.9,0-37.1,0-45-0.1l0.1-0.1c0,1.6,0,2.8,0,3.6c0,0.4,0,0.7,0,0.9c0,0.2,0,0.3,0,0.3s0-0.1,0-0.3c0-0.2,0-0.5,0-0.9
		c0-0.8,0-2,0-3.6v-0.1h0.1c7.8,0,25-0.1,45-0.1c19.4,0,36.2,0,44.2,0.1h0v0.1c0,1.8,0,3.2,0,4.1c0,0.5,0,0.8,0,1.1
		C236.2,170.1,236.1,170.2,236.1,170.2z"/>
	<path class="st1" d="M149.8,170.1c-0.1-0.9-0.2-1.8-0.1-2.6c0-0.9,0-1.8,0.1-2.6c0.1,0.9,0.2,1.8,0.1,2.6
		C150,168.3,149.9,169.2,149.8,170.1z"/>
	<path class="st1" d="M153.2,170.1c-0.1-0.9-0.2-1.8-0.1-2.6c0-0.9,0-1.8,0.1-2.6c0.1,0.9,0.2,1.8,0.1,2.6
		C153.4,168.3,153.3,169.2,153.2,170.1z"/>
	<path class="st1" d="M160,170.1c0-0.1,0-0.2,0-0.3c0-0.2,0-0.6,0-1c0-0.9,0-2.1,0-3.5c0-3,0-7.2,0-11.9l0.1,0.1h-1.7h-1.7l0.1-0.1
		c0,4.7,0,8.8,0,11.9c0,1.5,0,2.7,0,3.5c0,0.4,0,0.7,0,1c0,0.1,0,0.2,0,0.3c0-0.1,0-0.2,0-0.3c0-0.2,0-0.6,0-1c0-0.9,0-2.1,0-3.5
		c0-3,0-7.2,0-11.9v-0.1h0.1h1.7h1.7h0.1v0.1c0,4.7,0,8.8,0,11.9c0,1.5,0,2.7,0,3.5c0,0.4,0,0.7,0,1
		C160.1,169.9,160.1,170,160,170.1z"/>
	<path class="st1" d="M163.5,170.1c-0.1-0.9-0.2-1.8-0.1-2.6c0-0.9,0-1.8,0.1-2.6c0.1,0.9,0.2,1.8,0.1,2.6
		C163.6,168.3,163.6,169.2,163.5,170.1z"/>
	<path class="st1" d="M166.9,170.1c-0.1-0.9-0.2-1.8-0.1-2.6c0-0.9,0-1.8,0.1-2.6c0.1,0.9,0.2,1.8,0.1,2.6
		C167.1,168.3,167,169.2,166.9,170.1z"/>
	<path class="st1" d="M170.3,170.1c-0.1-0.9-0.2-1.8-0.1-2.6c0-0.9,0-1.8,0.1-2.6c0.1,0.9,0.2,1.8,0.1,2.6
		C170.5,168.3,170.4,169.2,170.3,170.1z"/>
	<path class="st1" d="M173.7,170.1c-0.1-0.9-0.2-1.8-0.1-2.6c0-0.9,0-1.8,0.1-2.6c0.1,0.9,0.2,1.8,0.1,2.6
		C173.9,168.3,173.8,169.2,173.7,170.1z"/>
	<path class="st1" d="M177.1,170.1c-0.1-0.9-0.2-1.8-0.1-2.6c0-0.9,0-1.8,0.1-2.6c0.1,0.9,0.2,1.8,0.1,2.6
		C177.3,168.3,177.3,169.2,177.1,170.1z"/>
	<path class="st1" d="M180.5,170.1c-0.1-0.9-0.2-1.8-0.1-2.6c0-0.9,0-1.8,0.1-2.6c0.1,0.9,0.2,1.8,0.1,2.6
		C180.7,168.3,180.7,169.2,180.5,170.1z"/>
	<path class="st1" d="M184,170.1c-0.1-0.9-0.2-1.8-0.1-2.6c0-0.9,0-1.8,0.1-2.6c0.1,0.9,0.2,1.8,0.1,2.6
		C184.1,168.3,184.1,169.2,184,170.1z"/>
	<path class="st1" d="M187.4,170.1c-0.1-0.9-0.2-1.8-0.1-2.6c0-0.9,0-1.8,0.1-2.6c0.1,0.9,0.2,1.8,0.1,2.6
		C187.5,168.3,187.5,169.2,187.4,170.1z"/>
	<path class="st1" d="M190.8,170.1c-0.1-0.9-0.2-1.8-0.1-2.6c0-0.9,0-1.8,0.1-2.6c0.1,0.9,0.2,1.8,0.1,2.6
		C191,168.3,190.9,169.2,190.8,170.1z"/>
	<path class="st1" d="M194.2,170.1c-0.1-0.9-0.2-1.8-0.1-2.6c0-0.9,0-1.8,0.1-2.6c0.1,0.9,0.2,1.8,0.1,2.6
		C194.4,168.3,194.3,169.2,194.2,170.1z"/>
	<path class="st1" d="M197.6,170.1c-0.1-0.9-0.2-1.8-0.1-2.6c0-0.9,0-1.8,0.1-2.6c0.1,0.9,0.2,1.8,0.1,2.6
		C197.8,168.3,197.7,169.2,197.6,170.1z"/>
	<path class="st1" d="M201,170.1c-0.1-0.9-0.2-1.8-0.1-2.6c0-0.9,0-1.8,0.1-2.6c0.1,0.9,0.2,1.8,0.1,2.6
		C201.2,168.3,201.2,169.2,201,170.1z"/>
	<path class="st1" d="M204.4,170.1c-0.1-0.9-0.2-1.8-0.1-2.6c0-0.9,0-1.8,0.1-2.6c0.1,0.9,0.2,1.8,0.1,2.6
		C204.6,168.3,204.6,169.2,204.4,170.1z"/>
	<path class="st1" d="M207.9,170.1c-0.1-0.9-0.2-1.8-0.1-2.6c0-0.9,0-1.8,0.1-2.6c0.1,0.9,0.2,1.8,0.1,2.6
		C208,168.3,208,169.2,207.9,170.1z"/>
	<path class="st1" d="M211.3,170.1c-0.1-0.9-0.2-1.8-0.1-2.6c0-0.9,0-1.8,0.1-2.6c0.1,0.9,0.2,1.8,0.1,2.6
		C211.4,168.3,211.4,169.2,211.3,170.1z"/>
	<path class="st1" d="M214.7,170.1c-0.1-0.9-0.2-1.8-0.1-2.6c0-0.9,0-1.8,0.1-2.6c0.1,0.9,0.2,1.8,0.1,2.6
		C214.9,168.3,214.8,169.2,214.7,170.1z"/>
	<path class="st1" d="M218.1,170.1c-0.1-0.9-0.2-1.8-0.1-2.6c0-0.9,0-1.8,0.1-2.6c0.1,0.9,0.2,1.8,0.1,2.6
		C218.3,168.3,218.2,169.2,218.1,170.1z"/>
	<path class="st1" d="M221.5,170.1c-0.1-0.9-0.2-1.8-0.1-2.6c0-0.9,0-1.8,0.1-2.6c0.1,0.9,0.2,1.8,0.1,2.6
		C221.7,168.3,221.6,169.2,221.5,170.1z"/>
	<path class="st1" d="M224.9,170.1c-0.1-0.9-0.2-1.8-0.1-2.6c0-0.9,0-1.8,0.1-2.6c0.1,0.9,0.2,1.8,0.1,2.6
		C225.1,168.3,225.1,169.2,224.9,170.1z"/>
	<path class="st1" d="M228.3,170.1c-0.1-0.9-0.2-1.8-0.1-2.6c0-0.9,0-1.8,0.1-2.6c0.1,0.9,0.2,1.8,0.1,2.6
		C228.5,168.3,228.5,169.2,228.3,170.1z"/>
	<path class="st1" d="M231.8,170.1c-0.1-0.9-0.2-1.8-0.1-2.6c0-0.9,0-1.8,0.1-2.6c0.1,0.9,0.2,1.8,0.1,2.6
		C231.9,168.3,231.9,169.2,231.8,170.1z"/>
	<path class="st1" d="M235.2,170.1c-0.1-0.9-0.2-1.8-0.1-2.6c0-0.9,0-1.8,0.1-2.6c0.1,0.9,0.2,1.8,0.1,2.6
		C235.3,168.3,235.3,169.2,235.2,170.1z"/>
	<path class="st1" d="M236.1,169.5c0,0.1-10.5,0.1-23.5,0.1c-13,0-23.5-0.1-23.5-0.1s10.5-0.1,23.5-0.1
		C225.6,169.4,236.1,169.5,236.1,169.5z"/>
	<rect x="157.6" y="169.5" class="st0" width="78.5" height="105.8"/>
	<rect x="146.9" y="169.5" class="st1" width="42.1" height="105.8"/>
	<rect x="216" y="226.9" class="st8" width="14.4" height="14.4"/>
	<path class="st0" d="M223.7,242.7c-0.1,0-0.1-3.7-0.1-8.3s0.1-8.3,0.1-8.3c0.1,0,0.1,3.7,0.1,8.3S223.8,242.7,223.7,242.7z"/>
	<path class="st0" d="M233.1,231.8c0,0.1-4.2,0.1-9.3,0.1c-5.1,0-9.3-0.1-9.3-0.1c0-0.1,4.2-0.1,9.3-0.1
		C228.9,231.6,233.1,231.7,233.1,231.8z"/>
	<rect x="195.5" y="226.9" class="st8" width="14.4" height="14.4"/>
	<path class="st0" d="M203.2,242.7c-0.1,0-0.1-3.7-0.1-8.3s0.1-8.3,0.1-8.3c0.1,0,0.1,3.7,0.1,8.3S203.3,242.7,203.2,242.7z"/>
	<path class="st0" d="M212.6,231.8c0,0.1-4.2,0.1-9.3,0.1c-5.2,0-9.3-0.1-9.3-0.1c0-0.1,4.2-0.1,9.3-0.1
		C208.4,231.6,212.6,231.7,212.6,231.8z"/>
	<rect x="216" y="204.3" class="st8" width="14.4" height="14.4"/>
	<path class="st0" d="M223.7,220.1c-0.1,0-0.1-3.7-0.1-8.3s0.1-8.3,0.1-8.3c0.1,0,0.1,3.7,0.1,8.3S223.8,220.1,223.7,220.1z"/>
	<path class="st0" d="M233.1,209.1c0,0.1-4.2,0.1-9.3,0.1c-5.1,0-9.3-0.1-9.3-0.1c0-0.1,4.2-0.1,9.3-0.1
		C228.9,208.9,233.1,209,233.1,209.1z"/>
	<rect x="195.5" y="204.3" class="st8" width="14.4" height="14.4"/>
	<path class="st0" d="M203.2,220.1c-0.1,0-0.1-3.7-0.1-8.3s0.1-8.3,0.1-8.3c0.1,0,0.1,3.7,0.1,8.3S203.3,220.1,203.2,220.1z"/>
	<path class="st0" d="M212.6,209.1c0,0.1-4.2,0.1-9.3,0.1c-5.2,0-9.3-0.1-9.3-0.1c0-0.1,4.2-0.1,9.3-0.1
		C208.4,208.9,212.6,209,212.6,209.1z"/>
	<rect x="216" y="181.5" class="st8" width="14.4" height="14.4"/>
	<path class="st0" d="M223.7,197.3c-0.1,0-0.1-3.7-0.1-8.3c0-4.6,0.1-8.3,0.1-8.3c0.1,0,0.1,3.7,0.1,8.3
		C223.9,193.6,223.8,197.3,223.7,197.3z"/>
	<path class="st0" d="M233.1,186.3c0,0.1-4.2,0.1-9.3,0.1c-5.1,0-9.3-0.1-9.3-0.1s4.2-0.1,9.3-0.1
		C228.9,186.2,233.1,186.3,233.1,186.3z"/>
	<rect x="195.5" y="181.5" class="st8" width="14.4" height="14.4"/>
	<path class="st0" d="M203.2,197.3c-0.1,0-0.1-3.7-0.1-8.3c0-4.6,0.1-8.3,0.1-8.3c0.1,0,0.1,3.7,0.1,8.3
		C203.4,193.6,203.3,197.3,203.2,197.3z"/>
	<path class="st0" d="M212.6,186.3c0,0.1-4.2,0.1-9.3,0.1c-5.2,0-9.3-0.1-9.3-0.1s4.2-0.1,9.3-0.1
		C208.4,186.2,212.6,186.3,212.6,186.3z"/>
	<g class="st16">
		<rect x="160.3" y="181.5" class="st13" width="14.4" height="14.4"/>
	</g>
	<path class="st1" d="M167.4,197.3c-0.1,0-0.1-3.7-0.1-8.3c0-4.6,0.1-8.3,0.1-8.3c0.1,0,0.1,3.7,0.1,8.3
		C167.6,193.6,167.5,197.3,167.4,197.3z"/>
	<path class="st1" d="M177.3,186.3c0,0.1-4.2,0.1-9.3,0.1c-5.2,0-9.3-0.1-9.3-0.1s4.2-0.1,9.3-0.1
		C173.1,186.2,177.3,186.3,177.3,186.3z"/>
	<g class="st16">
		<rect x="160.3" y="204.5" class="st13" width="14.4" height="14.4"/>
	</g>
	<path class="st1" d="M167.4,220.3c-0.1,0-0.1-3.7-0.1-8.3c0-4.6,0.1-8.3,0.1-8.3c0.1,0,0.1,3.7,0.1,8.3
		C167.6,216.6,167.5,220.3,167.4,220.3z"/>
	<path class="st1" d="M177.3,209.3c0,0.1-4.2,0.1-9.3,0.1c-5.2,0-9.3-0.1-9.3-0.1c0-0.1,4.2-0.1,9.3-0.1
		C173.1,209.2,177.3,209.2,177.3,209.3z"/>
	<g class="st16">
		<rect x="160.3" y="227.4" class="st13" width="14.4" height="14.4"/>
	</g>
	<path class="st1" d="M167.4,243.2c-0.1,0-0.1-3.7-0.1-8.3c0-4.6,0.1-8.3,0.1-8.3c0.1,0,0.1,3.7,0.1,8.3
		C167.6,239.5,167.5,243.2,167.4,243.2z"/>
	<path class="st1" d="M177.3,232.3c0,0.1-4.2,0.1-9.3,0.1c-5.2,0-9.3-0.1-9.3-0.1c0-0.1,4.2-0.1,9.3-0.1
		C173.1,232.1,177.3,232.2,177.3,232.3z"/>
	<path class="st1" d="M219.7,275.3c0,0,0-0.1,0-0.1v-0.4c0-0.4,0-0.8,0-1.5c0-1.3,0-3.1,0-5.5c0-4.7,0-11.2,0-18.7l0.1,0.1h-14.8
		l0.1-0.1c0,7.5,0,14.1,0,18.8c0,2.3,0,4.2,0,5.5c0,0.6,0,1.1,0,1.5c0,0.2,0,0.3,0,0.4c0,0,0,0.1,0,0.1c0,0,0-0.1,0-0.1
		c0-0.1,0-0.2,0-0.4c0-0.4,0-0.8,0-1.5c0-1.3,0-3.2,0-5.5c0-4.7,0-11.3,0-18.8v-0.1h15v0.1c0,7.5,0,14,0,18.7c0,2.3,0,4.2,0,5.5
		c0,0.6,0,1.1,0,1.5v0.4C219.8,275.3,219.7,275.3,219.7,275.3z"/>
	<rect x="206.8" y="250.8" class="st2" width="5" height="12"/>
	<path class="st1" d="M211.8,262.8h-5v-12h5V262.8z M206.8,262.8h5v-12h-5V262.8z"/>
	<rect x="212.8" y="250.8" class="st2" width="5" height="12"/>
	<path class="st1" d="M217.8,262.8h-5v-12h5V262.8z M212.8,262.8h5v-12h-5V262.8z"/>
	<path class="st1" d="M217.9,264c0,0,0.1,0,0.2,0c0.2,0,0.3,0.1,0.4,0.3c0.1,0.2,0.1,0.5,0,0.7c-0.1,0.3-0.4,0.4-0.8,0.4
		c-0.3-0.1-0.5-0.3-0.6-0.7c0-0.2,0.1-0.5,0.3-0.6c0.4-0.2,0.6-0.1,0.6,0c0,0-0.2,0-0.5,0.2c-0.1,0.1-0.2,0.3-0.2,0.4
		c0,0.2,0.2,0.4,0.4,0.4c0.2,0,0.4-0.1,0.5-0.2c0.1-0.2,0.1-0.3,0-0.5C218.2,264.1,217.9,264.1,217.9,264z"/>
	<path class="st1" d="M187.2,154.1c-0.1,0.1-0.2,0.1-0.3,0.2c-0.2,0.1-0.4,0.3-0.8,0.5c-1,0.6-2,1.2-3.1,1.6
		c-7.1,3.2-15.3,3.1-22.4-0.3c-1.1-0.5-2.1-1.1-3-1.7c-0.3-0.2-0.6-0.4-0.8-0.5c-0.1-0.1-0.2-0.1-0.3-0.2c0.1,0,0.2,0.1,0.3,0.2
		c0.2,0.1,0.4,0.3,0.8,0.5c1,0.6,2,1.2,3.1,1.6c7,3.3,15.1,3.4,22.2,0.3c1.1-0.5,2.1-1,3.1-1.6c0.4-0.2,0.6-0.4,0.8-0.5
		C187,154.1,187.1,154.1,187.2,154.1z"/>
	<path class="st1" d="M186.2,153.2c-0.1,0.1-0.1,0.1-0.2,0.2l-0.7,0.4l-0.5,0.3c-0.2,0.1-0.4,0.2-0.6,0.3c-0.4,0.2-0.9,0.5-1.6,0.7
		l-0.9,0.4c-0.3,0.1-0.7,0.2-1,0.3c-0.7,0.2-1.5,0.4-2.3,0.6c-3.5,0.8-7.2,0.8-10.7,0.1c-0.8-0.2-1.6-0.3-2.3-0.6
		c-0.4-0.1-0.7-0.2-1-0.3l-0.9-0.4c-0.5-0.2-1-0.4-1.6-0.7c-0.2-0.1-0.4-0.2-0.6-0.3l-0.5-0.3l-0.7-0.4c-0.1,0-0.2-0.1-0.2-0.2
		c0.1,0,0.2,0.1,0.3,0.1l0.7,0.4l0.5,0.3c0.2,0.1,0.4,0.2,0.6,0.3c0.5,0.2,1,0.4,1.6,0.6l0.9,0.3c0.3,0.1,0.7,0.2,1,0.3
		c0.7,0.2,1.5,0.4,2.3,0.6c1.8,0.3,3.5,0.5,5.3,0.5c1.8,0,3.6-0.2,5.3-0.6c0.8-0.2,1.6-0.4,2.3-0.6c0.3-0.1,0.7-0.2,1-0.3l0.9-0.3
		c0.6-0.2,1.1-0.5,1.6-0.7c0.2-0.1,0.4-0.2,0.6-0.3l0.5-0.3l0.7-0.4C186,153.3,186.1,153.3,186.2,153.2z"/>
	<path class="st10" d="M172,158.4c-0.6,0.5-1,1.2-1,2c0,0.5-0.1,1-0.2,1.4c-0.3,0.4-0.8,0.7-1.3,0.7c-0.5,0-1-0.1-1.5-0.3
		c0.6-0.6,0.9-1.4,1.1-2.2c0-0.4,0.1-0.7,0.2-1c0.1-0.3,0.4-0.6,0.7-0.7L172,158.4z"/>
	<path class="st10" d="M175.7,158.1c-0.4,0.2-0.7,0.6-0.8,1.1c-0.1,0.5-0.1,1,0,1.4c0.1,0.5,0,1-0.2,1.4c1.1,0.2,2.2,0,3.2-0.6
		c-0.4-1.2-0.3-2.5,0.3-3.6c0,0,0-0.1-0.1-0.1C177.8,157.7,175.7,158.1,175.7,158.1z"/>
</g>
<g>
	<rect x="396" y="127.2" class="st0" width="48.4" height="148.6"/>
	<rect x="408" y="112.3" class="st17" width="36.2" height="14.9"/>
	<rect x="411.1" y="114.6" class="st0" width="3.1" height="10.3"/>
	<rect x="416.5" y="114.6" class="st0" width="3.1" height="10.3"/>
	<rect x="421.9" y="114.6" class="st0" width="3.1" height="10.3"/>
	<rect x="427.3" y="114.6" class="st0" width="3.1" height="10.3"/>
	<rect x="432.7" y="114.6" class="st0" width="3.1" height="10.3"/>
	<rect x="438.1" y="114.6" class="st0" width="3.1" height="10.3"/>
	<rect x="444.3" y="112.3" class="st0" width="16.5" height="14.9"/>
	<rect x="446.6" y="114.6" class="st17" width="2.6" height="10.3"/>
	<rect x="451.2" y="114.6" class="st17" width="2.6" height="10.3"/>
	<rect x="455.8" y="114.6" class="st17" width="2.6" height="10.3"/>
	<rect x="444.3" y="127.2" class="st17" width="24.6" height="148.6"/>
	<rect x="414.9" y="104.7" class="st1" width="1.1" height="7.6"/>
	<rect x="436.3" y="104.7" class="st1" width="1.1" height="7.6"/>
	<rect x="410" y="91.5" class="st10" width="32.3" height="13.2"/>
	<rect x="405.9" y="137.5" class="st1" width="8.9" height="13.7"/>
	<rect x="424.1" y="137.5" class="st1" width="8.9" height="13.7"/>
	<rect x="405.9" y="159" class="st1" width="8.9" height="13.7"/>
	<rect x="424.1" y="159" class="st1" width="8.9" height="13.7"/>
	<rect x="405.9" y="180.6" class="st1" width="8.9" height="13.7"/>
	<rect x="424.1" y="180.6" class="st1" width="8.9" height="13.7"/>
	<rect x="405.9" y="202.1" class="st1" width="8.9" height="13.7"/>
	<rect x="424.1" y="202.1" class="st1" width="8.9" height="13.7"/>
	<rect x="405.9" y="223.7" class="st1" width="8.9" height="13.7"/>
	<rect x="424.1" y="223.7" class="st1" width="8.9" height="13.7"/>
	<rect x="405.9" y="245.3" class="st1" width="8.9" height="13.7"/>
	<rect x="424.1" y="245.3" class="st1" width="8.9" height="13.7"/>
	<rect x="448.8" y="137.5" class="st1" width="5.1" height="13.7"/>
	<rect x="459.2" y="137.5" class="st1" width="5.1" height="13.7"/>
	<rect x="448.8" y="159" class="st1" width="5.1" height="13.7"/>
	<rect x="459.2" y="159" class="st1" width="5.1" height="13.7"/>
	<rect x="448.8" y="180.6" class="st1" width="5.1" height="13.7"/>
	<rect x="459.2" y="180.6" class="st1" width="5.1" height="13.7"/>
	<rect x="448.8" y="202.1" class="st1" width="5.1" height="13.7"/>
	<rect x="459.2" y="202.1" class="st1" width="5.1" height="13.7"/>
	<rect x="448.8" y="223.7" class="st1" width="5.1" height="13.7"/>
	<rect x="459.2" y="223.7" class="st1" width="5.1" height="13.7"/>
	<rect x="448.8" y="245.3" class="st1" width="5.1" height="13.7"/>
	<rect x="459.2" y="245.3" class="st1" width="5.1" height="13.7"/>
	<rect x="360.1" y="135.2" class="st10" width="27.8" height="140.6"/>
	<rect x="360.1" y="135.2" class="st18" width="27.8" height="140.6"/>
	<rect x="360.1" y="130.6" class="st10" width="29.5" height="4.6"/>
	<rect x="360.1" y="123.4" class="st10" width="25" height="7.2"/>
	<rect x="360.1" y="123.4" class="st18" width="25" height="7.2"/>
	<rect x="360.1" y="107.6" class="st10" width="19.1" height="15.9"/>
	<rect x="360.1" y="107.6" class="st19" width="19.1" height="15.9"/>
	<g class="st7">
		<rect x="362.8" y="140.6" width="3.8" height="14.8"/>
	</g>
	<g class="st7">
		<rect x="362.8" y="160.7" width="3.8" height="14.8"/>
	</g>
	<g class="st7">
		<rect x="362.8" y="180.9" width="3.8" height="14.8"/>
	</g>
	<g class="st7">
		<rect x="362.8" y="201" width="3.8" height="14.8"/>
	</g>
	<g class="st7">
		<rect x="362.8" y="221.2" width="3.8" height="14.8"/>
	</g>
	<g class="st7">
		<rect x="362.8" y="241.3" width="3.8" height="14.8"/>
	</g>
	<g class="st7">
		<rect x="369" y="140.6" width="3.8" height="14.8"/>
	</g>
	<g class="st7">
		<rect x="369" y="160.7" width="3.8" height="14.8"/>
	</g>
	<g class="st7">
		<rect x="369" y="180.9" width="3.8" height="14.8"/>
	</g>
	<g class="st7">
		<rect x="369" y="201" width="3.8" height="14.8"/>
	</g>
	<g class="st7">
		<rect x="369" y="221.2" width="3.8" height="14.8"/>
	</g>
	<g class="st7">
		<rect x="369" y="241.3" width="3.8" height="14.8"/>
	</g>
	<g class="st7">
		<rect x="375.3" y="140.6" width="3.8" height="14.8"/>
	</g>
	<g class="st7">
		<rect x="375.3" y="160.7" width="3.8" height="14.8"/>
	</g>
	<g class="st7">
		<rect x="375.3" y="180.9" width="3.8" height="14.8"/>
	</g>
	<g class="st7">
		<rect x="375.3" y="201" width="3.8" height="14.8"/>
	</g>
	<g class="st7">
		<rect x="375.3" y="221.2" width="3.8" height="14.8"/>
	</g>
	<g class="st7">
		<rect x="375.3" y="241.3" width="3.8" height="14.8"/>
	</g>
	<g class="st7">
		<rect x="381.5" y="140.6" width="3.8" height="14.8"/>
	</g>
	<g class="st7">
		<rect x="381.5" y="160.7" width="3.8" height="14.8"/>
	</g>
	<g class="st7">
		<rect x="381.5" y="180.9" width="3.8" height="14.8"/>
	</g>
	<g class="st7">
		<rect x="381.5" y="201" width="3.8" height="14.8"/>
	</g>
	<g class="st7">
		<rect x="381.5" y="221.2" width="3.8" height="14.8"/>
	</g>
	<g class="st7">
		<rect x="381.5" y="241.3" width="3.8" height="14.8"/>
	</g>
	<rect x="303.1" y="135.2" class="st10" width="57" height="140.6"/>
	<rect x="305.9" y="123.4" class="st10" width="54.3" height="7.2"/>
	<rect x="319.3" y="107.6" class="st10" width="40.8" height="15.9"/>
	<rect x="319.3" y="107.6" class="st18" width="40.8" height="15.9"/>
	<rect x="301.4" y="130.6" class="st10" width="58.7" height="4.6"/>
	<rect x="301.4" y="130.6" class="st18" width="58.7" height="4.6"/>
	<g class="st7">
		<rect x="308.6" y="140.6" width="7.7" height="14.8"/>
	</g>
	<g class="st7">
		<rect x="308.6" y="160.7" width="7.7" height="14.8"/>
	</g>
	<g class="st7">
		<rect x="308.6" y="180.9" width="7.7" height="14.8"/>
	</g>
	<g class="st7">
		<rect x="308.6" y="201" width="7.7" height="14.8"/>
	</g>
	<g class="st7">
		<rect x="308.6" y="221.2" width="7.7" height="14.8"/>
	</g>
	<g class="st7">
		<rect x="308.6" y="241.3" width="7.7" height="14.8"/>
	</g>
	<g class="st7">
		<rect x="321.4" y="140.6" width="7.7" height="14.8"/>
	</g>
	<g class="st7">
		<rect x="321.4" y="160.7" width="7.7" height="14.8"/>
	</g>
	<g class="st7">
		<rect x="321.4" y="180.9" width="7.7" height="14.8"/>
	</g>
	<g class="st7">
		<rect x="321.4" y="201" width="7.7" height="14.8"/>
	</g>
	<g class="st7">
		<rect x="321.4" y="221.2" width="7.7" height="14.8"/>
	</g>
	<g class="st7">
		<rect x="321.4" y="241.3" width="7.7" height="14.8"/>
	</g>
	<g class="st7">
		<rect x="334.2" y="140.6" width="7.7" height="14.8"/>
	</g>
	<g class="st7">
		<rect x="334.2" y="160.7" width="7.7" height="14.8"/>
	</g>
	<g class="st7">
		<rect x="334.2" y="180.9" width="7.7" height="14.8"/>
	</g>
	<g class="st7">
		<rect x="334.2" y="201" width="7.7" height="14.8"/>
	</g>
	<g class="st7">
		<rect x="334.2" y="221.2" width="7.7" height="14.8"/>
	</g>
	<g class="st7">
		<rect x="334.2" y="241.3" width="7.7" height="14.8"/>
	</g>
	<g class="st7">
		<rect x="346.9" y="140.6" width="7.7" height="14.8"/>
	</g>
	<g class="st7">
		<rect x="346.9" y="160.7" width="7.7" height="14.8"/>
	</g>
	<g class="st7">
		<rect x="346.9" y="180.9" width="7.7" height="14.8"/>
	</g>
	<g class="st7">
		<rect x="346.9" y="201" width="7.7" height="14.8"/>
	</g>
	<g class="st7">
		<rect x="346.9" y="221.2" width="7.7" height="14.8"/>
	</g>
	<g class="st7">
		<rect x="346.9" y="241.3" width="7.7" height="14.8"/>
	</g>
	<rect x="321.4" y="261.9" class="st19" width="20.5" height="13.9"/>
	<rect x="417.2" y="195.7" class="st10" width="27.8" height="80.2"/>
	<rect x="417.2" y="195.7" class="st18" width="27.8" height="80.2"/>
	<rect x="417.2" y="191.1" class="st10" width="29.5" height="4.6"/>
	<rect x="417.2" y="183.9" class="st10" width="25" height="7.2"/>
	<rect x="417.2" y="183.9" class="st18" width="25" height="7.2"/>
	<g class="st7">
		<rect x="419.9" y="201" width="3.8" height="14.8"/>
	</g>
	<g class="st7">
		<rect x="419.9" y="221.1" width="3.8" height="14.8"/>
	</g>
	<g class="st7">
		<rect x="419.9" y="241.3" width="3.8" height="14.8"/>
	</g>
	<g class="st7">
		<rect x="426.1" y="201" width="3.8" height="14.8"/>
	</g>
	<g class="st7">
		<rect x="426.1" y="221.1" width="3.8" height="14.8"/>
	</g>
	<g class="st7">
		<rect x="426.1" y="241.3" width="3.8" height="14.8"/>
	</g>
	<g class="st7">
		<rect x="432.3" y="201" width="3.8" height="14.8"/>
	</g>
	<g class="st7">
		<rect x="432.3" y="221.1" width="3.8" height="14.8"/>
	</g>
	<g class="st7">
		<rect x="432.3" y="241.3" width="3.8" height="14.8"/>
	</g>
	<g class="st7">
		<rect x="438.6" y="201" width="3.8" height="14.8"/>
	</g>
	<g class="st7">
		<rect x="438.6" y="221.1" width="3.8" height="14.8"/>
	</g>
	<g class="st7">
		<rect x="438.6" y="241.3" width="3.8" height="14.8"/>
	</g>
	<rect x="360.2" y="195.7" class="st10" width="57" height="80.2"/>
	<rect x="362.9" y="183.9" class="st10" width="54.3" height="7.2"/>
	<rect x="358.5" y="191.1" class="st10" width="58.7" height="4.6"/>
	<rect x="358.5" y="191.1" class="st18" width="58.7" height="4.6"/>
	<g class="st7">
		<rect x="365.6" y="201" width="7.7" height="14.8"/>
	</g>
	<g class="st7">
		<rect x="365.6" y="221.1" width="7.7" height="14.8"/>
	</g>
	<g class="st7">
		<rect x="365.6" y="241.3" width="7.7" height="14.8"/>
	</g>
	<g class="st7">
		<rect x="378.4" y="201" width="7.7" height="14.8"/>
	</g>
	<g class="st7">
		<rect x="378.4" y="221.1" width="7.7" height="14.8"/>
	</g>
	<g class="st7">
		<rect x="378.4" y="241.3" width="7.7" height="14.8"/>
	</g>
	<g class="st7">
		<rect x="391.2" y="201" width="7.7" height="14.8"/>
	</g>
	<g class="st7">
		<rect x="391.2" y="221.1" width="7.7" height="14.8"/>
	</g>
	<g class="st7">
		<rect x="391.2" y="241.3" width="7.7" height="14.8"/>
	</g>
	<g class="st7">
		<rect x="404" y="201" width="7.7" height="14.8"/>
	</g>
	<g class="st7">
		<rect x="404" y="221.1" width="7.7" height="14.8"/>
	</g>
	<g class="st7">
		<rect x="404" y="241.3" width="7.7" height="14.8"/>
	</g>
</g>
<g id="freepik--Floor--inject-32">
	<path class="st1" d="M489.3,275.8c0,0.1-105.1,0.3-234.8,0.3S19.7,276,19.7,275.8c0-0.2,105.1-0.3,234.8-0.3
		S489.3,275.7,489.3,275.8z"/>
</g>
</svg>
