<?xml version="1.0" encoding="utf-8"?>
<!-- Generator: Adobe Illustrator 21.0.0, SVG Export Plug-In . SVG Version: 6.00 Build 0)  -->
<svg version="1.1" id="Layer_1" xmlns="http://www.w3.org/2000/svg" xmlns:xlink="http://www.w3.org/1999/xlink" x="0px" y="0px"
	 viewBox="0 0 800 800" style="enable-background:new 0 0 800 800;" xml:space="preserve">
<style type="text/css">
	.st0{fill:#263238;}
	.st1{fill:#2A9D8F;}
	.st2{opacity:0.2;}
	.st3{fill:#FAFAFA;}
	.st4{fill:#EB996E;}
	.st5{fill:#E07646;}
	.st6{opacity:0.3;}
	.st7{fill:#B77153;}
	.st8{fill:#995037;}
	.st9{fill:#455A64;}
</style>
<g>
	<path class="st0" d="M617.9,661.1l-3.6,1.3l-3.7,0.9l-7.5,1.9l-1.9,0.5l-1.9,0.3l-3.8,0.6l-7.8,1.2l-7.9,0.4l-4,0.2
		c-1.3,0.1-2.7,0.1-4,0l-8.1-0.4l-4.1-0.2c-1.3-0.1-2.7-0.4-4-0.6l-8.1-1.2c-1.4-0.2-2.7-0.5-4-0.8l-4-1c-2.7-0.8-5.4-1.3-8.1-2.2
		l-7.9-2.9c-1.2-0.5-2.7-0.9-4-1.5l-3.8-1.8l-7.7-3.7c-2.5-1.4-4.9-3-7.4-4.4l-3.7-2.2c-1.2-0.8-2.3-1.7-3.5-2.5l-7-5.2
		c-2.3-1.8-4.4-3.9-6.6-5.8c-4.3-4-8.4-8.2-12.2-12.7c-1.9-2.2-3.6-4.7-5.4-7.1l-2.7-3.6c-0.9-1.1-1.6-2.5-2.4-3.8l-4.7-7.7
		c-1.3-2.7-2.7-5.4-4-8.1l-2-4.1c-0.6-1.4-1.1-2.8-1.6-4.3l-3.1-8.5c-0.8-2.9-1.5-5.8-2.3-8.7l-1.1-4.3c-0.3-1.4-0.5-2.9-0.7-4.4
		c-0.4-3-0.9-5.9-1.3-8.8c-0.4-2.9-0.4-5.9-0.6-8.8c-0.3-5.8-0.2-11.7,0.2-17.5c0.1-2.9,0.5-5.8,1-8.6c0.5-2.8,0.7-5.6,1.4-8.5
		c0.7-2.9,1.4-5.6,2.1-8.3l1.1-4.1c0.4-1.3,0.9-2.7,1.4-4c1-2.7,1.9-5.3,2.9-7.9c1-2.6,2.4-5.1,3.5-7.6l1.8-3.8l0.9-1.9l1.1-1.8
		l4.3-7c1.4-2.3,3-4.6,4.7-6.7l4.8-6.5l5.4-5.9c1.7-2,3.5-3.9,5.4-5.7c3.7-3.7,7.7-7.1,11.9-10.2l6.2-4.7c2.1-1.3,4.3-2.7,6.5-4
		c16.6-10,35.1-16.4,54.4-18.7c8.9-1,17.8-1.3,26.7-0.7c4.3,0.5,8.5,0.7,12.6,1.5c2.1,0.4,4.1,0.6,6.1,1.1l5.9,1.4
		c26.5,6.9,50.3,21.4,68.5,41.8c6.2,7,11.7,14.5,16.4,22.4l28.9-0.2l-28.7-0.2c0,0,0.1,0.1,0.1,0.1l-0.2-0.1l0.1,0
		c-4.7-8-10.1-15.5-16.2-22.5c-18.2-20.6-42.1-35.3-68.7-42.3l-6-1.5c-2-0.5-4.1-0.7-6.2-1.1c-4.1-0.9-8.4-1.1-12.7-1.6
		c-9-0.6-18-0.3-26.9,0.7c-19.4,2.3-38.1,8.7-54.9,18.8c-2.2,1.3-4.4,2.6-6.6,4l-6.2,4.7c-4.2,3.2-8.3,6.6-12.1,10.2
		c-2,1.8-3.8,3.7-5.6,5.7l-5.4,6l-4.9,6.6c-1.7,2.2-3.3,4.4-4.7,6.8l-4.3,7.1l-1.1,1.8l-0.9,1.9l-1.8,3.8c-1.2,2.5-2.6,5.1-3.5,7.7
		c-1,2.6-2,5.3-3,8c-0.5,1.3-1,2.7-1.4,4l-1.1,4.2c-0.7,2.8-1.6,5.5-2.2,8.4c-0.5,2.8-0.9,5.7-1.4,8.6c-0.5,2.9-0.9,5.8-1,8.7
		c-0.5,5.9-0.6,11.8-0.2,17.7c0.2,3,0.1,6,0.5,8.9c0.5,3,0.9,5.9,1.4,8.9c0.3,1.5,0.4,3,0.8,4.5l1.1,4.4c0.8,2.9,1.2,6,2.3,8.8
		c1.1,2.8,2.1,5.7,3.1,8.6c0.5,1.4,1,2.9,1.6,4.3l2,4.1c1.3,2.7,2.6,5.4,4,8.1l4.7,7.8c0.8,1.3,1.5,2.6,2.4,3.8l2.7,3.6
		c1.8,2.4,3.5,4.9,5.4,7.2c3.9,4.5,8,8.8,12.4,12.8c2.2,2,4.3,4.1,6.6,5.9l7.1,5.3c1.1,0.9,2.3,1.8,3.5,2.5l3.7,2.3
		c2.5,1.5,5,3,7.5,4.5l7.8,3.7l3.9,1.9c1.3,0.5,2.7,1,4,1.5l8,2.9c2.7,0.9,5.4,1.5,8.1,2.2l4.1,1.1c1.3,0.4,2.7,0.7,4.1,0.8l8.1,1.2
		c1.4,0.2,2.7,0.5,4.1,0.6l4.1,0.2l8.1,0.4c1.3,0.1,2.7,0.1,4,0l4-0.2l8-0.4l7.9-1.2l3.9-0.6l2-0.3l1.9-0.5l7.5-2l3.7-0.9l3.6-1.3
		c16.6-5.7,31.9-14.5,45-25.6c-0.1-0.2-0.3-0.5-0.4-0.7C649.4,646.8,634.4,655.5,617.9,661.1z"/>
	<path class="st1" d="M128.7,284.1c0.6,6.7-6.4,10.1-11.2,9.7c-4.8-0.8-9.4-2.8-13.2-5.9c-9.2-6.2-18.6-12.8-23.8-22.6
		c-1.7-2.9-2.5-6.2-2.4-9.5c0.1-3.4,2-6.5,5-8.1c3.5-1.7,7.7-0.3,11.3,1.3c10.5,4.8,19.7,11.9,27.1,20.8
		C125.3,273.7,127.8,278.7,128.7,284.1"/>
	<g class="st2">
		<path d="M128.7,284.1c0.6,6.7-6.4,10.1-11.2,9.7c-4.8-0.8-9.4-2.8-13.2-5.9c-9.2-6.2-18.6-12.8-23.8-22.6
			c-1.7-2.9-2.5-6.2-2.4-9.5c0.1-3.4,2-6.5,5-8.1c3.5-1.7,7.7-0.3,11.3,1.3c10.5,4.8,19.7,11.9,27.1,20.8
			C125.3,273.7,127.8,278.7,128.7,284.1"/>
	</g>
	<path class="st1" d="M135.3,314.8c-6.9,1.8-13,5.8-17.4,11.3c-2.7,2.7-4.5,6.3-5,10.1c-0.4,4,2.5,7.5,6.4,8c2.3-0.2,4.4-1.3,6-2.9
		c4.2-3.6,8.3-8.1,13.7-8.5c3.1-0.2,6.4,1.2,9.3,0c2.8-1.4,4.4-4.5,3.8-7.6c-0.7-3-2.5-5.7-5-7.4
		C143.9,314.9,139.5,313.8,135.3,314.8z"/>
	<path class="st1" d="M141.8,283.4c-6.5-1.5-11.8-6.1-14.2-12.2c-2.3-6.1-2.9-12.8-1.7-19.2c1.1-7.6,3.8-14.8,7.7-21.4
		c1.5-2.6,3.5-4.9,5.9-6.6c2.5-1.8,5.7-2.3,8.6-1.3c4.1,1.7,5.6,6.6,6.4,11c1.5,7.7,2.4,15.5,2.7,23.3c0.2,6.3,0,12.9-3.1,18.4
		c-3.1,5.5-8,9.2-13,8.1"/>
	<path class="st0" d="M181.9,347.9c-0.7-0.5-1.3-1.1-1.9-1.7l-4.9-4.8c-2.4-2.4-4.9-4.6-7.6-6.7c-3.3-2.5-6.7-4.8-10.4-6.8
		c-3.6-2-7.5-3.5-11.5-4.4c-3.3-0.7-6.7-0.7-9.9,0c-2.2,0.5-4.3,1.4-6.2,2.5c-0.7,0.5-1.4,1-2.1,1.3c0.6-0.6,1.2-1.2,1.9-1.7
		c1.9-1.3,4-2.3,6.3-3c3.4-0.9,6.9-0.9,10.3-0.2c4.1,0.9,8.1,2.3,11.8,4.4c3.7,2,7.2,4.3,10.5,6.9c2.6,2.2,5.1,4.5,7.5,7
		c2,2.1,3.6,3.9,4.7,5.1C181,346.5,181.5,347.2,181.9,347.9z"/>
	<path class="st0" d="M178.2,344.2c-0.3-0.3-0.6-0.5-0.8-0.9l-2.1-2.5c-1.8-2.2-4.5-5.4-7.9-9.3c-6.8-7.8-16.6-18.2-27.9-29.1
		c-11.3-10.9-22.1-20.3-30.1-26.8c-2-1.6-3.8-3.1-5.4-4.3c-1.6-1.2-3-2.3-4.2-3.2l-2.7-2c-0.3-0.2-0.6-0.5-0.9-0.8
		c0.4,0.1,0.7,0.3,1,0.6l2.7,1.8c1.2,0.8,2.7,1.8,4.3,3c1.6,1.2,3.5,2.7,5.6,4.2c10.6,8.3,20.8,17.2,30.4,26.6
		c11.3,11,21.1,21.5,27.7,29.4c3.4,4,5.9,7.2,7.7,9.5l2,2.7C177.8,343.5,178,343.8,178.2,344.2z"/>
	<path class="st0" d="M160.6,323c-0.8-0.9-1.5-1.8-2.2-2.7c-1.9-2.5-3.7-5.2-5.3-7.9c-2.3-4.1-4.4-8.3-6.3-12.6
		c-2.4-5.3-4.3-10.7-5.9-16.3c-3.1-10-4.4-20.5-3.8-30.9c0.1-1.8,0.3-3.6,0.7-5.4c0-0.8,0.2-1.5,0.4-2.2l0.5-1.8
		c0.3-1.1,0.6-2.2,1-3.3c-0.9,4.2-1.5,8.4-1.9,12.7c-0.4,10.5,0.9,20.9,4,30.9c1.6,5.5,3.5,10.8,5.9,16c1.8,4.3,3.9,8.5,6.1,12.5
		c2,3.5,3.7,6.2,4.9,8.1C159.4,321.1,160,322,160.6,323z"/>
	<path class="st0" d="M468.2,340.1c0,2.2,1.8,4,4.1,4s4-1.8,4-4.1c0-2.2-1.8-4-4-4C470,336.1,468.2,337.9,468.2,340.1
		C468.2,340.1,468.2,340.1,468.2,340.1z"/>
	<path class="st0" d="M452,340.1c0,2.2,1.8,4,4.1,4c2.2,0,4-1.8,4-4.1c0-2.2-1.8-4-4-4C453.8,336.1,452,337.9,452,340.1
		C452,340.1,452,340.1,452,340.1z"/>
	<path class="st0" d="M435.8,338.1c-1.2,1.9-0.6,4.4,1.4,5.6c1.9,1.2,4.4,0.6,5.6-1.4c1.2-1.9,0.6-4.4-1.4-5.6
		c-0.1,0-0.1-0.1-0.2-0.1C439.4,335.6,437,336.2,435.8,338.1z"/>
	<path class="st0" d="M455.8,292.8H455l-2.4,0.2l-1.8,0.1l-2.1,0.4l-2.5,0.4l-2.7,0.7c-4.7,1.3-9.1,3.3-13.2,5.9
		c-12.1,7.9-19.9,20.9-21.2,35.2c-0.1,2.1-0.1,4.2,0,6.4c0,1.1,0,2.2,0.2,3.3s0.4,2.2,0.5,3.3c0.8,4.5,2.3,8.9,4.4,12.9
		c2.3,4.2,5.1,8.1,8.5,11.6c3.6,3.5,7.7,6.4,12.2,8.7c4.6,2.4,9.6,3.9,14.8,4.5c1.3,0.2,2.6,0.3,4,0.4c1.3,0.1,2.7,0.1,4,0
		c2.7-0.1,5.5-0.4,8.1-1c5.7-1.2,11.1-3.5,15.9-6.7l0.2-0.2h0.3l16.6,6.7l-0.7,0.7c-1.7-6.1-3.3-12-4.8-17.7v-0.2l0.1-0.2
		c4.4-5.8,7.4-12.6,8.7-19.8c0.6-3.4,0.9-6.8,0.7-10.2c0-1.6-0.2-3.3-0.4-4.9c0-0.8-0.2-1.6-0.4-2.4s-0.4-1.5-0.6-2.3
		c-4.5-18.1-19.3-31.8-37.7-34.9c-1.2-0.2-2.3-0.4-3.3-0.5l-2.4-0.2h-1.5c-0.3,0-0.5,0-0.5,0h2h2.4c1,0,2.1,0.3,3.3,0.4
		c0.6,0,1.3,0.2,2,0.3l2.1,0.5l2.4,0.6l2.5,0.9c3.9,1.4,7.6,3.4,11,5.8c9.2,6.5,15.8,16.1,18.5,27.1c0.2,0.8,0.4,1.5,0.6,2.3
		s0.2,1.6,0.4,2.4c0.3,1.6,0.4,3.3,0.5,5c0.2,3.5,0,7-0.7,10.4c-1.3,7.3-4.3,14.3-8.8,20.2v-0.4c1.6,5.7,3.2,11.6,4.9,17.7l0.3,1
		l-1-0.4l-16.6-6.6h0.5c-4.9,3.3-10.5,5.6-16.3,6.9c-2.7,0.6-5.4,0.9-8.1,1c-1.4,0-2.7,0-4.1,0c-1.4,0-2.7-0.1-4-0.4
		c-5.3-0.6-10.4-2.2-15.1-4.6c-9.1-4.5-16.5-11.8-21.1-20.8c-2.1-4.2-3.7-8.6-4.5-13.2c-0.2-1.1-0.4-2.2-0.5-3.4
		c-0.2-1.1-0.1-2.2-0.2-3.3c-0.2-2.2-0.3-4.4-0.2-6.6c1.3-14.6,9.3-27.7,21.7-35.6c4.2-2.7,8.7-4.7,13.5-5.9l2.7-0.7l2.5-0.4
		l2.1-0.3h1.8h2.4L455.8,292.8z"/>
	<path class="st3" d="M721.9,460.9h-28.9C654.3,395,569.5,373,503.6,411.8c-65.9,38.8-87.9,123.6-49.1,189.5s123.6,87.9,189.5,49.1
		c57.5-33.8,82.7-103.8,59.9-166.5L721.9,460.9z"/>
	<path class="st4" d="M449.3,530.9l-16,43.1l-12.1-97.5c-0.5-6.2,0.8-12.5,3.5-18c1.2-2.5,2.6-4.8,4.3-7c2.2-2.7,4.7-5,7.5-7
		c1.6-0.7,2.3-2.6,1.5-4.2c-0.4-0.9-1.2-1.5-2.1-1.7c-2.7-0.3-10.5,3.8-16.4,12c-6,8.2-6.7-7.6-7-13.4s-2.2-23.5-4.1-24.8
		c-2.7-1.8-5.2,0.8-4.8,6.5s0.7,23.1-2.4,23.2c-3,0.1-4.3-29.3-4.3-29.3s0.7-6.3-2.7-6.3c-6.3,0-2.7,31.1-2.2,34
		c0.3,2.1-3,2.3-3.2,0s-0.6-29.3-7.1-29.4c-4.9,0,2.7,25.5-0.2,31.3c-2.9,5.7-4-19.9-8.7-19.9c-1.8,0-3.1,0.4-0.4,15.1
		c1.4,7.9,6.6,19.3,8.1,34.7l0.4,4c0.3,19.2,2.7,91.6,20,135.7c7.4,18.3,28.2,27.1,46.5,19.7c6.6-2.7,12.3-7.3,16.3-13.3
		c13.8-20.8,25.3-43.1,34.1-66.5L449.3,530.9z"/>
	<path class="st5" d="M390.1,464.3c0,0.1,1,0,2.5,0.7c2.1,0.7,3.8,2.1,4.9,4l0.6,1.1l0.4-1.2c0.5-1.7,1.3-3.3,2.3-4.7
		c2-2.8,4.9-4.9,8.1-6c2.5-0.9,4.2-0.8,4.2-1c-1.5-0.3-3-0.2-4.4,0.3c-3.5,1-6.6,3.1-8.8,6c-1.1,1.5-2,3.2-2.5,5h0.9
		c-1.3-2.1-3.3-3.5-5.6-4.1C391.1,464,390.1,464.2,390.1,464.3z"/>
	<path class="st1" d="M544.4,435.3h55.8c0,0,50.5,17.9,66.9,30.5c16.4,12.6,41.6,101.2,41.6,101.2l-50.4-1.5l-3.8,76.1
		c-51.6,36.8-113.6,34.6-161.5,0.8l-3.5-58.2h0.4l-57.3-18.2c0,0,32.3-84.8,42.1-101.2c8.6-14.3,58.5-27.1,69.8-29.4"/>
	<path class="st0" d="M603.6,440.1c0,0.3,0,0.7,0,1c-0.1,0.9-0.3,1.8-0.5,2.7c-0.8,3.4-2.1,6.6-4,9.6c-2.7,4.4-6.4,8.1-10.8,10.8
		c-11.2,6.8-25.3,6.4-36-1c-4.2-3-7.7-6.9-10.2-11.5c-1.7-3.1-2.8-6.4-3.4-9.8c-0.2-0.9-0.3-1.8-0.3-2.7c0-0.3,0-0.7,0-1
		c0,0,0.2,1.4,0.7,3.7c0.7,3.3,1.9,6.6,3.6,9.5c2.5,4.4,5.9,8.2,10.1,11.1c10.5,7.1,24.2,7.5,35.1,1c4.4-2.6,8.1-6.2,10.8-10.5
		c1.8-2.9,3.2-6,4.2-9.3C603.3,441.5,603.5,440,603.6,440.1z"/>
	<path class="st0" d="M489.8,526.3c0.3,0,0.5,13,0.5,29s-0.2,29-0.5,29s-0.5-13-0.5-29S489.5,526.3,489.8,526.3z"/>
	<path class="st0" d="M657.8,512.1c0.3,0,0.5,13,0.5,29s-0.2,29-0.5,29c-0.3,0-0.5-13-0.5-29C657.3,525.1,657.5,512.1,657.8,512.1z"
		/>
	<path class="st0" d="M489.8,526.3c-0.9-1.5-1.7-3.1-2.3-4.7c-1.3-3-3-7.2-4.7-11.8c-1.7-4.7-3.3-8.9-4.4-11.9
		c-0.7-1.6-1.3-3.3-1.7-5c0.9,1.5,1.7,3.1,2.3,4.7c1.3,3,3,7.2,4.7,11.8c1.7,4.7,3.3,8.9,4.4,11.9
		C488.8,522.9,489.4,524.6,489.8,526.3z"/>
	<path class="st0" d="M490.1,530.5c-3.3-2.5-6.5-5.2-9.5-8.1c-3.2-2.7-6.2-5.6-8.9-8.7c3.4,2.5,6.5,5.2,9.5,8.1
		C484.3,524.5,487.3,527.4,490.1,530.5z"/>
	<path class="st0" d="M661,490.7c-0.2,3.8-0.6,7.7-1.3,11.5c-0.4,3.8-1.1,7.6-2.1,11.3c0.1-3.8,0.6-7.7,1.3-11.5
		C659.3,498.2,660,494.4,661,490.7z"/>
	<g class="st6">
		<path d="M489,583.7c-6.3-11.4-10.4-24-12.1-37c-1.6-13,0.7-26.2,6.6-37.9l6.5,20.5L489,583.7z"/>
	</g>
	<path class="st3" d="M649.2,455.6c0,0-0.5,0.5-1.5,1.4l-4.6,3.9l-16.9,14.4l-56.1,47.1l-0.3,0.2l-0.3-0.2l-0.9-0.8l-56.5-47.9
		l-17.1-14.6l-4.6-4c-1.1-0.9-1.6-1.4-1.6-1.4s0.6,0.4,1.7,1.3s2.7,2.2,4.7,3.9l17.2,14.4l56.6,47.7l0.9,0.8h-0.5l56.2-47l17.1-14.1
		l4.7-3.8L649.2,455.6z"/>
	<path class="st3" d="M661,462.2c0,0-0.6,0.6-1.8,1.6l-5.2,4.5l-19.3,16.3l-63.9,53.8l-0.3,0.2l-0.3-0.2l-0.9-0.8L505.1,483
		l-19.4-16.6c-2.2-1.9-4-3.4-5.3-4.6c-1.3-1.1-1.8-1.6-1.8-1.6s0.7,0.5,1.9,1.5l5.4,4.4l19.6,16.4l64.5,54.3l0.9,0.8h-0.5l64.1-53.5
		l19.5-16.3l5.4-4.4C660.4,462.6,661,462.2,661,462.2z"/>
	<path class="st3" d="M661,577.2c0,0-0.6,0.5-1.7,1.5l-4.9,4.2l-18.1,15.4l-60.1,50.6l-0.3,0.2l-0.3-0.2l-0.9-0.7l-60.5-51.5
		L496,581l-5-4.1c-1.1-1-1.7-1.5-1.7-1.5s0.6,0.5,1.8,1.4l5,4.2l18.4,15.4l60.7,51.2l0.9,0.7h-0.5l60.2-50.4l18.3-15.2l5-4.1
		C660.4,577.6,661,577.2,661,577.2z"/>
	<path class="st3" d="M662.5,591.6c0,0-0.6,0.5-1.7,1.5l-4.9,4.2l-18.1,15.4l-60.1,50.6l-0.3,0.2l-0.3-0.2l-0.9-0.7l-60.5-51.3
		l-18.3-15.6l-4.9-4.3c-1.1-1-1.7-1.5-1.7-1.5s0.6,0.5,1.8,1.4l5,4.2l18.4,15.4l60.7,51.2l0.9,0.7h-0.5l60.3-50.4l18.3-15.2l5-4.1
		C661.9,592.1,662.5,591.6,662.5,591.6z"/>
	<path class="st0" d="M693.1,460.6c0,0-0.1-0.1-0.1-0.1l-0.1,0L693.1,460.6z"/>
	<path class="st0" d="M704,484L704,484c0-0.1,0-0.2,0-0.2V484z"/>
	<path class="st0" d="M706.7,569c0.9-3.6,2.2-7.1,2.7-10.7c0.5-3.5,1.1-7,1.6-10.4c0.5-3.3,0.8-6.7,0.8-10c0.1-3.3,0.3-6.4,0.3-9.5
		c-0.2-15.2-3-30.2-8.1-44.4L704,484v-0.2c0,0,0,0.1,0.1,0.2l17.9-23.1L703.6,484v0.1c3.1,8.8,5.3,17.9,6.6,27.1
		c0.8,5.7,1.2,11.5,1.3,17.3c0.1,3.1-0.4,6.2-0.4,9.5c-0.1,3.3-0.3,6.6-0.8,9.9c-0.5,3.4-0.7,6.9-1.6,10.3c-0.9,3.5-1.8,7-2.7,10.6
		c-0.2,0.8-0.4,1.7-0.6,2.5c0.1,0.5,0.2,1,0.3,1.6l0.4-1.1C706.2,570.8,706.5,569.9,706.7,569z"/>
	<path class="st4" d="M704.6,566.9l-42-1.2l0.4,4.4l-0.5-0.5c0,22.8,0,43.3,0,66.1c14.6-12.4,26.6-27.7,35.1-45.3
		c0.9-1.8,1.8-3.6,2.7-5.4c0.9-1.8,1.4-3.7,2.1-5.4c0.7-1.8,1.3-3.6,2-5.4c0.3-0.9,0.6-1.8,0.9-2.7c0-0.1,0-0.1,0.1-0.2
		C704.9,569,704.7,567.4,704.6,566.9z"/>
	<path class="st4" d="M705.3,571.5c-0.3,0.9-0.6,1.8-0.9,2.7c-0.7,1.8-1.3,3.7-2,5.4c-0.7,1.8-1.1,3.6-2.1,5.4
		c-0.9,1.8-1.8,3.6-2.7,5.4c-8.5,17.6-20.5,32.9-35.1,45.3c0.1,0.2,0.3,0.5,0.4,0.7c14.7-12.5,26.9-28,35.4-45.8
		c1-1.8,1.9-3.7,2.7-5.4c0.8-1.7,1.4-3.6,2.1-5.4c0.7-1.8,1.3-3.6,2-5.4l0.6-1.6c-0.1-0.6-0.2-1.1-0.3-1.6
		C705.3,571.4,705.3,571.4,705.3,571.5z"/>
	<path class="st4" d="M573.9,463L573.9,463c14.8-0.9,26.4-13.2,26.3-28.1c0-8.9-0.2-16.6-0.2-16.6s22.6-3.5,22.9-26.1
		s-3.7-74.6-3.7-74.6l0,0c-26.2-11.3-56.4-7.5-79,9.9l-3.4,2.6l7.6,107.1C545.6,452.3,558.7,463.8,573.9,463z"/>
	<path class="st5" d="M600,418c-10.4,0.2-20.7-2.7-29.5-8.4c0,0,7,16.3,29.6,14.3L600,418z"/>
	<path class="st4" d="M539.7,353.5c-0.4-0.2-15.6-4.6-15.1,10.8s15.9,11.8,15.9,11.3S539.7,353.5,539.7,353.5z"/>
	<path class="st5" d="M535.6,370c0,0-0.3,0.2-0.7,0.4c-0.7,0.3-1.4,0.3-2,0c-2.1-1.2-3.3-3.5-3.3-5.9c-0.1-1.3,0.2-2.7,0.7-3.9
		c0.3-1,1-1.8,2-2.1c0.6-0.2,1.3,0.1,1.6,0.7c0.2,0.4,0.1,0.7,0.2,0.8c0.1,0,0.3-0.3,0.2-0.9c-0.1-0.4-0.3-0.7-0.6-0.9
		c-0.4-0.3-1-0.4-1.5-0.4c-1.3,0.3-2.3,1.2-2.7,2.5c-0.6,1.4-0.9,2.8-0.8,4.3c-0.1,2.8,1.6,5.4,4.1,6.6c0.8,0.2,1.7,0,2.4-0.5
		C535.6,370.4,535.6,370,535.6,370z"/>
	<path class="st0" d="M611.9,351.3c0,1.8-1.4,3.2-3.1,3.3c-1.7,0.1-3.2-1.2-3.3-2.9c0-1.7,1.4-3.2,3.1-3.3
		C610.2,348.2,611.7,349.5,611.9,351.3C611.9,351.2,611.9,351.2,611.9,351.3z"/>
	<path class="st0" d="M615,349.3c-0.4,0.4-2.8-1.4-6.3-1.4c-3.5,0-6,1.8-6.4,1.3c-0.4-0.4,0.2-0.9,1.4-1.8c1.5-1.1,3.3-1.6,5.1-1.6
		c1.8,0,3.6,0.6,5,1.6C614.8,348.4,615.2,349.2,615,349.3z"/>
	<path class="st0" d="M577.6,352.3c0,1.8-1.4,3.2-3.1,3.3c-1.7,0.1-3.2-1.2-3.3-2.9c0-1.7,1.4-3.2,3.1-3.3c1.7-0.2,3.2,1.1,3.3,2.8
		C577.6,352.3,577.6,352.3,577.6,352.3z"/>
	<path class="st0" d="M580.8,350c-0.4,0.4-2.8-1.4-6.3-1.4s-6,1.8-6.4,1.3c-0.4-0.4,0.2-0.9,1.3-1.8c1.5-1,3.3-1.6,5.1-1.6
		c1.8,0,3.6,0.6,5,1.6C580.6,349.1,581,349.8,580.8,350z"/>
	<path class="st0" d="M593.4,375.8c1.8-0.6,3.7-0.9,5.7-1c0.9,0,1.7-0.3,1.9-0.9c0.1-0.9-0.1-1.9-0.6-2.7l-2.7-6.7
		c-2.4-5.7-4.4-11.6-5.9-17.7c2.9,5.5,5.3,11.3,7.3,17.2c0.9,2.4,1.7,4.6,2.5,6.8c0.6,1.1,0.7,2.3,0.5,3.5c-0.3,0.6-0.8,1.1-1.5,1.3
		c-0.5,0.1-1,0.2-1.5,0.2C597.2,376,595.3,376,593.4,375.8z"/>
	<path class="st0" d="M583.2,378.2c0.6,0,0.6,3.7,3.8,6.4c3.3,2.7,7.2,2.3,7.3,2.7s-0.9,0.7-2.7,0.8c-2.2,0-4.4-0.7-6.1-2.1
		c-1.6-1.4-2.7-3.3-2.9-5.4C582.5,379.1,582.9,378.2,583.2,378.2z"/>
	<path class="st0" d="M581.7,336.4c-0.3,0.9-3.8,0.5-7.9,1c-4.1,0.5-7.4,1.6-7.9,0.8c-0.2-0.4,0.4-1.3,1.7-2.2
		c3.6-2.3,8-2.8,12.1-1.3C581.1,335.2,581.8,335.9,581.7,336.4z"/>
	<path class="st0" d="M613.7,339.3c-0.6,0.8-3,0-5.9,0c-2.9,0-5.4,0.5-5.9-0.3c-0.3-0.4,0-1.2,1.2-2c1.4-0.9,3.1-1.4,4.8-1.3
		c1.7,0,3.3,0.6,4.7,1.6C613.7,338.1,614,338.9,613.7,339.3z"/>
	<path class="st0" d="M630.4,303.3c0.3-2.8-0.9-5.7-3.1-7.5c-2.4-1.7-5.6-1.5-7.7,0.6c0.8-3.7-1.5-7.4-5.3-8.3
		c-0.2-0.1-0.5-0.1-0.7-0.1c-3.7-0.2-6.9,2.7-10.4,3.5c-3.6,0.7-7.3,0.3-10.6-1.2c-3.3-1.4-6.5-3.2-9.9-4.5
		c-14.9-5.4-31.4,2.2-37,17c-5.1-1.2-10.5,0.8-13.5,5.1c-2.9,4.4-4,9.7-3.2,14.8c0.5,3.5,1.4,6.9,2.7,10.2c0,0.3,0,0.6,0,0.9
		c0.2,12.5,1.7,27.1,7,27.1c9.2,0.2,7-17.3,7-17.3c11.4-4.4,7.1-21.4,10-24c2.8-2.6,8.8-8.6,32.5,3.5c8.8,4,18.7,5,28.2,3.1h0.6l0,0
		h0.2c2.2-0.6,4.2-1.5,6.1-2.7c2.2-1.3,4-3.2,5-5.6c1-2.4,0.5-5.2-1.3-7.1C628.9,308.8,630.1,306.1,630.4,303.3z"/>
	<path class="st3" d="M531.6,331.4c0,0,1.1,1,3,2.2c5.1,3.2,11.6,2.9,16.4-0.7c1.8-1.3,2.7-2.5,2.7-2.4c-0.5,1.1-1.4,2.1-2.4,2.9
		c-4.9,4.1-11.9,4.4-17.1,0.8C533.1,333.4,532.2,332.4,531.6,331.4z"/>
	<path class="st3" d="M552.4,324c-0.8,1-1.9,1.8-3,2.3c-5.5,2.9-12.1,3-17.7,0.3c-1.2-0.5-2.2-1.3-3.1-2.2c0-0.1,1.2,0.7,3.4,1.6
		c5.5,2.3,11.8,2.2,17.2-0.3C551.2,324.8,552.3,323.9,552.4,324z"/>
	<path class="st3" d="M323.8,267.7L303,280.8c-57.2-30-127.8-7.9-157.7,49.3s-7.9,127.8,49.3,157.7c57.2,30,127.8,7.9,157.7-49.3
		c26.1-49.8,13-111.2-31.2-146L323.8,267.7z"/>
	<path class="st0" d="M323.8,267.7l-2.4,24.8v-0.2c6.3,4.9,12,10.5,17.2,16.6c3.2,3.8,6.1,7.7,8.8,11.9c1.5,2.2,2.7,4.6,4.1,7
		c1.5,2.4,2.8,4.9,3.9,7.6l3.6,8.1c0.9,2.9,1.9,5.9,2.9,8.9l0.7,2.3l0.5,2.4c0.3,1.6,0.7,3.2,1,4.8c0.4,1.6,0.8,3.3,1,4.9
		s0.4,3.4,0.6,5.1c3.5,31.6-5.8,63.2-25.7,87.9l-2,2.6l-2.3,2.4l-4.6,4.8c-1.6,1.6-3.2,3.1-5,4.5l-5.1,4.7
		c-3.7,2.6-7.4,5.4-11.3,7.7l-6.1,3.4l-3.1,1.7c-1,0.5-2.1,0.9-3.2,1.4l-6.5,2.7c-2.2,0.9-4.4,1.7-6.7,2.3c-2.3,0.7-4.5,1.5-6.9,2.1
		l-7.1,1.5c-1.2,0.2-2.4,0.5-3.5,0.7l-3.6,0.4l-7.3,0.8c-2.4,0-4.9,0-7.4,0.1h-3.7c-1.2,0-2.5-0.2-3.7-0.2l-7.5-0.6
		c-2.5-0.3-4.9-0.8-7.4-1.2c-5-0.9-9.9-2.2-14.7-3.7c-2.4-0.8-4.8-1.8-7.2-2.7c-2.4-0.8-4.8-1.8-7.2-2.9l-6.9-3.5
		c-2.2-1.3-4.4-2.7-6.6-4.1l-3.3-2.2c-1.1-0.7-2.1-1.6-3.1-2.4l-6.1-4.8c-1.9-1.7-3.8-3.5-5.6-5.3l-2.7-2.7
		c-0.9-0.9-1.7-1.9-2.5-2.9l-5-5.8c-1.6-2-3-4.1-4.4-6.2c-2.9-4.1-5.5-8.4-7.8-12.9c-1.2-2.2-2.3-4.4-3.3-6.7
		c-0.9-2.3-2-4.6-2.9-6.8c-0.9-2.3-1.5-4.7-2.2-7l-1.1-3.5c-0.3-1.2-0.5-2.4-0.8-3.6c-0.5-2.4-1-4.7-1.5-7.1
		c-0.5-2.4-0.6-4.8-0.9-7.1c-0.5-4.7-0.8-9.5-0.7-14.2c0-2.3,0.1-4.7,0.4-7c0.2-2.3,0.4-4.6,0.6-6.9l1.2-6.8
		c0.3-2.2,0.8-4.5,1.4-6.7c1.1-4.4,2.4-8.7,4.1-12.8l2.4-6.2c0.9-2,2-3.9,2.9-5.9c7.5-14.8,18.1-27.9,31.1-38.3
		c6-4.7,12.3-9,19-12.6c6.4-3.3,13-6,19.8-8.1c12.2-3.8,24.9-5.7,37.7-5.4c10.5,0.2,20.9,1.8,31,4.8c7.6,2.3,15,5.3,22,9h-0.2
		c13.5-8.3,19.5-11.9,20.9-12.8l-20.5,13.2l0,0l0,0c-7-3.6-14.4-6.5-21.9-8.8c-22.3-6.5-46-6.2-68.2,0.8c-6.8,2.1-13.3,4.9-19.6,8.1
		c-6.7,3.6-13,7.8-19,12.6c-12.8,10.3-23.3,23.3-30.7,37.9c-0.9,2-2,3.8-2.9,5.8l-2.4,6.1c-1.6,4.1-3,8.4-4,12.7
		c-0.6,2.2-1.1,4.4-1.4,6.6l-1.2,6.7l-0.6,6.9c-0.3,2.3-0.4,4.6-0.3,6.9c-0.1,4.7,0.2,9.4,0.7,14c0.3,2.4,0.4,4.7,0.9,7.1l1.5,7
		c0.2,1.2,0.5,2.4,0.8,3.5l1.1,3.4l2.2,6.9c0.9,2.3,1.9,4.5,2.9,6.7c0.9,2.3,2,4.5,3.2,6.7c2.3,4.4,4.9,8.7,7.7,12.7
		c1.5,2,2.7,4.2,4.4,6.1l5,5.7c0.8,0.9,1.6,2,2.5,2.8l2.7,2.7c1.8,1.8,3.7,3.5,5.4,5.3c1.8,1.7,4,3.1,6.1,4.7c1,0.8,2,1.6,3.1,2.3
		l3.3,2.1c2.2,1.3,4.3,2.7,6.5,4l6.9,3.4c2.3,1.2,4.6,2.3,7,3.2c2.4,0.9,4.7,1.9,7.1,2.7c4.8,1.5,9.7,2.7,14.6,3.6
		c2.4,0.4,4.9,0.9,7.3,1.2l7.4,0.6c1.2,0,2.4,0.2,3.7,0.2h3.7c2.4,0,4.9,0,7.3-0.1l7.2-0.8l3.6-0.4l3.5-0.7l7-1.5
		c2.3-0.5,4.5-1.4,6.8-2.1c2.3-0.6,4.5-1.4,6.6-2.3l6.4-2.7c1.1-0.5,2.1-0.9,3.2-1.4l3-1.7l6-3.4c3.9-2.4,7.5-5.1,11.2-7.6l5.1-4.4
		c1.7-1.4,3.4-2.9,4.9-4.4l4.5-4.7l2.2-2.4l2-2.5c19.8-24.4,29.1-55.7,25.7-87c-0.2-1.7-0.4-3.4-0.5-5c-0.2-1.7-0.7-3.3-1-4.9
		c-0.3-1.6-0.7-3.2-1-4.8l-0.5-2.4l-0.7-2.3c-0.9-3-1.9-6-2.7-8.9l-3.5-8.1c-1.1-2.6-2.4-5.1-3.9-7.5c-1.4-2.4-2.5-4.8-4-7
		c-7-10.9-15.7-20.5-25.7-28.6l0,0l0,0C322.7,276.4,323.6,269.3,323.8,267.7z"/>
	<path class="st7" d="M317.3,372.3l15.3,32.5l2.9-76.4c0-4.9-1.4-9.6-4-13.8c-1.1-1.8-2.4-3.6-3.8-5.1c-1.9-1.9-4-3.6-6.3-4.9
		c-1.3-0.4-2-1.8-1.6-3.1c0.2-0.7,0.8-1.3,1.6-1.6c2.1-0.4,8.3,2.2,13.5,8.1c5.2,5.9,4.6-6.3,4.5-10.8c-0.1-4.5,0-18.4,1.5-19.5
		c2-1.6,4.1,0.3,4.1,4.7c0,4.5,1,18,3.4,17.9c2.4-0.1,1.4-23,1.4-23s-1-4.9,1.7-5.1c4.9-0.4,4.1,23.9,4,26.2c0,1.6,2.5,1.6,2.5-0.1
		c0-1.7-1.5-22.8,3.5-23.3c3.8-0.4-0.5,20,2.3,24.4c2.7,4.4,1.7-15.8,5.4-16c1.4,0,2.4,0,1.4,11.6c-0.6,6.2-3.9,15.4-4.1,27.4v3.1
		c1.1,14.9,4.1,71.2-6.5,106.6c-4.5,14.7-20.1,22.9-34.8,18.3c-5.3-1.6-10-4.9-13.5-9.2c-12.1-15.2-22.5-31.8-30.9-49.4L317.3,372.3
		z"/>
	<path class="st8" d="M358.8,316.8c0,0-0.8,0.2-1.9,0.7c-1.6,0.7-2.8,1.9-3.5,3.5l-0.4,0.9l-0.4-0.9c-0.5-1.3-1.2-2.4-2.1-3.5
		c-1.8-2-4.1-3.4-6.7-4.1c-2-0.5-3.3-0.4-3.3-0.5c1.1-0.3,2.3-0.3,3.4,0c2.8,0.5,5.3,2,7.2,4.1c1,1.1,1.7,2.4,2.2,3.8h-0.8
		c0.8-1.7,2.3-3,4.1-3.6C358,316.6,358.8,316.7,358.8,316.8z"/>
	
		<rect x="206" y="276.4" transform="matrix(0.9963 -8.559082e-02 8.559082e-02 0.9963 -23.8781 18.7767)" class="st1" width="2.1" height="22.9"/>
	<path class="st1" d="M187.2,485.3l10.2-66.9c0,0,10.1,18.6,10.4,27.8c0.3,9.2-9.3,45.2-9.3,45.2c35.4,15.8,74.1,15.6,107.7-4.2
		l-5.4-51.5l-2.1-35.8l1.7-46.6c1.5-20.2-13.6-37.8-33.8-39.4c-1.2-0.1-2.4-0.1-3.6-0.1c-2.2,0-4.3,0.4-6.4,0.9l-46.8,6.3
		c0,0-48.8,25.8-59.3,61.9c-3.8,13.1-6.2,33.4-8,53.3C152.1,456.2,166.8,472.1,187.2,485.3z"/>
	<polygon class="st1" points="307.8,352.3 332.6,403.6 300,434.6 297.7,384.2 300.5,352.9 	"/>
	<path class="st7" d="M149.1,391.4c0,0,42.2-4.2,53.6-23.8c12.3-21.2,7.3-46.5,7.3-46.5s-26.8,8.8-38.6,21.7s-21.3,33.2-22.4,48.8"
		/>
	<path class="st7" d="M260.9,314c-1.1,0.2,9.8,53.9,50.2,45.2C311.2,359.2,293.7,307.9,260.9,314z"/>
	<path class="st3" d="M319.3,375.7l-1.8-0.2c-1.7-0.2-3.5-0.3-5.2-0.2c-6.4,0.3-12.7,1.6-18.7,4c-7.7,2.7-16.3,7.5-26,11.7
		c-5.2,2.3-10.7,3.9-16.3,4.8c-6,0.8-12.1,0.9-18.1,0.2c-12.3-1.1-24.1-3.2-34.8-1.6c-5,0.8-9.9,2.1-14.7,4
		c-4.5,1.7-8.6,3.4-12.4,4.8c-5.9,2.6-12.1,4.3-18.5,5c-2.4,0.2-4.7,0.1-7-0.3l1.8,0.2c1.7,0.1,3.5,0.1,5.2,0
		c6.4-0.8,12.6-2.5,18.4-5.1c3.8-1.5,7.9-3.3,12.4-4.9c4.7-1.9,9.7-3.3,14.7-4.1c10.8-1.7,22.6,0.5,34.9,1.6c6,0.6,12,0.6,18-0.2
		c5.5-0.9,10.9-2.6,16-4.8c9.9-4.1,18.4-8.9,26.1-11.6c6-2.3,12.4-3.6,18.8-3.8C314.6,375,317,375.2,319.3,375.7z"/>
	<path class="st3" d="M193.7,440.1h-0.5l-1.6,0.1c-1.3,0-3.3,0.2-5.7,0.3c-6.3,0.3-12.7,0-19-0.9c-3.4-0.6-6.8-1.4-10.1-2.4
		c-2.7-0.9-5.3-2.1-7.7-3.7c-1.6-1.1-3-2.4-4.3-3.8c-0.5-0.5-0.9-1.1-1.3-1.6c1.8,1.9,3.7,3.6,5.9,5.1c2.4,1.5,4.9,2.7,7.6,3.6
		c3.3,1,6.7,1.8,10.1,2.4c6.2,0.9,12.5,1.3,18.8,1.1h5.7L193.7,440.1L193.7,440.1z"/>
	<path class="st3" d="M316.1,417.2l-1.1,0.3c-1.1,0.3-2.1,0.6-3.1,1c-3.7,1.7-7.2,3.7-10.5,5.9c-5.2,3.1-10.9,5.2-16.8,6.2
		c-7.3,1.2-14.6,1.6-22,1.2c-7.8-0.3-15.2-0.8-21.9-0.6c-6,0.1-11.9,0.9-17.7,2.4c-3.9,1.1-7.6,2.6-11.1,4.6
		c-1.2,0.7-2.1,1.3-2.7,1.8l-0.9,0.6c1.1-1,2.3-1.9,3.6-2.7c3.5-2.1,7.2-3.7,11.1-4.8c5.8-1.6,11.8-2.4,17.8-2.5
		c6.8-0.2,14.2,0.2,22,0.5c7.3,0.4,14.6,0,21.8-1.1c5.9-1,11.6-3,16.7-6c3.4-2.3,6.9-4.2,10.6-5.8
		C313.2,417.6,314.6,417.3,316.1,417.2z"/>
	<path class="st3" d="M303.1,462.8h-1c-1-0.1-2-0.2-3-0.2c-3.6,0.1-7.2,0.9-10.6,2.3c-4.3,1.6-9,4.5-14.5,7.3
		c-2.9,1.5-5.9,2.7-8.9,3.6c-1.7,0.4-3.3,0.7-5,0.9c-1.7,0.2-3.5,0.2-5.3,0.1c-6.6-0.5-13.2-1.8-19.5-3.9c-5.2-1.6-10.4-2.9-15.7-4
		c-3.6-0.6-7.2-0.8-10.8-0.6c-1.3,0-2.3,0.3-3,0.4h-1c0,0,1.4-0.4,4-0.7c3.6-0.3,7.3-0.2,10.8,0.4c5.3,1,10.6,2.3,15.8,3.9
		c6.3,2,12.8,3.3,19.4,3.8c1.7,0.1,3.5,0,5.2-0.1c4.9-0.6,9.5-2.1,13.8-4.4c4.7-2.7,9.6-5,14.6-7.2c3.4-1.4,7.1-2.1,10.8-2.2
		C300.5,462.3,301.8,462.4,303.1,462.8z"/>
	<path class="st3" d="M271.5,343.6c-0.9-0.2-1.8-0.3-2.7-0.3c-2.5,0-5,0.6-7.3,1.7c-3.3,1.7-6.3,4-8.9,6.7
		c-3.1,3.5-6.6,6.5-10.5,9.1c-4.1,2.3-8.7,3.4-13.4,3.3c-3.8-0.1-7.6-0.6-11.2-1.6c-3.1-0.8-5.6-1.6-7.3-2.2l-2-0.7
		c-0.2-0.1-0.5-0.2-0.7-0.3c0.2,0,0.5,0.1,0.7,0.2l2,0.6c1.7,0.5,4.2,1.3,7.3,2c3.6,0.9,7.4,1.4,11.1,1.4c4.6,0.1,9.1-1,13.1-3.3
		c3.8-2.6,7.3-5.6,10.4-8.9c2.6-2.8,5.7-5.1,9.1-6.7c2.3-1.2,4.9-1.7,7.5-1.6C269.7,343.1,270.6,343.3,271.5,343.6z"/>
	<path class="st0" d="M287.1,340.3c0.7,1.1,1.3,2.3,1.8,3.5l0.9,1.9c0.3,0.7,0.6,1.5,0.9,2.4c0.7,1.7,1.4,3.6,2,5.9l1,3.4
		c0.3,1.2,0.6,2.5,0.9,3.8c0.7,2.7,1.1,5.4,1.7,8.4c1,6,1.7,12.6,2.2,19.6c1,14,1.2,26.6,1.8,35.7c0.3,4.6,0.5,8.1,0.8,10.8
		c0.2,1.3,0.2,2.6,0.2,4c-0.3-1.3-0.5-2.6-0.7-3.9c-0.4-2.5-0.8-6.2-1.1-10.8c-0.8-9.1-1.2-21.7-2.2-35.6c-0.5-7-1.3-13.5-2.2-19.5
		c-0.6-3-1-5.8-1.6-8.4c-0.3-1.3-0.6-2.7-0.8-3.8c-0.3-1.1-0.7-2.3-1-3.4c-0.6-2.2-1.3-4.1-1.9-5.9c-0.3-0.9-0.6-1.7-0.8-2.4l-0.8-2
		C287.9,342.8,287.4,341.5,287.1,340.3z"/>
	<g class="st6">
		<polygon points="297.4,376.3 311.7,423.4 301.1,433.5 		"/>
	</g>
	<g class="st6">
		<path d="M248.1,413.1c-12.8,9.4-30.7,6.6-40.1-6.2c-0.6-0.8-1.1-1.6-1.6-2.5c1.7,9,8.4,16.2,17.2,18.5
			C236.7,426.3,248.1,413.1,248.1,413.1z"/>
	</g>
	<path class="st0" d="M200.8,390.7c-0.1,6.4-0.7,12.7-1.8,19c-0.6,6.3-1.6,12.5-3.1,18.7c0.1-6.4,0.7-12.7,1.8-19
		C198.3,403.1,199.3,396.8,200.8,390.7z"/>
	<path class="st0" d="M206.1,229.4c-7,3.8-45,6.9-49.4,0.2c-4.3-7-2.8-16.2,3.5-21.5c-3.8-4-5.9-9.2-6.1-14.7
		c-0.1-5.5,2.5-10.7,7-14c4.6-3.1,10.7-3,15.2,0.2c-3.1-2.2-2-7.2,0.2-10.2c6.7-9.1,19.4-11,28.5-4.3c1.5,1.1,2.9,2.4,4,3.9
		c3.3-9.7,13.9-14.9,23.6-11.6c7.1,2.4,12.1,8.9,12.6,16.4c6.3-2.5,13.7,2.1,16.3,8.4c2.5,6.3,1.4,13.5-0.8,19.9"/>
	<path class="st1" d="M186.6,253.5c-3.1-3.8-4.7-8.7-4.4-13.7c0.4-4.9,1.7-9.7,4.1-14c10.2-19.7,30.5-32.2,52.7-32.4
		c8.8-0.3,17.4,2.4,24.4,7.7c7,5.5,10.4,14.5,8.5,23.2"/>
	<path class="st7" d="M258.2,319.3c-0.4-8.3-0.6-15.9-0.6-15.9s18.4-4,17.6-23c-0.8-19-6.5-62.5-6.5-62.5l-35.6-13.5L205.4,234
		l10.7,88.4c1.9,12.5,9.5,22.6,22.1,20.9l0,0C250,341.7,258.7,331.3,258.2,319.3z"/>
	<path class="st0" d="M220.2,213.3c-5.4,8.9-1.6,14.3,5.4,22c2.9,3.6,7.4,5.6,12,5.4c4.6-0.5,8.6-5.2,7.2-9.6
		c-1.2,5.1,2,10.2,7.1,11.3c5.1,1.2,10.2-2,11.3-7.1c0.4-1.8,0.3-3.7-0.4-5.4c0.6,2,1.5,3.9,2.7,5.6c1.2,1.7,3.3,2.6,5.4,2.3
		c2.7-0.6,6.4-0.8,6.8-5.4c0.8-10.3-2.5-18.5-9.2-24c-7.7-5.5-17.3-7.9-26.7-6.6c-8.6,1.5-16.4,5.8-22.4,12.2"/>
	<path class="st0" d="M225.7,212.9c2.9,5.2,4.6,10.8,5.3,16.7c0.6,5.9-1.1,11.8-4.8,16.5c-3.8,4.7-10,6.7-15.8,5.3
		c1.9,5,1.6,10.7-1.1,15.4c-2.8,4.7-8.6,6.7-13.7,4.9c-4.4-1.9-6.6-6.9-7.6-11.5c-4.4-21,9.1-41.7,30.1-46.1
		c2.7-0.6,5.6-0.9,8.4-0.8"/>
	<path class="st7" d="M209.1,261.1c-2.9-1.1-6.1-0.1-7.9,2.4c-4,4.5-3.6,11.3,0.8,15.3c3.1,2.7,7.4,3.5,11.2,2"/>
	<path class="st8" d="M209.4,275.4c0,0-0.8,0.3-2.2,0c-1.8-0.4-3.4-1.6-4.1-3.3c-0.4-1-0.4-2.1,0-3c0.3-0.8,0.8-1.5,1.5-2
		c1.1-0.8,2-0.9,2-0.8c0,0.1-0.7,0.4-1.6,1.3c-1.2,1.1-1.5,2.7-0.9,4.2c0.7,1.4,1.9,2.5,3.5,3C208.6,275.1,209.4,275.1,209.4,275.4z
		"/>
	<path class="st0" d="M270.1,251.8c0.2,1.5-0.9,2.8-2.4,3c0,0,0,0-0.1,0c-1.5,0.2-2.8-0.8-3.1-2.2c-0.2-1.5,0.9-2.8,2.4-3
		c0,0,0,0,0.1,0C268.5,249.3,269.9,250.3,270.1,251.8z"/>
	<path class="st0" d="M271.9,247.8c-0.3,0.4-2.5-1-5.4-0.7c-2.9,0.3-5,2-5.4,1.6s0-0.8,1-1.6c1.2-1,2.7-1.6,4.3-1.7
		c1.6-0.1,3.1,0.2,4.4,1C271.7,246.9,272.1,247.6,271.9,247.8z"/>
	<path class="st0" d="M242.3,254.4c0.2,1.5-0.9,2.8-2.4,3c0,0,0,0-0.1,0c-1.5,0.2-2.8-0.8-3.1-2.2c-0.2-1.5,0.9-2.8,2.4-3
		c0,0,0,0,0.1,0C240.7,252,242.1,253,242.3,254.4z"/>
	<path class="st0" d="M242.7,250.2c-0.3,0.4-2.5-1-5.4-0.7c-2.9,0.3-5,1.9-5.4,1.6s0-0.8,1-1.6c1.2-1,2.7-1.6,4.3-1.7
		c1.5-0.1,3.1,0.2,4.4,1C242.5,249.5,242.8,250.1,242.7,250.2z"/>
	<path class="st0" d="M254.8,271.7c1.5-0.6,3.1-1.1,4.7-1.3c0.8,0,1.5-0.4,1.5-0.9c0-0.8-0.2-1.6-0.7-2.2l-2.7-5.6
		c-2.5-4.7-4.6-9.6-6.3-14.7c2.9,4.5,5.3,9.2,7.4,14.1l2.7,5.6c0.6,0.9,0.8,1.9,0.7,2.9c-0.2,0.6-0.6,1-1.2,1.2
		c-0.4,0.2-0.8,0.3-1.3,0.3C258.1,271.6,256.4,271.8,254.8,271.7z"/>
	<path class="st0" d="M246.2,274.5c0.5,0,0.8,3.2,3.7,5.2c3,2.1,6.4,1.4,6.4,1.8c0.1,0.5-0.7,0.7-2.2,0.9c-1.9,0.2-3.8-0.3-5.4-1.4
		c-1.5-1-2.6-2.6-2.9-4.4C245.7,275.4,246,274.5,246.2,274.5z"/>
	<path class="st0" d="M244.8,244.8c-0.2,0.8-3.2,0.7-6.7,1.4c-3.4,0.7-6.2,1.9-6.7,1.2c-0.5-0.7,0.2-1.1,1.2-2
		c2.9-2.2,6.7-2.9,10.2-2C244.2,243.9,244.9,244.4,244.8,244.8z"/>
	<path class="st0" d="M271,242c-0.5,0.7-2.7,0.2-5,0.4c-2.3,0.2-4.5,0.8-5,0.2c-0.5-0.7,0-1,0.9-1.7c1.2-0.9,2.6-1.4,4-1.5
		c1.4-0.1,2.9,0.3,4.1,1C270.9,241,271.2,241.7,271,242z"/>
	<path class="st8" d="M257.7,303.4c-8.8,0.5-17.6-1.6-25.3-6c0,0,7,13.3,25.4,10.6L257.7,303.4z"/>
	<path class="st3" d="M194.1,229.9c0,0-0.6-0.4-1.3-1.2c-1-1.1-1.7-2.3-2.2-3.7c-0.5-1.4-0.7-2.8-0.6-4.3c0-0.6,0.1-1.2,0.4-1.7
		c0,2,0.2,3.9,0.8,5.8C191.9,226.7,192.9,228.3,194.1,229.9z"/>
	<path class="st3" d="M200.8,222.5c-0.5-0.3-0.9-0.7-1.2-1.2c-0.9-1-1.6-2.2-2.2-3.4c-0.6-1.2-1-2.5-1.4-3.8
		c-0.2-0.5-0.3-1.1-0.3-1.7c0.2,0,0.8,2.4,2.2,5.2C199.1,220.6,200.9,222.4,200.8,222.5z"/>
	<path class="st3" d="M211,216.2c0,0-0.6-0.5-1.4-1.4c-1-1.2-1.9-2.5-2.7-3.8c-0.8-1.4-1.4-2.8-2-4.2c-0.3-0.6-0.5-1.2-0.6-1.8
		c0.2,0,1.4,2.7,3.1,5.8C209.2,213.8,211.1,216.1,211,216.2z"/>
	<path class="st3" d="M223.8,210.1c-0.2,0-1.2-3-3.2-6.2s-4.4-5.4-4.3-5.4c0.6,0.4,1.1,0.8,1.6,1.4c1.2,1.2,2.2,2.5,3.2,3.9
		c0.9,1.4,1.6,2.9,2.2,4.5C223.5,208.8,223.7,209.4,223.8,210.1z"/>
	<path class="st3" d="M234.6,203.9c-0.4-1.8-0.9-3.6-1.5-5.4c-1-1.5-2.1-3-3.3-4.3c0,0,0.6,0.3,1.3,1c1,0.9,1.9,1.9,2.5,3.1
		c0.6,1.2,0.9,2.5,1,3.9C234.7,202.7,234.7,203.3,234.6,203.9z"/>
	<path class="st3" d="M247.3,201.4c-0.2,0-0.7-1.9-2-4s-2.7-3.5-2.5-3.7c1.3,0.8,2.3,2,3,3.4C246.6,198.4,247.1,199.9,247.3,201.4z"
		/>
	<path class="st3" d="M258.2,203.2c-0.2,0-0.4-1.8-1.3-3.7c-0.6-1.2-1.3-2.2-2.2-3.2c1.3,0.6,2.3,1.6,2.7,3
		C258,200.5,258.3,201.8,258.2,203.2z"/>
	<path class="st3" d="M265.1,202.8c0,0,0.7,0.6,0.8,1.7c0.1,1.1-0.4,1.8-0.5,1.8s0-0.8,0-1.7S264.9,202.9,265.1,202.8z"/>
	<path class="st3" d="M189.9,238.8c-3.5-1.2-5.8-4.4-5.8-8.1c0.4,1.7,1.1,3.2,2,4.7C187.2,236.7,188.5,237.8,189.9,238.8z"/>
	<path class="st3" d="M187,247c-1.1,0.1-2.1-0.2-3-0.9c-0.9-0.5-1.6-1.4-1.9-2.4c0.1,0,0.9,1.1,2.2,2C185.7,246.6,187,246.9,187,247
		z"/>
	<path class="st9" d="M256,228.1c0.7-0.2,1.5-0.4,2.2-0.6c1.9-0.9,3.4-2.4,4.2-4.3c1.3-2.8,1-6.1-0.6-8.8c-2-3.3-5.1-5.6-8.8-6.5
		c-3.7-0.9-7.5-1.1-11.3-0.6c-3.1,0.4-6.1,1.2-8.9,2.5c-2.6,1.3-4.8,3-6.7,5.2c0.4-0.7,0.9-1.3,1.4-1.8c1.5-1.5,3.2-2.8,5.1-3.8
		c2.8-1.4,5.9-2.3,9-2.7c3.8-0.6,7.7-0.4,11.5,0.6c3.8,1,7.1,3.4,9.1,6.8c1.7,2.8,1.9,6.2,0.5,9.2c-0.9,2-2.5,3.5-4.5,4.4
		C257.6,228,256.8,228.1,256,228.1z"/>
	<path class="st9" d="M235.7,230.4c0.9-0.9,1.6-1.9,2-3.1c0.4-1.3,0.4-2.7,0-4c-0.5-1.6-1.5-2.9-3-3.8c-2.7-1.4-5.5-2.6-8.5-3.5
		c-2.2-0.7-3.7-1.1-3.7-1.2c0-0.1,0.4,0,1,0.1c0.7,0.1,1.6,0.4,2.7,0.7c3,0.8,5.9,1.9,8.7,3.4c1.5,0.9,2.7,2.4,3.1,4.1
		c0.3,1.4,0.3,2.9-0.2,4.2c-0.3,0.9-0.9,1.7-1.6,2.4C236.2,230.1,236,230.3,235.7,230.4z"/>
	<path class="st9" d="M181.2,179.1c0-0.9,0.1-1.7,0.5-2.5c0.8-2.3,2.5-4.2,4.6-5.4c3.3-1.7,7.1-1.8,10.4-0.2c4.1,2,7,5.6,8.1,10
		h-0.5c0.7-0.8,1.4-1.5,2.3-2c4.1-2.8,9.5-2.6,13.5,0.3c3.1,2.6,4.5,6.7,3.5,10.6c-0.7,2.6-2.3,4.8-4.6,6.2
		c-0.8,0.5-1.7,0.9-2.7,1.1c0.9-0.3,1.7-0.8,2.5-1.3c2.2-1.4,3.7-3.6,4.3-6.1c0.9-3.8-0.5-7.7-3.4-10.2c-3.8-2.8-9-2.9-13-0.2
		c-0.8,0.5-1.6,1.2-2.2,1.9l-0.4,0.4v-0.5c-1.1-4.2-3.9-7.8-7.9-9.7c-3.2-1.6-6.9-1.6-10,0c-2.1,1.1-3.7,2.9-4.6,5.1
		C181.6,177.4,181.4,178.2,181.2,179.1z"/>
	<path class="st9" d="M237.2,172.3c0.3,0.1,0.6,0.3,0.8,0.5c0.7,0.5,1.3,1.1,1.9,1.8c3.8,4.6,3.9,11.2,0.3,16
		c-0.5,0.7-1.1,1.3-1.8,1.9c-0.2,0.2-0.5,0.4-0.8,0.5c0.8-0.9,1.6-1.8,2.3-2.7c1.6-2.3,2.4-5,2.4-7.8c-0.1-2.8-1-5.5-2.7-7.7
		C238.8,173.9,238,173,237.2,172.3z"/>
	<path class="st9" d="M168,186.9c-0.9,2.3-1.1,4.8-0.5,7.2c0.6,2.6,2.2,4.8,4.4,6.3c2.8,1.7,6.1,2.1,9.2,1.1l1.2-0.4l-0.9,0.9
		l-0.4,0.4c-2.1,2.6-1.8,6.4,0.6,8.8c2,1.9,4.6,2.9,7.4,2.7c1.8-0.1,3.6-0.6,5.3-1.4c1.2-0.5,1.8-0.9,1.8-0.8
		c-0.5,0.4-1.1,0.8-1.7,1.1c-1.7,0.8-3.5,1.4-5.4,1.5c-2.9,0.3-5.7-0.7-7.7-2.7c-2.7-2.5-3-6.6-0.7-9.5l0.4-0.4l0.3,0.5
		c-3.3,1.1-6.8,0.6-9.7-1.2c-2.3-1.5-4-3.9-4.5-6.7c-0.4-1.8-0.4-3.6,0-5.4C167.3,188.1,167.6,187.5,168,186.9z"/>
	<path class="st0" d="M251.7,411c0,0-0.4,0.7-1.4,1.6c-1.4,1.3-3,2.4-4.7,3.4c-11.7,6.5-26.3,4.1-35.2-5.8c-1.3-1.4-2.5-3-3.4-4.7
		c-0.7-1.2-0.9-1.9-0.8-2c0.1-0.1,1.6,2.7,4.9,6c8.9,9.2,22.8,11.4,34.2,5.6C249.3,413,251.5,410.9,251.7,411z"/>
	<path class="st0" d="M351.6,182.2c0,2.5-2.2,4.5-4.8,4.5c-2.7,0-4.9-2-4.9-4.4c0-2.5,2.2-4.5,4.8-4.5c0,0,0,0,0,0
		C349.4,177.8,351.5,179.8,351.6,182.2z"/>
	<path class="st0" d="M371,182.2c0,2.5-2.2,4.5-4.8,4.5c-2.7,0-4.9-2-4.9-4.4c0-2.5,2.2-4.5,4.8-4.5c0,0,0,0,0,0
		C368.8,177.8,371,179.8,371,182.2z"/>
	<path class="st0" d="M390.4,180c1.4,2.1,0.6,4.8-1.7,6.1c-2.3,1.2-5.3,0.5-6.6-1.6c-1.4-2.1-0.6-4.8,1.7-6.1c0,0,0.1,0,0.1-0.1
		C386.2,177.2,389,178,390.4,180z"/>
	<path class="st0" d="M366.6,130.3h1l2.9,0.2c0.7,0,1.3,0,2.1,0l2.5,0.4l2.9,0.4l3.3,0.8c5.6,1.4,11,3.6,15.8,6.5
		c14.5,8.6,23.9,22.9,25.4,38.7c0.2,2.3,0.2,4.7,0,7c0,1.2,0,2.4-0.3,3.6c-0.3,1.2-0.4,2.4-0.6,3.6c-1,5.1-2.8,9.9-5.3,14.5
		c-2.7,4.7-6.1,8.9-10.2,12.7c-4.3,3.9-9.2,7.1-14.6,9.6c-5.6,2.6-11.6,4.3-17.7,5c-1.6,0.2-3.2,0.3-4.7,0.4c-1.6,0.1-3.2,0.1-4.8,0
		c-10.2-0.4-20.1-3.3-28.7-8.4l-0.3-0.2h-0.3l-19.9,7.3l0.8,0.7c2-6.7,3.9-13.2,5.8-19.4v-0.3l-0.2-0.2c-5.3-6.4-8.9-13.8-10.5-21.7
		c-0.8-3.7-1-7.4-0.8-11.2c0-1.8,0.2-3.6,0.6-5.4c0-0.9,0.3-1.8,0.4-2.6c0.2-0.9,0.5-1.7,0.7-2.5c5.5-19.8,23.2-34.9,45.2-38.4
		c1.5-0.2,2.8-0.4,3.9-0.5l2.9-0.2h1.8h0.6c-0.2,0-0.4,0-0.6,0h-1.8H361c-1.1,0-2.5,0.3-4,0.4c-0.7,0-1.6,0.2-2.4,0.3l-2.6,0.6
		l-2.8,0.7l-3,1c-4.7,1.6-9.2,3.7-13.2,6.4c-11,7.2-18.9,17.7-22.2,29.7c-0.2,0.9-0.5,1.7-0.7,2.6c-0.2,0.9-0.3,1.8-0.5,2.6
		c-0.3,1.8-0.5,3.6-0.6,5.5c-0.2,3.8,0,7.6,0.8,11.4c1.6,8.1,5.2,15.7,10.6,22.2v-0.5l-6,19.3l-0.3,1.1l1.2-0.4l19.9-7.3h-0.6
		c5.9,3.6,12.5,6.2,19.5,7.5c3.2,0.6,6.5,1,9.8,1.1c1.6,0.1,3.3,0.1,4.9,0c1.6,0,3.2-0.2,4.8-0.4c6.3-0.7,12.5-2.4,18.2-5.1
		c5.5-2.5,10.5-5.8,14.9-9.8c4.1-3.8,7.6-8.2,10.3-13c2.6-4.6,4.4-9.4,5.4-14.5l0.8-3.8c0.2-1.2,0-2.4,0.3-3.6
		c0.2-2.4,0.2-4.8,0-7.1c-0.9-8.7-4.2-17-9.4-24.2c-4.4-5.9-10-11-16.6-14.9c-5-2.9-10.5-5.1-16.3-6.4l-3.3-0.7l-3-0.4l-2.5-0.3
		h-2.1h-2.9C367.2,130.4,366.9,130.3,366.6,130.3z"/>
</g>
</svg>
