<svg xmlns="http://www.w3.org/2000/svg" xmlns:xlink="http://www.w3.org/1999/xlink" width="147" height="185" viewBox="0 0 147 185">
	<defs>
	  <clipPath id="clip-path">
		<rect id="fabio-oyXis2kALVg-unsplash" width="147" height="185" rx="9" transform="translate(423 4231)" fill="#01c27c"/>
	  </clipPath>
	</defs>
	<g id="Mask_Group_3" data-name="Mask Group 3" transform="translate(-423 -4231)" clip-path="url(#clip-path)">
	  <g id="work-from-home-setup-with-video-conference-2" transform="translate(348.352 4215.007)">
		<rect id="Rectangle_42" data-name="Rectangle 42" width="334.648" height="250.986" fill="#01c27c"/>
		<g id="Group_75" data-name="Group 75" transform="matrix(0.966, -0.259, 0.259, 0.966, 48.102, 122.077)">
		  <path id="Path_321" data-name="Path 321" d="M197.764,65.344c-.729-1.506-1.5-3-2.333-4.424-15.207-26.693-42.637-40.07-71.954-42.183-6.416-.473-12.83-.077-19.246-.077-33.074,0-53.673,21.481-57.446,25.615-8.465,9.349-15.89,19.914-18.653,31.938a47.7,47.7,0,0,0-.386,20.081c2.228,11.492,10.841,22.589,18.163,31.223,9.906,11.706,22.025,22.2,36.283,27.759,34.885,13.589,87.147,7.13,111.474-24.4a55.762,55.762,0,0,0,5.851-9.349C208.086,104.153,206.2,82.855,197.764,65.344Z" transform="translate(-26.859 -18.504)" fill="#052c39"/>
		</g>
		<g id="Group_76" data-name="Group 76" transform="translate(108.849 47.589)">
		  <path id="Path_322" data-name="Path 322" d="M50.321,105.313c2.989.027,5.545.069,8.531.073,2.987.232,5.536.184,8.531.132,3.9-.142,7.471.027,11.378-.107a50.126,50.126,0,0,0,5.689-.121c1.422,0,1.422.238,2.842.238,3.9-.132,7.475.109,11.378.073,2.123-.1,3.562-.215,5.689-.238,2.991-.119,5.536-.017,8.531,0,1.422,0,1.422.142,2.844.142s1.424-.157,2.845-.157c3,.186,5.536-.1,8.534-.036,2.131.017,3.566.109,5.689.232,2.129-.038,3.564-.05,5.691-.006,3-.05,5.54.006,8.536-.253,3.909.117,7.477.073,11.382.238,1.424,0,1.424-.238,2.849-.238.784,0,1.293-.6,1.293-1.539.2-3.543.142-6.567.184-10.119.01-4.633-.18-8.866-.178-13.493.1-2.512.18-4.225.213-6.745,0-1.686-.146-1.686-.146-3.374s.188-1.686.188-3.374-.027-1.686-.027-3.376c-.059-3.554-.059-6.574-.172-10.123.111-2.52.174-4.221.174-6.747,0-1.686-.182-1.686-.182-3.376.2-5.729.1-11.142.157-16.875-.157-1.928.814-4.8-1.506-4.924-2.121.04-3.57-.027-5.689-.169-1.422,0-1.422.148-2.842.148s-1.422-.3-2.842-.3-1.424.278-2.845.278-1.422.046-2.842.046c-2.993-.163-5.536-.067-8.531-.157-2.993-.161-5.541.006-8.536.111-3.9-.079-7.469-.278-11.378-.13-3-.186-5.536.092-8.534.075a53.726,53.726,0,0,0-5.687,0c-1.422,0-1.422-.192-2.842-.192s-1.422.1-2.847.1c-2.125-.019-3.562.006-5.689.033-2.125,0-3.562.017-5.687.017-1.424,0-1.424.119-2.847.119s-1.422-.238-2.847-.238-1.422.228-2.845.228-1.424-.167-2.847-.167c-2.129,0-3.56-.017-5.689-.05-3,.006-5.538.115-8.534.257-3,.006-5.536-.234-8.54-.238a1.689,1.689,0,0,0-1.46,1.78c0,1.684-.033,1.684-.033,3.374s-.061,1.686-.061,3.374.188,1.686.188,3.376-.163,1.684-.163,3.374.174,1.686.174,3.372-.159,1.686-.159,3.369c.094,2.518.115,4.227.019,6.747a95.483,95.483,0,0,1,.115,10.119c.153,3.556-.008,6.574-.165,10.119-.054,2.527.033,4.229.163,6.749a91.765,91.765,0,0,0,.084,10.121c-.1,2.522-.1,4.221-.044,6.747-.111,2.527-.1,4.227,0,6.754C49.119,102.22,48.115,105.137,50.321,105.313Z" transform="translate(-46.607 -20.904)" fill="#f5f3f1"/>
		  <path id="Path_323" data-name="Path 323" d="M49.367,99.719c2.991.027,5.545.069,8.531.073,2.987.228,5.536.184,8.534.132,3.9-.142,7.471.027,11.376-.107A50.116,50.116,0,0,0,83.5,99.7c1.424,0,1.424.238,2.845.238,3.9-.132,7.473.109,11.376.073,2.125-.1,3.564-.215,5.689-.238,2.993-.119,5.536-.017,8.531,0,1.424,0,1.424.142,2.847.142s1.422-.157,2.842-.157c3,.186,5.538-.1,8.536-.036,2.131.013,3.566.109,5.689.232,2.129-.038,3.562-.05,5.691-.006,3-.05,5.541.008,8.536-.253,3.907.117,7.477.073,11.382.238,1.422,0,1.422-.238,2.849-.238.784,0,1.293-.6,1.293-1.539.126-2.52.18-4.235.153-6.758.113-5.743-.134-11.167-.146-16.9.1-2.52.18-4.235.213-6.762,0-1.69-.146-1.69-.146-3.382s.188-1.692.188-3.38-.029-1.692-.029-3.382c-.027-2.527-.077-4.235-.077-6.762,0-1.688-.094-1.688-.094-3.38s.138-1.69.138-3.382.038-1.692.038-3.38-.184-1.694-.184-3.382c.059-2.531.111-4.235.151-6.766,0-1.692-.031-1.692-.031-3.384a1.69,1.69,0,0,0-1.466-1.774c-2.117-.015-3.568-.04-5.687-.077-1.422,0-1.422.305-2.842.305-2.121.04-3.572-.027-5.689-.169-1.422,0-1.422.149-2.842.149s-1.424-.3-2.845-.3a45.961,45.961,0,0,1-8.531.215c-2.987.042-5.538-.04-8.531-.132-2.123.04-3.566.134-5.689.195-3,0-5.536-.268-8.536-.172-2.125.052-3.562.04-5.685-.048-2.123.09-3.56.176-5.689.167a53.214,53.214,0,0,0-5.689,0c-1.422,0-1.422-.192-2.847-.192-5.766.232-11.307-.006-17.069.264-1.422,0-1.422-.238-2.845-.238s-1.424.23-2.847.23c-4.825-.3-9.4-.243-14.229-.1-1.422,0-1.422.136-2.849.136a1.36,1.36,0,0,0-1.32,1.539c-.155,3.549-.192,6.58-.138,10.14-.021,2.522-.05,4.237-.094,6.758,0,1.69.188,1.69.188,3.382s-.163,1.688-.163,3.38.174,1.692.174,3.382-.161,1.688-.161,3.38c.094,2.527.117,4.235.019,6.762,0,1.692.172,1.692.172,3.382.042,2.531.031,4.235-.056,6.762.082,2.531.088,4.231-.021,6.762a80.111,80.111,0,0,0,.017,10.146c0,1.692-.079,1.692-.079,3.384s-.025,1.692-.025,3.384A1.508,1.508,0,0,0,49.367,99.719Z" transform="translate(-47.814 -15.31)" fill="#ffd166"/>
		  <path id="Path_324" data-name="Path 324" d="M50.321,105.313c2.989.027,5.545.069,8.531.073,2.987.232,5.536.184,8.531.132,3.9-.142,7.471.027,11.378-.107a50.126,50.126,0,0,0,5.689-.121c1.422,0,1.422.238,2.842.238,3.9-.132,7.475.109,11.378.073,2.123-.1,3.562-.215,5.689-.238,2.991-.119,5.536-.017,8.531,0,1.422,0,1.422.142,2.844.142s1.424-.157,2.845-.157c3,.186,5.536-.1,8.534-.036,2.131.017,3.566.109,5.689.232,2.129-.038,3.564-.05,5.691-.006,3-.05,5.54.006,8.536-.253,3.909.117,7.477.073,11.382.238,1.424,0,1.424-.238,2.849-.238.784,0,1.293-.6,1.293-1.539.2-3.543.142-6.567.184-10.119.01-4.633-.18-8.866-.178-13.493.1-2.512.18-4.225.213-6.745,0-1.686-.146-1.686-.146-3.374s.188-1.686.188-3.374-.027-1.686-.027-3.376c-.059-3.554-.059-6.574-.172-10.123.111-2.52.174-4.221.174-6.747,0-1.686-.182-1.686-.182-3.376.2-5.729.1-11.142.157-16.875-.157-1.928.814-4.8-1.506-4.924-2.121.04-3.57-.027-5.689-.169-1.422,0-1.422.148-2.842.148s-1.422-.3-2.842-.3-1.424.278-2.845.278-1.422.046-2.842.046c-2.993-.163-5.536-.067-8.531-.157-2.993-.161-5.541.006-8.536.111-3.9-.079-7.469-.278-11.378-.13-3-.186-5.536.092-8.534.075a53.726,53.726,0,0,0-5.687,0c-1.422,0-1.422-.192-2.842-.192s-1.422.1-2.847.1c-2.125-.019-3.562.006-5.689.033-2.125,0-3.562.017-5.687.017-1.424,0-1.424.119-2.847.119s-1.422-.238-2.847-.238-1.422.228-2.845.228-1.424-.167-2.847-.167c-2.129,0-3.56-.017-5.689-.05-3,.006-5.538.115-8.534.257-3,.006-5.536-.234-8.54-.238a1.689,1.689,0,0,0-1.46,1.78c0,1.684-.033,1.684-.033,3.374s-.061,1.686-.061,3.374.188,1.686.188,3.376-.163,1.684-.163,3.374.174,1.686.174,3.372-.159,1.686-.159,3.369c.094,2.518.115,4.227.019,6.747a95.483,95.483,0,0,1,.115,10.119c.153,3.556-.008,6.574-.165,10.119-.054,2.527.033,4.229.163,6.749a91.765,91.765,0,0,0,.084,10.121c-.1,2.522-.1,4.221-.044,6.747-.111,2.527-.1,4.227,0,6.754C49.119,102.22,48.115,105.137,50.321,105.313Z" transform="translate(-46.607 -20.904)" fill="none" stroke="#2e3343" stroke-linecap="round" stroke-linejoin="round" stroke-width="0.368"/>
		  <path id="Path_325" data-name="Path 325" d="M162.61,25.368c-2.991.029-5.541.174-8.531-.031-1.422,0-1.422.13-2.842.13-2.119-.1-3.566-.119-5.689-.04s-3.566.1-5.689.05c-2.121.073-3.566.1-5.689.063-1.422,0-1.422-.238-2.845-.238s-1.424.006-2.845.006-1.422.234-2.845.234-1.424-.2-2.845-.2c-2.121.136-3.562.255-5.689.266-1.422,0-1.422-.305-2.842-.305s-1.422.305-2.845.305-1.424-.192-2.847-.192c-3.907.119-7.471.046-11.376-.046-1.422,0-1.422.232-2.844.232-2.123-.123-3.56-.266-5.689-.314-2.993.19-5.541.2-8.536.174a42.012,42.012,0,0,0-5.691-.109c-1.422,0-1.422.255-2.847.255s-1.422-.211-2.845-.211-1.422.169-2.847.169-1.422-.226-2.844-.226-1.424.215-2.847.215c-2.131-.073-3.56-.18-5.691-.236-1.424,0-1.424.222-2.849.222s-1.422-.013-2.849-.013" transform="translate(-46.535 -15.308)" fill="none" stroke="#2e3343" stroke-linecap="round" stroke-linejoin="round" stroke-width="0.368"/>
		  <path id="Path_326" data-name="Path 326" d="M54.546,22.146c-1.374,1.795-2.315,3-3.779,4.681" transform="translate(-44.044 -19.319)" fill="none" stroke="#2e3343" stroke-linecap="round" stroke-linejoin="round" stroke-width="0.368"/>
		  <path id="Path_327" data-name="Path 327" d="M50.721,22.21c1.5,1.646,2.518,2.748,3.959,4.468" transform="translate(-44.103 -19.238)" fill="none" stroke="#2e3343" stroke-linecap="round" stroke-linejoin="round" stroke-width="0.368"/>
		</g>
		<g id="Group_77" data-name="Group 77" transform="translate(130.852 72.322)">
		  <path id="Path_328" data-name="Path 328" d="M58.53,33.2a30.49,30.49,0,0,1,3.683.063" transform="translate(-56.137 -29.985)" fill="none" stroke="#486e5d" stroke-linecap="round" stroke-linejoin="round" stroke-width="0.368"/>
		  <path id="Path_329" data-name="Path 329" d="M57.479,31.8a30.49,30.49,0,0,1,3.683.063" transform="translate(-57.479 -31.769)" fill="none" stroke="#2e3343" stroke-linecap="round" stroke-linejoin="round" stroke-width="0.368"/>
		  <path id="Path_330" data-name="Path 330" d="M57.479,48.564a31.376,31.376,0,0,1,3.683.063" transform="translate(-57.479 -10.364)" fill="none" stroke="#486e5d" stroke-linecap="round" stroke-linejoin="round" stroke-width="0.368"/>
		  <path id="Path_331" data-name="Path 331" d="M57.479,49.962a31.374,31.374,0,0,1,3.683.063" transform="translate(-57.479 -8.58)" fill="none" stroke="#486e5d" stroke-linecap="round" stroke-linejoin="round" stroke-width="0.368"/>
		  <path id="Path_332" data-name="Path 332" d="M60.046,50.026a35.677,35.677,0,0,1,3.928.063,27.064,27.064,0,0,1,3.928-.136,21.79,21.79,0,0,1,3.926.063c.983,0,.983.165,1.964.165s.983-.228,1.964-.228.983.178,1.964.178.983-.222,1.964-.222a20.063,20.063,0,0,0,3.93-.025c1.466.13,2.458.234,3.928.234.983,0,.983-.224,1.966-.224" transform="translate(-54.202 -8.644)" fill="none" stroke="#59f39a" stroke-linecap="round" stroke-linejoin="round" stroke-width="0.368"/>
		  <path id="Path_333" data-name="Path 333" d="M61.15,33.257a33.936,33.936,0,0,1,3.886.063,25.991,25.991,0,0,1,3.888-.136,21.182,21.182,0,0,1,3.888.063c.973,0,.973.163,1.945.163s.973-.226,1.945-.226.973.178,1.945.178.973-.224,1.945-.224.973.111,1.945.111.973-.132,1.945-.132.973.178,1.945.178.973.056,1.943.056.973-.224,1.947-.224.973.073,1.947.073" transform="translate(-52.792 -30.047)" fill="none" stroke="#486e5d" stroke-linecap="round" stroke-linejoin="round" stroke-width="0.368"/>
		  <path id="Path_334" data-name="Path 334" d="M58.53,34.591a31.376,31.376,0,0,1,3.683.063" transform="translate(-56.137 -28.201)" fill="none" stroke="#486e5d" stroke-linecap="round" stroke-linejoin="round" stroke-width="0.368"/>
		  <path id="Path_335" data-name="Path 335" d="M65.735,34.6c1.06,0,1.06-.038,2.121-.038" transform="translate(-46.94 -28.207)" fill="none" stroke="#48e189" stroke-linecap="round" stroke-linejoin="round" stroke-width="0.368"/>
		  <path id="Path_336" data-name="Path 336" d="M61.15,34.629a39.264,39.264,0,0,1,4.12.063,29.838,29.838,0,0,1,4.122-.136" transform="translate(-52.792 -28.239)" fill="none" stroke="#48e189" stroke-linecap="round" stroke-linejoin="round" stroke-width="0.368"/>
		  <path id="Path_337" data-name="Path 337" d="M58.53,35.988a31.373,31.373,0,0,1,3.683.063" transform="translate(-56.137 -26.417)" fill="none" stroke="#486e5d" stroke-linecap="round" stroke-linejoin="round" stroke-width="0.368"/>
		  <path id="Path_338" data-name="Path 338" d="M61.15,36.048a37.48,37.48,0,0,1,4.026.063,28.462,28.462,0,0,1,4.026-.136,22.958,22.958,0,0,1,4.03.063c1.006,0,1.006.165,2.014.165s1.008-.228,2.016-.228,1.008.178,2.016.178" transform="translate(-52.792 -26.477)" fill="none" stroke="#48e189" stroke-linecap="round" stroke-linejoin="round" stroke-width="0.368"/>
		  <path id="Path_339" data-name="Path 339" d="M58.53,37.386a31.374,31.374,0,0,1,3.683.063" transform="translate(-56.137 -24.634)" fill="none" stroke="#486e5d" stroke-linecap="round" stroke-linejoin="round" stroke-width="0.368"/>
		  <path id="Path_340" data-name="Path 340" d="M58.53,38.784a30.927,30.927,0,0,1,3.683.063" transform="translate(-56.137 -22.85)" fill="none" stroke="#486e5d" stroke-linecap="round" stroke-linejoin="round" stroke-width="0.368"/>
		  <path id="Path_341" data-name="Path 341" d="M58.53,47.169a30.5,30.5,0,0,1,3.683.063" transform="translate(-56.137 -12.148)" fill="none" stroke="#486e5d" stroke-linecap="round" stroke-linejoin="round" stroke-width="0.368"/>
		  <path id="Path_342" data-name="Path 342" d="M59.532,40.251a37.526,37.526,0,0,1,4.058.063c2.135-.23,3.953-.1,6.088-.215,1.518.069,2.545.209,4.062.305,1.016,0,1.016-.226,2.031-.226" transform="translate(-54.858 -21.136)" fill="none" stroke="#59f39a" stroke-linecap="round" stroke-linejoin="round" stroke-width="0.368"/>
		  <path id="Path_343" data-name="Path 343" d="M59.532,41.648a30.05,30.05,0,0,1,3.631.063c1.912-.23,3.539-.1,5.451-.215" transform="translate(-54.858 -19.352)" fill="none" stroke="#2e3343" stroke-linecap="round" stroke-linejoin="round" stroke-width="0.368"/>
		  <path id="Path_344" data-name="Path 344" d="M59.532,43.015a29.193,29.193,0,0,1,3.6.063c.9,0,.9-.161,1.8-.161" transform="translate(-54.858 -17.538)" fill="none" stroke="#2e3343" stroke-linecap="round" stroke-linejoin="round" stroke-width="0.368"/>
		  <path id="Path_345" data-name="Path 345" d="M62.96,43.035a30.867,30.867,0,0,1,3.706.063,23.577,23.577,0,0,1,3.7-.136,19.275,19.275,0,0,1,3.708.063c.927,0,.927.163,1.853.163s.927-.226,1.853-.226.929.178,1.855.178" transform="translate(-50.482 -17.558)" fill="none" stroke="#2e3343" stroke-linecap="round" stroke-linejoin="round" stroke-width="0.368"/>
		  <path id="Path_346" data-name="Path 346" d="M59.532,44.444a36.583,36.583,0,0,1,4.035.063c2.121-.23,3.928-.1,6.053-.218,1.508.071,2.529.209,4.037.307,1.01,0,1.01-.226,2.018-.226" transform="translate(-54.858 -15.786)" fill="none" stroke="#2e3343" stroke-linecap="round" stroke-linejoin="round" stroke-width="0.368"/>
		  <path id="Path_347" data-name="Path 347" d="M59.532,45.836a32.925,32.925,0,0,1,3.828.063,25.162,25.162,0,0,1,3.828-.136,20.531,20.531,0,0,1,3.828.063c.958,0,.958.163,1.916.163s.956-.226,1.914-.226.958.178,1.914.178.956-.224,1.912-.224a19.05,19.05,0,0,0,3.83-.025,37.9,37.9,0,0,0,3.83.234c.958,0,.958-.224,1.916-.224" transform="translate(-54.858 -13.996)" fill="none" stroke="#2e3343" stroke-linecap="round" stroke-linejoin="round" stroke-width="0.368"/>
		</g>
		<g id="Group_78" data-name="Group 78" transform="translate(185.948 82.953)">
		  <path id="Path_348" data-name="Path 348" d="M84.838,54.068c.571-3.1.966-5.741,1.648-8.818.63-3.085,1.023-5.733,1.69-8.812" transform="translate(-77.65 -36.439)" fill="none" stroke="#2e3343" stroke-linecap="round" stroke-linejoin="round" stroke-width="0.368"/>
		  <path id="Path_349" data-name="Path 349" d="M85.462,46.612c-.937-.935-.985-.891-1.92-1.826s-.824-1.048-1.761-1.987a.263.263,0,0,1,.017-.425c1.393-1.408,2.3-2.4,3.656-3.84" transform="translate(-81.681 -33.763)" fill="none" stroke="#2e3343" stroke-linecap="round" stroke-linejoin="round" stroke-width="0.368"/>
		  <path id="Path_350" data-name="Path 350" d="M87.826,38.534c.937.937.922.954,1.857,1.889s.962.914,1.9,1.851a.545.545,0,0,1,.038.65c-.937.935-1.077.8-2.012,1.734s-.851,1.021-1.79,1.958" transform="translate(-73.849 -33.763)" fill="none" stroke="#2e3343" stroke-linecap="round" stroke-linejoin="round" stroke-width="0.368"/>
		</g>
		<g id="Group_79" data-name="Group 79" transform="translate(87.592 89.782) rotate(21)">
		  <path id="Path_351" data-name="Path 351" d="M40.217,59.126c2.456-3.867,6.629-2.149,10.435-2.21h0c6.569.125,12.093.125,18.661.185,3.129,0,3.129-.431,6.2-.431,4.665.065,7.794.185,12.46.371,3.133,0,3.133-.431,6.2-.431,3.129,0,3.129.185,6.2.185,3.133,0,3.133-.06,6.2-.06,3.927.121,7.488-.984,10.988,1.226h0c3.435,2.516,3.742,6.323,5.46,9.943,3.44,8.226,6.693,15.714,9.762,24.125h0c1.226,3,1.532,2.883,2.762,5.891s.98,3.129,2.21,6.137,1.226,3.008,2.456,6.016h0l.246.738.061.06c3.988,0,8.04-.125,12.153-.431h0c6.569.431,12.153.246,18.722.185,4.665.061,7.794.121,12.46.185.186,0,.427-.065.427.121,0,2.024.185,2.024.185,3.992,0,.181-.427.367-.613.367-3.129,0-3.129.121-6.2.121-3.129,0-3.129-.367-6.2-.367-4.665-.06-7.794-.121-12.46-.121s-7.794,0-12.46.06c-3.133,0-3.133.492-6.262.492s-3.129.06-6.262.06c-6.568-.185-12.153.061-18.722-.125-4.665-.181-7.794-.367-12.46-.427h0c-8.532.306-16.387-.246-24.919.367h0c-6.569-.367-12.153-.246-18.722,0h0a.664.664,0,0,1-.492-.492c0-2.024.306-2.024.306-3.988h0c0-.306-.246-.246-.492-.8-1.718-4.359-2.883-7.242-4.726-11.54h0c-2.27-6.2-4.234-11.415-6.935-17.431h0c-1.657-4.359-2.944-7.242-4.972-11.48h0c-1.165-2.883-1.1-2.944-2.27-5.831A5.048,5.048,0,0,1,40.217,59.126Z" transform="translate(-39.218 -56.564)" fill="#f5f3f1"/>
		  <path id="Path_352" data-name="Path 352" d="M140.014,110.441c-8.532-.246-16.266.738-24.8.306-6.508-.121-12.032-.427-18.6-.181-4.6.246-7.734.367-12.4.246-6.508-.125-12.093.121-18.6-.125-3.069,0-3.069-.246-6.2-.246-.31,0-.738.065-.863-.246-1.718-4.355-2.883-7.242-4.726-11.536-2.27-6.2-4.234-11.419-6.935-17.435-1.657-4.355-2.944-7.242-4.972-11.476-1.165-2.887-1.1-2.948-2.27-5.831a5.043,5.043,0,0,1,.492-4.79c2.456-3.867,6.629-2.149,10.435-2.21,6.564.125,12.089.125,18.657.185,3.133,0,3.133-.431,6.2-.431,4.665.065,7.794.185,12.46.371,3.129,0,3.129-.431,6.2-.431,3.133,0,3.133.185,6.2.185,3.129,0,3.129-.06,6.2-.06,3.931.121,7.488-.984,10.988,1.226,3.439,2.516,3.746,6.323,5.464,9.943,3.435,8.226,6.689,15.714,9.758,24.125,1.23,3,1.536,2.883,2.762,5.891s.984,3.129,2.21,6.137,1.23,3.008,2.456,6.016C140.381,110.38,140.26,110.441,140.014,110.441Z" transform="translate(-39.269 -56.564)" fill="none" stroke="#2e3343" stroke-linecap="round" stroke-linejoin="round" stroke-width="0.368"/>
		  <path id="Path_353" data-name="Path 353" d="M168.877,73.751c-3.129,0-3.129.125-6.2.125-3.133,0-3.133-.371-6.2-.371-4.665-.06-7.794-.121-12.46-.121s-7.794,0-12.46.06c-3.133,0-3.133.492-6.262.492s-3.129.061-6.262.061c-6.564-.186-12.153.06-18.718-.121-4.665-.186-7.8-.371-12.464-.431-8.593.306-16.387-.246-24.919.367-6.569-.367-12.153-.246-18.722,0a.665.665,0,0,1-.492-.488c0-2.028.306-2.028.306-3.992,0-.185,0-.246.185-.246h6.2c4.665-.121,7.794-.246,12.46-.246a105.345,105.345,0,0,0,12.46.246,105.284,105.284,0,0,1,12.46-.061c6.569-.246,12.153.121,18.722-.185,10.556.246,20.625.859,31.181,0,6.569.431,12.153.246,18.722.185,4.665.061,7.794.121,12.46.186.185,0,.431-.065.431.121,0,2.024.181,2.024.181,3.992C169.49,73.566,169.063,73.751,168.877,73.751Z" transform="translate(-24.186 -14.964)" fill="none" stroke="#2e3343" stroke-linecap="round" stroke-linejoin="round" stroke-width="0.368"/>
		  <path id="Path_354" data-name="Path 354" d="M49.279,66.756a6.887,6.887,0,0,0,6.077,4.3c6.569-.617,1.657-9.149-2.823-8.778A3.27,3.27,0,0,0,49.279,66.756Z" transform="translate(-6.051 -37.247)" fill="none" stroke="#2e3343" stroke-linecap="round" stroke-linejoin="round" stroke-width="0.368"/>
		</g>
	  </g>
	</g>
  </svg>
  