<svg xmlns="http://www.w3.org/2000/svg"  viewBox="0 0 40 40" width="40px" height="40px"><path fill="#4788c7" d="M2 38L2 2 1 2 1 39 38 39 38 38z"/><path fill="#dff0fe" d="M8.5 24.5A2 2 0 1 0 8.5 28.5A2 2 0 1 0 8.5 24.5Z"/><path fill="#4788c7" d="M8.5,25c0.827,0,1.5,0.673,1.5,1.5S9.327,28,8.5,28S7,27.327,7,26.5S7.673,25,8.5,25 M8.5,24 C7.119,24,6,25.119,6,26.5S7.119,29,8.5,29s2.5-1.119,2.5-2.5S9.881,24,8.5,24L8.5,24z"/><path fill="#dff0fe" d="M25.5 6.5A2 2 0 1 0 25.5 10.5A2 2 0 1 0 25.5 6.5Z"/><path fill="#4788c7" d="M25.5,7C26.327,7,27,7.673,27,8.5S26.327,10,25.5,10S24,9.327,24,8.5S24.673,7,25.5,7 M25.5,6 C24.119,6,23,7.119,23,8.5s1.119,2.5,2.5,2.5S28,9.881,28,8.5S26.881,6,25.5,6L25.5,6z"/><path fill="#dff0fe" d="M36.5 1.5A2 2 0 1 0 36.5 5.5A2 2 0 1 0 36.5 1.5Z"/><path fill="#4788c7" d="M36.5,2C37.327,2,38,2.673,38,3.5C38,4.327,37.327,5,36.5,5S35,4.327,35,3.5 C35,2.673,35.673,2,36.5,2 M36.5,1C35.119,1,34,2.119,34,3.5C34,4.881,35.119,6,36.5,6S39,4.881,39,3.5C39,2.119,37.881,1,36.5,1 L36.5,1z"/><path fill="#dff0fe" d="M26.5 19.5A2 2 0 1 0 26.5 23.5A2 2 0 1 0 26.5 19.5Z"/><path fill="#4788c7" d="M26.5,20c0.827,0,1.5,0.673,1.5,1.5S27.327,23,26.5,23S25,22.327,25,21.5S25.673,20,26.5,20 M26.5,19c-1.381,0-2.5,1.119-2.5,2.5s1.119,2.5,2.5,2.5s2.5-1.119,2.5-2.5S27.881,19,26.5,19L26.5,19z"/><path fill="#dff0fe" d="M33.5 12.5A2 2 0 1 0 33.5 16.5A2 2 0 1 0 33.5 12.5Z"/><path fill="#4788c7" d="M33.5,13c0.827,0,1.5,0.673,1.5,1.5S34.327,16,33.5,16S32,15.327,32,14.5S32.673,13,33.5,13 M33.5,12c-1.381,0-2.5,1.119-2.5,2.5s1.119,2.5,2.5,2.5s2.5-1.119,2.5-2.5S34.881,12,33.5,12L33.5,12z"/><g><path fill="#dff0fe" d="M20.5 28.5A2 2 0 1 0 20.5 32.5A2 2 0 1 0 20.5 28.5Z"/><path fill="#4788c7" d="M20.5,29c0.827,0,1.5,0.673,1.5,1.5S21.327,32,20.5,32S19,31.327,19,30.5S19.673,29,20.5,29 M20.5,28c-1.381,0-2.5,1.119-2.5,2.5s1.119,2.5,2.5,2.5s2.5-1.119,2.5-2.5S21.881,28,20.5,28L20.5,28z"/></g><g><path fill="#dff0fe" d="M13.5 12.5A2 2 0 1 0 13.5 16.5A2 2 0 1 0 13.5 12.5Z"/><path fill="#4788c7" d="M13.5,13c0.827,0,1.5,0.673,1.5,1.5S14.327,16,13.5,16S12,15.327,12,14.5S12.673,13,13.5,13 M13.5,12c-1.381,0-2.5,1.119-2.5,2.5s1.119,2.5,2.5,2.5s2.5-1.119,2.5-2.5S14.881,12,13.5,12L13.5,12z"/></g><path fill="#4788c7" d="M1.5 3L1.5 3C1.225 3 1 2.775 1 2.5v-1C1 1.225 1.225 1 1.5 1h0C1.775 1 2 1.225 2 1.5v1C2 2.775 1.775 3 1.5 3zM36.5 38h2c.275 0 .5.225.5.5l0 0c0 .275-.225.5-.5.5h-2c-.275 0-.5-.225-.5-.5l0 0C36 38.225 36.225 38 36.5 38z"/></svg>