<svg xmlns="http://www.w3.org/2000/svg" xmlns:xlink="http://www.w3.org/1999/xlink" width="147" height="185" viewBox="0 0 147 185">
	<defs>
	  <clipPath id="clip-path">
		<rect id="fabio-oyXis2kALVg-unsplash" width="147" height="185" rx="9" transform="translate(423 3804)" fill="#01c27c"/>
	  </clipPath>
	</defs>
	<g id="Mask_Group_2" data-name="Mask Group 2" transform="translate(-423 -3804)" clip-path="url(#clip-path)">
	  <g id="work-from-home-setup-with-video-conference" transform="translate(350.098 3740.708)">
		<rect id="Rectangle_41" data-name="Rectangle 41" width="413.125" height="389.584" fill="#01c27c"/>
		<g id="Group_68" data-name="Group 68" transform="translate(42.149 78.514)">
		  <path id="Path_244" data-name="Path 244" d="M43.892,258.8c-8.938-15.869-13.1-34.027-15.729-51.974-.14-6.792-1.318-13.583-1.178-20.443.347-7.136.692-14.343,1.247-21.482,1.734-7,2.357-14.135,4.643-21a52.357,52.357,0,0,1,4.574-13.583,59.969,59.969,0,0,1,8.662-19.612c3.188-6.444,6.444-12.817,10.811-18.57,4.5-5.613,8.522-11.5,13.444-16.772C75.769,70.657,80.48,65.252,86.3,60.957c5.266-4.922,11.506-8.525,17.048-13.1,16.564-9.353,34.163-17.392,52.8-21.758,11.642-2.98,23.7-2.841,35.55-3.88,14.207,1.315,28.758,1.662,42.549,5.75,7,1.665,13.444,4.854,20.3,7.071,6.444,3.256,13.236,5.542,19.057,9.769,10.811,5.13,19.82,13.308,29.173,20.651,1.734,1.594,3.048,3.743,4.714,5.405s3.6,3.188,5.194,4.922c6.24,7.2,11.921,14.9,17.6,22.589q4.884,9.564,10.188,18.918c9.425,19.4,14,40.747,15.106,62.23.831,12.265-.971,24.6-2.633,36.728-1.594,9.772-3.811,19.541-7.9,28.618-2.772,6.376-4.854,13.652-9.356,18.989a23.387,23.387,0,0,1-11.782,4.435c-5.334-.068-9.006-.068-14.343-.068-3.6,0-3.6.136-7.139.136-3.6,0-3.6-.416-7.136-.416-5.337-.068-9.009.14-14.346.416-5.334-.208-9.006-.344-14.343-.276-3.6,0-3.6-.14-7.139-.14-3.6,0-3.6.487-7.136.487A142.959,142.959,0,0,1,238,268.017c-3.6,0-3.6.484-7.139.484-5.337-.208-9.009-.208-14.343,0-5.337-.347-8.941-.555-14.346-.484-3.6,0-3.6.484-7.136.484-3.6,0-3.6-.555-7.139-.555-3.6,0-3.6-.068-7.136-.068-3.6,0-3.6.555-7.139.555-5.337-.279-8.941-.487-14.343-.487-3.6,0-3.6.555-7.139.555-3.6,0-3.6-.14-7.139-.14-5.334,0-9.006-.136-14.343-.344-3.6,0-3.6.276-7.136.276-3.6,0-3.6-.484-7.139-.484-3.6,0-3.6.344-7.139.344-3.6,0-3.6-.276-7.136-.276-3.6,0-3.6.484-7.139.484-7.551-.208-13.928-.623-21.482-.136-5.405.068-8.938.068-14.343.136-2.149,0-4.087-.967-6.029-1.73A12.875,12.875,0,0,1,43.892,258.8Z" transform="translate(-26.972 -22.219)" fill="#052c39"/>
		  <path id="Path_245" data-name="Path 245" d="M144.115,92.343c-9.356.136-17.95-.487-27.3-.623A184.014,184.014,0,0,1,96.3,92" transform="translate(148.679 153.871)" fill="none" stroke="#2e3343" stroke-linecap="round" stroke-linejoin="round" stroke-width="0.368"/>
		  <path id="Path_246" data-name="Path 246" d="M232.4,92.323c-5.337,0-8.941,0-14.275.071-3.6,0-3.6-.623-7.139-.623-5.334.136-8.938.136-14.275-.071-7.483.208-13.928.279-21.411.14-3.6,0-3.6-.068-7.139-.068-3.6,0-3.6.552-7.136.552-3.6,0-3.6-.484-7.139-.484-5.337.276-8.938.484-14.275.484-3.6,0-3.6-.484-7.139-.484-3.6,0-3.6.276-7.136.276-3.6,0-3.6.071-7.139.071-3.6,0-3.6-.487-7.136-.487-3.6,0-3.6.623-7.139.623-3.6,0-3.6-.552-7.136-.552-3.6,0-3.6.484-7.139.484-3.6,0-3.6-.555-7.136-.555a183.364,183.364,0,0,1-21.414,0c-3.6,0-3.6.071-7.139.071-3.6,0-3.6.552-7.136.552-3.6,0-3.6-.552-7.139-.552s-3.6.344-7.136.344" transform="translate(-12.853 153.82)" fill="none" stroke="#2e3343" stroke-linecap="round" stroke-linejoin="round" stroke-width="0.368"/>
		</g>
		<g id="Group_69" data-name="Group 69" transform="translate(118.2 76.534)">
		  <path id="Path_247" data-name="Path 247" d="M218.657,149.861c-2.954-.078-4.987-.192-7.941-.23-2,0-2,.269-3.954.269-5.448-.383-10.434-.039-15.843-.117-4.182-.153-7.714-.153-11.9-.153a78.154,78.154,0,0,0-7.941.23c-2.954-.114-4.987-.192-7.941-.153-2.954-.039-4.99.075-7.941.266-2,0-2-.344-3.954-.344-1.993,0-1.993.308-3.951.308-2.954,0-4.987-.117-7.941-.23-2,0-2,.192-3.951.192-2,0-2-.23-3.954-.23-2.954.153-4.987.192-7.941.192a68.963,68.963,0,0,1-7.941-.114c-4.182.036-7.711.192-11.9,0-2.954.114-4.948.192-7.941.227-4.182,0-7.711-.344-11.892-.266-4.182.192-7.714.266-11.9.305-4.182-.039-7.711-.422-11.892-.23-4.068.192-7.905.578-10.129-3.607-1.305-2.383-.922-4.8-1.036-7.49.075-4.107.039-7.639.153-11.746-.192-4.11,0-7.6-.114-11.749,0-1.961.114-1.961.114-3.919s-.269-1.958-.269-3.915.308-1.958.308-3.915c-.039-2.919-.078-4.915-.117-7.834C48.733,90.232,49,85.32,49,79.944c-.153-2.919-.23-4.915-.23-7.834.078-4.107.192-7.639.308-11.749,0-1.958-.192-1.958-.192-3.915S49,54.488,49,52.53c.117-5.376.117-10.292-.114-15.668,0-1.958.114-1.958.114-3.915s-.266-1.958-.266-3.915A7.28,7.28,0,0,1,50,25.5a6.419,6.419,0,0,1,6.139-3.61c4.182-.192,7.714-.078,11.9.078a78.192,78.192,0,0,1,7.941-.269c2.954-.078,4.987,0,7.941.153,2,0,2-.153,3.954-.153,1.993,0,1.993.192,3.951.192,1.993,0,1.993-.192,3.951-.192,2.954,0,4.987.153,7.941.308,2,0,2-.078,3.951-.078a78.164,78.164,0,0,0,7.944-.153c1.993,0,1.993.192,3.951.192,4.182.153,7.711-.231,11.892-.156a79.17,79.17,0,0,1,7.944.23c4.182,0,7.711-.114,11.892-.23,5.448.117,10.438.308,15.885-.075,2.954,0,4.948.075,7.941.153,2.954-.114,4.948-.192,7.941-.231,2,0,2,.231,3.951.231,2.954-.153,4.951-.231,7.944-.192,6.714.344,13.08,0,19.833,0,2,0,2,.114,3.954.114a7.718,7.718,0,0,1,7.288,7.259c-.117,2.919-.23,4.912-.153,7.831,0,1.958-.117,1.958-.117,3.919s.192,1.958.192,3.915c.117,2.919.156,4.915.117,7.834-.578,6.6-.117,12.937,0,19.58-.078,2.919-.23,4.915-.308,7.834.27,4.107.27,7.6.231,11.749,0,1.958-.114,1.958-.114,3.915s.192,1.958.192,3.915c-.23,4.11-.383,7.642-.347,11.749v3.915c0,1.961.269,1.961.269,3.919s-.269,1.958-.269,3.915c-.075,2.919-.036,4.915.117,7.834,0,2.919.075,4.915.192,7.831,0,1.958-.27,1.958-.27,3.919a7.064,7.064,0,0,1-.919,3.568A7.755,7.755,0,0,1,218.657,149.861Z" transform="translate(-48.733 -21.659)" fill="#f5f3f1"/>
		  <path id="Path_248" data-name="Path 248" d="M220.42,21.805c-5.37-.192-10.243.383-15.616.117-1.954,0-1.954.114-3.912.114s-1.958-.269-3.915-.269-1.954.192-3.912.192-1.958-.114-3.912-.114a84.832,84.832,0,0,1-11.7-.078c-4.1.117-7.6.117-11.7-.075a133.323,133.323,0,0,1-15.616.192c-5.37-.231-10.243.114-15.616.075-1.954,0-1.954-.192-3.912-.192-2.915.156-4.873.192-7.827.117-1.958,0-1.958.153-3.912.153s-1.958-.192-3.915-.192-1.954.23-3.912.23S109.08,22,107.122,22c-4.1.117-7.594,0-11.7-.269-2.915-.036-4.873-.036-7.827.078-1.954,0-1.954-.078-3.912-.078s-1.958.23-3.912.23c-4.107-.114-7.6-.153-11.7-.075-2.915,0-4.873.075-7.827.153-1.954,0-1.954-.23-3.912-.23a6.86,6.86,0,0,0-6.6,6.564c0,2.805-.039,2.805-.039,5.607,0,.153.231.192.422.192,5.373.156,10.285-.114,15.694.039,1.958,0,1.958.153,3.912.153s1.958-.266,3.915-.266,1.954.153,3.912.153,1.958.153,3.912.153,1.958-.192,3.915-.192c2.915.078,4.912.117,7.827.078,2.915.114,4.909.192,7.824.153,1.958,0,1.958-.269,3.915-.269,2.915-.039,4.912.078,7.827.269,1.954,0,1.954-.192,3.912-.192s1.958.231,3.912.231,1.958-.192,3.915-.192a59.422,59.422,0,0,0,7.827-.078c1.954,0,1.954.23,3.912.23s1.958-.153,3.912-.153c4.146,0,7.636-.117,11.782.114,2.951,0,4.909-.114,7.824-.305,1.958,0,1.958.231,3.915.231,2.954-.117,4.909-.078,7.827.036,2.915-.075,4.909-.192,7.824-.266,1.958,0,1.958.344,3.915.344,7.941-.383,15.577-.344,23.518-.153,2.954.039,4.912.075,7.827.075,1.954,0,1.954-.23,3.912-.23s1.958.156,3.915.156,1.954-.039,3.912-.039c.153,0,.192-.117.192-.269-.153-3.224.922-5.912-.614-8.908A6.162,6.162,0,0,0,220.42,21.805Z" transform="translate(-46.315 -21.575)" fill="#d4d9da"/>
		  <path id="Path_249" data-name="Path 249" d="M218.657,149.861c-2.954-.078-4.987-.192-7.941-.23-2,0-2,.269-3.954.269-5.448-.383-10.434-.039-15.843-.117-4.182-.153-7.714-.153-11.9-.153a78.154,78.154,0,0,0-7.941.23c-2.954-.114-4.987-.192-7.941-.153-2.954-.039-4.99.075-7.941.266-2,0-2-.344-3.954-.344-1.993,0-1.993.308-3.951.308-2.954,0-4.987-.117-7.941-.23-2,0-2,.192-3.951.192-2,0-2-.23-3.954-.23-2.954.153-4.987.192-7.941.192a68.963,68.963,0,0,1-7.941-.114c-4.182.036-7.711.192-11.9,0-2.954.114-4.948.192-7.941.227-4.182,0-7.711-.344-11.892-.266-4.182.192-7.714.266-11.9.305-4.182-.039-7.711-.422-11.892-.23-4.068.192-7.905.578-10.129-3.607-1.305-2.383-.922-4.8-1.036-7.49.075-4.107.039-7.639.153-11.746-.192-4.11,0-7.6-.114-11.749,0-1.961.114-1.961.114-3.919s-.269-1.958-.269-3.915.308-1.958.308-3.915c-.039-2.919-.078-4.915-.117-7.834C48.733,90.232,49,85.32,49,79.944c-.153-2.919-.23-4.915-.23-7.834.078-4.107.192-7.639.308-11.749,0-1.958-.192-1.958-.192-3.915S49,54.488,49,52.53c.117-5.376.117-10.292-.114-15.668,0-1.958.114-1.958.114-3.915s-.266-1.958-.266-3.915A7.28,7.28,0,0,1,50,25.5a6.419,6.419,0,0,1,6.139-3.61c4.182-.192,7.714-.078,11.9.078a78.192,78.192,0,0,1,7.941-.269c2.954-.078,4.987,0,7.941.153,2,0,2-.153,3.954-.153,1.993,0,1.993.192,3.951.192,1.993,0,1.993-.192,3.951-.192,2.954,0,4.987.153,7.941.308,2,0,2-.078,3.951-.078a78.164,78.164,0,0,0,7.944-.153c1.993,0,1.993.192,3.951.192,4.182.153,7.711-.231,11.892-.156a79.17,79.17,0,0,1,7.944.23c4.182,0,7.711-.114,11.892-.23,5.448.117,10.438.308,15.885-.075,2.954,0,4.948.075,7.941.153,2.954-.114,4.948-.192,7.941-.231,2,0,2,.231,3.951.231,2.954-.153,4.951-.231,7.944-.192,6.714.344,13.08,0,19.833,0,2,0,2,.114,3.954.114a7.718,7.718,0,0,1,7.288,7.259c-.117,2.919-.23,4.912-.153,7.831,0,1.958-.117,1.958-.117,3.919s.192,1.958.192,3.915c.117,2.919.156,4.915.117,7.834-.578,6.6-.117,12.937,0,19.58-.078,2.919-.23,4.915-.308,7.834.27,4.107.27,7.6.231,11.749,0,1.958-.114,1.958-.114,3.915s.192,1.958.192,3.915c-.23,4.11-.383,7.642-.347,11.749v3.915c0,1.961.269,1.961.269,3.919s-.269,1.958-.269,3.915c-.075,2.919-.036,4.915.117,7.834,0,2.919.075,4.915.192,7.831,0,1.958-.27,1.958-.27,3.919a7.064,7.064,0,0,1-.919,3.568A7.755,7.755,0,0,1,218.657,149.861Z" transform="translate(-48.733 -21.659)" fill="none" stroke="#2e3343" stroke-linecap="round" stroke-linejoin="round" stroke-width="0.368"/>
		  <path id="Path_250" data-name="Path 250" d="M48.754,25.534c1.958,0,1.958-.269,3.951-.269,1.958,0,1.958.078,3.954.078,4.143-.039,7.672.308,11.814.078,5.373.039,10.36-.308,15.733.039,2.915,0,4.948-.078,7.863-.156,1.958,0,1.958.23,3.954.23,6.675-.114,13.006-.269,19.68-.344,1.958,0,1.958.269,3.951.269h3.951c2.954.036,4.951-.078,7.866-.231,4.143.153,7.675.305,11.817.305,4.143.078,7.672-.192,11.817.039,2.954-.153,4.909-.308,7.863-.308,1.958,0,1.958.308,3.954.308,1.954,0,1.954-.344,3.951-.344,1.954,0,1.954.266,3.951.266,4.143-.036,7.672-.23,11.817.039,4.143-.114,7.636-.383,11.817-.305,2.954.192,4.909.305,7.863.266,6.678-.075,13.006-.383,19.684.078" transform="translate(-48.68 -12.711)" fill="none" stroke="#2e3343" stroke-linecap="round" stroke-linejoin="round" stroke-width="0.368"/>
		  <path id="Path_251" data-name="Path 251" d="M52.473,22.93a2.534,2.534,0,0,0,0,5.068C55.58,27.959,55.5,23.008,52.473,22.93Z" transform="translate(-45.567 -18.437)" fill="none" stroke="#2e3343" stroke-linecap="round" stroke-linejoin="round" stroke-width="0.368"/>
		  <path id="Path_252" data-name="Path 252" d="M56.5,23.872a2.255,2.255,0,0,0-3.759.422,2.286,2.286,0,0,0,2.185,3.185C56.61,27.557,57.3,24.791,56.5,23.872Z" transform="translate(-39.079 -18.187)" fill="none" stroke="#2e3343" stroke-linecap="round" stroke-linejoin="round" stroke-width="0.368"/>
		</g>
		<g id="Group_70" data-name="Group 70" transform="translate(154.877 113.515)">
		  <path id="Path_253" data-name="Path 253" d="M118.108,62.846c-.091,9.977-2.954,16.476-10.415,23.073-3.136,3.1-7.207,4.964-11.317,6.454a81.549,81.549,0,0,1-8.665,1.269c-4.341-.552-8.8-.912-12.739-2.9A31.84,31.84,0,0,1,58.4,71.459a27.826,27.826,0,0,1-1.143-8.61,19.647,19.647,0,0,1,1.1-8.62A29.782,29.782,0,0,1,59.7,50.058a67.563,67.563,0,0,1,4.828-7.3c2.883-3.3,6.659-5.678,10.444-7.814,5.418-1.847,11.35-3.5,17.122-2.542,7.237,1.1,13.824,5.12,18.862,10.311A28.886,28.886,0,0,1,118.108,62.846ZM99.168,48.467a17.224,17.224,0,0,0-19.414-2.136c-6.584,2.685-10.36,9.581-10.6,16.512.269,6.795,4.126,13.885,10.593,16.518,4.834,2.691,10.993,1.984,16.028.243,6.321-2.98,10.077-9.9,10.324-16.762C105.777,57.405,103.648,51.766,99.168,48.467Z" transform="translate(-57.17 -32.124)" fill="#f5f3f1"/>
		  <path id="Path_254" data-name="Path 254" d="M70.638,50.4a29.766,29.766,0,0,1-.078-8.37c-1.932-.442-2.195-2.545-4.165-1.993-1.928-.442-1.532-.789-3.461-1.23-3.247-.74-1.779,1.165-3.932.8-.1-.023-.328-.023-.351.078-.292,2.195-.549,4.432-.743,6.659a34.765,34.765,0,0,0,6.668,18.979c.065.081.36.214.435.149,7.8-6.217,7.756-6.113,9.042-7.23a.348.348,0,0,0,.052-.471A21.33,21.33,0,0,1,70.638,50.4Z" transform="translate(-55.298 -15.625)" fill="#feedc2"/>
		  <path id="Path_255" data-name="Path 255" d="M75.992,44.049a20.835,20.835,0,0,1,7.847,1.935c.088.042.3.146.338.058.023.042,5.837-9.944,5.032-10.85,0,0-3.85-1.422-4.344-1.685a20.368,20.368,0,0,0-8.873-1.256,27.114,27.114,0,0,0-8.947,1,32.344,32.344,0,0,0-4.133,1.951c1.266,2.626,2.049,4.441,3.224,7.113.847,1.76,1.065,1.652,1.912,3.415.042.091,0,.263.094.221A27.349,27.349,0,0,1,75.992,44.049Z" transform="translate(-42.623 -31.959)" fill="#052c39"/>
		  <path id="Path_256" data-name="Path 256" d="M79.07,56.489A93.665,93.665,0,0,1,90.511,54c.1-.023.058-.315.039-.412a37.4,37.4,0,0,0-3.217-8.412A31.571,31.571,0,0,0,74.24,33.081c-.088-.045-.334-.094-.377-.007-.847,1.76-.672,1.847-1.519,3.6s-1.013,1.678-1.86,3.438-.695,1.831-1.542,3.591c-.042.091-.065.269.023.312a16.007,16.007,0,0,1,8.5,8.415,18.3,18.3,0,0,1,1.227,3.863C78.717,56.392,78.976,56.512,79.07,56.489Z" transform="translate(-27.44 -29.838)" fill="#f3c259"/>
		  <path id="Path_257" data-name="Path 257" d="M80.064,43.792l-1.782-3.841a66.151,66.151,0,0,0-3.113-6.558c-.042-.088-.24-.393-.328-.344C69.655,36,64.5,39.971,61.539,45.217a35.093,35.093,0,0,0-3.292,8.344c-.019.1-.094.2.007.231,1.9.432,1.954.2,3.854.636s1.9.442,3.808.88c1.844.438,2.165.451,3.9.9C71.551,48.045,80.064,43.792,80.064,43.792Z" transform="translate(-54.555 -29.793)" fill="#01c27c"/>
		  <path id="Path_258" data-name="Path 258" d="M86.024,39.162c-.02-.1-.149-.325-.247-.305-1.932.442-1.909.526-3.844.967-2.876.695-4.847,1.091-7.753,1.662,1.1,5.779.224,10.9-3.425,15.72-.058.078.065.032.146.094,3.13,2.669,5.847,4.863,9.048,7.441.64.591,2.055-2.912,2.5-3.412C86.524,55.148,87.362,46.34,86.024,39.162Z" transform="translate(-22.788 -15.069)" fill="#01c27c"/>
		  <path id="Path_259" data-name="Path 259" d="M68.982,44.094c-1.523,1.217-1.389,1.386-2.915,2.6a76.419,76.419,0,0,0-6.11,4.863c-.081.062-.127.149-.062.23a30.8,30.8,0,0,0,2.964,3.428,23.855,23.855,0,0,0,7.623,4.821c4.113,1.825,8.467,3.308,13.045,3.221.1,0,.221-.188.221-.286,0-1.951.075-1.951.075-3.9s-.26-1.951-.26-3.906.279-1.951.279-3.9a.438.438,0,0,0-.3-.286,18.266,18.266,0,0,1-4-.536c-4.139-.552-7.467-3.221-10.191-6.2C69.284,44.162,69.06,44.032,68.982,44.094Z" transform="translate(-50.344 -1.837)" fill="#f3c259"/>
		  <path id="Path_260" data-name="Path 260" d="M87.987,48.925c-1.552-1.237-1.873-.961-3.25-2.389a8.322,8.322,0,0,0-3.188-2.484c-.091-.042-.133.224-.2.3-3.412,4.3-9.142,6.3-14.275,6.99-1.172,4.126-.263,7.594-.169,11.707.166.825,3.935-.334,4.694-.321a22.871,22.871,0,0,0,8.665-2.415,22.962,22.962,0,0,0,7.35-5.207c.487-.6,3.717-2.951,3.113-3.516Z" transform="translate(-33.575 -1.915)" fill="#f4e7cd"/>
		  <path id="Path_261" data-name="Path 261" d="M62.074,33A74.754,74.754,0,0,0,65.4,40.4c.877,1.828,1.146,1.7,2.026,3.522" transform="translate(-44.744 -29.898)" fill="none" stroke="#2e3343" stroke-linecap="round" stroke-linejoin="round" stroke-width="0.368"/>
		  <path id="Path_262" data-name="Path 262" d="M73.445,33.033c-1.269,2.756-2.266,4.552-3.76,7.191-.877,1.828-.714,1.909-1.591,3.734" transform="translate(-29.49 -29.822)" fill="none" stroke="#2e3343" stroke-linecap="round" stroke-linejoin="round" stroke-width="0.368"/>
		  <path id="Path_263" data-name="Path 263" d="M82.8,38.943c-1.977.451-2.029.214-4.006.669s-1.919.711-3.9,1.159-2.013.3-3.99.743" transform="translate(-22.374 -14.847)" fill="none" stroke="#2e3343" stroke-linecap="round" stroke-linejoin="round" stroke-width="0.368"/>
		  <path id="Path_264" data-name="Path 264" d="M79.512,51.525c-1.584-1.26-1.558-1.3-3.139-2.558s-1.76-1.049-3.344-2.315-1.549-1.312-3.139-2.578" transform="translate(-24.944 -1.846)" fill="none" stroke="#2e3343" stroke-linecap="round" stroke-linejoin="round" stroke-width="0.368"/>
		  <path id="Path_265" data-name="Path 265" d="M66.009,58.2c-.058-4.272-.334-7.892-.13-12.165" transform="translate(-35.293 3.128)" fill="none" stroke="#2e3343" stroke-linecap="round" stroke-linejoin="round" stroke-width="0.368"/>
		  <path id="Path_266" data-name="Path 266" d="M59.043,51.573c3.428-2.549,6.237-4.844,9.616-7.461" transform="translate(-52.426 -1.749)" fill="none" stroke="#2e3343" stroke-linecap="round" stroke-linejoin="round" stroke-width="0.368"/>
		  <path id="Path_267" data-name="Path 267" d="M57.378,38.837c4.182.857,7.636,2,11.84,2.779" transform="translate(-56.644 -15.115)" fill="none" stroke="#2e3343" stroke-linecap="round" stroke-linejoin="round" stroke-width="0.368"/>
		  <path id="Path_268" data-name="Path 268" d="M97.508,54.128c-.243,6.863-4,13.788-10.324,16.762-5.035,1.743-11.194,2.448-16.025-.243-6.47-2.636-10.33-9.72-10.6-16.518.247-6.928,4.016-13.827,10.6-16.509a17.207,17.207,0,0,1,19.414,2.136C95.053,43.048,97.183,48.687,97.508,54.128Z" transform="translate(-48.576 -23.406)" fill="none" stroke="#2e3343" stroke-linecap="round" stroke-linejoin="round" stroke-width="0.368"/>
		  <path id="Path_269" data-name="Path 269" d="M118.108,62.846c-.091,9.977-2.954,16.476-10.415,23.073-3.136,3.1-7.207,4.964-11.317,6.454a81.549,81.549,0,0,1-8.665,1.269c-4.341-.552-8.8-.912-12.739-2.9A31.84,31.84,0,0,1,58.4,71.459a27.826,27.826,0,0,1-1.143-8.61,19.647,19.647,0,0,1,1.1-8.62A29.782,29.782,0,0,1,59.7,50.058a67.563,67.563,0,0,1,4.828-7.3c2.883-3.3,6.659-5.678,10.444-7.814,5.418-1.847,11.35-3.5,17.122-2.542,7.237,1.1,13.824,5.12,18.862,10.311A28.886,28.886,0,0,1,118.108,62.846Z" transform="translate(-57.17 -32.124)" fill="none" stroke="#2e3343" stroke-linecap="round" stroke-linejoin="round" stroke-width="0.368"/>
		</g>
		<g id="Group_71" data-name="Group 71" transform="translate(222.635 124.917)">
		  <path id="Path_270" data-name="Path 270" d="M115.063,38.045a2.3,2.3,0,0,0-2.328-2.4c-2.448,0-2.448-.023-4.9-.023-3.652-.117-6.133-.166-9.792-.114-5.159.039-9.542.273-14.691-.156a2.483,2.483,0,0,0-2.221,2.695c0,2.448-.224,2.448-.224,4.9-.117,3.662-.049,6.136.136,9.792,0,2.445-.347,2.445-.347,4.893s.058,2.451.058,4.9.185,2.451.185,4.9a2.628,2.628,0,0,0,2.412,2.688c2.448,0,2.448-.042,4.9-.042s2.445-.429,4.893-.429c3.659.071,6.139.253,9.792.4,2.451,0,2.451-.237,4.9-.237,7.762-.084,7.545.711,7.3-7.272,0-2.448.091-2.448.091-4.9s-.273-2.445-.273-4.9C115.209,47.58,115.06,43.2,115.063,38.045Z" transform="translate(-80.702 -35.351)" fill="#f5f3f1"/>
		  <path id="Path_271" data-name="Path 271" d="M88.036,51.147c9.558.13,8.457,1.084,8.681-8.451" transform="translate(-62.122 -16.74)" fill="none" stroke="#2e3343" stroke-linecap="round" stroke-linejoin="round" stroke-width="0.368"/>
		  <path id="Path_272" data-name="Path 272" d="M96.458,44.108c0-3.061.286-3.061.286-6.116-.49-4.23-5.769-1.984-8.707-2.318" transform="translate(-62.119 -35.297)" fill="none" stroke="#2e3343" stroke-linecap="round" stroke-linejoin="round" stroke-width="0.368"/>
		  <path id="Path_273" data-name="Path 273" d="M80.766,42.7c.019,9.558-1.032,8.931,8.6,8.577" transform="translate(-80.604 -16.74)" fill="none" stroke="#2e3343" stroke-linecap="round" stroke-linejoin="round" stroke-width="0.368"/>
		  <path id="Path_274" data-name="Path 274" d="M89.449,35.354c-3.061,0-3.061.146-6.116.146a2.373,2.373,0,0,0-2.269,2.536c0,3.058-.351,3.058-.351,6.113" transform="translate(-80.676 -35.344)" fill="none" stroke="#2e3343" stroke-linecap="round" stroke-linejoin="round" stroke-width="0.368"/>
		  <path id="Path_275" data-name="Path 275" d="M82.326,41.3c1.938,0,1.938.4,3.87.4s1.935-.143,3.867-.143" transform="translate(-76.587 -20.267)" fill="none" stroke="#2e3343" stroke-linecap="round" stroke-linejoin="round" stroke-width="0.368"/>
		  <path id="Path_276" data-name="Path 276" d="M84.7,38.176c.019,4.99-.13,9.246-.243,14.252,0,2.376.37,2.376.37,4.753" transform="translate(-71.184 -28.193)" fill="none" stroke="#2e3343" stroke-linecap="round" stroke-linejoin="round" stroke-width="0.368"/>
		  <path id="Path_277" data-name="Path 277" d="M90.063,43.485c-1.938,0-1.938.325-3.867.325s-1.938-.253-3.87-.253" transform="translate(-76.587 -14.741)" fill="none" stroke="#2e3343" stroke-linecap="round" stroke-linejoin="round" stroke-width="0.368"/>
		  <path id="Path_278" data-name="Path 278" d="M82.317,51.874c.127-4.331.243-7.269.253-11.6" transform="translate(-76.61 -22.885)" fill="none" stroke="#2e3343" stroke-linecap="round" stroke-linejoin="round" stroke-width="0.368"/>
		  <path id="Path_279" data-name="Path 279" d="M94.355,41.365c0,3.7.068,3.7.068,7.4,0,.188-.055.188-.24.188-3.526,0-3.526-.058-7.058-.058-.188,0-.454.055-.454-.13,0-3.415.088-3.415.088-6.831" transform="translate(-65.581 -20.113)" fill="none" stroke="#2e3343" stroke-linecap="round" stroke-linejoin="round" stroke-width="0.368"/>
		  <path id="Path_280" data-name="Path 280" d="M88.065,39.342c-1.727,0-1.727-.169-3.454-.169" transform="translate(-70.8 -25.665)" fill="none" stroke="#2e3343" stroke-linecap="round" stroke-linejoin="round" stroke-width="0.368"/>
		  <path id="Path_281" data-name="Path 281" d="M90.728,37.121c-3.522,0-3.522-.185-7.038-.185-.081,0-.062.247-.062.331,0,1.438-.253,1.438-.253,2.88" transform="translate(-73.931 -31.335)" fill="none" stroke="#2e3343" stroke-linecap="round" stroke-linejoin="round" stroke-width="0.368"/>
		  <path id="Path_282" data-name="Path 282" d="M97.571,38.178c-2.536,0-2.536-.133-5.068-.133s-2.535.328-5.074.328-2.536-.182-5.074-.182" transform="translate(-76.517 -28.526)" fill="none" stroke="#2e3343" stroke-linecap="round" stroke-linejoin="round" stroke-width="0.368"/>
		  <path id="Path_283" data-name="Path 283" d="M85.962,48.588c.045-1.717-.078-2.266.045-3.7-1.763,0-1.763-.185-3.523-.185-.156-2.74-.088-4.889-.146-7.714" transform="translate(-76.554 -31.203)" fill="none" stroke="#2e3343" stroke-linecap="round" stroke-linejoin="round" stroke-width="0.368"/>
		  <path id="Path_284" data-name="Path 284" d="M97.411,46.705c-4.344-.029-7.285.1-11.619.282-.724-.159.305-2.967.13-3.974,0-1.922-.2-1.922-.2-3.837" transform="translate(-68.468 -25.658)" fill="none" stroke="#2e3343" stroke-linecap="round" stroke-linejoin="round" stroke-width="0.368"/>
		  <path id="Path_285" data-name="Path 285" d="M92.956,39.176c0,1.864.127,1.864.127,3.727,0,.078-.039.023-.117.023-3.656,0-3.656.01-7.314.01" transform="translate(-68.162 -25.658)" fill="none" stroke="#2e3343" stroke-linecap="round" stroke-linejoin="round" stroke-width="0.368"/>
		  <path id="Path_286" data-name="Path 286" d="M94.654,48.683c-.156-4.191-.195-7.032-.078-11.227,0-.2-.305-.341-.51-.341-3.513,0-3.513-.166-7.026-.166-.188,0-.338.289-.338.477,0,3.526.2,3.526.2,7.058,0,.192-.049.568.14.568,3.542,0,3.542-.435,7.084-.435" transform="translate(-65.497 -31.298)" fill="none" stroke="#2e3343" stroke-linecap="round" stroke-linejoin="round" stroke-width="0.368"/>
		  <path id="Path_287" data-name="Path 287" d="M88.151,46.268c0-1.834-.273-1.834-.273-3.669,0-.114.029-.117-.081-.117-1.581,0-1.581.12-3.162.12" transform="translate(-70.737 -17.28)" fill="none" stroke="#2e3343" stroke-linecap="round" stroke-linejoin="round" stroke-width="0.368"/>
		</g>
		<g id="Group_72" data-name="Group 72" transform="translate(79.319 112.638)">
		  <path id="Path_288" data-name="Path 288" d="M110.135,85.313c-5.889-.2-11.288-.364-17.216-.162-4.548-.2-8.366,0-12.915-.162-3.208-.039-5.4,0-8.61.162-3.208,0-5.4-.039-8.61-.081-3.208-.12-5.4-.12-8.61-.039-2.152,0-2.152.081-4.3.081a8.3,8.3,0,0,1-7.594-5.441c-.607-2.071-.649-2.071-1.26-4.1-.607-2.071-.282-2.152-.893-4.224s-.893-1.99-1.5-4.019c-1.013-4.428-2.354-8.042-3.652-12.386a81.485,81.485,0,0,0-2.558-8.2c-.653-2.071-.773-2.029-1.383-4.061s-.325-2.152-.974-4.224a4.927,4.927,0,0,1,.529-4.425c1.99-2.558,5.48-1.708,8.405-1.951,2.152,0,2.152.123,4.3.123s2.152-.243,4.3-.243a75.477,75.477,0,0,1,8.61.162c2.152,0,2.152-.123,4.3-.123s2.152.2,4.3.2c3.208-.123,5.4-.243,8.607-.286,2.152,0,2.152.243,4.3.243a125.079,125.079,0,0,1,12.915,0c3.169-.12,6.334-.73,8.973,1.341,2.805,1.909,3.169,5.117,3.941,8.162,1.867,5.607,3,10.925,4.993,16.489,1.26,4.344,2.315,8.081,3.86,12.347.649,2.071.812,1.99,1.461,4.058s.487,2.113,1.1,4.185A5.186,5.186,0,0,1,110.135,85.313Z" transform="translate(-29.77 -31.829)" fill="#f5f3f1"/>
		  <path id="Path_289" data-name="Path 289" d="M115.564,78.659c-1.542-4.263-2.721-7.918-3.857-12.3-1.747-5.646-3.776-10.681-5.117-16.447a127.4,127.4,0,0,0-3.737-12.343c-1.909-5.889-6.577-5.483-11.736-5.321-4.548-.081-8.366-.162-12.915-.325-2.152,0-2.152.364-4.3.364s-2.152-.243-4.3-.243-2.152.123-4.3.123c-3.208-.123-5.4-.123-8.607,0-3.211,0-5.4-.123-8.61-.286-4.548,0-8.366.286-12.915.367a4.752,4.752,0,0,0-4.63,6.3c.61,2.071.406,2.11,1.016,4.182,1.055,3.045,1.786,5.078,2.76,8.162.854,3.087,1.383,5.24,2.276,8.327.607,2.071.893,1.99,1.542,4.019.61,2.071.487,2.11,1.1,4.182,1.26,4.347,2.315,8.084,3.857,12.308a8.262,8.262,0,0,0,7.269,5.6c.243,0,.2.081.286-.162-.325-5.646,2.071-10.967,7.35-13.282,1.055-.607,2.029-1.38,3.126-1.948,1.1-.529,2.315-.854,3.37-1.461a7.058,7.058,0,0,0,3.169-4.509.852.852,0,0,0-.974-1.178c-.935.081-1.87-.12-2.8-.039a1.191,1.191,0,0,1-1.383-1.055c-.568-2.6-1.461-5.2-1.948-7.837-.286-1.3-.325-2.682-.487-4.022-.487-2.76-1.464-5.685.568-8.081,2.273-3.574,6.62-4.467,10.438-3.087a20.116,20.116,0,0,1,3.734,1.3,16.364,16.364,0,0,1,2.967,2.6c4.912,4.834,4.3,12.061,5.8,18.317.448,2.11-1.584,1.338-2.8,1.217-2.678.445-.935,3.857.487,4.873,1.828,1.665,4.548,2.516,6.944,3.084a44.734,44.734,0,0,1,8.084,3.331c5.035,2.844,6.659,6.337,8.324,11.616,2.922.73,2.964.162,5.97.162A5.131,5.131,0,0,0,115.564,78.659Z" transform="translate(-28.498 -31.876)" fill="#ffd166"/>
		  <path id="Path_290" data-name="Path 290" d="M110.135,85.313c-5.889-.2-11.288-.364-17.216-.162-4.548-.2-8.366,0-12.915-.162-3.208-.039-5.4,0-8.61.162-3.208,0-5.4-.039-8.61-.081-3.208-.12-5.4-.12-8.61-.039-2.152,0-2.152.081-4.3.081a8.3,8.3,0,0,1-7.594-5.441c-.607-2.071-.649-2.071-1.26-4.1-.607-2.071-.282-2.152-.893-4.224s-.893-1.99-1.5-4.019c-1.013-4.428-2.354-8.042-3.652-12.386a81.485,81.485,0,0,0-2.558-8.2c-.653-2.071-.773-2.029-1.383-4.061s-.325-2.152-.974-4.224a4.927,4.927,0,0,1,.529-4.425c1.99-2.558,5.48-1.708,8.405-1.951,2.152,0,2.152.123,4.3.123s2.152-.243,4.3-.243a75.477,75.477,0,0,1,8.61.162c2.152,0,2.152-.123,4.3-.123s2.152.2,4.3.2c3.208-.123,5.4-.243,8.607-.286,2.152,0,2.152.243,4.3.243a125.079,125.079,0,0,1,12.915,0c3.169-.12,6.334-.73,8.973,1.341,2.805,1.909,3.169,5.117,3.941,8.162,1.867,5.607,3,10.925,4.993,16.489,1.26,4.344,2.315,8.081,3.86,12.347.649,2.071.812,1.99,1.461,4.058s.487,2.113,1.1,4.185A5.186,5.186,0,0,1,110.135,85.313Z" transform="translate(-29.77 -31.829)" fill="none" stroke="#2e3343" stroke-linecap="round" stroke-linejoin="round" stroke-width="0.368"/>
		  <path id="Path_291" data-name="Path 291" d="M39.711,38.207c.568,2.763,3.165,4.509,6.292,4.386,3.169-.081,6.094-1.136,5.688-4.993" transform="translate(-4.584 -17.374)" fill="none" stroke="#2e3343" stroke-linecap="round" stroke-linejoin="round" stroke-width="0.368"/>
		  <path id="Path_292" data-name="Path 292" d="M42.7,42.763c-2.477.61-4.506-2.234-4.061-4.061.406-1.542,2.114-1.5,2.763-.081.851-.445.2-.974.406-1.948.039-.123.039-.2.162-.2,1.786,0,1.786-.2,3.574-.2,2.639.039,4.467.162,7.107.282.526,1.1.607,1.341,1.136,2.477" transform="translate(-7.454 -20.752)" fill="none" stroke="#2e3343" stroke-linecap="round" stroke-linejoin="round" stroke-width="0.368"/>
		  <path id="Path_293" data-name="Path 293" d="M42.883,38.737c.325-2.516,2.6-2.922,3.37-1.786.974,1.665.367,4.711-2.234,5.035" transform="translate(3.451 -20.543)" fill="none" stroke="#2e3343" stroke-linecap="round" stroke-linejoin="round" stroke-width="0.368"/>
		  <path id="Path_294" data-name="Path 294" d="M56.8,58.2c8.529.367,5.074.812,3.289-10.558a47.956,47.956,0,0,0-3.006-8.123,15.548,15.548,0,0,0-6.5-5.6c-3.656-.935-9.055-.692-11.574,3.045-1.5,3.535-.812,8.61.162,12.347a27.552,27.552,0,0,1,1.26,8.2c0,.445.526.607.974.607,2.357,0,2.357.286,4.711.286" transform="translate(-8.561 -27.868)" fill="none" stroke="#2e3343" stroke-linecap="round" stroke-linejoin="round" stroke-width="0.368"/>
		  <path id="Path_295" data-name="Path 295" d="M53.237,38.749c1.055,8.405-1.136,11.327-8.811,14.863-1.584.893-2.925,1.867-3.818,2.4a9.1,9.1,0,0,0-3.37,3,11.978,11.978,0,0,0-1.383,8.772" transform="translate(-15.188 -14.462)" fill="none" stroke="#2e3343" stroke-linecap="round" stroke-linejoin="round" stroke-width="0.368"/>
		  <path id="Path_296" data-name="Path 296" d="M42.779,38.726c.448,8.038,7.474,11.736,14.051,14.739,7.512,1.951,13.726,5.646,14.294,14.418" transform="translate(3.188 -14.52)" fill="none" stroke="#2e3343" stroke-linecap="round" stroke-linejoin="round" stroke-width="0.368"/>
		  <path id="Path_297" data-name="Path 297" d="M39.254,40.843c-.367-1.217-.571-4.344.364-5.886" transform="translate(-6.523 -24.071)" fill="none" stroke="#2e3343" stroke-linecap="round" stroke-linejoin="round" stroke-width="0.368"/>
		  <path id="Path_298" data-name="Path 298" d="M39.33,42.346c-.243,1.5-.243,7.146.568,8.2.854.448,6.175.61,8.285.854,1.38,0,2.844-.282,4.263-.282,1.5,0,2.967.282,4.266.243a14.016,14.016,0,0,0,4.182-.73c1.665-1.341,1.341-5.646,1.178-8" transform="translate(-5.91 -5.349)" fill="none" stroke="#2e3343" stroke-linecap="round" stroke-linejoin="round" stroke-width="0.368"/>
		  <path id="Path_299" data-name="Path 299" d="M46.755,42.9c.487,2.883,1.909,10.275,3.818,14.376" transform="translate(13.263 -3.952)" fill="none" stroke="#2e3343" stroke-linecap="round" stroke-linejoin="round" stroke-width="0.368"/>
		  <path id="Path_300" data-name="Path 300" d="M37.711,57.215c1.3-4.224,1.584-10.11,1.747-14.294" transform="translate(-9.652 -3.894)" fill="none" stroke="#2e3343" stroke-linecap="round" stroke-linejoin="round" stroke-width="0.368"/>
		  <path id="Path_301" data-name="Path 301" d="M39.355,43.219c1.747,0,4.912.123,7.025.243" transform="translate(-5.487 -3.137)" fill="none" stroke="#2e3343" stroke-linecap="round" stroke-linejoin="round" stroke-width="0.368"/>
		  <path id="Path_302" data-name="Path 302" d="M43.411,44.48a61.014,61.014,0,0,0,7.675-1.662" transform="translate(4.79 -4.154)" fill="none" stroke="#2e3343" stroke-linecap="round" stroke-linejoin="round" stroke-width="0.368"/>
		  <path id="Path_303" data-name="Path 303" d="M41.182,38.013a1.83,1.83,0,0,0,2.071,0" transform="translate(-0.857 -16.326)" fill="none" stroke="#2e3343" stroke-linecap="round" stroke-linejoin="round" stroke-width="0.368"/>
		  <path id="Path_304" data-name="Path 304" d="M42.515,44.534c1.623-.487,3.37-2.071,3.289-4.061" transform="translate(2.52 -10.095)" fill="none" stroke="#2e3343" stroke-linecap="round" stroke-linejoin="round" stroke-width="0.368"/>
		  <path id="Path_305" data-name="Path 305" d="M40.481,40.875c1.055,1.055,1.743,2.4,3.409,2.558" transform="translate(-2.633 -9.075)" fill="none" stroke="#2e3343" stroke-linecap="round" stroke-linejoin="round" stroke-width="0.368"/>
		  <path id="Path_306" data-name="Path 306" d="M42.571,41.347a1.252,1.252,0,0,0-.61,2.071c.812.854,2.195.529,2.276-.364A1.53,1.53,0,0,0,42.571,41.347Z" transform="translate(0.231 -7.884)" fill="none" stroke="#2e3343" stroke-linecap="round" stroke-linejoin="round" stroke-width="0.368"/>
		</g>
		<g id="Group_73" data-name="Group 73" transform="translate(101.441 181.771)">
		  <path id="Path_307" data-name="Path 307" d="M113.5,102.147c-1.678,0-1.678-.13-3.357-.13s-1.682.195-3.36.195c-2.487,0-4.2-.065-6.688-.13-1.678,0-1.678-.1-3.357-.1s-1.682.162-3.36.162c-3.522-.032-6.526-.192-10.045,0-2.49-.032-4.2-.1-6.72-.13-3.522-.062-6.526.195-10.045.162-1.682,0-1.682-.162-3.36-.162s-1.678.13-3.36.13-1.678-.13-3.36-.13-1.678.162-3.357.162c-5.233-.162-5.847-3.909-6.493-8.2-.357-1.678-.26-1.678-.614-3.36-.646-2.487-1.1-4.165-1.584-6.685-.354-1.682-.1-1.747-.451-3.425-.516-2.519-.971-4.2-1.617-6.655-.74-3.519-1.227-6.555-1.841-10.11-.614-2.487-1.032-4.165-1.581-6.685A4.938,4.938,0,0,1,43.534,51.6c2.487-.065,4.2-.032,6.685.1a94.305,94.305,0,0,1,10.048,0c1.678,0,1.678-.162,3.357-.162,2.487.1,4.2.13,6.72.065,3.519-.032,6.526-.227,10.045-.032a57.37,57.37,0,0,0,6.688-.1c1.678,0,1.678.195,3.357.195s1.682-.065,3.36-.065c2.519-.13,4.2-.195,6.72-.13,2.519.13,5.168-.321,7.233,1.357a6.2,6.2,0,0,1,2,3.555c.357,1.678.484,1.646.808,3.324.354,1.682.162,1.714.484,3.393.39,2.519.711,4.233,1.325,6.72.357,1.678.292,1.678.614,3.357.357,1.682.614,1.617.971,3.3a60.133,60.133,0,0,0,1.227,6.753c.451,2.519.743,4.23,1.292,6.75a66.854,66.854,0,0,1,1.451,6.72A4.551,4.551,0,0,1,113.5,102.147Z" transform="translate(-38.903 -51.44)" fill="#f5f3f1"/>
		  <path id="Path_308" data-name="Path 308" d="M113.5,102.147c-1.678,0-1.678-.13-3.357-.13s-1.682.195-3.36.195c-2.487,0-4.2-.065-6.688-.13-1.678,0-1.678-.1-3.357-.1s-1.682.162-3.36.162c-3.522-.032-6.526-.192-10.045,0-2.49-.032-4.2-.1-6.72-.13-3.522-.062-6.526.195-10.045.162-1.682,0-1.682-.162-3.36-.162s-1.678.13-3.36.13-1.678-.13-3.36-.13-1.678.162-3.357.162c-5.233-.162-5.847-3.909-6.493-8.2-.357-1.678-.26-1.678-.614-3.36-.646-2.487-1.1-4.165-1.584-6.685-.354-1.682-.1-1.747-.451-3.425-.516-2.519-.971-4.2-1.617-6.655-.74-3.519-1.227-6.555-1.841-10.11-.614-2.487-1.032-4.165-1.581-6.685A4.938,4.938,0,0,1,43.534,51.6c2.487-.065,4.2-.032,6.685.1a94.305,94.305,0,0,1,10.048,0c1.678,0,1.678-.162,3.357-.162,2.487.1,4.2.13,6.72.065,3.519-.032,6.526-.227,10.045-.032a57.37,57.37,0,0,0,6.688-.1c1.678,0,1.678.195,3.357.195s1.682-.065,3.36-.065c2.519-.13,4.2-.195,6.72-.13,2.519.13,5.168-.321,7.233,1.357a6.2,6.2,0,0,1,2,3.555c.357,1.678.484,1.646.808,3.324.354,1.682.162,1.714.484,3.393.39,2.519.711,4.233,1.325,6.72.357,1.678.292,1.678.614,3.357.357,1.682.614,1.617.971,3.3a60.133,60.133,0,0,0,1.227,6.753c.451,2.519.743,4.23,1.292,6.75a66.854,66.854,0,0,1,1.451,6.72A4.551,4.551,0,0,1,113.5,102.147Z" transform="translate(-38.903 -51.44)" fill="none" stroke="#2e3343" stroke-linecap="round" stroke-linejoin="round" stroke-width="0.368"/>
		  <path id="Path_309" data-name="Path 309" d="M118.023,69.057c-.419.386-65.671-.743-65.606.386v2.682c-.1,1.13,65.249,0,65.638.386a.372.372,0,0,0,.386-.386V69.443A.418.418,0,0,0,118.023,69.057Z" transform="translate(-4.665 -7.139)" fill="#f5f3f1"/>
		  <path id="Path_310" data-name="Path 310" d="M118.023,69.057c-.419.386-65.671-.743-65.606.386v2.682c-.1,1.13,65.249,0,65.638.386a.372.372,0,0,0,.386-.386V69.443A.418.418,0,0,0,118.023,69.057Z" transform="translate(-4.665 -7.139)" fill="none" stroke="#2e3343" stroke-linecap="round" stroke-linejoin="round" stroke-width="0.368"/>
		  <path id="Path_311" data-name="Path 311" d="M61.6,94.337c-.094,0-.094-.162-.062-.26A65.55,65.55,0,0,1,62.7,87.39c.321-2.519.516-4.23.9-6.75.743-3.49,1.357-6.493,2.036-9.98.292-2.523.484-4.233.938-6.753.065-1.422,1.906-4.071-.195-4.425-1.584,0-1.584.195-3.165.195-2.357,0-3.974-.032-6.363-.1-1.584,0-1.584-.1-3.165-.1-.422,0-.743.419-.841.841-.289,1.646-.195,1.646-.484,3.263-.292,1.646-.549,1.581-.841,3.23A90.586,90.586,0,0,1,49.844,76.6c-.357,2.454-.581,4.1-.971,6.558-.289,1.646-.451,1.617-.743,3.23-.289,1.646-.127,1.646-.419,3.3-.516,2.422-.841,4.071-1.227,6.526.032.419,1.032.032,1.39.1a90.543,90.543,0,0,0,9.756,0c1.614,0,1.614.192,3.263.192,2.227-.032,3.746-.13,5.974-.224,2.23,0,3.747.032,5.977.094.386,0,.549-.289.549-.679.065-.581.386-1.26-.516-1.26-2.811-.127-4.717-.289-7.525-.321C63.477,94.143,63.477,94.337,61.6,94.337Z" transform="translate(-19.695 -31.063)" fill="#f5f3f1"/>
		  <path id="Path_312" data-name="Path 312" d="M61.6,94.337c-.094,0-.094-.162-.062-.26A65.55,65.55,0,0,1,62.7,87.39c.321-2.519.516-4.23.9-6.75.743-3.49,1.357-6.493,2.036-9.98.292-2.523.484-4.233.938-6.753.065-1.422,1.906-4.071-.195-4.425-1.584,0-1.584.195-3.165.195-2.357,0-3.974-.032-6.363-.1-1.584,0-1.584-.1-3.165-.1-.422,0-.743.419-.841.841-.289,1.646-.195,1.646-.484,3.263-.292,1.646-.549,1.581-.841,3.23A90.586,90.586,0,0,1,49.844,76.6c-.357,2.454-.581,4.1-.971,6.558-.289,1.646-.451,1.617-.743,3.23-.289,1.646-.127,1.646-.419,3.3-.516,2.422-.841,4.071-1.227,6.526.032.419,1.032.032,1.39.1a90.543,90.543,0,0,0,9.756,0c1.614,0,1.614.192,3.263.192,2.227-.032,3.746-.13,5.974-.224,2.23,0,3.747.032,5.977.094.386,0,.549-.289.549-.679.065-.581.386-1.26-.516-1.26-2.811-.127-4.717-.289-7.525-.321C63.477,94.143,63.477,94.337,61.6,94.337Z" transform="translate(-19.695 -31.063)" fill="none" stroke="#2e3343" stroke-linecap="round" stroke-linejoin="round" stroke-width="0.368"/>
		  <path id="Path_313" data-name="Path 313" d="M44.889,64.4c.159,1.195-1.844,1-1.938,0C42.723,63.171,44.759,63.431,44.889,64.4Z" transform="translate(-28.693 -20.701)" fill="none" stroke="#2e3343" stroke-linecap="round" stroke-linejoin="round" stroke-width="0.368"/>
		  <path id="Path_314" data-name="Path 314" d="M46.11,64.4c.162,1.195-1.841,1-1.938,0C43.977,63.171,46.013,63.431,46.11,64.4Z" transform="translate(-25.587 -20.701)" fill="none" stroke="#2e3343" stroke-linecap="round" stroke-linejoin="round" stroke-width="0.368"/>
		</g>
		<g id="Group_74" data-name="Group 74" transform="translate(96.721 246.909)">
		  <path id="Path_315" data-name="Path 315" d="M182.456,74.993c-3.721-.133-6.853.169-10.574.172-3.708.036-6.863-.172-10.577-.055-2.626-.13-4.419-.208-7.051-.169-1.76,0-1.76.166-3.526.166-2.63-.032-4.422-.055-7.055-.045-1.76,0-1.76-.12-3.526-.12-2.633.1-4.418.114-7.051.023-1.763,0-1.763.192-3.529.192s-1.76,0-3.526,0c-2.63.01-4.419-.026-7.051-.075-2.639.042-4.422-.007-7.055-.114-2.63.123-4.412.185-7.051.136-1.76,0-1.76-.169-3.526-.169-2.636.075-4.415.088-7.048.032-1.763,0-1.763.208-3.529.208s-1.763-.016-3.526-.016c-2.636-.12-4.409-.2-7.051-.166-2.643.071-4.415.049-7.055-.049-1.763,0-1.763.13-3.526.13s-1.766-.084-3.526-.084-1.763.14-3.529.14-1.76-.188-3.526-.188-1.766-.007-3.526-.007-1.766.224-3.529.224-1.763-.12-3.526-.12c-2.646.1-4.415.114-7.061.036-1.247,0-2.445-.766-2.445-1.688,0-.851.192-.851.192-1.708A2.052,2.052,0,0,1,41.4,69.971c3.714-.042,6.87-.065,10.577.1,3.708-.036,6.866-.12,10.577-.133,1.763,0,1.763.133,3.526.133,2.626-.081,4.422-.14,7.051-.133,2.63.1,4.419.094,7.051,0,2.63.058,4.422.062,7.055,0,3.711.007,6.87.036,10.577.127,3.708-.127,6.863-.049,10.577.016,1.763,0,1.763-.149,3.529-.149,2.63.078,4.412.136,7.048.123,1.763,0,1.763-.172,3.526-.172,3.717.055,6.866.227,10.577.023,2.643-.007,4.422.091,7.055.217,1.76,0,1.76-.253,3.526-.253s1.766.253,3.526.253,1.766-.153,3.529-.153,1.76.049,3.526.049a139.061,139.061,0,0,1,14.106.062c2.646-.062,4.415-.052,7.058.023,1.763,0,1.763-.114,3.529-.114s1.766.1,3.529.1c1.25,0,2.208.656,2.208,1.578C184.569,73.016,184.985,74.955,182.456,74.993Z" transform="translate(-37.174 -69.874)" fill="#f5f3f1"/>
		  <path id="Path_316" data-name="Path 316" d="M183.19,75.118c-2.62-.11-4.419-.156-7.048-.1-2.63.1-4.422.1-7.051,0-1.763,0-1.763.156-3.526.156s-1.763-.211-3.529-.211c-7.123.37-14.012.107-21.151.2-1.763,0-1.763-.136-3.526-.136s-1.763.14-3.529.14c-2.63-.1-4.415-.123-7.051-.045-2.63-.1-4.415-.172-7.055-.159-7.133.308-14-.013-21.151.01-4.841.068-9.259.269-14.1.14-4.841-.224-9.262.019-14.106.049-3.714-.1-6.863-.162-10.58-.042-2.643-.049-4.415-.084-7.058-.081-2.646.042-4.415.1-7.055.14-1.766,0-1.766-.247-3.532-.247-1.247,0-2.312-.627-2.312-1.549,0-.851.133-.851.133-1.708.2-2.438,3.422-1.662,5.7-1.73,1.763,0,1.763.156,3.526.156,2.623-.068,4.422-.071,7.048-.01,1.763,0,1.763-.179,3.526-.179s1.763.12,3.529.12c3.708-.179,6.866-.042,10.574.045,1.763,0,1.763-.162,3.529-.162s1.76.179,3.526.179c3.708-.195,6.86-.143,10.577-.175,1.76,0,1.76.2,3.526.2s1.763-.1,3.526-.1c2.633,0,4.422-.055,7.055-.114,3.714,0,6.87.049,10.577.169,2.633-.081,4.412-.094,7.048-.036,1.763,0,1.763.042,3.526.042s1.763-.182,3.529-.182,1.76.065,3.526.065c2.643.088,4.415.078,7.055-.029,1.76,0,1.76.2,3.526.2,2.643,0,4.419-.068,7.051-.156,1.763,0,1.763.159,3.529.159,4.844.029,9.262-.237,14.106-.075,2.649.016,4.419-.055,7.055-.156,2.649.052,4.419.088,7.061.075,2.542.1,2.23,2,2.253,3.412A2.074,2.074,0,0,1,183.19,75.118Z" transform="translate(-34.969 -69.865)" fill="#486a6e"/>
		  <path id="Path_317" data-name="Path 317" d="M182.456,74.993c-3.721-.133-6.853.169-10.574.172-3.708.036-6.863-.172-10.577-.055-2.626-.13-4.419-.208-7.051-.169-1.76,0-1.76.166-3.526.166-2.63-.032-4.422-.055-7.055-.045-1.76,0-1.76-.12-3.526-.12-2.633.1-4.418.114-7.051.023-1.763,0-1.763.192-3.529.192s-1.76,0-3.526,0c-2.63.01-4.419-.026-7.051-.075-2.639.042-4.422-.007-7.055-.114-2.63.123-4.412.185-7.051.136-1.76,0-1.76-.169-3.526-.169-2.636.075-4.415.088-7.048.032-1.763,0-1.763.208-3.529.208s-1.763-.016-3.526-.016c-2.636-.12-4.409-.2-7.051-.166-2.643.071-4.415.049-7.055-.049-1.763,0-1.763.13-3.526.13s-1.766-.084-3.526-.084-1.763.14-3.529.14-1.76-.188-3.526-.188-1.766-.007-3.526-.007-1.766.224-3.529.224-1.763-.12-3.526-.12c-2.646.1-4.415.114-7.061.036-1.247,0-2.445-.766-2.445-1.688,0-.851.192-.851.192-1.708A2.052,2.052,0,0,1,41.4,69.971c3.714-.042,6.87-.065,10.577.1,3.708-.036,6.866-.12,10.577-.133,1.763,0,1.763.133,3.526.133,2.626-.081,4.422-.14,7.051-.133,2.63.1,4.419.094,7.051,0,2.63.058,4.422.062,7.055,0,3.711.007,6.87.036,10.577.127,3.708-.127,6.863-.049,10.577.016,1.763,0,1.763-.149,3.529-.149,2.63.078,4.412.136,7.048.123,1.763,0,1.763-.172,3.526-.172,3.717.055,6.866.227,10.577.023,2.643-.007,4.422.091,7.055.217,1.76,0,1.76-.253,3.526-.253s1.766.253,3.526.253,1.766-.153,3.529-.153,1.76.049,3.526.049a139.061,139.061,0,0,1,14.106.062c2.646-.062,4.415-.052,7.058.023,1.763,0,1.763-.114,3.529-.114s1.766.1,3.529.1c1.25,0,2.208.656,2.208,1.578C184.569,73.016,184.985,74.955,182.456,74.993Z" transform="translate(-37.174 -69.874)" fill="none" stroke="#2e3343" stroke-linecap="round" stroke-linejoin="round" stroke-width="0.368"/>
		  <path id="Path_318" data-name="Path 318" d="M61.262,71.348c-.4,1.286-.679,1.237-1.081,2.526s-.175,1.325-.578,2.613a50.133,50.133,0,0,0-1.539,5.159c-.7,1.9-1.172,3.2-1.743,5.126-.4,1.286-.273,1.308-.675,2.594s-.627,1.25-1.029,2.536-.308,1.3-.711,2.591-.571,1.26-.974,2.545-.094,1.338-.5,2.623-.617,1.253-1.019,2.536c-.808,2.721-1.438,5.035-2.4,7.724-.4,1.289-.26,1.312-.662,2.6s-.669,1.24-1.071,2.526-.195,1.325-.6,2.61-.591,1.256-.993,2.542-.321,1.3-.724,2.587c-.925,2.7-1.542,5.016-2.282,7.743-.4,1.289-.636,1.25-1.039,2.536-.98,3.561-1.63,6.85-3.2,10.3" transform="translate(-38.452 -66.138)" fill="none" stroke="#2e3343" stroke-linecap="round" stroke-linejoin="round" stroke-width="0.368"/>
		  <path id="Path_319" data-name="Path 319" d="M62.574,71.342c.214,3.656.266,7.019.7,10.671.081,1.334-.133,1.341-.045,2.678s.13,1.334.214,2.665c.11,1.993.26,3.344.471,5.331.084,1.334-.058,1.338.026,2.675s.214,1.331.3,2.662-.068,1.341.016,2.675.208,1.331.292,2.662a36.361,36.361,0,0,1,.36,5.341c.143,1.993.26,3.341.409,5.334a36.717,36.717,0,0,0,.334,5.337c.084,1.338-.208,1.344-.123,2.682s.221,1.328.305,2.662.218,1.331.3,2.665-.133,1.341-.049,2.675.312,1.328.4,2.662c.075,2,.026,3.35.045,5.35.12,2,.338,3.344.623,5.334" transform="translate(22.667 -66.154)" fill="none" stroke="#2e3343" stroke-linecap="round" stroke-linejoin="round" stroke-width="0.368"/>
		  <path id="Path_320" data-name="Path 320" d="M74.367,71.338c.88,3.581,2.35,6.724,2.993,10.334.4,1.286.682,1.237,1.088,2.526a39.2,39.2,0,0,0,1.636,5.142c.4,1.289.169,1.328.571,2.613s.588,1.253.987,2.542.266,1.308.666,2.6.588,1.253.99,2.542.243,1.315.646,2.6.526,1.263.929,2.552.243,1.315.643,2.6.568,1.26.967,2.549c.523,1.935.812,3.256,1.36,5.188.659,1.915,1.191,3.195,1.883,5.1.4,1.289.166,1.328.571,2.613s.51,1.269.912,2.555.247,1.315.649,2.6.568,1.26.974,2.549.305,1.305.708,2.591.662,1.243,1.065,2.532.221,1.318.623,2.6c.591,1.932.971,3.23,1.558,5.162" transform="translate(52.546 -66.163)" fill="none" stroke="#2e3343" stroke-linecap="round" stroke-linejoin="round" stroke-width="0.368"/>
		</g>
	  </g>
	</g>
  </svg>
  