<svg xmlns="http://www.w3.org/2000/svg"  viewBox="0 0 40 40" width="40px" height="40px"><path fill="none" stroke="#4788c7" stroke-miterlimit="10" d="M35 16L20 20M30 35L20 20 23 5M5 16L20 20 12 35"/><path fill="#98ccfd" d="M20 15.5A4.5 4.5 0 1 0 20 24.5A4.5 4.5 0 1 0 20 15.5Z"/><path fill="#4788c7" d="M20,16c2.206,0,4,1.794,4,4s-1.794,4-4,4s-4-1.794-4-4S17.794,16,20,16 M20,15 c-2.761,0-5,2.239-5,5s2.239,5,5,5s5-2.239,5-5S22.761,15,20,15L20,15z"/><path fill="#dff0fe" d="M23 1.5A3.5 3.5 0 1 0 23 8.5A3.5 3.5 0 1 0 23 1.5Z"/><path fill="#4788c7" d="M23,2c1.654,0,3,1.346,3,3s-1.346,3-3,3s-3-1.346-3-3S21.346,2,23,2 M23,1c-2.209,0-4,1.791-4,4 s1.791,4,4,4s4-1.791,4-4S25.209,1,23,1L23,1z"/><path fill="#dff0fe" d="M35 12.5A3.5 3.5 0 1 0 35 19.5A3.5 3.5 0 1 0 35 12.5Z"/><path fill="#4788c7" d="M35,13c1.654,0,3,1.346,3,3s-1.346,3-3,3s-3-1.346-3-3S33.346,13,35,13 M35,12 c-2.209,0-4,1.791-4,4s1.791,4,4,4s4-1.791,4-4S37.209,12,35,12L35,12z"/><g><path fill="#dff0fe" d="M30 31.5A3.5 3.5 0 1 0 30 38.5A3.5 3.5 0 1 0 30 31.5Z"/><path fill="#4788c7" d="M30,32c1.654,0,3,1.346,3,3s-1.346,3-3,3s-3-1.346-3-3S28.346,32,30,32 M30,31 c-2.209,0-4,1.791-4,4s1.791,4,4,4s4-1.791,4-4S32.209,31,30,31L30,31z"/></g><g><path fill="#dff0fe" d="M12 31.5A3.5 3.5 0 1 0 12 38.5A3.5 3.5 0 1 0 12 31.5Z"/><path fill="#4788c7" d="M12,32c1.654,0,3,1.346,3,3s-1.346,3-3,3s-3-1.346-3-3S10.346,32,12,32 M12,31 c-2.209,0-4,1.791-4,4s1.791,4,4,4s4-1.791,4-4S14.209,31,12,31L12,31z"/></g><g><path fill="#dff0fe" d="M5 12.5A3.5 3.5 0 1 0 5 19.5A3.5 3.5 0 1 0 5 12.5Z"/><path fill="#4788c7" d="M5,13c1.654,0,3,1.346,3,3s-1.346,3-3,3s-3-1.346-3-3S3.346,13,5,13 M5,12c-2.209,0-4,1.791-4,4 s1.791,4,4,4s4-1.791,4-4S7.209,12,5,12L5,12z"/></g></svg>