<?xml version="1.0" encoding="utf-8"?>
<!-- Generator: Adobe Illustrator 21.0.0, SVG Export Plug-In . SVG Version: 6.00 Build 0)  -->
<svg version="1.1" id="Layer_1" xmlns="http://www.w3.org/2000/svg" xmlns:xlink="http://www.w3.org/1999/xlink" x="0px" y="0px"
	 viewBox="0 0 600 400" style="enable-background:new 0 0 600 400;" xml:space="preserve">
<style type="text/css">
	.st0{fill:#263238;}
	.st1{fill:#E0E0E0;}
	.st2{fill:#B5DEFF;}
	.st3{fill:#FAFAFA;}
	.st4{fill:#455A64;}
	.st5{fill:#E5E5E5;}
	.st6{fill:#CCCCCC;}
	.st7{fill:#FFFFFF;}
	.st8{fill:none;stroke:#263238;stroke-linecap:round;stroke-linejoin:round;}
	.st9{fill:#B5DEFF;stroke:#263238;stroke-linecap:round;stroke-linejoin:round;}
	.st10{fill:#FFFFFF;stroke:#263238;stroke-linecap:round;stroke-linejoin:round;}
	.st11{fill:#808080;stroke:#263238;stroke-linecap:round;stroke-linejoin:round;}
</style>
<g id="freepik--Screen--inject-2">
	<rect x="273.1" y="59" class="st0" width="271.8" height="158.4"/>
	<path class="st1" d="M294.3,209.5c-0.1,0-0.3-32.4-0.3-72.3s0.1-72.4,0.3-72.4s0.3,32.4,0.3,72.3S294.5,209.5,294.3,209.5z"/>
	<path class="st1" d="M288.7,70.9c-3,0.3-6,0.3-9,0C282.7,70.5,285.8,70.5,288.7,70.9z"/>
	<path class="st1" d="M288.7,80.4c-3,0.3-6,0.3-9,0C282.7,80.1,285.8,80.1,288.7,80.4z"/>
	<path class="st1" d="M288.7,90c-3,0.3-6,0.3-9,0C282.7,89.6,285.8,89.6,288.7,90z"/>
	<path class="st1" d="M288.7,99.5c-3,0.3-6,0.3-9,0C282.7,99.1,285.8,99.1,288.7,99.5z"/>
	<path class="st1" d="M288.7,109c-3,0.3-6,0.3-9,0C282.7,108.7,285.8,108.7,288.7,109z"/>
	<path class="st1" d="M288.7,118.6c-3,0.3-6,0.3-9,0C282.7,118.2,285.8,118.2,288.7,118.6z"/>
	<path class="st1" d="M288.7,128.1c-3,0.3-6,0.3-9,0C282.7,127.7,285.8,127.7,288.7,128.1z"/>
	<path class="st1" d="M288.7,137.6c-3,0.3-6,0.3-9,0C282.7,137.3,285.8,137.3,288.7,137.6z"/>
	<path class="st1" d="M288.7,147.2c-3,0.3-6,0.3-9,0C282.7,146.8,285.8,146.8,288.7,147.2z"/>
	<path class="st1" d="M288.7,156.7c-3,0.3-6,0.3-9,0C282.7,156.3,285.8,156.3,288.7,156.7z"/>
	<path class="st1" d="M288.7,166.2c-3,0.3-6,0.3-9,0C282.7,165.9,285.8,165.9,288.7,166.2z"/>
	<path class="st1" d="M288.7,175.8c-3,0.3-6,0.3-9,0C282.7,175.4,285.8,175.4,288.7,175.8z"/>
	<path class="st1" d="M288.7,185.3c-3,0.3-6,0.3-9,0C282.7,184.9,285.8,184.9,288.7,185.3z"/>
	<path class="st1" d="M288.7,194.8c-3,0.3-6,0.3-9,0C282.7,194.5,285.8,194.5,288.7,194.8z"/>
	<path class="st1" d="M288.7,204.4c-3,0.3-6,0.3-9,0C282.7,204,285.8,204,288.7,204.4z"/>
	<path class="st2" d="M324.8,70.3c0,0.1-5.2,0.3-11.7,0.3s-11.7-0.1-11.7-0.3s5.2-0.3,11.7-0.3S324.8,70.2,324.8,70.3z"/>
	<path class="st2" d="M324.8,204.4c0,0.1-5.2,0.3-11.7,0.3s-11.7-0.1-11.7-0.3s5.2-0.3,11.7-0.3S324.8,204.2,324.8,204.4z"/>
	<path class="st2" d="M357.4,90c0,0.1-9.8,0.3-21.9,0.3s-21.9-0.1-21.9-0.3s9.8-0.3,21.9-0.3S357.4,89.8,357.4,90z"/>
	<path class="st1" d="M407.9,90c0,0.1-9.8,0.3-21.9,0.3s-21.9-0.1-21.9-0.3s9.8-0.3,21.9-0.3S407.9,89.8,407.9,90z"/>
	<path class="st1" d="M388.6,99.5c0,0.1-14.4,0.3-32.2,0.3s-32.2-0.1-32.2-0.3s14.4-0.3,32.2-0.3S388.6,99.3,388.6,99.5z"/>
	<path class="st1" d="M388.6,109c0,0.1-14.4,0.3-32.2,0.3s-32.2-0.1-32.2-0.3s14.4-0.3,32.2-0.3S388.6,108.9,388.6,109z"/>
	<path class="st1" d="M432.9,137.6c0,0.1-14.4,0.3-32.2,0.3s-32.2-0.1-32.2-0.3s14.4-0.3,32.2-0.3S432.9,137.5,432.9,137.6z"/>
	<path class="st1" d="M413.8,118.6c0,0.1-14.4,0.3-32.2,0.3s-32.2-0.1-32.2-0.3s14.4-0.3,32.2-0.3S413.8,118.4,413.8,118.6z"/>
	<path class="st1" d="M492.5,118.6c0,0.1-14.4,0.3-32.2,0.3s-32.2-0.1-32.2-0.3s14.4-0.3,32.2-0.3S492.5,118.4,492.5,118.6z"/>
	<path class="st3" d="M465.2,99.5c0,0.1-14.4,0.3-32.2,0.3s-32.2-0.1-32.2-0.3s14.4-0.3,32.2-0.3C450.7,99.2,465.2,99.3,465.2,99.5z
		"/>
	<path class="st3" d="M509.7,137.6c0,0.1-14.4,0.3-32.2,0.3s-32.2-0.1-32.2-0.3s14.4-0.3,32.2-0.3S509.7,137.5,509.7,137.6z"/>
	<path class="st4" d="M500.8,109c0,0.1-22.4,0.3-50,0.3s-50-0.1-50-0.3s22.4-0.3,50-0.3S500.8,108.9,500.8,109z"/>
	<path class="st3" d="M324.8,80.4c0,0.1-5.2,0.3-11.7,0.3s-11.7-0.1-11.7-0.3s5.2-0.3,11.7-0.3S324.8,80.3,324.8,80.4z"/>
	<path class="st3" d="M324.8,194.8c0,0.1-5.2,0.3-11.7,0.3s-11.7-0.1-11.7-0.3s5.2-0.3,11.7-0.3S324.8,194.7,324.8,194.8z"/>
	<path class="st3" d="M336.4,118.6c0,0.1-5.2,0.3-11.7,0.3s-11.7-0.1-11.7-0.3s5.2-0.3,11.7-0.3S336.4,118.4,336.4,118.6z"/>
	<path class="st2" d="M523.7,118.6c0,0.1-5.2,0.3-11.7,0.3c-6.5,0-11.7-0.1-11.7-0.3s5.2-0.3,11.7-0.3
		C518.4,118.3,523.7,118.4,523.7,118.6z"/>
	<path class="st2" d="M357.4,156.6c0,0.1-9.8,0.3-21.9,0.3s-21.9-0.1-21.9-0.3s9.8-0.3,21.9-0.3S357.4,156.5,357.4,156.6z"/>
	<path class="st1" d="M407.9,156.6c0,0.1-9.8,0.3-21.9,0.3s-21.9-0.1-21.9-0.3s9.8-0.3,21.9-0.3S407.9,156.5,407.9,156.6z"/>
	<path class="st1" d="M388.6,166.2c0,0.1-14.4,0.3-32.2,0.3s-32.2-0.1-32.2-0.3s14.4-0.3,32.2-0.3S388.6,166,388.6,166.2z"/>
	<path class="st1" d="M388.6,175.7c0,0.1-14.4,0.3-32.2,0.3s-32.2-0.1-32.2-0.3s14.4-0.3,32.2-0.3S388.6,175.6,388.6,175.7z"/>
	<path class="st1" d="M413.8,185.2c0,0.1-14.4,0.3-32.2,0.3s-32.2-0.1-32.2-0.3s14.4-0.3,32.2-0.3S413.8,185.1,413.8,185.2z"/>
	<path class="st1" d="M492.5,185.2c0,0.1-14.4,0.3-32.2,0.3s-32.2-0.1-32.2-0.3s14.4-0.3,32.2-0.3S492.5,185.1,492.5,185.2z"/>
	<path class="st3" d="M465.2,166.2c0,0.1-14.4,0.3-32.2,0.3s-32.2-0.1-32.2-0.3s14.4-0.3,32.2-0.3
		C450.7,165.9,465.2,166,465.2,166.2z"/>
	<path class="st4" d="M500.8,175.7c0,0.1-22.4,0.3-50,0.3s-50-0.1-50-0.3s22.4-0.3,50-0.3S500.8,175.6,500.8,175.7z"/>
	<path class="st3" d="M336.4,185.2c0,0.1-5.2,0.3-11.7,0.3s-11.7-0.1-11.7-0.3s5.2-0.3,11.7-0.3S336.4,185.1,336.4,185.2z"/>
	<path class="st2" d="M523.7,185.2c0,0.1-5.2,0.3-11.7,0.3c-6.5,0-11.7-0.1-11.7-0.3s5.2-0.3,11.7-0.3
		C518.4,185,523.7,185.1,523.7,185.2z"/>
</g>
<g>
	<path class="st5" d="M58.8,101.9h167.9c1.5,0,2.6,1.2,2.6,2.6c0,0,0,0,0,0v167l0,0H56.2l0,0v-167C56.2,103.1,57.4,101.9,58.8,101.9
		z"/>
	<path class="st6" d="M85.9,158.6c0,2.5-2,4.5-4.5,4.5c-2.5,0-4.5-2-4.5-4.5c0-2.5,2-4.5,4.5-4.5c0,0,0,0,0,0
		C83.9,154.1,85.9,156.1,85.9,158.6z"/>
	<path class="st7" d="M229.4,120.8L207,142.4c-3.3-0.3-6.6-0.2-9.9,0.1c-0.3,0-0.6-0.1-0.8-0.3c-4.2-3.3-8.1-27.3-9.8-40.3h-1.2
		c1.3,10.3,5.3,37.3,10.3,41.2c0.5,0.4,1.1,0.6,1.7,0.6c2.8-0.3,5.7-0.4,8.5-0.2l-18.1,17.4L162.1,142c-2.6-2-6.3-1.6-8.6,0.7
		c-2.7,2.9-4.8,5.2-6.2,6.9c-1.8,2.3-4.7,5.8-7.8,9.7l-9.5-7.6l0,0c5.6-7.4,10.5-13.8,13.4-17.2c5.8-6.7,19.4-23.7,26.5-32.6h-1.6
		c-7.2,9.1-20.2,25.3-25.8,31.8c-2.9,3.3-7.7,9.8-13.4,17.2l-12.9-10.4c0.2-0.3,0.1-0.6-0.2-0.8c-0.2-0.1-0.5-0.1-0.7,0.1
		l-12.7-10.2c-0.2-0.2-0.6-0.2-0.9,0c-0.2,0.2-0.2,0.6,0,0.9c0,0,0.1,0.1,0.1,0.1l12.7,10.2c-1.8,2.3-6.9,8.9-10.5,13.8l-34-26.2
		c-0.3-0.2-0.7-0.1-0.9,0.2c-0.2,0.3-0.1,0.6,0.1,0.8l34,26.2c-0.7,1-1.4,1.9-1.9,2.7c-4,5.8-9.4,11.4-18.9,8.3
		c-9.7-3.1-11-10.2-11-10.5c0-0.1-0.1-0.3-0.2-0.4l-8.8-7.6c0.6-4.7,1.4-11.3,2.2-20.7c0.9-9.9,1.6-19.7,1.9-25.6h-1.2
		c-1,14.9-2.5,33.4-4.1,45.3l-4.6-3.9v1.6l4.4,3.8c-0.8,5.8-1.6,9.7-2.4,10.2c-0.7,0.3-1.4,0.7-2,1.2v1.5c0.8-0.6,1.6-1.1,2.5-1.5
		c0.5-0.2,1.5-0.6,3-10.4l8,6.9c0.3,1.4,2.2,8.2,11.8,11.3c1.8,0.6,3.6,0.9,5.4,0.9c7,0,11.6-5,14.8-9.7c0.5-0.7,1.2-1.7,1.9-2.7
		l13.1,10.1c-7,9-13.9,17.4-18.8,22c-5.8,5.4-13,11.6-18.9,16.6c-8.3-5.4-16.1-11.3-16.1-11.4h0l0,0l-6.7-3.6v1.4l4.7,2.6
		c-1.1,0.3-2.8,0.7-4.7,1.1v1.1c3-0.6,5.4-1.2,6.2-1.5c1.4,1,8.3,6.2,15.7,11.1c-5.6,4.7-9.7,8.1-9.8,8.2c-0.2,0.2-0.3,0.6-0.1,0.9
		c0.2,0.2,0.6,0.3,0.9,0.1c0.1-0.1,4.4-3.6,10.1-8.4c1.7,1.1,3.4,2.2,5.1,3.2l3.9,2.3c3.3,2,7.4,4.4,11.4,6.9l-11.7,12.7
		c-0.2,0.2-0.2,0.4-0.1,0.6c0.1,0.2,0.3,0.4,0.5,0.4c0.1,0,10.8,0.9,19.5,13.2c7.6,10.7,14.8,19.6,27.5,25.7h3
		c-14-6-21.5-15.2-29.4-26.4c-7.4-10.4-16.1-13-19.2-13.6l11.1-12c8,5.1,15.6,10.6,16.5,14.2c1.3,5.2,7.7,11.7,10.7,14.8
		c0.8,0.8,1.5,1.5,1.6,1.7c0.9,1.3,6.5,4.5,7.5,5.1l0.1,0.1c1.1,0.3,7.8,2.1,13.2,2.1c2.8,0,5.2-0.5,6.2-2c1.7-2.4,6.5-6.1,10.3-9.2
		c2.7-2.2,5.1-4,6-5.1c0.2-0.3,1.3-1.3,3.1-2.9l4.6,4.6l-34.8,28.5h1.9l33.7-27.6l6,6l-24.3,21.6h1.8l23.8-21.1
		c0.2-0.2,0.3-0.6,0-0.9c0,0,0,0,0,0l-6.4-6.4l29.2-23.9l9.9,8l-36.7,32.6c-1.7,1.5-1.9,4.2-0.3,5.9c0.8,0.9,1.9,1.4,3.1,1.4
		c1,0,1.9-0.3,2.6-0.9l38.3-33.4l0.5,0.4v-2.5l-0.6,0.5l-5.1-4.1l5.7-5v-1.6l-6.6,5.9l-9.9-8l16.4-13.5v-1.5l-17.5,14.3l-6.2-5
		c8.2-7.2,16.7-14.5,23.7-20.6v-1.6c-4.9,4.3-14.6,12.7-24.7,21.5l-12.3-9.9c10.8-10.6,25.3-25,27.6-27.9c3.9-4.7,5.4-18.5,1.7-25.1
		c-2.2-4-7.7-5.7-13.2-6.4l20.8-20L229.4,120.8z M222.8,227.9l5.1,4.1l-38.2,33.2c-1.2,1.1-3.1,0.9-4.2-0.4
		c-1.1-1.2-0.9-3.1,0.4-4.2l0,0L222.8,227.9z M148.3,150.4c1.3-1.7,3.4-4,6.1-6.8c1.8-1.9,4.8-2.2,7-0.6l25.4,18.8l-20.2,19.4
		l-26.1-21.1C144.8,154.8,148.2,150.5,148.3,150.4L148.3,150.4z M129.3,152.7l9.4,7.6c-3.6,4.4-7.5,9-10.7,12.8l-9-6.9
		C122.5,161.6,126,157,129.3,152.7z M104.9,155.3c3.6-4.9,8.7-11.4,10.5-13.8l12.9,10.4c-3.3,4.3-6.8,9-10.3,13.5L104.9,155.3z
		 M99.3,189.2c4.9-4.5,11.8-13,18.9-22.1l9,6.9c-3,3.5-5.4,6-6.2,6.5c-2.2,1.2-19.1,9.6-26.9,13.5C95.9,192.4,97.7,190.7,99.3,189.2
		L99.3,189.2z M100.8,217.9c-4-2.5-8.1-4.9-11.6-7c-1.4-0.8-2.7-1.6-3.8-2.3c-1.6-0.9-3.2-1.9-4.7-3c3.1-2.6,6.6-5.6,10-8.6l0,0
		c1.1-0.6,28.2-13.9,31-15.5c0.9-0.5,3.4-3.2,6.6-6.9h0c0.2,0,0.4-0.1,0.5-0.2c0.1-0.1,0.1-0.3,0.1-0.5c3.4-3.9,7.3-8.7,10.8-12.9
		l26,20.9l-13.4,12.9l0,0h0l-20.8,25.6l-18.7-14.7c-0.3-0.2-0.6-0.2-0.8,0.1L100.8,217.9z M155.9,254.9c-2.1,3-13.7,0.6-18-0.6
		c-2.5-1.4-6.5-3.9-7.1-4.7c-0.5-0.7-1.1-1.3-1.8-1.9c-3-3-9.2-9.3-10.4-14.2c-1-4-8.6-9.6-16.8-14.9l10.6-11.5l18.7,14.7
		c0.3,0.2,0.6,0.2,0.9-0.1l20.3-25l6.3,55.1C157.6,252.8,156.7,253.8,155.9,254.9L155.9,254.9z M175.8,237.2c-2,1.8-3.3,3-3.6,3.4
		c-0.8,0.9-3.2,2.9-5.8,4.9c-2.3,1.8-4.7,3.7-6.7,5.5l-6.3-55.4l13.3-12.8l23.9,19.2c-6.1,6-10.8,10.6-11,10.8
		c-0.1,0.1-0.2,0.2-0.2,0.3L175.8,237.2z M204.7,213.4l6.2,5l-29.1,23.9l-4.6-4.6C182.8,232.6,193.5,223.2,204.7,213.4L204.7,213.4z
		 M203.8,212.6c-10.2,8.9-20.5,18-26.5,23.3l3.4-22.4c1-0.9,5.4-5.3,10.9-10.7L203.8,212.6z M191.5,201.1l-23.9-19.3l20.2-19.4
		l24.4,18.1C206.4,186.4,198.2,194.5,191.5,201.1L191.5,201.1z M220.7,149.5c3.4,6.1,2,19.4-1.6,23.8c-0.8,0.9-3,3.3-6.1,6.4
		l-24.4-18.1l18.8-18C213.1,144.2,218.7,145.9,220.7,149.5L220.7,149.5z"/>
	<rect x="126.2" y="251.9" class="st7" width="97.3" height="16.8"/>
	<rect x="132.7" y="259.9" class="st2" width="6.4" height="7.3"/>
	<rect x="141.6" y="259.8" class="st2" width="6.4" height="7.5"/>
	<rect x="150.4" y="258.1" class="st2" width="6.4" height="9.1"/>
	<rect x="159.2" y="262.4" class="st2" width="6.4" height="4.9"/>
	<rect x="168.1" y="257.5" class="st2" width="6.4" height="9.8"/>
	<rect x="176.9" y="260.4" class="st2" width="6.4" height="6.9"/>
	<rect x="185.8" y="263.6" class="st2" width="6.4" height="3.7"/>
	<rect x="194.6" y="261.8" class="st2" width="6.4" height="5.5"/>
	<rect x="203.4" y="263.3" class="st2" width="6.4" height="4"/>
	<rect x="212.3" y="257.5" class="st2" width="6.4" height="9.8"/>
	<path class="st6" d="M56.7,271.5h43.3c-3-1.4-7.4-3.7-8-4.5c-0.8-1.2-5.3-9-7.7-9.4c-2.5-0.4-3.3,2.4-3.3,2.4l5.3,8.6l-2-1.2
		c0,0-4.9-5.3-6.1-6.1c-1.2-0.8,0-4.1,0.4-6.5s3.2-4.1,4.1-6.1c0.8-2,0-8.2,0-10.2c0-2-3.7-8.2-6.1-13.1
		c-2.4-4.9-10.6-14.3-15.1-16.3c-1.5-0.6-3.1-1-4.7-1.2L56.7,271.5z"/>
	<polygon class="st6" points="158.4,150.4 151.9,158.6 160.1,169.2 175.2,161.4 	"/>
	<polygon class="st6" points="166.6,187.1 157.2,196.1 160.9,216.1 171.1,218.9 174.3,210.4 184.1,201 	"/>
	<path class="st8" d="M58.8,101.9h167.9c1.5,0,2.6,1.2,2.6,2.6c0,0,0,0,0,0v167l0,0H56.2l0,0v-167C56.2,103.1,57.4,101.9,58.8,101.9
		z"/>
	<path class="st9" d="M58.8,101.9h167.9c1.5,0,2.6,1.2,2.6,2.6c0,0,0,0,0,0v30l0,0H56.2l0,0v-30C56.2,103.1,57.4,101.9,58.8,101.9z"
		/>
	<rect x="67.5" y="122.3" class="st10" width="136.6" height="5.7"/>
	<path class="st11" d="M226.9,101.9H67.4v14.7h162v-12.2C229.4,103,228.3,101.9,226.9,101.9C226.9,101.9,226.9,101.9,226.9,101.9z"
		/>
	<circle class="st7" cx="222.3" cy="106.8" r="1.3"/>
	<circle class="st7" cx="216.9" cy="106.8" r="1.3"/>
	<circle class="st7" cx="211.5" cy="106.8" r="1.3"/>
	<circle class="st9" cx="173.4" cy="200" r="2.4"/>
	<circle class="st9" cx="99.8" cy="140.3" r="2.4"/>
	<path class="st9" d="M133.6,199.2c0,1.3-1.1,2.4-2.4,2.4c-1.3,0-2.4-1.1-2.4-2.4c0-1.3,1.1-2.4,2.4-2.4
		C132.5,196.8,133.6,197.9,133.6,199.2C133.6,199.2,133.6,199.2,133.6,199.2z"/>
	<circle class="st9" cx="80.6" cy="181.2" r="2.4"/>
	<path class="st9" d="M90.5,241.2c0,1.3-1.1,2.4-2.4,2.4c-1.3,0-2.4-1.1-2.4-2.4c0-1.3,1.1-2.4,2.4-2.4S90.5,239.9,90.5,241.2
		L90.5,241.2z"/>
	<circle class="st9" cx="201" cy="237.2" r="2.4"/>
	<circle class="st9" cx="213.2" cy="163.8" r="2.4"/>
	<circle class="st9" cx="200.4" cy="140.7" r="2.4"/>
	<path class="st9" d="M206.9,202.5c0,1.3-1.1,2.4-2.4,2.4c-1.3,0-2.4-1.1-2.4-2.4c0-1.3,1.1-2.4,2.4-2.4c0,0,0,0,0,0
		C205.8,200.1,206.9,201.2,206.9,202.5C206.9,202.5,206.9,202.5,206.9,202.5z"/>
	<circle class="st9" cx="141.2" cy="177.7" r="2.4"/>
</g>
<g id="freepik--Device--inject-2">
	<path class="st4" d="M178,147.6h297.4c3.7,0,6.7,3,6.7,6.7v185c0,8-6.5,14.6-14.6,14.6l0,0H184.8c-8,0-14.6-6.5-14.6-14.6v-184
		C170.2,151,173.7,147.6,178,147.6z"/>
	<path class="st4" d="M157.2,338.6h338l0,0v4.3c0,7.6-6.1,13.7-13.7,13.7l0,0H170.9c-7.6,0-13.7-6.1-13.7-13.7l0,0V338.6
		L157.2,338.6z"/>
	<rect x="178.6" y="155.8" class="st1" width="294.3" height="174.2"/>
	<polygon class="st0" points="295.4,338.6 299.6,345.3 358.6,345.3 362.5,338.6 	"/>
	<rect x="170.3" y="338.5" class="st0" width="311.9" height="1"/>
	<rect x="187.3" y="165.9" class="st0" width="277.6" height="164.1"/>
	<path class="st1" d="M208.6,325.2c-0.1,0-0.3-35-0.3-78.1s0.1-78.1,0.3-78.1s0.2,34.9,0.2,78.1S208.8,325.2,208.6,325.2z"/>
	<path class="st1" d="M203,183.2c-1.5,0.3-3,0.3-4.5,0.3c-1.5,0.1-3,0-4.5-0.3C197,182.8,200,182.8,203,183.2L203,183.2z"/>
	<path class="st1" d="M203.4,174.3c-1.5,0.3-3,0.3-4.5,0.3c-1.5,0.1-3,0-4.5-0.3C197.3,174,200.4,174,203.4,174.3L203.4,174.3z"/>
	<path class="st1" d="M203,192.7c-3,0.3-6,0.3-9,0C197,192.4,200,192.4,203,192.7z"/>
	<path class="st1" d="M203,202.3c-3,0.3-6,0.3-9,0c1.5-0.3,3-0.3,4.5-0.3C200,201.9,201.5,202,203,202.3z"/>
	<path class="st1" d="M203,211.8c-3,0.3-6,0.3-9,0c1.5-0.3,3-0.3,4.5-0.3C200,211.5,201.5,211.6,203,211.8z"/>
	<path class="st1" d="M203,221.4c-3,0.3-6,0.3-9,0c1.5-0.3,3-0.3,4.5-0.3C200,221,201.5,221.1,203,221.4z"/>
	<path class="st1" d="M203,230.9c-1.5,0.3-3,0.4-4.5,0.3c-1.5,0.1-3,0-4.5-0.3C197,230.6,200,230.6,203,230.9L203,230.9z"/>
	<path class="st1" d="M203,240.5c-1.5,0.3-3,0.3-4.5,0.3c-1.5,0.1-3,0-4.5-0.3C197,240.1,200,240.1,203,240.5L203,240.5z"/>
	<path class="st1" d="M203,250c-1.5,0.3-3,0.3-4.5,0.3c-1.5,0.1-3,0-4.5-0.3C197,249.7,200,249.7,203,250L203,250z"/>
	<path class="st1" d="M203,259.6c-1.5,0.3-3,0.3-4.5,0.3c-1.5,0.1-3,0-4.5-0.3C197,259.2,200,259.2,203,259.6L203,259.6z"/>
	<path class="st1" d="M203,269.1c-3,0.3-6,0.3-9,0C197,268.8,200,268.8,203,269.1z"/>
	<path class="st1" d="M203,278.7c-3,0.3-6,0.3-9,0c1.5-0.3,3-0.3,4.5-0.3C200,278.3,201.5,278.4,203,278.7z"/>
	<path class="st1" d="M203,288.2c-3,0.3-6,0.3-9,0c1.5-0.3,3-0.3,4.5-0.3C200,287.9,201.5,288,203,288.2z"/>
	<path class="st1" d="M203,297.8c-3,0.3-6,0.3-9,0c1.5-0.3,3-0.3,4.5-0.3C200,297.4,201.5,297.5,203,297.8z"/>
	<path class="st1" d="M203,307.3c-3,0.3-6,0.3-9,0c1.5-0.3,3-0.4,4.5-0.3C200,307,201.5,307.1,203,307.3z"/>
	<path class="st1" d="M203,316.9c-1.5,0.3-3,0.3-4.5,0.3c-1.5,0.1-3,0-4.5-0.3C197,316.5,200,316.5,203,316.9L203,316.9z"/>
	<path class="st2" d="M239.2,182.6c0,0.1-5.2,0.3-11.7,0.3s-11.7-0.1-11.7-0.3s5.2-0.3,11.7-0.3
		C233.9,182.4,239.2,182.5,239.2,182.6z"/>
	<path class="st2" d="M239.2,316.9c0,0.1-5.2,0.3-11.7,0.3s-11.7-0.1-11.7-0.3s5.2-0.3,11.7-0.3
		C233.9,316.6,239.2,316.7,239.2,316.9z"/>
	<path class="st2" d="M271.8,202.3c0,0.1-9.8,0.3-21.9,0.3s-21.9-0.1-21.9-0.3s9.8-0.3,21.9-0.3S271.8,202.1,271.8,202.3z"/>
	<path class="st1" d="M322.4,202.3c0,0.1-9.8,0.3-21.9,0.3s-21.9-0.1-21.9-0.3s9.8-0.3,21.9-0.3S322.4,202.1,322.4,202.3z"/>
	<path class="st1" d="M303,211.8c0,0.1-14.5,0.3-32.3,0.3s-32.3-0.1-32.3-0.3s14.4-0.3,32.3-0.3S303,211.7,303,211.8z"/>
	<path class="st1" d="M303,221.4c0,0.1-14.5,0.3-32.3,0.3s-32.3-0.1-32.3-0.3s14.4-0.3,32.3-0.3S303,221.2,303,221.4z"/>
	<path class="st1" d="M347.5,250c0,0.1-14.4,0.3-32.3,0.3s-32.3-0.1-32.3-0.3s14.5-0.3,32.3-0.3S347.5,249.9,347.5,250z"/>
	<path class="st1" d="M328.3,230.9c0,0.1-14.5,0.3-32.3,0.3s-32.3-0.1-32.3-0.3s14.4-0.3,32.3-0.3S328.3,230.8,328.3,230.9z"/>
	<path class="st1" d="M407.1,230.9c0,0.1-14.5,0.3-32.3,0.3s-32.3-0.1-32.3-0.3s14.5-0.3,32.3-0.3S407.1,230.8,407.1,230.9z"/>
	<path class="st3" d="M379.7,211.8c0,0.1-14.5,0.3-32.3,0.3s-32.3-0.1-32.3-0.3s14.4-0.3,32.3-0.3S379.7,211.7,379.7,211.8z"/>
	<path class="st3" d="M424.3,250c0,0.1-14.5,0.3-32.3,0.3s-32.3-0.1-32.3-0.3s14.5-0.3,32.3-0.3S424.3,249.9,424.3,250z"/>
	<path class="st4" d="M415.4,221.4c0,0.1-22.4,0.3-50.1,0.3s-50.1-0.1-50.1-0.3s22.4-0.3,50.1-0.3S415.4,221.2,415.4,221.4z"/>
	<path class="st3" d="M239.2,192.7c0,0.1-5.2,0.3-11.7,0.3s-11.7-0.1-11.7-0.3s5.2-0.3,11.7-0.3
		C233.9,192.5,239.2,192.6,239.2,192.7z"/>
	<path class="st3" d="M239.2,307.3c0,0.1-5.2,0.3-11.7,0.3s-11.7-0.1-11.7-0.3s5.2-0.3,11.7-0.3
		C233.9,307.1,239.2,307.2,239.2,307.3z"/>
	<path class="st3" d="M250.8,230.9c0,0.1-5.2,0.3-11.7,0.3s-11.7-0.1-11.7-0.3s5.2-0.3,11.7-0.3S250.8,230.8,250.8,230.9z"/>
	<path class="st2" d="M438.3,230.9c0,0.1-5.2,0.3-11.7,0.3s-11.7-0.1-11.7-0.3s5.2-0.3,11.7-0.3S438.3,230.8,438.3,230.9z"/>
	<path class="st2" d="M271.8,269.1c0,0.1-9.8,0.3-21.9,0.3s-21.9-0.1-21.9-0.3s9.8-0.3,21.9-0.3S271.8,268.9,271.8,269.1z"/>
	<path class="st1" d="M322.4,269.1c0,0.1-9.8,0.3-21.9,0.3s-21.9-0.1-21.9-0.3s9.8-0.3,21.9-0.3S322.4,268.9,322.4,269.1z"/>
	<path class="st1" d="M303,278.6c0,0.1-14.5,0.3-32.3,0.3s-32.3-0.1-32.3-0.3s14.4-0.3,32.3-0.3S303,278.5,303,278.6z"/>
	<path class="st1" d="M303,288.2c0,0.1-14.5,0.3-32.3,0.3s-32.3-0.1-32.3-0.3s14.4-0.3,32.3-0.3S303,288,303,288.2z"/>
	<path class="st1" d="M328.3,297.7c0,0.1-14.5,0.3-32.3,0.3s-32.3-0.1-32.3-0.3s14.4-0.3,32.3-0.3S328.3,297.6,328.3,297.7z"/>
	<path class="st1" d="M407.1,297.7c0,0.1-14.5,0.3-32.3,0.3s-32.3-0.1-32.3-0.3s14.5-0.3,32.3-0.3S407.1,297.6,407.1,297.7z"/>
	<path class="st3" d="M379.7,278.6c0,0.1-14.5,0.3-32.3,0.3s-32.3-0.1-32.3-0.3s14.4-0.3,32.3-0.3S379.7,278.5,379.7,278.6z"/>
	<path class="st4" d="M415.4,288.2c0,0.1-22.4,0.3-50.1,0.3s-50.1-0.1-50.1-0.3s22.4-0.3,50.1-0.3S415.4,288,415.4,288.2z"/>
	<path class="st3" d="M250.8,297.7c0,0.1-5.2,0.3-11.7,0.3s-11.7-0.1-11.7-0.3s5.2-0.3,11.7-0.3S250.8,297.6,250.8,297.7z"/>
	<path class="st2" d="M438.3,297.7c0,0.1-5.2,0.3-11.7,0.3s-11.7-0.1-11.7-0.3s5.2-0.3,11.7-0.3S438.3,297.6,438.3,297.7z"/>
</g>
</svg>
