<svg xmlns="http://www.w3.org/2000/svg" xmlns:xlink="http://www.w3.org/1999/xlink" width="147" height="185" viewBox="0 0 147 185">
	<defs>
	  <linearGradient id="linear-gradient" x1="0.5" x2="0.5" y2="1" gradientUnits="objectBoundingBox">
		<stop offset="0" stop-color="#052c39"/>
		<stop offset="0.394" stop-color="#052c39"/>
		<stop offset="1" stop-color="#01c27c"/>
	  </linearGradient>
	  <clipPath id="clip-path">
		<rect id="fabio-oyXis2kALVg-unsplash" width="147" height="185" rx="9" transform="translate(423 4017)" fill="url(#linear-gradient)"/>
	  </clipPath>
	</defs>
	<g id="Mask_Group_1" data-name="Mask Group 1" transform="translate(-423 -4017)" clip-path="url(#clip-path)">
	  <g id="video-chat-screen-showing-person_s-portrait" data-name="video-chat-screen-showing-person&apos;s-portrait" transform="translate(354.321 3971.719)">
		<rect id="Rectangle_40" data-name="Rectangle 40" width="374.357" height="299.562" fill="#01c27c"/>
		<g id="Group_61" data-name="Group 61" transform="translate(70.204 58.611)">
		  <path id="Path_173" data-name="Path 173" d="M251.9,79.338c-.955-1.93-1.97-3.842-3.06-5.674-19.963-34.23-55.969-51.385-94.45-54.1-8.421-.6-16.841-.1-25.264-.1-43.411,0-70.452,27.546-75.4,32.848C42.611,64.307,32.864,77.854,29.237,93.276a59.769,59.769,0,0,0-.505,25.751c2.925,14.738,14.23,28.968,23.842,40.042,13,15.009,28.91,28.461,47.623,35.594,45.791,17.429,114.392,9.144,146.322-31.287a71.154,71.154,0,0,0,7.681-11.989C265.45,129.106,262.972,101.795,251.9,79.338Z" transform="translate(-27.567 -19.271)" fill="#d1eaf2"/>
		</g>
		<g id="Group_62" data-name="Group 62" transform="translate(123.274 105.257)">
		  <path id="Path_174" data-name="Path 174" d="M52.526,138.3c1.547,0,1.547-.124,3.124-.124,1.544,0,1.544.154,3.121.154,3.273,0,6.062.187,9.336.063,7.335-.281,14.457.03,21.792-.187,1.547,0,1.547.248,3.121.248,1.547,0,1.547-.061,3.124-.061s1.544.03,3.121.03c1.547,0,1.547-.187,3.121-.187,4.275-.061,8.184.187,12.459.094,1.544,0,1.544-.154,3.121-.154,2.333.154,3.91.218,6.214.185,3.273-.185,6.06.033,9.336-.091,3.273.185,6.06.061,9.333.185,3.276-.03,6.062-.248,9.336,0,1.547,0,1.547-.248,3.124-.248,1.544,0,1.544.218,3.121.218,2.335,0,3.91-.124,6.214-.218,2.333,0,3.91.094,6.212.248,2.335,0,3.91-.124,6.214-.248,2.333.094,3.91.124,6.214.094,2.333.061,3.91-.03,6.242-.157,2.335,0,3.91.126,6.245.281,1.547,0,1.547-.281,3.121-.281a3.372,3.372,0,0,0,3.788-3.882c0-1.584.243-1.584.243-3.2,0-1.584-.182-1.584-.182-3.2,0-1.584.122-1.584.122-3.2,0-1.584-.152-1.584-.152-3.2v-3.2c0-1.584.213-1.584.213-3.2,0-1.584-.243-1.584-.243-3.2,0-1.584.182-1.584.182-3.2.122-3.355-.122-6.212-.213-9.567,0-1.584.274-1.584.274-3.2a62.754,62.754,0,0,1,.03-9.565,63.57,63.57,0,0,1-.122-6.369,63.451,63.451,0,0,0-.03-6.366c0-1.584.122-1.584.122-3.2a91.258,91.258,0,0,1-.03-9.567c0-1.584-.183-1.584-.183-3.2,0-1.584.213-1.584.213-3.2a77.309,77.309,0,0,0-.243-9.567c0-2.2.636-4.317-1.09-5.962-1.577-1.71-3.727-1.088-5.819-1.242-4.275,0-8.184.061-12.457-.157-3.273.218-6.062.218-9.336.218-4.275-.342-8.184-.094-12.459-.154-3.273.278-6.062.124-9.336.154a85.106,85.106,0,0,0-9.336,0c-4.272-.311-8.182-.061-12.457-.094-2.333.063-3.91.094-6.212.033a59.055,59.055,0,0,1-6.214-.126c-1.547,0-1.547.218-3.121.218-1.547,0-1.547-.248-3.124-.248-2.333.03-3.91.124-6.212.187-3.273-.03-6.062-.218-9.336.03-1.547,0-1.547-.218-3.124-.218-1.544,0-1.544.218-3.121.218-1.547,0-1.547-.248-3.121-.248-1.547,0-1.547.248-3.124.248a85.132,85.132,0,0,0-9.333-.218c-1.547,0-1.547.094-3.124.094-1.544,0-1.544-.187-3.121-.187-2.335.094-3.879.124-6.245.033-1.544,0-1.544.091-3.121.091-1.547,0-1.547.157-3.121.157-2.153.124-4.275-.559-5.941.962-1.455,1.708-.88,3.975-1,6.088a63.275,63.275,0,0,1-.213,6.366c0,1.584.213,1.584.213,3.2,0,1.584-.213,1.584-.213,3.2,0,1.584.091,1.584.091,3.2,0,1.584-.15,1.584-.15,3.2,0,1.584.3,1.584.3,3.2,0,1.584-.213,1.584-.213,3.2,0,1.584.03,1.584.03,3.2,0,1.584.152,1.584.152,3.2,0,1.584-.122,1.584-.122,3.2,0,1.584-.061,1.584-.061,3.2,0,1.584.274,1.584.274,3.2-.091,2.394-.213,4.008-.3,6.369.365,7.515-.15,14.815.091,22.33.061,2.391.091,4.006,0,6.366.061,2.391.122,4.008.061,6.369.061,2.391.091,4.006.03,6.4A3.947,3.947,0,0,0,52.526,138.3Z" transform="translate(-48.406 -37.419)" fill="#f5f3f1"/>
		  <path id="Path_175" data-name="Path 175" d="M78.95,98.2c1.607,0,1.607.248,3.182.248,1.607,0,1.607-.185,3.184-.185a62.014,62.014,0,0,0,9.576-.03c2.4.091,4,.091,6.4,0,4.364.215,8.395-.094,12.759.154,2.4-.154,4-.248,6.4-.218,2.394-.03,4,.094,6.395.248,1.607,0,1.607-.248,3.182-.248,1.607,0,1.607.154,3.182.154,1.607,0,1.607-.124,3.184-.124,1.605,0,1.605.187,3.182.187,2.394-.094,4-.187,6.394-.187A3.733,3.733,0,0,0,150,94.254c0-1.584-.211-1.584-.211-3.168s.03-1.584.03-3.168c.332-4.347-.091-8.353-.061-12.7.363-6.43-.03-12.609.061-19.038.089-2.361.15-3.975.15-6.336-.18-3.355.4-7.05-4.031-7.176a116.627,116.627,0,0,0-12.759.063c-4.366-.311-8.4.278-12.761-.187-2.4,0-4,.124-6.4.25-2.394-.126-4-.218-6.394-.218-2.394.03-4,.03-6.394-.033-1.607,0-1.607.218-3.184.218S96.44,42.6,94.863,42.6c-1.605,0-1.605.187-3.182.187-1.607,0-1.607-.25-3.182-.25-2.4.033-4,.124-6.4.187-2.241-.063-4.242-.838-5.941,1.149-1.727,1.614-1.212,3.821-1.242,5.994,0,1.584.122,1.584.122,3.168-.424,5.374.122,10.468-.03,15.87a55.04,55.04,0,0,0,.03,6.336c-.363,3.325,0,6.182.03,9.537,0,1.584-.243,1.584-.243,3.168v3.168c0,1.584.213,1.584.213,3.168A3.944,3.944,0,0,0,78.95,98.2Z" transform="translate(-7.542 -29.528)" fill="#eae7dc"/>
		  <path id="Path_176" data-name="Path 176" d="M52.526,138.3c1.547,0,1.547-.124,3.124-.124,1.544,0,1.544.154,3.121.154,3.273,0,6.062.187,9.336.063,7.335-.281,14.457.03,21.792-.187,1.547,0,1.547.248,3.121.248,1.547,0,1.547-.061,3.124-.061s1.544.03,3.121.03c1.547,0,1.547-.187,3.121-.187,4.275-.061,8.184.187,12.459.094,1.544,0,1.544-.154,3.121-.154,2.333.154,3.91.218,6.214.185,3.273-.185,6.06.033,9.336-.091,3.273.185,6.06.061,9.333.185,3.276-.03,6.062-.248,9.336,0,1.547,0,1.547-.248,3.124-.248,1.544,0,1.544.218,3.121.218,2.335,0,3.91-.124,6.214-.218,2.333,0,3.91.094,6.212.248,2.335,0,3.91-.124,6.214-.248,2.333.094,3.91.124,6.214.094,2.333.061,3.91-.03,6.242-.157,2.335,0,3.91.126,6.245.281,1.547,0,1.547-.281,3.121-.281a3.372,3.372,0,0,0,3.788-3.882c0-1.584.243-1.584.243-3.2,0-1.584-.182-1.584-.182-3.2,0-1.584.122-1.584.122-3.2,0-1.584-.152-1.584-.152-3.2v-3.2c0-1.584.213-1.584.213-3.2,0-1.584-.243-1.584-.243-3.2,0-1.584.182-1.584.182-3.2.122-3.355-.122-6.212-.213-9.567,0-1.584.274-1.584.274-3.2a62.754,62.754,0,0,1,.03-9.565,63.57,63.57,0,0,1-.122-6.369,63.451,63.451,0,0,0-.03-6.366c0-1.584.122-1.584.122-3.2a91.258,91.258,0,0,1-.03-9.567c0-1.584-.183-1.584-.183-3.2,0-1.584.213-1.584.213-3.2a77.309,77.309,0,0,0-.243-9.567c0-2.2.636-4.317-1.09-5.962-1.577-1.71-3.727-1.088-5.819-1.242-4.275,0-8.184.061-12.457-.157-3.273.218-6.062.218-9.336.218-4.275-.342-8.184-.094-12.459-.154-3.273.278-6.062.124-9.336.154a85.106,85.106,0,0,0-9.336,0c-4.272-.311-8.182-.061-12.457-.094-2.333.063-3.91.094-6.212.033a59.055,59.055,0,0,1-6.214-.126c-1.547,0-1.547.218-3.121.218-1.547,0-1.547-.248-3.124-.248-2.333.03-3.91.124-6.212.187-3.273-.03-6.062-.218-9.336.03-1.547,0-1.547-.218-3.124-.218-1.544,0-1.544.218-3.121.218-1.547,0-1.547-.248-3.121-.248-1.547,0-1.547.248-3.124.248a85.132,85.132,0,0,0-9.333-.218c-1.547,0-1.547.094-3.124.094-1.544,0-1.544-.187-3.121-.187-2.335.094-3.879.124-6.245.033-1.544,0-1.544.091-3.121.091-1.547,0-1.547.157-3.121.157-2.153.124-4.275-.559-5.941.962-1.455,1.708-.88,3.975-1,6.088a63.275,63.275,0,0,1-.213,6.366c0,1.584.213,1.584.213,3.2,0,1.584-.213,1.584-.213,3.2,0,1.584.091,1.584.091,3.2,0,1.584-.15,1.584-.15,3.2,0,1.584.3,1.584.3,3.2,0,1.584-.213,1.584-.213,3.2,0,1.584.03,1.584.03,3.2,0,1.584.152,1.584.152,3.2,0,1.584-.122,1.584-.122,3.2,0,1.584-.061,1.584-.061,3.2,0,1.584.274,1.584.274,3.2-.091,2.394-.213,4.008-.3,6.369.365,7.515-.15,14.815.091,22.33.061,2.391.091,4.006,0,6.366.061,2.391.122,4.008.061,6.369.061,2.391.091,4.006.03,6.4A3.947,3.947,0,0,0,52.526,138.3Z" transform="translate(-48.406 -37.419)" fill="none" stroke="#2e3343" stroke-linecap="round" stroke-linejoin="round" stroke-width="0.368"/>
		  <path id="Path_177" data-name="Path 177" d="M48.477,73.99c3.3,0,6.123.187,9.427.124,1.577,0,1.577-.218,3.152-.218s1.577.281,3.154.281c2.333-.063,3.94-.063,6.3,0,1.577,0,1.577-.248,3.152-.248a60.907,60.907,0,0,0,6.306.03c3.3.124,6.123,0,9.427,0,3.3.061,6.123.248,9.427.218,1.575,0,1.575-.248,3.152-.248s1.575.124,3.152.124c3.3.124,6.123-.033,9.427.154,1.575,0,1.575-.03,3.152-.03s1.577-.248,3.152-.248,1.577-.033,3.154-.033c2.333.157,3.94.281,6.3.281,1.577,0,1.577-.218,3.152-.218,2.365,0,3.94.124,6.306.218,3.3-.124,6.123-.218,9.427-.157s6.123-.091,9.427-.03c3.3.187,6.121,0,9.455-.094,1.577,0,1.577.218,3.154.218s1.575-.061,3.152-.061c5.335-.374,10.4.061,15.73,0,2.365-.033,3.94-.033,6.306.061,1.575,0,1.575-.124,3.152-.124s1.577.187,3.152.187" transform="translate(-48.297 19)" fill="none" stroke="#2e3343" stroke-linecap="round" stroke-linejoin="round" stroke-width="0.368"/>
		</g>
		<g id="Group_63" data-name="Group 63" transform="translate(85.223 83.434)">
		  <path id="Path_178" data-name="Path 178" d="M110.76,89.11a53.179,53.179,0,0,0-5.826,0c-3.06-.11-5.669.028-8.732-.021-2.171,0-3.65-.066-5.821-.124-3.063.143-5.667.054-8.734-.021-1.455,0-1.455.166-2.911.166-2.174-.082-3.648-.152-5.824-.138-1.458,0-1.458.192-2.913.192-2.176-.033-3.648-.112-5.824-.159-2.176.124-3.645.154-5.824.084-1.455,0-1.455-.192-2.913-.192s-1.455.278-2.911.278-1.458-.278-2.913-.278-1.455.168-2.913.168c-4-.131-7.649.2-11.652.091a1.488,1.488,0,0,1-1.366-1.57c-.075-2.19-.054-3.683.026-5.873,0-1.472-.126-1.472-.126-2.939.1-2.19.133-3.68.058-5.873,0-1.472.066-1.472.066-2.939s-.239-1.469-.239-2.936c-.026-2.2.08-3.687.211-5.877-.03-3.1-.063-5.723.007-8.814-.03-2.2-.049-3.68-.063-5.875,0-1.469-.089-1.469-.089-2.936s.19-1.469.19-2.941S33.6,39.12,33.6,37.653s.122-1.469.122-2.941c.063-1.659-1.029-4.155,1.324-4.483,1.455,0,1.455-.012,2.911-.012s1.458.19,2.913.19c3.06-.159,5.672-.042,8.732-.11,3.07.058,5.669-.026,8.734.164,2.174-.04,3.65-.033,5.821,0,1.455,0,1.455-.255,2.911-.255,2.171.119,3.645.241,5.826.248,1.455,0,1.455-.185,2.911-.185s1.458.138,2.913.138,1.455-.15,2.911-.15,1.458.18,2.913.18,1.455-.222,2.913-.222,1.455.035,2.911.035c4,.028,7.646.2,11.647.061a69.89,69.89,0,0,0,8.744-.082c2.337.285,1.336,2.857,1.469,4.481,0,1.467.129,1.467.129,2.936s-.126,1.472-.126,2.939-.11,1.467-.11,2.936.225,1.469.225,2.936-.2,1.472-.2,2.939.054,1.469.054,2.936-.037,1.469-.037,2.936.2,1.472.2,2.939v2.936c-.222,3.088-.225,5.725-.227,8.814.105,2.2.126,3.678.07,5.877-.11,3.1-.124,5.725-.117,8.816C112.056,86.333,113.19,88.8,110.76,89.11Z" transform="translate(-33.465 -30.203)" fill="#f5f3f1"/>
		  <path id="Path_179" data-name="Path 179" d="M111.633,83.974c-2.171.037-3.652-.021-5.824-.115-1.458,0-1.458.119-2.913.119s-1.455-.178-2.913-.178-1.455.173-2.911.173-1.455-.161-2.913-.161c-2.171.059-3.645.056-5.821.009a51.951,51.951,0,0,0-5.821.1c-2.174-.089-3.645-.1-5.821-.009-1.455,0-1.455-.15-2.911-.15s-1.455.15-2.913.15c-2.174-.058-3.645-.129-5.824-.143-3.07-.007-5.679-.051-8.737.222-1.455,0-1.455-.166-2.911-.166s-1.455.068-2.913.068c-2.178-.033-3.648-.089-5.826-.11-1.455,0-1.455.168-2.913.168s-1.455-.124-2.915-.124c-1.7-.054-4.125,1.02-4.415-1.378.012-2.206.019-3.708,0-5.915.295-4.055.009-7.77.178-11.837-.026-2.211-.068-3.708-.115-5.92a58.044,58.044,0,0,0,.061-5.917c0-1.476-.187-1.476-.187-2.96.03-2.213.157-3.708.253-5.917-.213-3.112-.175-5.763-.274-8.884A1.469,1.469,0,0,1,35.924,33.8c1.455,0,1.455-.08,2.911-.08a55,55,0,0,0,5.826-.126c2.171-.04,3.65-.03,5.824,0,1.455,0,1.455.173,2.911.173,3.063-.119,5.667-.314,8.732-.2,1.455,0,1.455-.014,2.911-.014s1.458.192,2.913.192,1.455-.028,2.911-.028a112.478,112.478,0,0,1,11.65-.061c3.067.047,5.669-.033,8.734.061,3.07-.063,5.669-.192,8.737-.1,4,.213,7.653-.119,11.654-.049a1.433,1.433,0,0,1,1.324,1.544c0,1.479.044,1.479.044,2.957s.173,1.476.173,2.96-.14,1.476-.14,2.96.194,1.476.194,2.957c-.089,2.209-.213,3.706-.253,5.917,0,1.479.03,1.479.03,2.96s.222,1.479.222,2.96c-.035,2.213-.168,3.708-.271,5.917,0,1.479.192,1.479.192,2.96-.033,2.213-.108,3.708-.145,5.92,0,1.479.225,1.479.225,2.96s-.075,1.481-.075,2.962-.03,1.481-.03,2.962A1.55,1.55,0,0,1,111.633,83.974Z" transform="translate(-32.125 -25.062)" fill="#eae7dc"/>
		  <path id="Path_180" data-name="Path 180" d="M110.76,89.11a53.179,53.179,0,0,0-5.826,0c-3.06-.11-5.669.028-8.732-.021-2.171,0-3.65-.066-5.821-.124-3.063.143-5.667.054-8.734-.021-1.455,0-1.455.166-2.911.166-2.174-.082-3.648-.152-5.824-.138-1.458,0-1.458.192-2.913.192-2.176-.033-3.648-.112-5.824-.159-2.176.124-3.645.154-5.824.084-1.455,0-1.455-.192-2.913-.192s-1.455.278-2.911.278-1.458-.278-2.913-.278-1.455.168-2.913.168c-4-.131-7.649.2-11.652.091a1.488,1.488,0,0,1-1.366-1.57c-.075-2.19-.054-3.683.026-5.873,0-1.472-.126-1.472-.126-2.939.1-2.19.133-3.68.058-5.873,0-1.472.066-1.472.066-2.939s-.239-1.469-.239-2.936c-.026-2.2.08-3.687.211-5.877-.03-3.1-.063-5.723.007-8.814-.03-2.2-.049-3.68-.063-5.875,0-1.469-.089-1.469-.089-2.936s.19-1.469.19-2.941S33.6,39.12,33.6,37.653s.122-1.469.122-2.941c.063-1.659-1.029-4.155,1.324-4.483,1.455,0,1.455-.012,2.911-.012s1.458.19,2.913.19c3.06-.159,5.672-.042,8.732-.11,3.07.058,5.669-.026,8.734.164,2.174-.04,3.65-.033,5.821,0,1.455,0,1.455-.255,2.911-.255,2.171.119,3.645.241,5.826.248,1.455,0,1.455-.185,2.911-.185s1.458.138,2.913.138,1.455-.15,2.911-.15,1.458.18,2.913.18,1.455-.222,2.913-.222,1.455.035,2.911.035c4,.028,7.646.2,11.647.061a69.89,69.89,0,0,0,8.744-.082c2.337.285,1.336,2.857,1.469,4.481,0,1.467.129,1.467.129,2.936s-.126,1.472-.126,2.939-.11,1.467-.11,2.936.225,1.469.225,2.936-.2,1.472-.2,2.939.054,1.469.054,2.936-.037,1.469-.037,2.936.2,1.472.2,2.939v2.936c-.222,3.088-.225,5.725-.227,8.814.105,2.2.126,3.678.07,5.877-.11,3.1-.124,5.725-.117,8.816C112.056,86.333,113.19,88.8,110.76,89.11Z" transform="translate(-33.465 -30.203)" fill="none" stroke="#2e3343" stroke-linecap="round" stroke-linejoin="round" stroke-width="0.368"/>
		  <path id="Path_181" data-name="Path 181" d="M33.515,33.72c1.458,0,1.458.047,2.913.047s1.455-.227,2.913-.227c3.07-.061,5.669.264,8.734.2,2.176-.08,3.65-.054,5.826.054,1.455,0,1.455-.14,2.908-.14s1.455.089,2.911.089,1.458-.152,2.913-.152,1.455.206,2.913.206S67,33.8,68.457,33.8s1.455-.246,2.913-.246,1.455.129,2.911.129,1.458-.11,2.913-.11a54.32,54.32,0,0,0,5.824-.054,49.858,49.858,0,0,0,5.824.1c3.074-.049,5.672-.073,8.737.115,2.181-.026,3.648-.077,5.826-.115,2.185-.066,3.65-.012,5.828.115,1.455,0,1.455-.122,2.915-.122" transform="translate(-33.387 -25.07)" fill="none" stroke="#2e3343" stroke-linecap="round" stroke-linejoin="round" stroke-width="0.368"/>
		  <path id="Path_182" data-name="Path 182" d="M61.083,31.137a55.51,55.51,0,0,1,3.8,4.057" transform="translate(9.251 -28.758)" fill="none" stroke="#2e3343" stroke-linecap="round" stroke-linejoin="round" stroke-width="0.368"/>
		  <path id="Path_183" data-name="Path 183" d="M65.07,31.16c-1.441,1.5-2.478,2.445-4.034,3.823" transform="translate(9.178 -28.722)" fill="none" stroke="#2e3343" stroke-linecap="round" stroke-linejoin="round" stroke-width="0.368"/>
		</g>
		<g id="Group_64" data-name="Group 64" transform="translate(107.859 103.606)">
		  <path id="Path_184" data-name="Path 184" d="M71.114,66.133c-6.025-.22-11.54,0-17.569-.11-3.486.213-6.409,1.13-9.174-1.671C41.769,61.7,42.737,58,42.632,54.6c0-2.487.075-2.487.075-4.979-.166-3.629-1.308-6.893,1.659-9.759a6.6,6.6,0,0,1,4.78-1.65c2.195,0,2.195-.307,4.389-.307,6.034-.208,11.535.454,17.569.089a6.9,6.9,0,0,1,6.8,6.652c0,2.487-.339,2.487-.339,4.974.213,3.718.309,6.231.222,9.956A6.762,6.762,0,0,1,71.114,66.133Z" transform="translate(-42.353 -37.863)" fill="#f5f3f1"/>
		  <path id="Path_185" data-name="Path 185" d="M71.114,66.133c-6.025-.22-11.54,0-17.569-.11-3.486.213-6.409,1.13-9.174-1.671C41.769,61.7,42.737,58,42.632,54.6c0-2.487.075-2.487.075-4.979-.166-3.629-1.308-6.893,1.659-9.759a6.6,6.6,0,0,1,4.78-1.65c2.195,0,2.195-.307,4.389-.307,6.034-.208,11.535.454,17.569.089a6.9,6.9,0,0,1,6.8,6.652c0,2.487-.339,2.487-.339,4.974.213,3.718.309,6.231.222,9.956A6.762,6.762,0,0,1,71.114,66.133Z" transform="translate(-42.353 -37.863)" fill="none" stroke="#2e3343" stroke-linecap="round" stroke-linejoin="round" stroke-width="0.368"/>
		  <path id="Path_186" data-name="Path 186" d="M52.993,40.555c.136,2.81.168,4.712.077,7.522.04,3.18.866,6.823-3.493,7.176-4.045-.175-3.29-4.27-3.36-7.176,0-1.881-.271-1.881-.271-3.762s.166-1.879.166-3.76" transform="translate(-36.797 -33.698)" fill="none" stroke="#2e3343" stroke-linecap="round" stroke-linejoin="round" stroke-width="0.368"/>
		  <path id="Path_187" data-name="Path 187" d="M49.688,40.521c.969,1.811.627,1.993,1.6,3.8,2.124,3.769,3.788,7.054,5.856,10.845" transform="translate(-31.009 -33.751)" fill="none" stroke="#2e3343" stroke-linecap="round" stroke-linejoin="round" stroke-width="0.368"/>
		  <path id="Path_188" data-name="Path 188" d="M57.442,40.564c-2.84,4.874-5.145,9.49-7.831,14.45" transform="translate(-31.129 -33.686)" fill="none" stroke="#2e3343" stroke-linecap="round" stroke-linejoin="round" stroke-width="0.368"/>
		</g>
		<g id="Group_65" data-name="Group 65" transform="translate(242.469 114.379)">
		  <path id="Path_189" data-name="Path 189" d="M117.27,44.322c-1.179.793-1.977,1.345-3.212,2.057-.267.154-.629-.119-.629-.428,0-.489-.122-.489-.122-.98.012-3.163-2.494-2.88-4.867-3.011-1.523.063-2.555.094-4.078.061-1.02,0-1.02.059-2.038.059s-1.02-.117-2.043-.117c-1.465.063-2.99-.2-4.059.992-1.263,1.123-.873,2.576-.819,4.076,0,1.029-.192,1.029-.192,2.059s.026,1.029.026,2.057c.026,1.49-.267,2.995.99,4.076,1.074,1.228,2.576.948,4.052,1,1.523-.044,2.557-.051,4.078-.016,1.02,0,1.02-.087,2.04-.087s1.018.091,2.04.091,1.02-.112,2.04-.112a2.881,2.881,0,0,0,2.85-3.877c0-.306.367-.407.632-.255,1.263.657,2.113,1.111,3.336,1.844a.828.828,0,0,0,1.224-.732c.021-1.488.007-2.5-.023-3.989,0-1,.14-1,.14-2s-.028-1-.028-2A.937.937,0,0,0,117.27,44.322Z" transform="translate(-95.211 -41.95)" fill="#f5f3f1"/>
		  <path id="Path_190" data-name="Path 190" d="M117.834,44.425c-.824.477-.88.379-1.706.856s-.777.557-1.6,1.034c-.877.278-.552-.845-.571-1.343a3.053,3.053,0,0,0-.838-2.134c-1.125-1.055-2.74-.646-4.174-.709-1.018,0-1.018-.171-2.038-.171s-1.02.061-2.038.061a46.832,46.832,0,0,0-6.118.1c-3.121.04-3.018,2.508-2.953,4.911a36.631,36.631,0,0,0,.016,4.118c.119,1.439-.232,3.053.824,4.172,1.118,1.182,2.684.821,4.151.76,1.521,0,2.555.012,4.078.037,2.148-.014,3.971.1,6.118.058a2.942,2.942,0,0,0,2.911-2.971c0-.489.126-.489.126-.98,0-.309.278-.587.545-.433.824.477.774.562,1.6,1.036s.812.5,1.635.98a.789.789,0,0,0,1.172-.728c0-1,.15-1,.15-2s-.026-1-.026-1.993-.08-1-.08-2,.119-1,.119-2A.862.862,0,0,0,117.834,44.425Z" transform="translate(-94.383 -41.955)" fill="#59f3ac"/>
		  <path id="Path_191" data-name="Path 191" d="M117.27,44.322c-1.179.793-1.977,1.345-3.212,2.057-.267.154-.629-.119-.629-.428,0-.489-.122-.489-.122-.98.012-3.163-2.494-2.88-4.867-3.011-1.523.063-2.555.094-4.078.061-1.02,0-1.02.059-2.038.059s-1.02-.117-2.043-.117c-1.465.063-2.99-.2-4.059.992-1.263,1.123-.873,2.576-.819,4.076,0,1.029-.192,1.029-.192,2.059s.026,1.029.026,2.057c.026,1.49-.267,2.995.99,4.076,1.074,1.228,2.576.948,4.052,1,1.523-.044,2.557-.051,4.078-.016,1.02,0,1.02-.087,2.04-.087s1.018.091,2.04.091,1.02-.112,2.04-.112a2.881,2.881,0,0,0,2.85-3.877c0-.306.367-.407.632-.255,1.263.657,2.113,1.111,3.336,1.844a.828.828,0,0,0,1.224-.732c.021-1.488.007-2.5-.023-3.989,0-1,.14-1,.14-2s-.028-1-.028-2A.937.937,0,0,0,117.27,44.322Z" transform="translate(-95.211 -41.95)" fill="none" stroke="#2e3343" stroke-linecap="round" stroke-linejoin="round" stroke-width="0.368"/>
		</g>
		<g id="Group_66" data-name="Group 66" transform="translate(228.849 58.012)">
		  <path id="Path_192" data-name="Path 192" d="M103.076,31.307c-1.334,1.289-1.289,1.289-2.625,2.581s-1.336,1.292-2.67,2.536" transform="translate(-77.615 -5.533)" fill="none" stroke="#2e3343" stroke-linecap="round" stroke-linejoin="round" stroke-width="0.368"/>
		  <path id="Path_193" data-name="Path 193" d="M110.046,21.186c-1.158,2.05-1.336,1.958-2.494,4.008s-1.111,2.092-2.27,4.139-1.111,2.092-2.27,4.139-1.292,1.958-2.447,4.05c-1.158,2.047-.891,2.227-2.05,4.275s-1.245,2-2.4,4.05-1.336,1.958-2.492,4.006" transform="translate(-84.05 -21.186)" fill="none" stroke="#2e3343" stroke-linecap="round" stroke-linejoin="round" stroke-width="0.368"/>
		  <path id="Path_194" data-name="Path 194" d="M92.49,22.532c-.356,2.405-.311,2.405-.622,4.764-.358,2.4-.4,2.358-.758,4.761s-.133,2.405-.489,4.808-.445,2.358-.758,4.764" transform="translate(-89.863 -19.105)" fill="none" stroke="#2e3343" stroke-linecap="round" stroke-linejoin="round" stroke-width="0.368"/>
		</g>
		<g id="Group_67" data-name="Group 67" transform="translate(115.427 110.705)">
		  <path id="Path_195" data-name="Path 195" d="M47.907,103.157l.009.009c.643.695,1.434,1.338,2.139,2.075,0,0,0,0,.007.007.236.482.5,1.018.765,1.584a.029.029,0,0,1-.016.037l-.168.084s-.007,0-.009.007c-1.469,1.5-1.448,5.592-.03,7.326.192.229.484.545.84.929s.784.842,1.242,1.369c1,1.076,2.038,2.26,3.077,3.451s2.085,2.394,3.1,3.5c.594.821,1.287,1.692,1.979,2.518s1.383,1.612,1.975,2.263a12.986,12.986,0,0,0,2.141,2.438c7.054,5.863,14.125,1.912,20.063-3.395,2.466-2.206,4.738-4.642,6.731-6.71q1.281-1.407,2.52-2.915a0,0,0,0,1,0,0,0,0,0,0,1,0,0,.026.026,0,0,1,.014.023c-.044,1.923.208,4.141.349,6.259v.007c-.11,2.026-.168,4.167-.295,6.285v.007c-.414,2.059-.793,4.2-1.2,6.331a58.907,58.907,0,0,1,9.665-1.254c12.263-.531,24.029,1.526,36.008,2.728.328.033.669.068,1.018.1,1.036.1,2.148.19,3.308.269a71.73,71.73,0,0,0,11.984-.049c.559-.061,1.109-.126,1.65-.211-.133-.487-.262-.973-.391-1.462-.524-2.019-.987-4.059-1.366-6.081-.664-2.59-1.2-5.136-1.617-7.7a75.636,75.636,0,0,1-.833-7.784,40.893,40.893,0,0,1,1.511-9.686s.009,0,.014,0c.07.04.14.084.206.126,2.146,1.5,4.794,3.975,7.66,5.241h.007c3.271,1.951,6.657,4.289,10.075,5.941,5.569,2.637,11.8,3.645,17.9,4.726h.007a41.464,41.464,0,0,0,4.633,1.032c1.565.262,3.135.449,4.628.58,3.107.522,4.682,1.577,6.94-1.015,0-.007.007-.012.007-.019l.012-.243a.028.028,0,0,1,.03-.03c1.837.068,3.858.243,5.381.2h.007a16.492,16.492,0,0,1,2.625.9,7.247,7.247,0,0,0,2.618.6c.828-.023,3.067,3.933,3.854,3.861h0c.777-.161.622-1.734.105-3.133A11.508,11.508,0,0,0,218.441,121a.03.03,0,0,1,0-.042l.047-.042,0,0a14.6,14.6,0,0,1,2.288-2.752c.007,0,.016-.009.021,0a20.6,20.6,0,0,0,5.136-.384c.917-.206,1.7.842,2.3,1.275l.009.009c.2.386-.388,2.812.337,3.067s1.612-1.86,1.668-2.953a.044.044,0,0,1,.007-.021l.066-.073a.026.026,0,0,1,.042,0c.1.089.2.18.314.269.519.365.3,3.942,1.228,4.223h.007c1.247,0,1.263-4.336.777-5.36a.029.029,0,0,1,.023-.042l.519-.028a.025.025,0,0,1,.021.009c1.076.992,2.789,3.39,3.636,3.06l.007,0c.611-.475-1.394-3.479-1.809-3.947A9.557,9.557,0,0,0,233,115.5a.032.032,0,0,1,.012-.058c.608-.084,1.039-.232,1.125-.466a.021.021,0,0,0,0-.026,5.247,5.247,0,0,0-2.457-.9c-1.172-.25-2.45-.447-3.112-.58a22.434,22.434,0,0,0-3.126-.447,10.048,10.048,0,0,0-2.279.349,10.964,10.964,0,0,1-2.457.335c-1.724.007-1.621-.349-3.4-.62-1.888-.309-3.266-.138-4.773-.84h-.007c-.7-.211-1.771-.487-2.862-.765a.026.026,0,0,1-.023-.035l.035-.14s0-.012,0-.016a12.2,12.2,0,0,0-.934-1.935,2.892,2.892,0,0,0-1.94-1.294c-.643-.1-1.741-.295-2.908-.529s-2.408-.505-3.336-.735c-2.031-.342-4.24-.814-6.221-1.359h-.007a21.519,21.519,0,0,1-6.107-1.731h-.007c-1.968-.849-1.834-1.991-3.678-2.691-2.01-.76-3.329.6-4.19.175h-.007a79.934,79.934,0,0,1-6.7-5.068s0,0,0,0c-1.177-1.317-2.885-3.014-3.938-4l0,0a6.272,6.272,0,0,0-2.859-2.129,26.378,26.378,0,0,1-3.266-1.448c-2.3-1.507-2.878-5.8-4.684-8.152a4.625,4.625,0,0,0-.889-.9c-1.783-1.345-3.2-.484-4.848-.484a3.872,3.872,0,0,1-1.329-.222c-.657-.192-1.75-.54-2.908-.929s-2.368-.812-3.266-1.153a36.388,36.388,0,0,0-6.193-2.026h0a17.7,17.7,0,0,1-2.887-1.378,6.113,6.113,0,0,1-1.051-.884c-.353-.363-.737-.817-1.231-1.411-.807-1.065-1.481-2.188-2.038-2.3a.03.03,0,0,1-.023-.023c-.136-1.027-.3-2.073-.48-2.885v0c-.225-1.984-.515-4.216-.784-6.137-.143-1.27-.1-2.37-.166-3.1,0-.04,0-.075,0-.115s0-.051,0-.077a.492.492,0,0,1,.309-.452,3.641,3.641,0,0,0,2.181-2.333c.583-1.914-.159-2.953-1.13-3.074a.03.03,0,0,1-.028-.037c.994-2.7.264-6.685-2.852-8.056h0c-.746-.466-1.469-.994-2.206-1.413a7.7,7.7,0,0,1-2.244-1.394c-.643-.793-1.652.732-.756,1.907a.03.03,0,0,1-.035.047c-1.315-.569-2.88-1.752-4.162-1.752a1.72,1.72,0,0,0-.634.115.94.94,0,0,0,.007,1.673.031.031,0,0,1-.019.056c-2.4-.183-4.953,2.885-1.759,3.9a3.527,3.527,0,0,0,.772.152.038.038,0,0,1,.026.035l-.049.435a.026.026,0,0,1,0,.012,5.2,5.2,0,0,0-.232,4.057s0,.007,0,.007a.014.014,0,0,1-.014,0c-.655-.62-2.391.337-2.092,2.635a6.785,6.785,0,0,0,.381,2.038c.194.328.55.431,1.336.679l.105.03a.029.029,0,0,1,.021.04,4.844,4.844,0,0,0-.218,1.371,3.681,3.681,0,0,0,.117.938,4.328,4.328,0,0,0,2.539,3.042.036.036,0,0,1,.016.028,39,39,0,0,1-1,7.679.027.027,0,0,1-.023.023c-.424.08-1.238.959-2.15,1.869a13.291,13.291,0,0,1-2.3,1.827l-.007.007s-.009,0-.012.009l-.007,0a18.464,18.464,0,0,1-2.358,1.481c-.992.547-2.071,1.1-2.887,1.481a39.949,39.949,0,0,0-5.522,2.492,27.936,27.936,0,0,1-2.787,1.292,22.7,22.7,0,0,1-2.843.927,21.021,21.021,0,0,1-2.857.973,10.072,10.072,0,0,0-4.317,1.7,7.7,7.7,0,0,0-1.554,1.469,7.324,7.324,0,0,0-.927,1.42,11.759,11.759,0,0,0-.622,1.558c-1.437,3.477-2.845,8.269-3.945,11.851-.714,2.553-3.128,1.907-3.517,4.553-.283,2.3.62,3.418-.653,4.265s-2.688,1.275-3.028,2.632-.987,1.659-2.609,2.405l-.007.009-.077.094a.032.032,0,0,1-.042,0c-1.048-.814-2.1-1.673-3.081-2.529,0,0,0,0,0,0-1.816-2.153-4.778-4.565-6.261-6.579-1.348-1.837-1.336-1.668-3.161-1.668a.031.031,0,0,1-.03-.021c0-.023-.012-.049-.019-.075a21.13,21.13,0,0,1-.035-3.14,4.035,4.035,0,0,0-.26-1.806c-.835-1.074-1.107-.749-1.6-1.647-.519-.873-.955-1.16-1.3-1.079,0,0-.014,0-.019-.009l0-.021a4.535,4.535,0,0,0-.519-.873c-.236-.332-.508-.7-.753-1.09-.957-1.717-1.717-3.563-2.922-4.722l-.007,0c-.81-1.432-4.74-4.081-4.74-2.681A5.632,5.632,0,0,0,50.6,87.57c2.066,2.489,1.942,2.576,2.833,5.218a.028.028,0,0,1-.035.037,4.378,4.378,0,0,0-1.3-.173,3.571,3.571,0,0,0-2.658.873,2.834,2.834,0,0,0-.47,1.156s-.007.012-.014.012-.012,0-.014,0a4.231,4.231,0,0,0-1.993,2.094.029.029,0,0,1-.035.019l-.068-.019a.026.026,0,0,0-.023.007C44.1,98.667,45.472,102.161,47.907,103.157Z" transform="translate(-45.325 -39.391)" fill="#f5f3f1"/>
		  <path id="Path_196" data-name="Path 196" d="M83.823,60.038a16.106,16.106,0,0,1,5.8,1.025c3.643,1.659,6.893,4.686,7.979,8.568,1.378,3.135.777,6.591-.4,9.71C95.6,84.366,89.832,86.947,84.9,87.314a14.037,14.037,0,0,1-12.539-6.872C70.5,77.071,69.06,70.466,71.3,67.029,73.732,63.423,79.357,59.685,83.823,60.038Z" transform="translate(-6.915 -7.493)" fill="#01c27c"/>
		  <path id="Path_197" data-name="Path 197" d="M78.692,53.291c3.83,17.576,4.324,35.845,9.6,53.163,1.228,4.134,2.047,8.753,3.264,12.81a71.73,71.73,0,0,0,11.984-.049,41.282,41.282,0,0,0-1.289-8.351c-2.117-7.2-4.649-13.69-2.637-21.252.571-2.146.253-2.356,2.258-1.764,1.462.433,3.058,1.886,4.23,2.808a29.891,29.891,0,0,0,8.79,4.787c10.683,4.562,9.811,6.869,22.845,8.217h0c12.911,3.039,16.254,1.741,18.238-11.743.587-5.634-19.111-5.332-22.976-7.969-1.282-.693-1.483-1.331-2.929-1.626-1.556-.321-2.529.1-3.961-.714-4.282-2.485-6.755-8.039-11.395-10.091-1.256-.562-3.091-.585-4.263-1.481-2.361-1.8-2.887-5.929-5.026-8.163-2.742-2.861-5.211-1.38-8.449-2.326-5.185-1.511-12.148-4.123-16.154-7.429A1.316,1.316,0,0,0,78.692,53.291Z" transform="translate(6.269 -20.164)" fill="#032c39"/>
		  <path id="Path_198" data-name="Path 198" d="M53.169,103.79c3.084,5.192,8.36,13.339,15.751,12.293,1.832-.26,3.718-1.7,5.356-2.5,6.058-3.147,11.961-7.461,16.1-12.918l0,0a.03.03,0,0,1,.051.021h0a67.92,67.92,0,0,1-1.745,18.3.03.03,0,0,0,.037.035,57.92,57.92,0,0,1,12.351-1.912c12.263-.533,24.029,1.526,36.008,2.728l.913.091a.032.032,0,0,0,.021-.056,22.749,22.749,0,0,0-2.637-1.893c-2.721-1.418-5.735-2.11-8.634-3.056-5.854-1.912-12.838-3.793-18.952-3.872a.039.039,0,0,1-.03-.021v0c-.168-1.778.781-3.559.938-5.3.243-2.684.2-5.377.461-8.063.908-11.752.505-23.741,2.95-35.346.737-3.016,2.113-6.324,2.862-9.729a1.118,1.118,0,0,0-1.94-.973l0,0c-2.213,3.367-5.063,4.843-9.731,6.5-3.458,1.156-6.577,3.25-10.04,4.289-1.86.552-4.45.835-5.831,2.167-4.429,4.263-3.383,12.773-7.518,17.377-1.207,1.341-2.248,1.509-2.96,3.414-.374,1.011-.208,2.043-.877,2.953-.491.676-1.528.807-2,1.411-1.156,1.481-.545,2.73-2.447,3.622-2.033.948-1.734.171-2.932-1.027-2.078-2.087-4.569-3.868-6.788-6.008-3.694-3.575-11.647-2.358-14.272,2.237C43.824,95.234,50.1,98.629,53.169,103.79Z" transform="translate(-43.591 -21.103)" fill="#032c39"/>
		  <path id="Path_199" data-name="Path 199" d="M67.718,96.78a9.176,9.176,0,0,0,1.313-.094,11.506,11.506,0,0,0,3.875-1.675c.533-.309,1.036-.6,1.526-.84a48.263,48.263,0,0,0,15.959-12.7,64.243,64.243,0,0,1-.812,13,.154.154,0,0,0,.084.161.2.2,0,0,0,.065.014.16.16,0,0,0,.112-.049c3.6-3.928,7.307-8.645,5.774-14.965-.751-4.31-1.919-9.708-4.247-13.14-1.186-1.752-3.322-2.642-6.352-2.642-.349,0-.718.012-1.095.037a.145.145,0,0,0-.138.11c-.524,2.029.283,3.507,1.065,4.937C86.1,71.221,87.176,73.2,82.817,77a12.57,12.57,0,0,0-.957,1.149c-.828,1.055-1.855,2.37-2.709,2.55a1.63,1.63,0,0,1-.365.04h0c-.971,0-1.68-.859-2.433-1.769-.807-.976-1.643-1.984-2.883-1.984a2.513,2.513,0,0,0-.391.033.136.136,0,0,0-.1.07c-.587.943-.1,2.314.407,3.767.475,1.348.964,2.744.489,3.676a2.08,2.08,0,0,1-1.369.983,1.923,1.923,0,0,1-.547.077c-2.066,0-4.675-3.072-6.231-4.911-.4-.468-.742-.873-1.013-1.156-.323-.342-.774-.739-1.252-1.158a12.417,12.417,0,0,1-2.141-2.188c-.653-1.5-.384-3.332-.124-5.105a10.323,10.323,0,0,0-.089-5.18.153.153,0,0,0-.061-.073,9.019,9.019,0,0,0-4.834-1.285c-3.645,0-7.1,1.766-8.6,4.392-2.854,4.991-.182,8.182,2.644,11.556a30.493,30.493,0,0,1,2.88,3.84c3.648,6.156,8.241,12.454,14.581,12.454Z" transform="translate(-43.676 -1.556)"/>
		  <path id="Path_200" data-name="Path 200" d="M93.712,92.485c-.18-.718-.365-1.432-.573-2.134-1.79-6.022-3.479-11.71-1.722-18.124.084-.316.147-.59.206-.824.222-.948.29-1.116.634-1.116a5.257,5.257,0,0,1,1.231.278,11.887,11.887,0,0,1,3.535,2.263c.227.185.44.36.643.519a29.957,29.957,0,0,0,8.83,4.808,50.889,50.889,0,0,1,7.26,3.582c1.175.66,2.389,1.343,3.6,1.958,2.665,1.357,5.884,1.8,8.994,2.23,1.051.145,2.043.281,3,.454a.124.124,0,0,1,.028.007,39.508,39.508,0,0,0,8.762,1.343c6.79,0,8.526-4.469,9.577-13.851a.615.615,0,0,0-.208-.545,5.069,5.069,0,0,0-3.283-1.189,6.016,6.016,0,0,0-2.7.669c-2.232,1.163-3.245,3.119-4.165,5.19-.688,1.549-1.488,2.127-2.953,2.127a9.754,9.754,0,0,1-1.488-.138,87.122,87.122,0,0,1-11.352-3.215l-.6-.2c-.194-.063-.5-.133-.849-.213a6.47,6.47,0,0,1-2.405-.849c-.461-.559-.285-1.233-.1-1.951.262-1.011.559-2.16-1.359-2.749a2.641,2.641,0,0,0-.772-.124,3.244,3.244,0,0,0-2.239,1.273,3.4,3.4,0,0,1-2.41,1.334c-.091,0-.185-.007-.278-.016-3.575-.36-7.777-2.892-9.417-3.961-.124-.082-.246-.157-.356-.229-.978-.62-1.343-.849-.777-1.851a5.7,5.7,0,0,1,1.38-1.448,6.276,6.276,0,0,0,1.481-1.556.156.156,0,0,0,0-.147.152.152,0,0,0-.124-.08c-1.273-.082-2.55-.1-3.786-.117a39.625,39.625,0,0,1-7.316-.569,9.652,9.652,0,0,0-1.83-.236,2.968,2.968,0,0,0-2.791,1.8c-.007.012-.012.023-.019.037-2.506,5-4.062,12.171-1.907,16.979.009.019.014.035.023.051a105.715,105.715,0,0,0,7.447,11.025l.021.028A.631.631,0,0,0,93.712,92.485Z" transform="translate(14.61 -2.738)"/>
		  <path id="Path_201" data-name="Path 201" d="M84.88,51.721c-.016.166-.033.33-.061.491a6.543,6.543,0,0,1-4.548,5.133,5.981,5.981,0,0,1-3.94-.44,4.335,4.335,0,0,1-2.555-3.051,4.232,4.232,0,0,1,.11-2.34,15.472,15.472,0,0,0,.952-3.039c-.136-.6-.454-1.43-.693-2.349a5.209,5.209,0,0,1,.232-4.071" transform="translate(-1.505 -35.269)" fill="none" stroke="#2e3343" stroke-linecap="round" stroke-linejoin="round" stroke-width="0.368"/>
		  <path id="Path_202" data-name="Path 202" d="M76.9,45.559a1.484,1.484,0,0,1-1.874.976" transform="translate(0.609 -29.851)" fill="none" stroke="#2e3343" stroke-linecap="round" stroke-linejoin="round" stroke-width="0.368"/>
		  <path id="Path_203" data-name="Path 203" d="M78.9,41.719c-2.265,2.309,1.685,3.126.285,4.45a4.956,4.956,0,0,0-1.219,2.571c-.051.538.225.449.6.505a.6.6,0,0,0,.683-.267,2.483,2.483,0,0,1,2.387-2.071c.992.1,1.762,1.139,1.17,3.077a3.641,3.641,0,0,1-2.181,2.333.492.492,0,0,0-.309.452,1.753,1.753,0,0,0,0,.192c.068.725.023,1.825.166,3.1.269,1.921.559,4.153.784,6.142.178.819.346,1.872.482,2.906.173,1.261.3,2.494.33,3.236.316,1.28.807,3.851,1.158,5.583a8.093,8.093,0,0,1,.056,1.128,12.294,12.294,0,0,0,.056,1.734,37.5,37.5,0,0,1,1.039,6.051c.187,1.774.33,3.566.592,5.489.321,2.052.618,4.139.912,6.238.512,3.627,1.027,7.286,1.706,10.875q.4,2.151.887,4.254c.725,4.2,2.3,7.878,3.287,12.005.126.356.25.711.367,1.074a50.265,50.265,0,0,1,1.338,4.93c.9,2.363,1.441,4.864,2.134,7.351" transform="translate(5.145 -35.79)" fill="none" stroke="#2e3343" stroke-linecap="round" stroke-linejoin="round" stroke-width="0.368"/>
		  <path id="Path_204" data-name="Path 204" d="M75.245,41.489a1.836,1.836,0,0,0,.3.211,3.352,3.352,0,0,0,2.637.1" transform="translate(0.95 -36.146)" fill="none" stroke="#2e3343" stroke-linecap="round" stroke-linejoin="round" stroke-width="0.368"/>
		  <path id="Path_205" data-name="Path 205" d="M75.549,42.56c.936-.763.987-1.675.094-1.762C75.01,40.738,74.744,41.856,75.549,42.56Z" transform="translate(0.646 -37.217)" fill="none" stroke="#2e3343" stroke-linecap="round" stroke-linejoin="round" stroke-width="0.368"/>
		  <path id="Path_206" data-name="Path 206" d="M89.162,50.639c.016-.042.033-.089.047-.131,1.013-2.7.29-6.717-2.843-8.091-.749-.466-1.472-.994-2.209-1.413a7.7,7.7,0,0,1-2.244-1.394c-.662-.814-1.706.817-.679,2-1.561-.641-3.507-2.244-4.909-1.687a.959.959,0,0,0,.126,1.743c-2.438-.314-5.152,2.852-1.9,3.882a3.672,3.672,0,0,0,.8.157,4.329,4.329,0,0,0,1.458-.115,4.661,4.661,0,0,0,1.813-.859" transform="translate(-2.431 -39.391)" fill="none" stroke="#2e3343" stroke-linecap="round" stroke-linejoin="round" stroke-width="0.368"/>
		  <path id="Path_207" data-name="Path 207" d="M75.139,43.771c-.653-.632-2.4.328-2.1,2.63s.143,2.218,1.717,2.716" transform="translate(-2.512 -32.91)" fill="none" stroke="#2e3343" stroke-linecap="round" stroke-linejoin="round" stroke-width="0.368"/>
		  <path id="Path_208" data-name="Path 208" d="M80.348,47.849c0,.033,0,.063,0,.1a39.26,39.26,0,0,1-1.006,7.719c-.061.344-.124.681-.178,1.006-.608,2.3-1.06,3.811-1.57,6.1q-.372.955-.688,1.926c-.028.073-.051.15-.073.225a57.671,57.671,0,0,0-2.071,9.546c-.058.412-.115.826-.168,1.24a57.506,57.506,0,0,0-.693,8.734,75.628,75.628,0,0,1-.618,9.715,43.816,43.816,0,0,0-.066,5.779c0,.1.009.2.014.292-.295,2.775-.6,5.468-.973,8.112-.318,2.281-.695,4.53-1.161,6.764-.012.073-.026.14-.042.213" transform="translate(-5.524 -26.308)" fill="none" stroke="#2e3343" stroke-linecap="round" stroke-linejoin="round" stroke-width="0.368"/>
		  <path id="Path_209" data-name="Path 209" d="M101.672,50.919a.374.374,0,0,0-.073,0c-.419.054-1.242.945-2.171,1.872a13.323,13.323,0,0,1-2.307,1.83c-.007.007-.014.009-.019.014a35.272,35.272,0,0,1-5.25,2.964,39.949,39.949,0,0,0-5.522,2.492A25.729,25.729,0,0,1,80.7,62.309a21.021,21.021,0,0,1-2.857.973,10.072,10.072,0,0,0-4.317,1.7,7.7,7.7,0,0,0-1.554,1.469,8.576,8.576,0,0,0-1.549,2.978C68.988,72.9,67.58,77.7,66.48,81.277c-.714,2.553-3.128,1.907-3.517,4.553-.283,2.3.62,3.418-.653,4.265s-2.688,1.275-3.028,2.632-.992,1.659-2.613,2.408" transform="translate(-27.779 -21.563)" fill="none" stroke="#2e3343" stroke-linecap="round" stroke-linejoin="round" stroke-width="0.368"/>
		  <path id="Path_210" data-name="Path 210" d="M77.72,52.394c-.552.643-1.114,1.628-1.867,2.6-.629.807-1.49,1.53-2.134,2.394-1.041,1.5-2.957,4.214-3.692,5.225.756,1.465,3.526,3.388,4.686,4.235a.2.2,0,0,1,.073.194c-.126.4-2.181.477-2.833.686-1.226.236-2.419.4-2.651.468-.2.058.03,1.364.311,3.091a33.439,33.439,0,0,0,1.018,6.067c.115.55.206,1.09.29,1.6s.161.994.257,1.427c.164.739.686,1.722.976,2.962.412,2.948,1.472,6.088,1.855,9.127.349,2.843,1.385,6.1,1.034,8.833-.016.131-.033.257-.059.381" transform="translate(-8.361 -19.278)" fill="none" stroke="#2e3343" stroke-linecap="round" stroke-linejoin="round" stroke-width="0.368"/>
		  <path id="Path_211" data-name="Path 211" d="M81.1,52.722a.251.251,0,0,1,.042.044c1.788,1.813,4.722,6.3,6.2,8.194.089.122-.042.353-.166.442-1.263.957-1.212,1.025-2.475,1.977s-1.371.814-2.637,1.764a.371.371,0,0,0-.051.407.3.3,0,0,0,.185.2c1.146.269,1.184.119,2.328.393s1.107.44,2.256.714c.133.028.211.044.206.18-.042,2.256-.115,6.217-.288,8.884a68.783,68.783,0,0,0-.274,8.889c-.133,3.285.023,6.1.15,9.23a49.687,49.687,0,0,0,.7,11.71q.144.751.321,1.481" transform="translate(10.002 -18.771)" fill="none" stroke="#2e3343" stroke-linecap="round" stroke-linejoin="round" stroke-width="0.368"/>
		  <path id="Path_212" data-name="Path 212" d="M156.938,93.5c-.552-1.228-.973-2.869-2.876-3.238-1.289-.19-4.387-.8-6.245-1.263-2.031-.342-4.24-.814-6.226-1.359a21.57,21.57,0,0,1-6.114-1.731c-1.97-.849-1.837-1.991-3.68-2.691-2.01-.76-3.334.6-4.2.175a80.411,80.411,0,0,1-6.7-5.068c-1.177-1.32-2.887-3.018-3.94-4-1.453-2.122-4.132-2.363-6.128-3.58-2.3-1.507-2.878-5.8-4.684-8.152a4.625,4.625,0,0,0-.889-.9c-2.244-1.692-3.907.11-6.177-.707-1.313-.381-4.38-1.4-6.175-2.082a36.411,36.411,0,0,0-6.2-2.026,17.645,17.645,0,0,1-2.89-1.378,10.534,10.534,0,0,1-2.281-2.3c-.817-1.076-1.5-2.218-2.059-2.3a.488.488,0,0,0-.059,0" transform="translate(7.411 -21.589)" fill="none" stroke="#2e3343" stroke-linecap="round" stroke-linejoin="round" stroke-width="0.368"/>
		  <path id="Path_213" data-name="Path 213" d="M98.915,71.433c-.262-1.806,3.882-4.946,2.934-6.376-2.223-1.252-5.061,3.063-5.54,5.1-.409,1.788.66,4.974,2.3,4.6C99.6,74.388,98.915,72.783,98.915,71.433Z" transform="translate(33.393 -0.039)" fill="none" stroke="#2e3343" stroke-linecap="round" stroke-linejoin="round" stroke-width="0.368"/>
		  <path id="Path_214" data-name="Path 214" d="M94.392,55.536c-1.837.433-3.091,2.946-3.949,4.85-1.2,2.861-1.61,6.175-2.4,9.221a38.023,38.023,0,0,0-1.121,9.474l.126.063c1.21.6,2,.962,2.714,1.4.073.042.145.089.215.133,2.146,1.5,4.794,3.975,7.665,5.241,3.273,1.951,6.659,4.289,10.077,5.941,5.569,2.637,11.8,3.645,17.906,4.726A50.134,50.134,0,0,0,134.89,98.2c3.112.522,4.686,1.579,6.947-1.025" transform="translate(19.005 -14.42)" fill="none" stroke="#2e3343" stroke-linecap="round" stroke-linejoin="round" stroke-width="0.368"/>
		  <path id="Path_215" data-name="Path 215" d="M101.625,63.1c-4.89,1.345-10.414,1.451-14.635,4.333l-.035.026" transform="translate(19.062 -2.714)" fill="none" stroke="#2e3343" stroke-linecap="round" stroke-linejoin="round" stroke-width="0.368"/>
		  <path id="Path_216" data-name="Path 216" d="M88.951,65.359a40.891,40.891,0,0,0-1.511,9.686,78.365,78.365,0,0,0,2.45,15.48c.487,2.611,1.118,5.248,1.834,7.838" transform="translate(19.811 0.773)" fill="none" stroke="#2e3343" stroke-linecap="round" stroke-linejoin="round" stroke-width="0.368"/>
		  <path id="Path_217" data-name="Path 217" d="M88.5,56.436a.02.02,0,0,0,.014.007c2.714,1.514,3.1,3.36,3.439,6.743.522,2.543.835,5.323,1.151,8.046.145,1.238.285,2.461.449,3.645a43.838,43.838,0,0,0,.69,5.863c.124,2.822.1,6.109-.95,8.673q-.779.993-1.575,1.956c-.828,1-1.668,1.979-2.522,2.918-1.993,2.068-4.265,4.5-6.731,6.71-5.938,5.307-13.009,9.258-20.063,3.395a12.987,12.987,0,0,1-2.141-2.438,60.314,60.314,0,0,1-3.954-4.78c-2.038-2.223-4.176-4.8-6.182-6.954-.92-1.051-1.7-1.834-2.082-2.3-1.418-1.734-1.439-5.835.033-7.328" transform="translate(-42.768 -13.028)" fill="none" stroke="#2e3343" stroke-linecap="round" stroke-linejoin="round" stroke-width="0.368"/>
		  <path id="Path_218" data-name="Path 218" d="M66.642,87.861a15.97,15.97,0,0,0,1.82-4.649,9.388,9.388,0,0,0,.194-1.392A8,8,0,0,0,66.8,77.063a8.083,8.083,0,0,0-.908-.929c-.533-.4-1.083-.817-1.633-1.242-1.06-.821-2.122-1.685-3.112-2.55-1.813-2.155-4.778-4.567-6.261-6.582-1.355-1.846-1.336-1.668-3.184-1.668H51.7" transform="translate(-35.468 -1.195)" fill="none" stroke="#2e3343" stroke-linecap="round" stroke-linejoin="round" stroke-width="0.368"/>
		  <path id="Path_219" data-name="Path 219" d="M57.5,69.078c.105.089.218.175.33.264,2.384,1.834,6.025,3.177,6.383,6.542A8,8,0,0,1,62.839,80.8a1.846,1.846,0,0,1-1.633.69c-1.175-.2-1.687-1.228-1.8-2.585-.084-1.048.2-2.274.2-3.388" transform="translate(-26.495 6.525)" fill="none" stroke="#2e3343" stroke-linecap="round" stroke-linejoin="round" stroke-width="0.368"/>
		  <path id="Path_220" data-name="Path 220" d="M60.812,65.35a3.462,3.462,0,0,1,.447.9,7.627,7.627,0,0,1-.248,4.7C59.9,76.021,55.7,77.938,51.446,74.83c-.227-.147-.447-.3-.66-.452a22.754,22.754,0,0,1-2.085-1.7c-1.371-1.256-1.256-2.075-.728-4.148" transform="translate(-41.798 0.759)" fill="none" stroke="#2e3343" stroke-linecap="round" stroke-linejoin="round" stroke-width="0.368"/>
		  <path id="Path_221" data-name="Path 221" d="M123.24,76.785a14.3,14.3,0,0,1,1.1,1.032,11.5,11.5,0,0,1,2.384,3.306c.517,1.4.671,2.974-.108,3.133-.786.077-3.028-3.884-3.856-3.861-1.881,0-3.355-1.107-5.248-1.5-1.53.042-3.568-.136-5.414-.2a19.688,19.688,0,0,0-2.852.044c-3.912-.363-3.32-5.576-2.459-8.159,1.179-2.775,2.791-3.781,5.725-3.042.751.2,1.9.487,3.037.774,1.1.278,2.19.559,2.894.77,1.511.7,2.89.531,4.778.84,1.776.271,1.673.627,3.4.62a10.964,10.964,0,0,0,2.457-.335c2.506-.58,2.585-.36,5.4.1,1.329.269,5.164.788,5.578,1.488-.075.253-.552.407-1.217.491a24.206,24.206,0,0,1-4.736-.082c-.2-.023-.346-.044-.44-.065a11.263,11.263,0,0,0-1.509.445,44.664,44.664,0,0,0-4.75,1.963,2.522,2.522,0,0,0-.7.445,14.678,14.678,0,0,0-2.3,2.763" transform="translate(48.755 3.777)" fill="none" stroke="#2e3343" stroke-linecap="round" stroke-linejoin="round" stroke-width="0.368"/>
		  <path id="Path_222" data-name="Path 222" d="M70.621,77.292c-.115-1.336-.063-2.518-.253-3.514a13.624,13.624,0,0,0-1.242-3.285c-1.439-3.308-4.532-4.712-7.534-6.217" transform="translate(-20.166 -0.902)" fill="none" stroke="#2e3343" stroke-linecap="round" stroke-linejoin="round" stroke-width="0.368"/>
		  <path id="Path_223" data-name="Path 223" d="M90.519,55.228a.2.2,0,0,0-.026.021,14.549,14.549,0,0,1-2.419,1.472,15.626,15.626,0,0,1-2.5,1.39,11.626,11.626,0,0,1-8.241-.035,12.116,12.116,0,0,1-2.015-1.79c-1.111-.971-1.193-.723-1.954-1.68-.021-.028-.047-.054-.068-.084" transform="translate(-2.057 -15.989)" fill="none" stroke="#2e3343" stroke-linecap="round" stroke-linejoin="round" stroke-width="0.368"/>
		  <path id="Path_224" data-name="Path 224" d="M83.674,55.72c-1.121.4-2.2.812-3.126,1.2-1.8.77-2.307,3-2.878,1.43-.477-1.3.108-1.322.344-2.691s.171-1.378.4-2.749" transform="translate(4.421 -18.477)" fill="none" stroke="#2e3343" stroke-linecap="round" stroke-linejoin="round" stroke-width="0.368"/>
		  <path id="Path_225" data-name="Path 225" d="M73.336,54.462a.525.525,0,0,1,.051.012c.859.194,1.731.6,2.55.828,1.455.4,1.341.257,2.637.674" transform="translate(-2.003 -16.081)" fill="none" stroke="#2e3343" stroke-linecap="round" stroke-linejoin="round" stroke-width="0.368"/>
		  <path id="Path_226" data-name="Path 226" d="M75.36,63.354a.594.594,0,0,1-.07-.007c-1.423-.119-1.451-.1-2.922-.22-1.493-.126-1.472-.374-2.967-.5s-1.507-.014-3-.14" transform="translate(-12.731 -3.67)" fill="none" stroke="#2e3343" stroke-linecap="round" stroke-linejoin="round" stroke-width="0.368"/>
		  <path id="Path_227" data-name="Path 227" d="M73.421,76.418c.016-.007.035-.014.054-.023,5.419-2.457,12.227-3.109,18.117-2.8,1.565.166,2.679.433,2.859.969.33.98-.657,1.462-2.426,1.561-.894.051-2.012.049-3.273.037a29.958,29.958,0,0,0-6.523.009,25.607,25.607,0,0,0-6.287.9c-.054.014-.105.03-.161.044" transform="translate(-1.87 13.404)" fill="none" stroke="#2e3343" stroke-linecap="round" stroke-linejoin="round" stroke-width="0.368"/>
		  <path id="Path_228" data-name="Path 228" d="M94.038,77.262A98.181,98.181,0,0,0,81.3,75.577a27.884,27.884,0,0,0-6.17-.47c-.077,0-.152,0-.229.007" transform="translate(0.423 15.817)" fill="none" stroke="#2e3343" stroke-linecap="round" stroke-linejoin="round" stroke-width="0.368"/>
		  <path id="Path_229" data-name="Path 229" d="M65.316,70.159c-.044,1.923.208,4.151.349,6.275-.11,2.031-.168,4.172-.295,6.294-.452,2.241-.859,4.577-1.308,6.893" transform="translate(-16.346 8.196)" fill="none" stroke="#2e3343" stroke-linecap="round" stroke-linejoin="round" stroke-width="0.368"/>
		  <path id="Path_230" data-name="Path 230" d="M57.3,72.931c-.65-.835-1.139-1.565-1.628-2.11a6.056,6.056,0,0,1-1.526-2.008c-.009-.03-.019-.063-.026-.1-.243-1.055.232-4.113-.295-4.946-.835-1.074-1.107-.749-1.6-1.647-.526-.884-.966-1.165-1.308-1.074-1.069.285-1.146,4.251.365,4.918" transform="translate(-37.905 -5.917)" fill="none" stroke="#2e3343" stroke-linecap="round" stroke-linejoin="round" stroke-width="0.368"/>
		  <path id="Path_231" data-name="Path 231" d="M121.677,69.216c.066.033.129.07.2.105a9.659,9.659,0,0,1,2.171,1.811c.414.468,2.429,3.484,1.8,3.95-.845.342-2.571-2.078-3.648-3.067a2.141,2.141,0,0,0-.491-.363,39.813,39.813,0,0,1-4.586-2.333" transform="translate(65.723 6.738)" fill="none" stroke="#2e3343" stroke-linecap="round" stroke-linejoin="round" stroke-width="0.368"/>
		  <path id="Path_232" data-name="Path 232" d="M122.835,71.6c.508.943.51,5.412-.758,5.4-.936-.269-.714-3.861-1.233-4.223-.117-.1-.225-.192-.335-.29-1.308-1.168-2.244-2.415-3.982-2.936-.061-.016-.122-.035-.185-.051" transform="translate(64.514 7.18)" fill="none" stroke="#2e3343" stroke-linecap="round" stroke-linejoin="round" stroke-width="0.368"/>
		  <path id="Path_233" data-name="Path 233" d="M123.745,71.572c-.051,1.093-.943,3.226-1.668,2.967s-.136-2.712-.342-3.074c-.6-.428-1.385-1.483-2.307-1.277a20.386,20.386,0,0,1-5.147.379c-.03,0-.061-.009-.091-.012" transform="translate(61.184 8.199)" fill="none" stroke="#2e3343" stroke-linecap="round" stroke-linejoin="round" stroke-width="0.368"/>
		  <path id="Path_234" data-name="Path 234" d="M55.859,66.957a17.841,17.841,0,0,0-1.273-1.963c-.957-1.717-1.717-3.566-2.925-4.724-1.046-1.855-7.356-5.763-3.524-.232,2.082,2.508,1.94,2.576,2.854,5.276.11.33.239.7.388,1.118" transform="translate(-42.865 -11.859)" fill="none" stroke="#2e3343" stroke-linecap="round" stroke-linejoin="round" stroke-width="0.368"/>
		  <path id="Path_235" data-name="Path 235" d="M51.549,60.554c-.042-.021-.091-.037-.14-.056-.983-.358-3.29-.26-4.015.679a2.819,2.819,0,0,0-.473,1.168,14.933,14.933,0,0,0-.07,5.318c.18,1.125,1.331,3.664,1.872,3.437s.152-2.663.2-3.622c.019-.374.1-.99.187-1.642.136-1.018.3-2.132.3-2.6" transform="translate(-43.281 -7.042)" fill="none" stroke="#2e3343" stroke-linecap="round" stroke-linejoin="round" stroke-width="0.368"/>
		  <path id="Path_236" data-name="Path 236" d="M49.645,61.387a2.653,2.653,0,0,1-1.825.835" transform="translate(-41.466 -5.37)" fill="none" stroke="#2e3343" stroke-linecap="round" stroke-linejoin="round" stroke-width="0.368"/>
		  <path id="Path_237" data-name="Path 237" d="M48.172,61.106a4.2,4.2,0,0,0-2.007,2.122,8.2,8.2,0,0,0-.281,3.577,3.96,3.96,0,0,0,1.259,2.768c.643.7,1.437,1.345,2.146,2.085.241.494.5,1.036.779,1.614.267.557.543,1.142.826,1.741.936,1.991,1.921,4.113,2.67,5.707" transform="translate(-44.553 -5.805)" fill="none" stroke="#2e3343" stroke-linecap="round" stroke-linejoin="round" stroke-width="0.368"/>
		  <path id="Path_238" data-name="Path 238" d="M46.831,61.928c-2.737,1.872-1.359,5.379,1.083,6.373.087.037.178.07.269.1" transform="translate(-45.325 -4.533)" fill="none" stroke="#2e3343" stroke-linecap="round" stroke-linejoin="round" stroke-width="0.368"/>
		  <path id="Path_239" data-name="Path 239" d="M52.348,61.882c-3.2,1.65-4.249,5.73-3.786,9.057" transform="translate(-40.479 -4.604)" fill="none" stroke="#2e3343" stroke-linecap="round" stroke-linejoin="round" stroke-width="0.368"/>
		  <path id="Path_240" data-name="Path 240" d="M52.743,61.318c-1.259,1.292-3.264,2.763-5.112,2.95l-.03,0" transform="translate(-41.806 -5.476)" fill="none" stroke="#2e3343" stroke-linecap="round" stroke-linejoin="round" stroke-width="0.368"/>
		  <path id="Path_241" data-name="Path 241" d="M94.343,66.874c-.421-2.5-2.847-4.42-4.96-5.592a14.067,14.067,0,0,0-8.638-1.514,13.162,13.162,0,0,0-3.191,1.172c-2.431.873-4.836,2.6-5.283,5.257" transform="translate(-3.651 -8.056)" fill="none" stroke="#2e3343" stroke-linecap="round" stroke-linejoin="round" stroke-width="0.368"/>
		  <path id="Path_242" data-name="Path 242" d="M96.829,66.75c.7,4.111-3.1,6.507-5.941,8.655-4.462,2.213-10.061,3.011-14.539.5A13.188,13.188,0,0,1,72.7,72.84a7.32,7.32,0,0,1-.777-2.134c-.009-.047-.021-.089-.033-.131" transform="translate(-4.231 2.924)" fill="none" stroke="#2e3343" stroke-linecap="round" stroke-linejoin="round" stroke-width="0.368"/>
		  <path id="Path_243" data-name="Path 243" d="M127.738,79.979c-.54.084-1.09.15-1.65.211a71.729,71.729,0,0,1-11.984.049c-1.161-.08-2.272-.173-3.308-.269-.349-.033-.69-.068-1.018-.1-11.979-1.2-23.746-3.259-36.008-2.728A58.907,58.907,0,0,0,64.1,78.395" transform="translate(-16.281 18.863)" fill="none" stroke="#2e3343" stroke-linecap="round" stroke-linejoin="round" stroke-width="0.368"/>
		</g>
	  </g>
	</g>
  </svg>
  