<svg xmlns="http://www.w3.org/2000/svg"  viewBox="0 0 40 40" width="40px" height="40px"><path fill="#fff" d="M9.5,34.5V30c0-4.093,2.412-7.839,6.145-9.545L16.64,20l-0.995-0.455 C11.912,17.839,9.5,14.093,9.5,10V5.5h21V10c0,4.093-2.412,7.839-6.145,9.545L23.36,20l0.995,0.455 C28.088,22.161,30.5,25.907,30.5,30v4.5H9.5z"/><path fill="#4788c7" d="M30,6v4c0,3.897-2.297,7.465-5.853,9.091L22.158,20l1.989,0.909C27.703,22.535,30,26.103,30,30v4 H10v-4c0-3.897,2.297-7.465,5.853-9.091L17.842,20l-1.989-0.909C12.297,17.465,10,13.897,10,10V6H30 M31,5H9v5 c0,4.445,2.642,8.265,6.437,10C11.642,21.735,9,25.555,9,30v5h22v-5c0-4.445-2.642-8.265-6.437-10C28.358,18.265,31,14.445,31,10 V5L31,5z"/><path fill="#98ccfd" d="M9.5 6.5L9.5 4.5 6.5 4.5 6.5 1.5 33.5 1.5 33.5 4.5 30.5 4.5 30.5 6.5z"/><path fill="#4788c7" d="M33,2v2h-2h-1v1v1H10V5V4H9H7V2H33 M34,1H6v4h3v2h22V5h3V1L34,1z"/><path fill="#b6dcfe" d="M11,34h18c0-7.021-9-9-9-9S11,27.025,11,34z"/><path fill="#98ccfd" d="M6.5 38.5L6.5 35.5 9.5 35.5 9.5 33.5 30.5 33.5 30.5 35.5 33.5 35.5 33.5 38.5z"/><path fill="#4788c7" d="M30,34v1v1h1h2v2H7v-2h2h1v-1v-1H30 M31,33H9v2H6v4h28v-4h-3V33L31,33z"/><g><path fill="#b6dcfe" d="M11.947,14c1.474,2.961,4.522,5,8.053,5s6.58-2.039,8.053-5H11.947z"/></g></svg>