<svg xmlns="http://www.w3.org/2000/svg"  viewBox="0 0 40 40" width="40px" height="40px"><path fill="#dff0fe" d="M30.667,28.5c-4.29,0-8.288-3.862-10.29-6.164c-0.095-0.109-0.232-0.172-0.377-0.172 s-0.282,0.063-0.377,0.172c-2.002,2.302-6,6.164-10.29,6.164c-4.87,0-8.833-4.038-8.833-9s3.963-9,8.833-9 c3.908,0,7.754,3.417,10.293,6.283c0.095,0.107,0.23,0.168,0.374,0.168s0.279-0.062,0.374-0.168 c2.539-2.866,6.385-6.283,10.293-6.283c4.87,0,8.833,4.038,8.833,9S35.537,28.5,30.667,28.5z M30.667,13.571 c-2.814,0-6.108,3.074-8.376,5.653c-0.164,0.187-0.166,0.466-0.004,0.655c2.167,2.531,5.379,5.549,8.38,5.549 c3.217,0,5.833-2.66,5.833-5.929S33.884,13.571,30.667,13.571z M9.333,13.571c-3.217,0-5.833,2.66-5.833,5.929 s2.616,5.929,5.833,5.929c3.001,0,6.213-3.018,8.38-5.549c0.162-0.189,0.16-0.468-0.005-0.655 C15.44,16.646,12.146,13.571,9.333,13.571z"/><path fill="#4788c7" d="M30.667,11C35.262,11,39,14.813,39,19.5S35.262,28,30.667,28c-4.091,0-7.966-3.754-9.912-5.991 c-0.19-0.218-0.465-0.344-0.755-0.344s-0.565,0.125-0.755,0.344C17.3,24.246,13.424,28,9.333,28C4.738,28,1,24.187,1,19.5 S4.738,11,9.333,11c3.918,0,7.896,3.831,9.918,6.114c0.19,0.214,0.462,0.337,0.749,0.337s0.559-0.123,0.749-0.337 C22.771,14.831,26.749,11,30.667,11 M30.667,25.929c3.492,0,6.333-2.884,6.333-6.429c0-3.545-2.841-6.429-6.333-6.429 c-3.001,0-6.415,3.166-8.751,5.823c-0.329,0.374-0.332,0.932-0.009,1.311C24.142,22.816,27.476,25.929,30.667,25.929 M9.333,25.929 c3.191,0,6.525-3.113,8.76-5.724c0.324-0.378,0.32-0.937-0.009-1.311c-2.336-2.656-5.75-5.823-8.751-5.823 C5.841,13.071,3,15.955,3,19.5C3,23.045,5.841,25.929,9.333,25.929 M30.667,10c-3.891,0-7.8,3.215-10.667,6.451 C17.134,13.215,13.225,10,9.333,10C4.179,10,0,14.253,0,19.5C0,24.747,4.179,29,9.333,29c3.916,0,7.776-3.011,10.667-6.335 C22.891,25.989,26.751,29,30.667,29C35.821,29,40,24.747,40,19.5C40,14.253,35.821,10,30.667,10L30.667,10z M30.667,24.929 c-2.524,0-5.494-2.446-8-5.374c2.623-2.983,5.632-5.483,8-5.483c2.941,0,5.333,2.435,5.333,5.429S33.608,24.929,30.667,24.929 L30.667,24.929z M9.333,24.929C6.392,24.929,4,22.493,4,19.5s2.392-5.429,5.333-5.429c2.368,0,5.377,2.5,8,5.483 C14.827,22.482,11.857,24.929,9.333,24.929L9.333,24.929z"/><path fill="none" stroke="#4788c7" stroke-linecap="round" stroke-linejoin="round" stroke-miterlimit="10" d="M20.374 16.783L17.609 20M22.2 19.322L19.623 22.336"/></svg>