<?xml version="1.0" encoding="utf-8"?>
<!-- Generator: Adobe Illustrator 21.0.0, SVG Export Plug-In . SVG Version: 6.00 Build 0)  -->
<svg version="1.1" id="Layer_1" xmlns="http://www.w3.org/2000/svg" xmlns:xlink="http://www.w3.org/1999/xlink" x="0px" y="0px"
	 viewBox="0 0 500 300" style="enable-background:new 0 0 500 300;" xml:space="preserve">
<style type="text/css">
	.st0{fill:#EBEBEB;}
	.st1{opacity:0.1;fill:#2A9D8F;enable-background:new    ;}
	.st2{fill:#2A9D8F;}
	.st3{fill:#263238;}
	.st4{fill:#455A64;}
	.st5{fill:#FAFAFA;}
	.st6{fill:#FFBE9D;}
	.st7{fill:#B5DEFF;}
	.st8{fill:#C7C7C7;}
	.st9{fill:#DBDBDB;}
	.st10{fill:#FFFFFF;}
	.st11{fill:#A6A6A6;}
	.st12{fill:#FBFAFF;}
	.st13{opacity:0.2;enable-background:new    ;}
	.st14{opacity:0.5;enable-background:new    ;}
	.st15{opacity:0.4;enable-background:new    ;}
	.st16{opacity:0.3;}
	.st17{fill:#37474F;}
	.st18{opacity:0.5;fill:#FFFFFF;enable-background:new    ;}
	.st19{opacity:0.1;}
</style>
<path class="st0" d="M254.1,28.7h-29.3c0,0,6.6-9.5,11.7-9.5s6.7,6.3,6.7,6.3s3.7-2.9,7-2.4C253.6,23.5,254.1,28.7,254.1,28.7z"/>
<g id="freepik--Sun--inject-12">
	<circle class="st1" cx="447.9" cy="39.6" r="23"/>
	<circle class="st2" cx="447.9" cy="39.6" r="14.5"/>
</g>
<g id="freepik--Floor--inject-32">
	<path class="st3" d="M489.3,275.8c0,0.1-105.1,0.3-234.8,0.3S19.7,276,19.7,275.8s105.1-0.3,234.8-0.3S489.3,275.7,489.3,275.8z"/>
</g>
<g>
	<path class="st4" d="M80.9,173.9c0,0,12.6,0.3,13.6-6.1c1-6.5,1.6-14.4,1.6-14.4h2.8c0,0-0.8,13.8-1.8,16.8s-6.3,5.7-8.8,6.1
		c-2.5,0.3-9.2,0-9.2,0L80.9,173.9z"/>
	<path class="st4" d="M96.2,151.3l30.6-17.6c3.2,0.2,6,2.3,7.1,5.3c0.5,1.3,0.8,2.7,0.8,4.1c-0.1,2.8-2,5.2-4.7,6.1L99,159.5
		L96.2,151.3z"/>
	<path class="st4" d="M89.9,146l28.4-17.3c1.6-1,3.6-1,5.2,0c1.4,0.8,2.8,2.4,3.3,5.3c1.3,6.9-1.6,8.5-1.6,8.5L93,153.7L89.9,146z"
		/>
	<path class="st3" d="M99.6,154.4c0.8,2.3,0.5,4.5-0.6,5.1c-1.1,0.6-2.7-0.8-3.5-3.1s-0.5-4.5,0.6-5.1
		C97.3,150.7,98.8,152.1,99.6,154.4z"/>
	<path class="st3" d="M93.9,148.5c0.8,2.3,0.5,4.5-0.6,5.1c-1.1,0.6-2.7-0.8-3.5-3.1c-0.8-2.2-0.5-4.5,0.6-5.1
		C91.6,144.9,93.1,146.3,93.9,148.5z"/>
	<path class="st3" d="M129.6,149.3c-0.1,0,0.4-0.9,0.7-2.4c0.8-4-0.8-8.1-4.2-10.4c-1.2-0.9-2.2-1.2-2.1-1.3c0.2,0,0.4,0.1,0.6,0.2
		c0.6,0.2,1.1,0.5,1.7,0.8c3.6,2.3,5.3,6.6,4.3,10.7c-0.1,0.6-0.3,1.2-0.6,1.7C129.8,148.9,129.7,149.1,129.6,149.3z"/>
	<path class="st3" d="M116.8,130c0.4-0.3,0.9-0.4,1.4-0.3c1.2,0.1,2.3,0.6,3.2,1.4c0.8,0.8,1.5,1.8,2,2.9c0.2,0.4,0.4,0.9,0.5,1.3
		c-0.3-0.4-0.6-0.8-0.8-1.2c-0.5-1-1.2-1.9-2-2.7c-0.8-0.8-1.8-1.3-2.9-1.4C117.8,129.9,117.3,129.9,116.8,130z"/>
	<path class="st5" d="M120.8,138.7c-1.2,0.9-2.4,1.6-3.7,2.3c-1.2,0.8-2.5,1.4-3.9,2c1.1-0.9,2.4-1.6,3.7-2.3
		C118.1,139.9,119.4,139.2,120.8,138.7z"/>
	<path class="st5" d="M123.6,137c0.1,0.1-0.1,0.3-0.4,0.5c-0.3,0.2-0.6,0.2-0.6,0.1s0.1-0.3,0.4-0.5S123.6,136.9,123.6,137z"/>
	<path class="st5" d="M113.7,132.9c-1.3,0.9-2.7,1.6-4.1,2.4c-1.3,0.8-2.7,1.6-4.1,2.3c1.2-1,2.5-1.9,3.9-2.6
		C110.8,134.1,112.2,133.4,113.7,132.9z"/>
	<path class="st5" d="M116.5,130.9c0.1,0.1-0.2,0.4-0.6,0.6c-0.4,0.3-0.7,0.4-0.8,0.3s0.2-0.4,0.6-0.6
		C116.1,131,116.4,130.8,116.5,130.9z"/>
	<path class="st3" d="M126.7,133.7c-0.1,0.1-0.2,0.2-0.3,0.2l-0.8,0.6c-0.8,0.5-1.8,1.2-3.2,2c-2.7,1.7-6.5,3.9-10.7,6.3
		s-8,4.5-10.8,6l-3.3,1.8l-0.9,0.5c-0.1,0.1-0.2,0.1-0.3,0.1c0,0,0.1-0.1,0.3-0.2l0.9-0.5l3.2-1.9l10.7-6.2l10.7-6.2l3.2-1.9
		l0.9-0.5C126.6,133.7,126.7,133.7,126.7,133.7z"/>
	<path class="st6" d="M63.2,135.8l-2.3,45.8l19.6,1.8l1.1-11.1c0,0,6.9,1.7,9-4.7c1.3-4.1,2.5-36.1,2.5-36.1L63.2,135.8z"/>
	<path class="st3" d="M97.4,136.3c-1.7,4-8,7.4-8,7.4l-1,10.1c-0.9-0.1-1.9-0.1-2.8,0c0.5-4.8-5.6-3.8-6.2-0.6
		c-0.6,3.1,2.9,5.2,2.9,5.2c-2.5,3.8-3.4,5.7-6.9,9.3c-3.8,3.8-5.8,4.1-9.7,4l-4.3-0.2c0,0-1.5-3.7-2.6-12.3
		c-0.5-4.2-3.8-9.6-2.9-16.4c2.6-19.2,23.9-15.8,23.9-15.8C87.7,120.9,101.3,126.9,97.4,136.3z"/>
	<path class="st7" d="M93.2,218.3l3.7,4.7l13.2-19.4c-0.5-0.6-1-1.1-6.7-8.4c-5.9-7.6-11.6-15.4-21.1-17c-6.6-1.1-13.9-1.9-19.5-1.9
		c-4.6,0-9.4,2-13.6,5c-8.2,6.1-12.6,16-11.7,26.1l4.1,35.1l-3.5,33.1h56.7L93.2,218.3z"/>
	<path class="st5" d="M101.8,193.2c-0.1,0-0.1,0-0.2,0H101h-2.1c-0.9,0-2.1,0.1-3.4,0.2c-1.5,0.1-3,0.4-4.4,0.8
		c-0.8,0.2-1.6,0.6-2.4,1c-0.8,0.5-1.5,1.1-2.2,1.7c-1.4,1.6-2.6,3.2-3.8,4.9c-0.7,0.9-1.5,1.7-2.3,2.5c-0.9,0.8-2,1.4-3.2,1.8
		c-1.2,0.3-2.5,0.3-3.7,0c-1.2-0.3-2.4-0.7-3.6-1.1c-1.2-0.4-2.4-0.7-3.6-0.8c-1.2-0.1-2.4,0.1-3.5,0.5c-2.1,0.8-4.1,2.1-5.7,3.7
		c-1.6,1.5-3.1,3-4.6,4.2c-1.4,1.2-3,2.2-4.7,2.8c-1.5,0.4-3,0.4-4.5,0c-1.1-0.3-2.2-0.7-3.1-1.4c-0.6-0.4-1.1-0.9-1.5-1.5l-0.3-0.5
		c0-0.1-0.1-0.1-0.1-0.2c0.5,0.8,1.2,1.5,2,2c0.9,0.6,2,1.1,3.1,1.3c1.5,0.3,3,0.3,4.4-0.1c1.7-0.6,3.3-1.5,4.6-2.7
		c1.5-1.2,2.9-2.8,4.6-4.2c1.7-1.6,3.7-2.9,5.9-3.8c1.2-0.4,2.4-0.6,3.7-0.5c1.3,0.1,2.5,0.4,3.7,0.9c1.2,0.4,2.4,0.8,3.6,1.1
		c1.2,0.3,2.4,0.3,3.5,0c1.1-0.3,2.1-0.9,3-1.7c0.8-0.7,1.6-1.5,2.3-2.4c1.2-1.7,2.5-3.4,3.9-4.9c0.7-0.7,1.5-1.3,2.3-1.8
		c0.8-0.4,1.6-0.8,2.4-1c1.5-0.4,2.9-0.7,4.5-0.8c1.3-0.1,2.5-0.1,3.4-0.1c0.9,0,1.7,0,2.1,0.1h0.6
		C101.6,193.1,101.7,193.2,101.8,193.2z"/>
	<path class="st5" d="M107.5,200.6c-1.1,0-2.3,0.2-3.4,0.4c-1.3,0.3-2.6,0.8-3.8,1.4c-1.6,0.8-3,1.9-4.3,3.1
		c-1.5,1.5-2.7,3.4-3.4,5.4c-0.4,1.1-0.9,2.2-1.4,3.4c-0.5,1.2-1.3,2.3-2.2,3.2c-1,1-2.3,1.7-3.6,1.8c-1.4,0.1-2.9,0-4.2-0.3
		c-1.4-0.3-2.8-0.4-4.3-0.3c-1.4,0.3-2.7,1.1-3.6,2.3c-0.9,1.2-1.5,2.5-1.9,3.9c-0.4,1.4-0.7,2.8-1.1,4.2c-0.3,1.4-0.9,2.7-1.7,3.9
		c-0.8,1.1-1.8,2.1-2.9,2.8c-2.1,1.4-4.7,1.9-7.3,1.5c-2.4-0.4-4.3-1.6-6-2.5c-1.5-0.9-3.2-1.6-4.9-2c-1.3-0.3-2.7-0.3-4,0
		c-0.8,0.2-1.6,0.6-2.2,1.2c-0.4,0.4-0.6,0.7-0.6,0.7c0-0.1,0.1-0.1,0.1-0.2c0.1-0.2,0.3-0.4,0.4-0.5c0.6-0.6,1.4-1,2.2-1.2
		c1.3-0.3,2.7-0.3,4.1-0.1c1.8,0.4,3.4,1.1,5,2c1.8,0.9,3.7,2.1,6,2.4c2.4,0.4,4.9-0.2,7-1.5c1.1-0.7,2.1-1.7,2.8-2.8
		c0.7-1.2,1.3-2.5,1.6-3.8c0.4-1.4,0.7-2.8,1.1-4.2c0.4-1.5,1.1-2.9,2-4.1c0.9-1.3,2.3-2.1,3.8-2.4c1.5-0.2,3-0.1,4.4,0.3
		c1.3,0.3,2.7,0.4,4.1,0.4c1.3-0.2,2.5-0.8,3.4-1.7c1.9-1.8,2.7-4.3,3.6-6.4c0.4-1.1,0.9-2.1,1.5-3.1c0.5-0.9,1.2-1.7,2-2.5
		c2.3-2.2,5.1-3.8,8.2-4.5c0.5-0.1,1-0.2,1.5-0.3s0.8-0.1,1.1-0.1h0.7L107.5,200.6z"/>
	<path class="st5" d="M39.5,262.7c0-0.1,0-0.1,0-0.2c0-0.2,0.1-0.3,0.2-0.6c0.3-0.7,0.6-1.4,1-2c0.7-1,1.5-1.8,2.5-2.5
		c0.6-0.4,1.3-0.8,2-1c0.8-0.3,1.6-0.5,2.4-0.6c1.9-0.1,3.8,0,5.7,0.4c2,0.4,4.1,0.9,6.4,1.3c2.3,0.4,4.8,0.4,7.1,0
		c1.2-0.2,2.4-0.7,3.5-1.3c1.1-0.6,2.1-1.5,2.8-2.6c0.7-1.1,1.1-2.3,1.4-3.6c0.2-1.2,0.4-2.5,0.4-3.8c0.2-2.5,0.4-5,1.7-7.1
		c0.6-1,1.4-1.8,2.4-2.5c0.9-0.6,1.8-1.1,2.8-1.5c1.9-0.8,3.8-1.3,5.3-2.1c1.4-0.7,2.7-1.6,3.7-2.8c0.8-0.9,1.4-1.9,1.8-3
		c0.3-1,0.5-1.9,0.5-2.9c0,0.1,0,0.1,0,0.2v0.6c0,0.8-0.2,1.5-0.4,2.2c-0.4,1.1-1,2.2-1.7,3.1c-1.1,1.2-2.3,2.2-3.8,2.9
		c-1.5,0.8-3.4,1.3-5.3,2.1c-1,0.4-1.9,0.9-2.8,1.5c-0.9,0.6-1.7,1.4-2.2,2.4c-1.2,1.9-1.4,4.4-1.6,6.9c-0.1,1.3-0.2,2.6-0.4,3.8
		c-0.2,1.3-0.7,2.6-1.4,3.7c-0.7,1.1-1.7,2.1-2.9,2.8c-1.1,0.6-2.4,1.1-3.6,1.3c-2.4,0.4-4.9,0.4-7.3-0.1c-2.3-0.4-4.4-0.9-6.4-1.3
		c-1.8-0.4-3.7-0.6-5.6-0.5c-0.8,0.1-1.6,0.2-2.4,0.5c-1.8,0.6-3.4,1.8-4.5,3.4C40.3,260.9,39.8,261.8,39.5,262.7z"/>
	<path class="st3" d="M109.4,155.3l-2.9,1.2c0,0,0.5,2.7,0.9,8.7c0.2,2.8-0.8,5.6-2.9,7.6c-9.9,9.4-35.7,5.5-40.5,4.5
		c-4.3-0.9-2.7-3.5-2.7-3.5l0.1-1c-3.6,0.1-3.3,4.3-3.3,4.3c0.9,1,2.1,1.8,3.4,2.3c3.2,1.3,6.5,2.1,9.9,2.2
		c5.2,0.3,14.8,0.6,22.6-0.3c10.8-1.2,14.7-7.9,15.9-11c0.3-0.8,0.5-1.7,0.6-2.6C111,160.1,109.4,155.3,109.4,155.3z"/>
	<path class="st6" d="M124.5,206.5l-9.2-41l3.6-12.8l-0.2,0.1c0-1,0-5.3-0.2-5.6c-0.1-0.5-0.6-0.8-1.1-0.7c-0.3,0.1-0.6,0.3-0.7,0.7
		c-0.1,0.4-0.1,0.8-0.1,1.1c0.1,1.7,0,3.4,0,5.1l-0.1,0c-0.1-1.2-0.3-4.3-0.4-6.3c0-0.5,0-0.9-0.2-1.3c-0.1-0.4-0.5-0.7-1-0.8
		c-0.4,0.1-0.8,0.4-0.9,0.8c-0.1,0.4-0.1,0.9,0,1.3c0.1,2,0.3,4.5,0.2,6.5c-0.5-2.3-0.8-4.6-1.1-7c0-0.5-0.1-0.9-0.3-1.3
		c-0.2-0.4-0.6-0.7-1-0.7c-0.4,0.1-0.8,0.4-0.8,0.9c-0.1,0.4-0.1,0.9-0.1,1.3c0.2,2.7,0.4,5.5,0.6,8.2h-0.1
		c-0.4-2.4-0.9-4.9-1.6-7.2c-0.1-0.3-0.2-0.6-0.4-0.8c-0.2-0.2-0.5-0.4-0.8-0.3c-0.3,0.1-0.5,0.3-0.6,0.6c-0.1,0.3-0.1,0.6,0,0.9
		c0.3,2.6,0.5,5.2,0.6,7.8l0,0l-1.7,4.3c-0.3-0.4-1.2-1.8-1.2-1.8l0.4-1.5c0.3-2.5-0.2-3.4-0.4-3.8c-0.2-0.3-2.2,5-2.6,5.6
		c-0.4,0.6,2,6,1.9,6.3l1.1,12.2l4.8,29.6l-2-2.5l-9.9,14.6l4,3.7c4.2,4.3,10.5,5.3,16,1.6l0,0C126.3,219.9,125.8,212.9,124.5,206.5
		z"/>
	<path class="st3" d="M86.8,255.8c-0.1-0.6-0.2-1.3-0.1-1.9c0-1.3-0.1-3.1-0.1-5.2c-0.1-4.4-0.3-10.5-0.6-17.2s-0.8-12.8-1.1-17.1
		c-0.2-2.2-0.3-3.9-0.4-5.2c-0.1-0.6-0.1-1.3,0-1.9c0.2,0.6,0.3,1.2,0.4,1.9c0.2,1.2,0.4,3,0.6,5.2c0.5,4.4,1,10.4,1.3,17.2
		c0.3,6.7,0.4,12.8,0.3,17.2c0,2.2-0.1,4-0.1,5.2C87,254.5,86.9,255.2,86.8,255.8z"/>
	<path class="st3" d="M87,266.6c-0.2,0-0.6-1.5-0.8-3.4c-0.2-1.9-0.2-3.5,0-3.5c0.2,0,0.6,1.5,0.8,3.4S87.2,266.6,87,266.6z"/>
	<path class="st3" d="M83.3,181.4c-0.7,0.1-1.3,0.3-2,0.5c-1.7,0.7-3.1,2-4,3.6c-0.6,1.1-1,2.3-1.2,3.5c-0.1,1.4,0,2.9,0.3,4.3
		c0.4,1.6,0.9,3.1,1.7,4.5c0.4,0.8,0.8,1.5,1.2,2.3c0.2,0.4,0.5,0.8,0.7,1.1s0.5,0.7,0.8,1c4.6,5.6,8.7,10.7,11.6,14.5
		c1.4,1.9,2.6,3.4,3.3,4.5c0.4,0.5,0.8,1.1,1.1,1.8c-0.5-0.5-0.9-1-1.3-1.6c-0.8-1-2-2.5-3.5-4.4l-11.8-14.4
		c-0.3-0.4-0.6-0.7-0.8-1.1c-0.3-0.4-0.5-0.8-0.7-1.2c-0.5-0.8-0.9-1.5-1.2-2.3c-0.7-1.5-1.3-3.1-1.7-4.7c-0.3-1.5-0.4-3-0.2-4.5
		c0.2-1.3,0.7-2.6,1.4-3.7c0.6-0.9,1.3-1.8,2.2-2.5c0.7-0.5,1.4-0.9,2.2-1.1c0.3-0.1,0.6-0.2,0.9-0.2c0.2,0,0.4-0.1,0.7,0
		C83.1,181.4,83.3,181.4,83.3,181.4z"/>
</g>
<rect x="209" y="64.7" class="st0" width="55.5" height="210.5"/>
<rect x="209" y="50.8" class="st8" width="47.6" height="14"/>
<rect x="215.1" y="72" class="st9" width="43.3" height="157.4"/>
<rect x="215.1" y="87" class="st10" width="43.3" height="3.7"/>
<rect x="215.1" y="102.4" class="st10" width="43.3" height="3.7"/>
<rect x="215.1" y="117.8" class="st10" width="43.3" height="3.7"/>
<rect x="215.1" y="133.2" class="st10" width="43.3" height="3.7"/>
<rect x="215.1" y="148.6" class="st10" width="43.3" height="3.7"/>
<rect x="215.1" y="164" class="st10" width="43.3" height="3.7"/>
<rect x="215.1" y="179.4" class="st10" width="43.3" height="3.7"/>
<rect x="215.1" y="194.8" class="st10" width="43.3" height="3.7"/>
<rect x="215.1" y="210.2" class="st10" width="43.3" height="3.7"/>
<rect x="215.1" y="225.6" class="st10" width="43.3" height="3.7"/>
<rect x="174.3" y="64.7" class="st9" width="34.8" height="210.5"/>
<rect x="179.5" y="50.8" class="st11" width="29.6" height="14"/>
<rect x="177.5" y="72" class="st8" width="26.7" height="157.4"/>
<rect x="177.5" y="87" class="st10" width="26.7" height="3.7"/>
<rect x="177.5" y="102.4" class="st10" width="26.7" height="3.7"/>
<rect x="177.5" y="117.8" class="st10" width="26.7" height="3.7"/>
<rect x="177.5" y="133.2" class="st10" width="26.7" height="3.7"/>
<rect x="177.5" y="148.6" class="st10" width="26.7" height="3.7"/>
<rect x="177.5" y="164" class="st10" width="26.7" height="3.7"/>
<rect x="177.5" y="179.4" class="st10" width="26.7" height="3.7"/>
<rect x="177.5" y="194.8" class="st10" width="26.7" height="3.7"/>
<rect x="177.5" y="210.2" class="st10" width="26.7" height="3.7"/>
<rect x="177.5" y="225.6" class="st10" width="26.7" height="3.7"/>
<rect x="175.1" y="230" class="st10" width="13.2" height="5.4"/>
<rect x="175.1" y="239.1" class="st10" width="13.2" height="5.4"/>
<rect x="175.1" y="248.3" class="st10" width="13.2" height="5.4"/>
<rect x="286" y="155" class="st8" width="59.9" height="120.2"/>
<rect x="325.9" y="165.4" class="st9" width="10.6" height="7.4"/>
<rect x="325.9" y="181.1" class="st9" width="10.6" height="7.4"/>
<rect x="325.9" y="196.9" class="st9" width="10.6" height="7.4"/>
<rect x="325.9" y="212.6" class="st9" width="10.6" height="7.4"/>
<rect x="325.9" y="228.3" class="st9" width="10.6" height="7.4"/>
<rect x="325.9" y="244.1" class="st9" width="10.6" height="7.4"/>
<rect x="325.9" y="259.8" class="st9" width="10.6" height="7.4"/>
<rect x="310.7" y="165.4" class="st9" width="10.6" height="7.4"/>
<rect x="310.7" y="181.1" class="st9" width="10.6" height="7.4"/>
<rect x="310.7" y="196.9" class="st9" width="10.6" height="7.4"/>
<rect x="310.7" y="212.6" class="st9" width="10.6" height="7.4"/>
<rect x="310.7" y="228.3" class="st9" width="10.6" height="7.4"/>
<rect x="310.7" y="244.1" class="st9" width="10.6" height="7.4"/>
<rect x="310.7" y="259.8" class="st9" width="10.6" height="7.4"/>
<rect x="295.4" y="165.4" class="st9" width="10.6" height="7.4"/>
<rect x="295.4" y="181.1" class="st9" width="10.6" height="7.4"/>
<rect x="295.4" y="196.9" class="st9" width="10.6" height="7.4"/>
<rect x="295.4" y="212.6" class="st9" width="10.6" height="7.4"/>
<rect x="295.4" y="228.3" class="st9" width="10.6" height="7.4"/>
<rect x="295.4" y="244.1" class="st9" width="10.6" height="7.4"/>
<rect x="295.4" y="259.8" class="st9" width="10.6" height="7.4"/>
<rect x="286" y="142.5" class="st9" width="39.9" height="12.5"/>
<rect x="286" y="134.7" class="st0" width="25.3" height="7.8"/>
<rect x="244" y="155" class="st11" width="42" height="120.2"/>
<rect x="248.3" y="258.6" class="st8" width="8.6" height="7.4"/>
<rect x="248.3" y="242.9" class="st8" width="8.6" height="7.4"/>
<rect x="248.3" y="227.2" class="st8" width="8.6" height="7.4"/>
<rect x="248.3" y="211.4" class="st8" width="8.6" height="7.4"/>
<rect x="248.3" y="195.7" class="st8" width="8.6" height="7.4"/>
<rect x="248.3" y="180" class="st8" width="8.6" height="7.4"/>
<rect x="248.3" y="164.2" class="st8" width="8.6" height="7.4"/>
<rect x="260.7" y="258.6" class="st8" width="8.6" height="7.4"/>
<rect x="260.7" y="242.9" class="st8" width="8.6" height="7.4"/>
<rect x="260.7" y="227.2" class="st8" width="8.6" height="7.4"/>
<rect x="260.7" y="211.4" class="st8" width="8.6" height="7.4"/>
<rect x="260.7" y="195.7" class="st8" width="8.6" height="7.4"/>
<rect x="260.7" y="180" class="st8" width="8.6" height="7.4"/>
<rect x="260.7" y="164.2" class="st8" width="8.6" height="7.4"/>
<rect x="273.1" y="258.6" class="st8" width="8.6" height="7.4"/>
<rect x="273.1" y="242.9" class="st8" width="8.6" height="7.4"/>
<rect x="273.1" y="227.2" class="st8" width="8.6" height="7.4"/>
<rect x="273.1" y="211.4" class="st8" width="8.6" height="7.4"/>
<rect x="273.1" y="195.7" class="st8" width="8.6" height="7.4"/>
<rect x="273.1" y="180" class="st8" width="8.6" height="7.4"/>
<rect x="273.1" y="164.2" class="st8" width="8.6" height="7.4"/>
<rect x="250.4" y="142.5" class="st8" width="35.6" height="12.5"/>
<rect x="266.7" y="134.7" class="st9" width="19.3" height="7.8"/>
<rect x="231.8" y="231.1" class="st12" width="9.7" height="16.4"/>
<rect x="233" y="232.3" class="st0" width="3.1" height="5.3"/>
<rect x="237.2" y="232.3" class="st0" width="3.1" height="5.3"/>
<rect x="233" y="238.5" class="st0" width="3.1" height="7.8"/>
<rect x="237.2" y="238.5" class="st0" width="3.1" height="7.8"/>
<rect x="269.1" y="238.5" class="st0" width="3.1" height="7.8"/>
<rect x="231.8" y="253.9" class="st12" width="9.7" height="16.4"/>
<rect x="233" y="255.1" class="st0" width="3.1" height="5.3"/>
<rect x="237.2" y="255.1" class="st0" width="3.1" height="5.3"/>
<rect x="233" y="261.3" class="st0" width="3.1" height="7.8"/>
<rect x="237.2" y="261.3" class="st0" width="3.1" height="7.8"/>
<rect x="249.8" y="231.1" class="st12" width="9.7" height="16.4"/>
<rect x="251" y="232.3" class="st0" width="3.1" height="5.3"/>
<rect x="255.2" y="232.3" class="st0" width="3.1" height="5.3"/>
<rect x="251" y="238.5" class="st0" width="3.1" height="7.8"/>
<rect x="255.2" y="238.5" class="st0" width="3.1" height="7.8"/>
<rect x="249.8" y="254" class="st12" width="9.7" height="16.4"/>
<rect x="251" y="255.2" class="st0" width="3.1" height="5.3"/>
<rect x="255.2" y="255.2" class="st0" width="3.1" height="5.3"/>
<rect x="251" y="261.4" class="st0" width="3.1" height="7.8"/>
<rect x="255.2" y="261.4" class="st0" width="3.1" height="7.8"/>
<rect x="196.3" y="203.7" class="st2" width="7.8" height="10.3"/>
<rect x="196.3" y="203.7" class="st13" width="7.8" height="10.3"/>
<rect x="204" y="203.7" class="st2" width="6.1" height="10.3"/>
<rect x="195.4" y="200.2" class="st2" width="8.7" height="3.5"/>
<rect x="195.4" y="200.2" class="st14" width="8.7" height="3.5"/>
<rect x="204" y="200.2" class="st2" width="6.8" height="3.5"/>
<rect x="204" y="200.2" class="st15" width="6.8" height="3.5"/>
<polygon class="st2" points="231.4,275.5 170.4,275.5 167.7,245.9 231.4,245.9 "/>
<polygon class="st13" points="231.4,275.5 170.4,275.5 167.7,245.9 231.4,245.9 "/>
<polygon class="st2" points="231.4,245.9 253.4,218.4 270.8,245.9 268.1,275.5 231.4,275.5 "/>
<polygon class="st2" points="253.1,220.2 271.1,248 277.4,248 253.6,209.7 188.7,209.7 155.8,251.2 235.1,251.2 "/>
<polygon class="st14" points="253.1,220.2 271.1,248 277.4,248 253.6,209.7 188.7,209.7 155.8,251.2 235.1,251.2 "/>
<rect x="247.7" y="236.2" class="st12" width="9.7" height="13.8"/>
<rect x="253" y="237.4" class="st2" width="3.1" height="5.3"/>
<rect x="248.9" y="237.4" class="st2" width="3.1" height="5.3"/>
<rect x="253" y="243.6" class="st2" width="3.1" height="5.3"/>
<rect x="248.9" y="243.6" class="st2" width="3.1" height="5.3"/>
<rect x="177" y="256.9" class="st12" width="9.7" height="13.8"/>
<rect x="178.2" y="258" class="st2" width="3.1" height="5.3"/>
<rect x="182.4" y="258" class="st2" width="3.1" height="5.3"/>
<rect x="178.2" y="264.2" class="st2" width="3.1" height="5.3"/>
<rect x="182.4" y="264.2" class="st2" width="3.1" height="5.3"/>
<rect x="194.7" y="256.9" class="st12" width="9.7" height="13.8"/>
<rect x="195.9" y="258" class="st2" width="3.1" height="5.3"/>
<rect x="200.1" y="258" class="st2" width="3.1" height="5.3"/>
<rect x="195.9" y="264.2" class="st2" width="3.1" height="5.3"/>
<rect x="200.1" y="264.2" class="st2" width="3.1" height="5.3"/>
<rect x="212.5" y="256.9" class="st12" width="9.7" height="13.8"/>
<rect x="213.7" y="258" class="st2" width="3.1" height="5.3"/>
<rect x="217.8" y="258" class="st2" width="3.1" height="5.3"/>
<rect x="213.7" y="264.2" class="st2" width="3.1" height="5.3"/>
<rect x="217.8" y="264.2" class="st2" width="3.1" height="5.3"/>
<rect x="247.2" y="256.1" class="st12" width="10.6" height="19.3"/>
<rect x="251.3" y="257.5" class="st2" width="2.3" height="2.9"/>
<rect x="248.3" y="257.5" class="st2" width="2.3" height="2.9"/>
<rect x="254.3" y="257.5" class="st2" width="2.3" height="2.9"/>
<rect x="251.3" y="261.1" class="st2" width="2.3" height="2.9"/>
<rect x="248.3" y="261.1" class="st2" width="2.3" height="2.9"/>
<rect x="254.3" y="261.1" class="st2" width="2.3" height="2.9"/>
<rect x="251.3" y="264.8" class="st2" width="2.3" height="2.9"/>
<rect x="248.3" y="264.8" class="st2" width="2.3" height="2.9"/>
<rect x="254.3" y="264.8" class="st2" width="2.3" height="2.9"/>
<path class="st2" d="M213.8,219.7h-14l-7.2,9h15.9L213.8,219.7z"/>
<path class="st15" d="M213.8,219.7h-14l-7.2,9h15.9L213.8,219.7z"/>
<polygon class="st2" points="203.2,227.1 203.2,238 195.4,238 195.4,227.1 199.3,222.2 "/>
<polygon class="st13" points="203.2,227.1 203.2,238 195.4,238 195.4,227.1 199.3,222.2 "/>
<polygon class="st2" points="203.2,227.1 209.4,227.1 203.2,238 "/>
<rect x="196.9" y="227.2" class="st12" width="4.4" height="7.5"/>
<rect x="197.5" y="227.8" class="st2" width="1.4" height="2.4"/>
<rect x="199.4" y="227.8" class="st2" width="1.4" height="2.4"/>
<rect x="197.5" y="230.6" class="st2" width="1.4" height="3.6"/>
<rect x="199.4" y="230.6" class="st2" width="1.4" height="3.6"/>
<rect x="402.3" y="197" class="st2" width="57.8" height="78.9"/>
<polygon class="st2" points="338.7,275.9 402.3,275.9 402.3,197 338.7,173.3 338.7,199.5 "/>
<g class="st16">
	<polygon class="st10" points="338.7,275.9 402.3,275.9 402.3,197 338.7,173.3 338.7,199.5 	"/>
</g>
<polygon class="st4" points="396.4,170.5 335.4,170.5 405.3,196.5 466.3,196.5 "/>
<rect x="405.3" y="196.5" class="st3" width="61" height="1.6"/>
<polygon class="st17" points="405.3,198.1 335.4,172.1 335.4,170.5 405.3,196.5 "/>
<rect x="402.3" y="203.4" class="st4" width="53" height="15.5"/>
<rect x="452.9" y="203.4" class="st3" width="2.4" height="15.5"/>
<rect x="412" y="203.4" class="st2" width="1.1" height="15.5"/>
<rect x="422.9" y="203.4" class="st2" width="1.1" height="15.5"/>
<rect x="433.7" y="203.4" class="st2" width="1.1" height="15.5"/>
<rect x="444.5" y="203.4" class="st2" width="1.1" height="15.5"/>
<polygon class="st4" points="391.6,230.4 338.7,230.4 338.7,184.3 391.6,203.4 "/>
<polygon class="st2" points="349.5,188.2 349.5,230.4 348.4,230.4 348.4,187.8 "/>
<rect x="338.7" y="218.9" class="st2" width="53" height="1.1"/>
<polygon class="st2" points="360.3,192.1 360.3,230.4 359.2,230.4 359.2,191.7 "/>
<polygon class="st2" points="371.1,196 371.1,230.4 370,230.4 370,195.6 "/>
<polygon class="st2" points="381.9,199.9 381.9,230.4 380.9,230.4 380.9,199.5 "/>
<rect x="328.6" y="230.4" class="st2" width="70.5" height="45.5"/>
<rect x="328.6" y="230.4" class="st18" width="66" height="45.5"/>
<rect x="373.4" y="243.6" class="st10" width="14.2" height="32.3"/>
<rect x="384.1" y="261.1" class="st9" width="2.6" height="0.7"/>
<rect x="375.2" y="245.3" class="st17" width="10.5" height="15.1"/>
<rect x="375.1" y="262.3" class="st17" width="10.5" height="11.7"/>
<g class="st19">
	<polygon class="st10" points="385.7,245.9 385.7,251.3 376.7,260.4 375.2,260.4 375.2,256.5 	"/>
	<polygon class="st10" points="385.4,262.3 375,272.7 375,270 382.8,262.3 	"/>
	<polygon class="st10" points="385.7,259.3 385.7,260.4 384.7,260.4 	"/>
	<polygon class="st10" points="381.4,245.3 375.2,251.5 375.2,248.8 378.7,245.3 	"/>
	<polygon class="st10" points="385.6,264.3 385.6,264.9 376.5,274 375.8,274 	"/>
</g>
<rect x="371.4" y="243.6" class="st2" width="2" height="32.3"/>
<rect x="333.8" y="243.6" class="st4" width="9.7" height="15.5"/>
<rect x="333.8" y="243.6" class="st3" width="2.4" height="15.5"/>
<rect x="345.3" y="243.6" class="st4" width="9.7" height="15.5"/>
<rect x="345.3" y="243.6" class="st3" width="2.4" height="15.5"/>
<rect x="356.7" y="243.6" class="st4" width="9.7" height="15.5"/>
<rect x="356.7" y="243.6" class="st3" width="2.4" height="15.5"/>
<g id="freepik--Bike--inject-8_1_">
	<path class="st4" d="M309.3,276.1c-4.7,0-8.6-3.8-8.6-8.6c0-4.7,3.8-8.6,8.6-8.6s8.6,3.8,8.6,8.6
		C317.8,272.3,314,276.1,309.3,276.1z M309.3,259.7c-4.3,0-7.8,3.5-7.8,7.8c0,4.3,3.5,7.8,7.8,7.8c4.3,0,7.8-3.5,7.8-7.8
		c0,0,0,0,0,0C317.1,263.2,313.6,259.8,309.3,259.7L309.3,259.7z"/>
	<polygon class="st2" points="296.6,268.8 308.9,267.5 309,268.5 296.6,269.8 	"/>
	<path class="st4" d="M284.3,276.1c-4.7,0-8.6-3.8-8.6-8.6s3.8-8.6,8.6-8.6c4.7,0,8.6,3.8,8.6,8.6
		C292.9,272.3,289,276.1,284.3,276.1z M284.3,259.7c-4.3,0-7.8,3.5-7.8,7.8s3.5,7.8,7.8,7.8s7.8-3.5,7.8-7.8c0,0,0,0,0,0
		C292.1,263.2,288.6,259.8,284.3,259.7L284.3,259.7z"/>
	<polygon class="st2" points="303.4,255 302.7,253 303.3,252.2 306.4,251.3 306.6,251.8 303.8,252.6 303.5,253.4 304,254.8 	"/>
	<polygon class="st2" points="308.6,267.1 304.5,257.6 296.1,268 295.4,267.2 304.1,257 303.8,256.4 291.4,259 291.1,258.1 
		303.5,255.7 303.3,254.9 304.1,254.6 309.3,266.6 	"/>
	<polygon class="st2" points="284.7,268 292.4,269.2 292.5,268.4 284.9,267.2 	"/>
	<polygon class="st2" points="284.3,267 290.1,259.2 291.1,259.7 285,267.5 	"/>
	<circle class="st2" cx="294.4" cy="269.2" r="2.4"/>
	<polygon class="st2" points="291.1,258.1 290.6,256.1 289.4,256.1 290.1,259.2 291.1,259.7 291.4,259 	"/>
	<path class="st2" d="M287.8,256.1c0.1,0.3,0.5,1.5,1.1,1.5c1.8-0.2,3.5-0.4,5.2-0.7c0.4-0.1,0.6-0.7-0.3-0.7
		C292.5,256.1,287.6,255.5,287.8,256.1z"/>
	<path class="st2" d="M285.3,267.6c0,0.6-0.5,1-1,1s-1-0.5-1-1c0-0.6,0.5-1,1-1C284.9,266.5,285.3,267,285.3,267.6L285.3,267.6z"/>
	<path class="st2" d="M310.3,267.6c0,0.6-0.5,1-1,1c-0.6,0-1-0.5-1-1c0-0.6,0.5-1,1-1C309.8,266.5,310.3,267,310.3,267.6
		C310.3,267.6,310.3,267.6,310.3,267.6z"/>
	<polygon class="st14" points="303.4,255 302.7,253 303.3,252.2 306.4,251.3 306.6,251.8 303.8,252.6 303.5,253.4 304,254.8 	"/>
	<circle class="st14" cx="294.4" cy="269.2" r="2.4"/>
	<path class="st14" d="M287.8,256.1c0.1,0.3,0.5,1.5,1.1,1.5c1.8-0.2,3.5-0.4,5.2-0.7c0.4-0.1,0.6-0.7-0.3-0.7
		C292.5,256.1,287.6,255.5,287.8,256.1z"/>
	<path class="st14" d="M285.3,267.6c0,0.6-0.5,1-1,1s-1-0.5-1-1c0-0.6,0.5-1,1-1C284.9,266.5,285.3,267,285.3,267.6L285.3,267.6z"/>
	<path class="st14" d="M310.3,267.6c0,0.6-0.5,1-1,1c-0.6,0-1-0.5-1-1c0-0.6,0.5-1,1-1C309.8,266.5,310.3,267,310.3,267.6
		C310.3,267.6,310.3,267.6,310.3,267.6z"/>
	<polygon class="st2" points="294.1,269.8 294.1,273.1 292.5,273.1 292.5,273.9 295.1,273.9 295.1,269.8 	"/>
</g>
</svg>
